G04 #@! TF.FileFunction,Legend,Bot*
%FSLAX46Y46*%
G04 Gerber Fmt 4.6, Leading zero omitted, Abs format (unit mm)*
G04 Created by KiCad (PCBNEW 0.201508140901+6091~28~ubuntu14.04.1-product) date Thu 05 Nov 2015 06:04:02 AM PST*
%MOMM*%
G01*
G04 APERTURE LIST*
%ADD10C,0.076200*%
%ADD11C,0.127000*%
%ADD12C,0.010000*%
G04 APERTURE END LIST*
D10*
D11*
X157758714Y-127181000D02*
X157686143Y-127217286D01*
X157577286Y-127217286D01*
X157468429Y-127181000D01*
X157395857Y-127108429D01*
X157359572Y-127035857D01*
X157323286Y-126890714D01*
X157323286Y-126781857D01*
X157359572Y-126636714D01*
X157395857Y-126564143D01*
X157468429Y-126491571D01*
X157577286Y-126455286D01*
X157649857Y-126455286D01*
X157758714Y-126491571D01*
X157795000Y-126527857D01*
X157795000Y-126781857D01*
X157649857Y-126781857D01*
X158847285Y-127217286D02*
X158992428Y-127217286D01*
X159065000Y-127181000D01*
X159137571Y-127108429D01*
X159173857Y-126963286D01*
X159173857Y-126709286D01*
X159137571Y-126564143D01*
X159065000Y-126491571D01*
X158992428Y-126455286D01*
X158847285Y-126455286D01*
X158774714Y-126491571D01*
X158702143Y-126564143D01*
X158665857Y-126709286D01*
X158665857Y-126963286D01*
X158702143Y-127108429D01*
X158774714Y-127181000D01*
X158847285Y-127217286D01*
X159500429Y-127217286D02*
X159500429Y-126600429D01*
X159536714Y-126527857D01*
X159573000Y-126491571D01*
X159645571Y-126455286D01*
X159790714Y-126455286D01*
X159863286Y-126491571D01*
X159899571Y-126527857D01*
X159935857Y-126600429D01*
X159935857Y-127217286D01*
X160189857Y-127217286D02*
X160625286Y-127217286D01*
X160407572Y-126455286D02*
X160407572Y-127217286D01*
X161459857Y-126745571D02*
X162040428Y-126745571D01*
X161750142Y-126455286D02*
X161750142Y-127035857D01*
X158166714Y-89981000D02*
X158094143Y-90017286D01*
X157985286Y-90017286D01*
X157876429Y-89981000D01*
X157803857Y-89908429D01*
X157767572Y-89835857D01*
X157731286Y-89690714D01*
X157731286Y-89581857D01*
X157767572Y-89436714D01*
X157803857Y-89364143D01*
X157876429Y-89291571D01*
X157985286Y-89255286D01*
X158057857Y-89255286D01*
X158166714Y-89291571D01*
X158203000Y-89327857D01*
X158203000Y-89581857D01*
X158057857Y-89581857D01*
X159110143Y-89255286D02*
X159110143Y-90017286D01*
X159473000Y-89255286D02*
X159473000Y-90017286D01*
X159908428Y-89255286D01*
X159908428Y-90017286D01*
X160851857Y-89545571D02*
X161432428Y-89545571D01*
X161142142Y-89255286D02*
X161142142Y-89835857D01*
D12*
G36*
X149030142Y-98993449D02*
X149087512Y-99189215D01*
X149180527Y-99366282D01*
X149306801Y-99521595D01*
X149463947Y-99652098D01*
X149649580Y-99754738D01*
X149817667Y-99814926D01*
X149858673Y-99825381D01*
X149903148Y-99833800D01*
X149955995Y-99840399D01*
X150022119Y-99845391D01*
X150106423Y-99848991D01*
X150213811Y-99851412D01*
X150349187Y-99852870D01*
X150517454Y-99853577D01*
X150706667Y-99853750D01*
X150915570Y-99853629D01*
X151086533Y-99852857D01*
X151223951Y-99850823D01*
X151332217Y-99846914D01*
X151415726Y-99840519D01*
X151478871Y-99831027D01*
X151526047Y-99817824D01*
X151561647Y-99800300D01*
X151590064Y-99777842D01*
X151615694Y-99749838D01*
X151636131Y-99724319D01*
X151669543Y-99652604D01*
X151681178Y-99560921D01*
X151670896Y-99465691D01*
X151639054Y-99384143D01*
X151597904Y-99331364D01*
X151552908Y-99293387D01*
X151549174Y-99291317D01*
X151511029Y-99271053D01*
X151495627Y-99262246D01*
X151499871Y-99242264D01*
X151515806Y-99194410D01*
X151533522Y-99146224D01*
X151582103Y-98960543D01*
X151592306Y-98767208D01*
X151565670Y-98572660D01*
X151503734Y-98383340D01*
X151408038Y-98205691D01*
X151280122Y-98046153D01*
X151267584Y-98033405D01*
X151128230Y-97914300D01*
X150973814Y-97822893D01*
X150799281Y-97757471D01*
X150599579Y-97716323D01*
X150403848Y-97700500D01*
X150403848Y-98323669D01*
X150583035Y-98346307D01*
X150730132Y-98392172D01*
X150843840Y-98460825D01*
X150922859Y-98551825D01*
X150935924Y-98575735D01*
X150963465Y-98656631D01*
X150979251Y-98754989D01*
X150982427Y-98855124D01*
X150972138Y-98941352D01*
X150958081Y-98982017D01*
X150898204Y-99071063D01*
X150818782Y-99138342D01*
X150715151Y-99185715D01*
X150582645Y-99215043D01*
X150416601Y-99228189D01*
X150338345Y-99229334D01*
X150157827Y-99225376D01*
X150013270Y-99212178D01*
X149898930Y-99187750D01*
X149809061Y-99150106D01*
X149737918Y-99097256D01*
X149679755Y-99027213D01*
X149659025Y-98994256D01*
X149626730Y-98905159D01*
X149616531Y-98796504D01*
X149628266Y-98684739D01*
X149661770Y-98586315D01*
X149663105Y-98583750D01*
X149723444Y-98491767D01*
X149798420Y-98423121D01*
X149894465Y-98374675D01*
X150018009Y-98343291D01*
X150175480Y-98325829D01*
X150193868Y-98324697D01*
X150403848Y-98323669D01*
X150403848Y-97700500D01*
X150369655Y-97697735D01*
X150272750Y-97696231D01*
X150149628Y-97696946D01*
X150057703Y-97700067D01*
X149985852Y-97707001D01*
X149922951Y-97719152D01*
X149857875Y-97737926D01*
X149807084Y-97755061D01*
X149653035Y-97815136D01*
X149527253Y-97880607D01*
X149415761Y-97959623D01*
X149336726Y-98029251D01*
X149197005Y-98186034D01*
X149097075Y-98355977D01*
X149035621Y-98542115D01*
X149011330Y-98747484D01*
X149010804Y-98782040D01*
X149030142Y-98993449D01*
X149030142Y-98993449D01*
G37*
X149030142Y-98993449D02*
X149087512Y-99189215D01*
X149180527Y-99366282D01*
X149306801Y-99521595D01*
X149463947Y-99652098D01*
X149649580Y-99754738D01*
X149817667Y-99814926D01*
X149858673Y-99825381D01*
X149903148Y-99833800D01*
X149955995Y-99840399D01*
X150022119Y-99845391D01*
X150106423Y-99848991D01*
X150213811Y-99851412D01*
X150349187Y-99852870D01*
X150517454Y-99853577D01*
X150706667Y-99853750D01*
X150915570Y-99853629D01*
X151086533Y-99852857D01*
X151223951Y-99850823D01*
X151332217Y-99846914D01*
X151415726Y-99840519D01*
X151478871Y-99831027D01*
X151526047Y-99817824D01*
X151561647Y-99800300D01*
X151590064Y-99777842D01*
X151615694Y-99749838D01*
X151636131Y-99724319D01*
X151669543Y-99652604D01*
X151681178Y-99560921D01*
X151670896Y-99465691D01*
X151639054Y-99384143D01*
X151597904Y-99331364D01*
X151552908Y-99293387D01*
X151549174Y-99291317D01*
X151511029Y-99271053D01*
X151495627Y-99262246D01*
X151499871Y-99242264D01*
X151515806Y-99194410D01*
X151533522Y-99146224D01*
X151582103Y-98960543D01*
X151592306Y-98767208D01*
X151565670Y-98572660D01*
X151503734Y-98383340D01*
X151408038Y-98205691D01*
X151280122Y-98046153D01*
X151267584Y-98033405D01*
X151128230Y-97914300D01*
X150973814Y-97822893D01*
X150799281Y-97757471D01*
X150599579Y-97716323D01*
X150403848Y-97700500D01*
X150403848Y-98323669D01*
X150583035Y-98346307D01*
X150730132Y-98392172D01*
X150843840Y-98460825D01*
X150922859Y-98551825D01*
X150935924Y-98575735D01*
X150963465Y-98656631D01*
X150979251Y-98754989D01*
X150982427Y-98855124D01*
X150972138Y-98941352D01*
X150958081Y-98982017D01*
X150898204Y-99071063D01*
X150818782Y-99138342D01*
X150715151Y-99185715D01*
X150582645Y-99215043D01*
X150416601Y-99228189D01*
X150338345Y-99229334D01*
X150157827Y-99225376D01*
X150013270Y-99212178D01*
X149898930Y-99187750D01*
X149809061Y-99150106D01*
X149737918Y-99097256D01*
X149679755Y-99027213D01*
X149659025Y-98994256D01*
X149626730Y-98905159D01*
X149616531Y-98796504D01*
X149628266Y-98684739D01*
X149661770Y-98586315D01*
X149663105Y-98583750D01*
X149723444Y-98491767D01*
X149798420Y-98423121D01*
X149894465Y-98374675D01*
X150018009Y-98343291D01*
X150175480Y-98325829D01*
X150193868Y-98324697D01*
X150403848Y-98323669D01*
X150403848Y-97700500D01*
X150369655Y-97697735D01*
X150272750Y-97696231D01*
X150149628Y-97696946D01*
X150057703Y-97700067D01*
X149985852Y-97707001D01*
X149922951Y-97719152D01*
X149857875Y-97737926D01*
X149807084Y-97755061D01*
X149653035Y-97815136D01*
X149527253Y-97880607D01*
X149415761Y-97959623D01*
X149336726Y-98029251D01*
X149197005Y-98186034D01*
X149097075Y-98355977D01*
X149035621Y-98542115D01*
X149011330Y-98747484D01*
X149010804Y-98782040D01*
X149030142Y-98993449D01*
G36*
X147793793Y-91712391D02*
X147837973Y-91804663D01*
X147911811Y-91879573D01*
X147934582Y-91894335D01*
X147954526Y-91905007D01*
X147977385Y-91913842D01*
X148007298Y-91921074D01*
X148048406Y-91926937D01*
X148104846Y-91931668D01*
X148180759Y-91935500D01*
X148280282Y-91938670D01*
X148407555Y-91941411D01*
X148566717Y-91943960D01*
X148761907Y-91946550D01*
X148879709Y-91948000D01*
X149751500Y-91958584D01*
X149317094Y-92434834D01*
X149175727Y-92589883D01*
X149060268Y-92717143D01*
X148968150Y-92820153D01*
X148896808Y-92902449D01*
X148843677Y-92967571D01*
X148806189Y-93019055D01*
X148781780Y-93060439D01*
X148767883Y-93095262D01*
X148761932Y-93127062D01*
X148761362Y-93159376D01*
X148763606Y-93195742D01*
X148763751Y-93197795D01*
X148779206Y-93292660D01*
X148808362Y-93363503D01*
X148813288Y-93370634D01*
X148892281Y-93446165D01*
X148987024Y-93488932D01*
X149087909Y-93496825D01*
X149185328Y-93467735D01*
X149204708Y-93456565D01*
X149237857Y-93428822D01*
X149293946Y-93374380D01*
X149368015Y-93298378D01*
X149455104Y-93205955D01*
X149550253Y-93102253D01*
X149600693Y-93046220D01*
X149694574Y-92941678D01*
X149779304Y-92848164D01*
X149850754Y-92770167D01*
X149904794Y-92712176D01*
X149937295Y-92678682D01*
X149944707Y-92672223D01*
X149964414Y-92683244D01*
X150013586Y-92717292D01*
X150088253Y-92771428D01*
X150184443Y-92842717D01*
X150298185Y-92928221D01*
X150425509Y-93025003D01*
X150528956Y-93104326D01*
X150696613Y-93233259D01*
X150834288Y-93338691D01*
X150945512Y-93422985D01*
X151033816Y-93488504D01*
X151102731Y-93537612D01*
X151155788Y-93572674D01*
X151196519Y-93596052D01*
X151228453Y-93610109D01*
X151255123Y-93617211D01*
X151280058Y-93619719D01*
X151299334Y-93620009D01*
X151398159Y-93600983D01*
X151481537Y-93549450D01*
X151545226Y-93473725D01*
X151584985Y-93382123D01*
X151596572Y-93282961D01*
X151575746Y-93184553D01*
X151548028Y-93132403D01*
X151520025Y-93102740D01*
X151462565Y-93051218D01*
X151380019Y-92981430D01*
X151276759Y-92896969D01*
X151157155Y-92801427D01*
X151025578Y-92698398D01*
X150935498Y-92628957D01*
X150370607Y-92196203D01*
X150479846Y-92072101D01*
X150589084Y-91948000D01*
X150928334Y-91947483D01*
X151103503Y-91945081D01*
X151241270Y-91938026D01*
X151346381Y-91925651D01*
X151423578Y-91907287D01*
X151477607Y-91882268D01*
X151496979Y-91867450D01*
X151556791Y-91790227D01*
X151594539Y-91694577D01*
X151605295Y-91596649D01*
X151596286Y-91541998D01*
X151542297Y-91434935D01*
X151454256Y-91352624D01*
X151453957Y-91352427D01*
X151441614Y-91345330D01*
X151425682Y-91339144D01*
X151403345Y-91333808D01*
X151371788Y-91329258D01*
X151328196Y-91325432D01*
X151269754Y-91322268D01*
X151193646Y-91319702D01*
X151097057Y-91317672D01*
X150977172Y-91316116D01*
X150831175Y-91314971D01*
X150656251Y-91314174D01*
X150449584Y-91313662D01*
X150208361Y-91313374D01*
X149929764Y-91313247D01*
X149690667Y-91313219D01*
X149382059Y-91313235D01*
X149112950Y-91313352D01*
X148880508Y-91313635D01*
X148681898Y-91314151D01*
X148514288Y-91314964D01*
X148374842Y-91316142D01*
X148260728Y-91317750D01*
X148169113Y-91319855D01*
X148097162Y-91322522D01*
X148042042Y-91325816D01*
X148000920Y-91329805D01*
X147970961Y-91334555D01*
X147949332Y-91340130D01*
X147933200Y-91346598D01*
X147919732Y-91354023D01*
X147918986Y-91354477D01*
X147841867Y-91423799D01*
X147795473Y-91512719D01*
X147779538Y-91611996D01*
X147793793Y-91712391D01*
X147793793Y-91712391D01*
G37*
X147793793Y-91712391D02*
X147837973Y-91804663D01*
X147911811Y-91879573D01*
X147934582Y-91894335D01*
X147954526Y-91905007D01*
X147977385Y-91913842D01*
X148007298Y-91921074D01*
X148048406Y-91926937D01*
X148104846Y-91931668D01*
X148180759Y-91935500D01*
X148280282Y-91938670D01*
X148407555Y-91941411D01*
X148566717Y-91943960D01*
X148761907Y-91946550D01*
X148879709Y-91948000D01*
X149751500Y-91958584D01*
X149317094Y-92434834D01*
X149175727Y-92589883D01*
X149060268Y-92717143D01*
X148968150Y-92820153D01*
X148896808Y-92902449D01*
X148843677Y-92967571D01*
X148806189Y-93019055D01*
X148781780Y-93060439D01*
X148767883Y-93095262D01*
X148761932Y-93127062D01*
X148761362Y-93159376D01*
X148763606Y-93195742D01*
X148763751Y-93197795D01*
X148779206Y-93292660D01*
X148808362Y-93363503D01*
X148813288Y-93370634D01*
X148892281Y-93446165D01*
X148987024Y-93488932D01*
X149087909Y-93496825D01*
X149185328Y-93467735D01*
X149204708Y-93456565D01*
X149237857Y-93428822D01*
X149293946Y-93374380D01*
X149368015Y-93298378D01*
X149455104Y-93205955D01*
X149550253Y-93102253D01*
X149600693Y-93046220D01*
X149694574Y-92941678D01*
X149779304Y-92848164D01*
X149850754Y-92770167D01*
X149904794Y-92712176D01*
X149937295Y-92678682D01*
X149944707Y-92672223D01*
X149964414Y-92683244D01*
X150013586Y-92717292D01*
X150088253Y-92771428D01*
X150184443Y-92842717D01*
X150298185Y-92928221D01*
X150425509Y-93025003D01*
X150528956Y-93104326D01*
X150696613Y-93233259D01*
X150834288Y-93338691D01*
X150945512Y-93422985D01*
X151033816Y-93488504D01*
X151102731Y-93537612D01*
X151155788Y-93572674D01*
X151196519Y-93596052D01*
X151228453Y-93610109D01*
X151255123Y-93617211D01*
X151280058Y-93619719D01*
X151299334Y-93620009D01*
X151398159Y-93600983D01*
X151481537Y-93549450D01*
X151545226Y-93473725D01*
X151584985Y-93382123D01*
X151596572Y-93282961D01*
X151575746Y-93184553D01*
X151548028Y-93132403D01*
X151520025Y-93102740D01*
X151462565Y-93051218D01*
X151380019Y-92981430D01*
X151276759Y-92896969D01*
X151157155Y-92801427D01*
X151025578Y-92698398D01*
X150935498Y-92628957D01*
X150370607Y-92196203D01*
X150479846Y-92072101D01*
X150589084Y-91948000D01*
X150928334Y-91947483D01*
X151103503Y-91945081D01*
X151241270Y-91938026D01*
X151346381Y-91925651D01*
X151423578Y-91907287D01*
X151477607Y-91882268D01*
X151496979Y-91867450D01*
X151556791Y-91790227D01*
X151594539Y-91694577D01*
X151605295Y-91596649D01*
X151596286Y-91541998D01*
X151542297Y-91434935D01*
X151454256Y-91352624D01*
X151453957Y-91352427D01*
X151441614Y-91345330D01*
X151425682Y-91339144D01*
X151403345Y-91333808D01*
X151371788Y-91329258D01*
X151328196Y-91325432D01*
X151269754Y-91322268D01*
X151193646Y-91319702D01*
X151097057Y-91317672D01*
X150977172Y-91316116D01*
X150831175Y-91314971D01*
X150656251Y-91314174D01*
X150449584Y-91313662D01*
X150208361Y-91313374D01*
X149929764Y-91313247D01*
X149690667Y-91313219D01*
X149382059Y-91313235D01*
X149112950Y-91313352D01*
X148880508Y-91313635D01*
X148681898Y-91314151D01*
X148514288Y-91314964D01*
X148374842Y-91316142D01*
X148260728Y-91317750D01*
X148169113Y-91319855D01*
X148097162Y-91322522D01*
X148042042Y-91325816D01*
X148000920Y-91329805D01*
X147970961Y-91334555D01*
X147949332Y-91340130D01*
X147933200Y-91346598D01*
X147919732Y-91354023D01*
X147918986Y-91354477D01*
X147841867Y-91423799D01*
X147795473Y-91512719D01*
X147779538Y-91611996D01*
X147793793Y-91712391D01*
G36*
X148892789Y-94346702D02*
X148918683Y-94456494D01*
X148977214Y-94540880D01*
X149056018Y-94596978D01*
X149074251Y-94605635D01*
X149096346Y-94612919D01*
X149125884Y-94618948D01*
X149166448Y-94623839D01*
X149221619Y-94627711D01*
X149294978Y-94630681D01*
X149390107Y-94632867D01*
X149510587Y-94634387D01*
X149660000Y-94635359D01*
X149841928Y-94635900D01*
X150059952Y-94636129D01*
X150247013Y-94636167D01*
X150499785Y-94636152D01*
X150713766Y-94635906D01*
X150892500Y-94635125D01*
X151039527Y-94633508D01*
X151158390Y-94630752D01*
X151252633Y-94626554D01*
X151325797Y-94620612D01*
X151381425Y-94612623D01*
X151423060Y-94602284D01*
X151454243Y-94589293D01*
X151478517Y-94573347D01*
X151499425Y-94554145D01*
X151520510Y-94531382D01*
X151524442Y-94527053D01*
X151556033Y-94485779D01*
X151579638Y-94435076D01*
X151601706Y-94360287D01*
X151606826Y-94339834D01*
X151605058Y-94300854D01*
X151591108Y-94242449D01*
X151584866Y-94223417D01*
X151529760Y-94123552D01*
X151447789Y-94051529D01*
X151346153Y-94013501D01*
X151337718Y-94012159D01*
X151298785Y-94009683D01*
X151222002Y-94007612D01*
X151111849Y-94005974D01*
X150972809Y-94004795D01*
X150809363Y-94004101D01*
X150625992Y-94003920D01*
X150427177Y-94004276D01*
X150217400Y-94005198D01*
X150188084Y-94005369D01*
X149948844Y-94006867D01*
X149748195Y-94008338D01*
X149582394Y-94009946D01*
X149447701Y-94011856D01*
X149340372Y-94014231D01*
X149256665Y-94017236D01*
X149192839Y-94021035D01*
X149145151Y-94025792D01*
X149109860Y-94031672D01*
X149083223Y-94038839D01*
X149061498Y-94047457D01*
X149045084Y-94055536D01*
X148958100Y-94121354D01*
X148906660Y-94209941D01*
X148891318Y-94320238D01*
X148892789Y-94346702D01*
X148892789Y-94346702D01*
G37*
X148892789Y-94346702D02*
X148918683Y-94456494D01*
X148977214Y-94540880D01*
X149056018Y-94596978D01*
X149074251Y-94605635D01*
X149096346Y-94612919D01*
X149125884Y-94618948D01*
X149166448Y-94623839D01*
X149221619Y-94627711D01*
X149294978Y-94630681D01*
X149390107Y-94632867D01*
X149510587Y-94634387D01*
X149660000Y-94635359D01*
X149841928Y-94635900D01*
X150059952Y-94636129D01*
X150247013Y-94636167D01*
X150499785Y-94636152D01*
X150713766Y-94635906D01*
X150892500Y-94635125D01*
X151039527Y-94633508D01*
X151158390Y-94630752D01*
X151252633Y-94626554D01*
X151325797Y-94620612D01*
X151381425Y-94612623D01*
X151423060Y-94602284D01*
X151454243Y-94589293D01*
X151478517Y-94573347D01*
X151499425Y-94554145D01*
X151520510Y-94531382D01*
X151524442Y-94527053D01*
X151556033Y-94485779D01*
X151579638Y-94435076D01*
X151601706Y-94360287D01*
X151606826Y-94339834D01*
X151605058Y-94300854D01*
X151591108Y-94242449D01*
X151584866Y-94223417D01*
X151529760Y-94123552D01*
X151447789Y-94051529D01*
X151346153Y-94013501D01*
X151337718Y-94012159D01*
X151298785Y-94009683D01*
X151222002Y-94007612D01*
X151111849Y-94005974D01*
X150972809Y-94004795D01*
X150809363Y-94004101D01*
X150625992Y-94003920D01*
X150427177Y-94004276D01*
X150217400Y-94005198D01*
X150188084Y-94005369D01*
X149948844Y-94006867D01*
X149748195Y-94008338D01*
X149582394Y-94009946D01*
X149447701Y-94011856D01*
X149340372Y-94014231D01*
X149256665Y-94017236D01*
X149192839Y-94021035D01*
X149145151Y-94025792D01*
X149109860Y-94031672D01*
X149083223Y-94038839D01*
X149061498Y-94047457D01*
X149045084Y-94055536D01*
X148958100Y-94121354D01*
X148906660Y-94209941D01*
X148891318Y-94320238D01*
X148892789Y-94346702D01*
G36*
X147862258Y-102460111D02*
X147927875Y-102556611D01*
X147945981Y-102575193D01*
X148020830Y-102647750D01*
X149273790Y-102653710D01*
X149555281Y-102654922D01*
X149798084Y-102655525D01*
X150005841Y-102655280D01*
X150182198Y-102653945D01*
X150330796Y-102651281D01*
X150455281Y-102647048D01*
X150559294Y-102641006D01*
X150646479Y-102632915D01*
X150720481Y-102622534D01*
X150784942Y-102609624D01*
X150843506Y-102593945D01*
X150899816Y-102575256D01*
X150957516Y-102553317D01*
X150988876Y-102540709D01*
X151166181Y-102446748D01*
X151317637Y-102321193D01*
X151439513Y-102168164D01*
X151528079Y-101991779D01*
X151552545Y-101918379D01*
X151583233Y-101794636D01*
X151599061Y-101678696D01*
X151601417Y-101553679D01*
X151593360Y-101421729D01*
X151583246Y-101334056D01*
X151566737Y-101259528D01*
X151539145Y-101183160D01*
X151495781Y-101089969D01*
X151479171Y-101056837D01*
X151360061Y-100865190D01*
X151213030Y-100705329D01*
X151038342Y-100577456D01*
X150836262Y-100481771D01*
X150649572Y-100427306D01*
X150523116Y-100407656D01*
X150370225Y-100396766D01*
X150272572Y-100395523D01*
X150272572Y-101011550D01*
X150435604Y-101029189D01*
X150590206Y-101067647D01*
X150729374Y-101126004D01*
X150846101Y-101203342D01*
X150933381Y-101298742D01*
X150955182Y-101335280D01*
X151008326Y-101474319D01*
X151021277Y-101608863D01*
X150993812Y-101735622D01*
X150983915Y-101758750D01*
X150920103Y-101864441D01*
X150835803Y-101941474D01*
X150751003Y-101987962D01*
X150709297Y-102004520D01*
X150662963Y-102016827D01*
X150604427Y-102025734D01*
X150526116Y-102032091D01*
X150420455Y-102036749D01*
X150283334Y-102040479D01*
X150101268Y-102042595D01*
X149960436Y-102039639D01*
X149861139Y-102031621D01*
X149819146Y-102023737D01*
X149716791Y-101975082D01*
X149629721Y-101891696D01*
X149562154Y-101779712D01*
X149518309Y-101645261D01*
X149506355Y-101569174D01*
X149512730Y-101448406D01*
X149551938Y-101328587D01*
X149618020Y-101223803D01*
X149676276Y-101167553D01*
X149802964Y-101092730D01*
X149949246Y-101042402D01*
X150108118Y-101015648D01*
X150272572Y-101011550D01*
X150272572Y-100395523D01*
X150205887Y-100394674D01*
X150045094Y-100401414D01*
X149902832Y-100417023D01*
X149856092Y-100425422D01*
X149643632Y-100489055D01*
X149450803Y-100586527D01*
X149281576Y-100714351D01*
X149139920Y-100869039D01*
X149029804Y-101047102D01*
X148966004Y-101207538D01*
X148930394Y-101376950D01*
X148920230Y-101559837D01*
X148935470Y-101739491D01*
X148967705Y-101875167D01*
X148990429Y-101946574D01*
X149006719Y-102001683D01*
X149013060Y-102028597D01*
X149013060Y-102028625D01*
X148992970Y-102033183D01*
X148936510Y-102037229D01*
X148849643Y-102040566D01*
X148738333Y-102042994D01*
X148608542Y-102044316D01*
X148536032Y-102044500D01*
X148368067Y-102044985D01*
X148236760Y-102047135D01*
X148136443Y-102051993D01*
X148061446Y-102060603D01*
X148006100Y-102074007D01*
X147964735Y-102093248D01*
X147931682Y-102119371D01*
X147901270Y-102153417D01*
X147893925Y-102162641D01*
X147844463Y-102256619D01*
X147834181Y-102357945D01*
X147862258Y-102460111D01*
X147862258Y-102460111D01*
G37*
X147862258Y-102460111D02*
X147927875Y-102556611D01*
X147945981Y-102575193D01*
X148020830Y-102647750D01*
X149273790Y-102653710D01*
X149555281Y-102654922D01*
X149798084Y-102655525D01*
X150005841Y-102655280D01*
X150182198Y-102653945D01*
X150330796Y-102651281D01*
X150455281Y-102647048D01*
X150559294Y-102641006D01*
X150646479Y-102632915D01*
X150720481Y-102622534D01*
X150784942Y-102609624D01*
X150843506Y-102593945D01*
X150899816Y-102575256D01*
X150957516Y-102553317D01*
X150988876Y-102540709D01*
X151166181Y-102446748D01*
X151317637Y-102321193D01*
X151439513Y-102168164D01*
X151528079Y-101991779D01*
X151552545Y-101918379D01*
X151583233Y-101794636D01*
X151599061Y-101678696D01*
X151601417Y-101553679D01*
X151593360Y-101421729D01*
X151583246Y-101334056D01*
X151566737Y-101259528D01*
X151539145Y-101183160D01*
X151495781Y-101089969D01*
X151479171Y-101056837D01*
X151360061Y-100865190D01*
X151213030Y-100705329D01*
X151038342Y-100577456D01*
X150836262Y-100481771D01*
X150649572Y-100427306D01*
X150523116Y-100407656D01*
X150370225Y-100396766D01*
X150272572Y-100395523D01*
X150272572Y-101011550D01*
X150435604Y-101029189D01*
X150590206Y-101067647D01*
X150729374Y-101126004D01*
X150846101Y-101203342D01*
X150933381Y-101298742D01*
X150955182Y-101335280D01*
X151008326Y-101474319D01*
X151021277Y-101608863D01*
X150993812Y-101735622D01*
X150983915Y-101758750D01*
X150920103Y-101864441D01*
X150835803Y-101941474D01*
X150751003Y-101987962D01*
X150709297Y-102004520D01*
X150662963Y-102016827D01*
X150604427Y-102025734D01*
X150526116Y-102032091D01*
X150420455Y-102036749D01*
X150283334Y-102040479D01*
X150101268Y-102042595D01*
X149960436Y-102039639D01*
X149861139Y-102031621D01*
X149819146Y-102023737D01*
X149716791Y-101975082D01*
X149629721Y-101891696D01*
X149562154Y-101779712D01*
X149518309Y-101645261D01*
X149506355Y-101569174D01*
X149512730Y-101448406D01*
X149551938Y-101328587D01*
X149618020Y-101223803D01*
X149676276Y-101167553D01*
X149802964Y-101092730D01*
X149949246Y-101042402D01*
X150108118Y-101015648D01*
X150272572Y-101011550D01*
X150272572Y-100395523D01*
X150205887Y-100394674D01*
X150045094Y-100401414D01*
X149902832Y-100417023D01*
X149856092Y-100425422D01*
X149643632Y-100489055D01*
X149450803Y-100586527D01*
X149281576Y-100714351D01*
X149139920Y-100869039D01*
X149029804Y-101047102D01*
X148966004Y-101207538D01*
X148930394Y-101376950D01*
X148920230Y-101559837D01*
X148935470Y-101739491D01*
X148967705Y-101875167D01*
X148990429Y-101946574D01*
X149006719Y-102001683D01*
X149013060Y-102028597D01*
X149013060Y-102028625D01*
X148992970Y-102033183D01*
X148936510Y-102037229D01*
X148849643Y-102040566D01*
X148738333Y-102042994D01*
X148608542Y-102044316D01*
X148536032Y-102044500D01*
X148368067Y-102044985D01*
X148236760Y-102047135D01*
X148136443Y-102051993D01*
X148061446Y-102060603D01*
X148006100Y-102074007D01*
X147964735Y-102093248D01*
X147931682Y-102119371D01*
X147901270Y-102153417D01*
X147893925Y-102162641D01*
X147844463Y-102256619D01*
X147834181Y-102357945D01*
X147862258Y-102460111D01*
G36*
X145965404Y-87132013D02*
X145965413Y-87238747D01*
X145965473Y-87499159D01*
X145965753Y-87720604D01*
X145966350Y-87906446D01*
X145967360Y-88060051D01*
X145968879Y-88184784D01*
X145971002Y-88284012D01*
X145973826Y-88361099D01*
X145977448Y-88419410D01*
X145981962Y-88462312D01*
X145987466Y-88493169D01*
X145994055Y-88515347D01*
X146001825Y-88532211D01*
X146002375Y-88533207D01*
X146023226Y-88559685D01*
X146070978Y-88613812D01*
X146143062Y-88692849D01*
X146236906Y-88794057D01*
X146349939Y-88914695D01*
X146479592Y-89052023D01*
X146623293Y-89203304D01*
X146778472Y-89365796D01*
X146942559Y-89536760D01*
X147000102Y-89596519D01*
X147199667Y-89803293D01*
X147372160Y-89981298D01*
X147519602Y-90132517D01*
X147644013Y-90258937D01*
X147747413Y-90362542D01*
X147831822Y-90445316D01*
X147899260Y-90509245D01*
X147951747Y-90556312D01*
X147991304Y-90588503D01*
X148019949Y-90607803D01*
X148037269Y-90615566D01*
X148075483Y-90620340D01*
X148154679Y-90624342D01*
X148275032Y-90627572D01*
X148436719Y-90630034D01*
X148639914Y-90631728D01*
X148884795Y-90632656D01*
X149171536Y-90632820D01*
X149500314Y-90632221D01*
X149736749Y-90631424D01*
X150037203Y-90630230D01*
X150298218Y-90629099D01*
X150522685Y-90627947D01*
X150713498Y-90626686D01*
X150873550Y-90625231D01*
X151005734Y-90623496D01*
X151112943Y-90621395D01*
X151198071Y-90618841D01*
X151264009Y-90615749D01*
X151313651Y-90612033D01*
X151349890Y-90607607D01*
X151375619Y-90602384D01*
X151393731Y-90596280D01*
X151407119Y-90589207D01*
X151418191Y-90581442D01*
X151511174Y-90489575D01*
X151566918Y-90379417D01*
X151575400Y-90348279D01*
X151578626Y-90313193D01*
X151581524Y-90239539D01*
X151584099Y-90130864D01*
X151586354Y-89990715D01*
X151588293Y-89822640D01*
X151589919Y-89630186D01*
X151591238Y-89416900D01*
X151592251Y-89186329D01*
X151592964Y-88942020D01*
X151593380Y-88687521D01*
X151593502Y-88426378D01*
X151593335Y-88162139D01*
X151592882Y-87898352D01*
X151592148Y-87638563D01*
X151591135Y-87386320D01*
X151589848Y-87145169D01*
X151588290Y-86918659D01*
X151586466Y-86710335D01*
X151584379Y-86523746D01*
X151582033Y-86362439D01*
X151579431Y-86229961D01*
X151576578Y-86129858D01*
X151573477Y-86065679D01*
X151570797Y-86042500D01*
X151520369Y-85933134D01*
X151441435Y-85847687D01*
X151357906Y-85800394D01*
X151341344Y-85795219D01*
X151318980Y-85790607D01*
X151288528Y-85786532D01*
X151247705Y-85782969D01*
X151194225Y-85779894D01*
X151125803Y-85777283D01*
X151040155Y-85775110D01*
X150934996Y-85773350D01*
X150808042Y-85771980D01*
X150657006Y-85770974D01*
X150479606Y-85770308D01*
X150273555Y-85769957D01*
X150036569Y-85769895D01*
X149766363Y-85770099D01*
X149460653Y-85770544D01*
X149117153Y-85771205D01*
X148938267Y-85771601D01*
X148938267Y-86129729D01*
X149223839Y-86130013D01*
X149497655Y-86130649D01*
X149754731Y-86131622D01*
X149990085Y-86132918D01*
X150198735Y-86134519D01*
X150375699Y-86136411D01*
X150515993Y-86138578D01*
X150532042Y-86138894D01*
X151235834Y-86153234D01*
X151235834Y-90275834D01*
X148109191Y-90275834D01*
X147196606Y-89339209D01*
X146284020Y-88402584D01*
X146288718Y-87270167D01*
X146293417Y-86137750D01*
X148060834Y-86131152D01*
X148351782Y-86130283D01*
X148645920Y-86129814D01*
X148938267Y-86129729D01*
X148938267Y-85771601D01*
X148738167Y-85772046D01*
X146208750Y-85777917D01*
X146127195Y-85828616D01*
X146094149Y-85848627D01*
X146065930Y-85866627D01*
X146042157Y-85885930D01*
X146022451Y-85909848D01*
X146006432Y-85941697D01*
X145993718Y-85984791D01*
X145983931Y-86042442D01*
X145976689Y-86117966D01*
X145971612Y-86214677D01*
X145968321Y-86335887D01*
X145966435Y-86484912D01*
X145965573Y-86665065D01*
X145965357Y-86879661D01*
X145965404Y-87132013D01*
X145965404Y-87132013D01*
G37*
X145965404Y-87132013D02*
X145965413Y-87238747D01*
X145965473Y-87499159D01*
X145965753Y-87720604D01*
X145966350Y-87906446D01*
X145967360Y-88060051D01*
X145968879Y-88184784D01*
X145971002Y-88284012D01*
X145973826Y-88361099D01*
X145977448Y-88419410D01*
X145981962Y-88462312D01*
X145987466Y-88493169D01*
X145994055Y-88515347D01*
X146001825Y-88532211D01*
X146002375Y-88533207D01*
X146023226Y-88559685D01*
X146070978Y-88613812D01*
X146143062Y-88692849D01*
X146236906Y-88794057D01*
X146349939Y-88914695D01*
X146479592Y-89052023D01*
X146623293Y-89203304D01*
X146778472Y-89365796D01*
X146942559Y-89536760D01*
X147000102Y-89596519D01*
X147199667Y-89803293D01*
X147372160Y-89981298D01*
X147519602Y-90132517D01*
X147644013Y-90258937D01*
X147747413Y-90362542D01*
X147831822Y-90445316D01*
X147899260Y-90509245D01*
X147951747Y-90556312D01*
X147991304Y-90588503D01*
X148019949Y-90607803D01*
X148037269Y-90615566D01*
X148075483Y-90620340D01*
X148154679Y-90624342D01*
X148275032Y-90627572D01*
X148436719Y-90630034D01*
X148639914Y-90631728D01*
X148884795Y-90632656D01*
X149171536Y-90632820D01*
X149500314Y-90632221D01*
X149736749Y-90631424D01*
X150037203Y-90630230D01*
X150298218Y-90629099D01*
X150522685Y-90627947D01*
X150713498Y-90626686D01*
X150873550Y-90625231D01*
X151005734Y-90623496D01*
X151112943Y-90621395D01*
X151198071Y-90618841D01*
X151264009Y-90615749D01*
X151313651Y-90612033D01*
X151349890Y-90607607D01*
X151375619Y-90602384D01*
X151393731Y-90596280D01*
X151407119Y-90589207D01*
X151418191Y-90581442D01*
X151511174Y-90489575D01*
X151566918Y-90379417D01*
X151575400Y-90348279D01*
X151578626Y-90313193D01*
X151581524Y-90239539D01*
X151584099Y-90130864D01*
X151586354Y-89990715D01*
X151588293Y-89822640D01*
X151589919Y-89630186D01*
X151591238Y-89416900D01*
X151592251Y-89186329D01*
X151592964Y-88942020D01*
X151593380Y-88687521D01*
X151593502Y-88426378D01*
X151593335Y-88162139D01*
X151592882Y-87898352D01*
X151592148Y-87638563D01*
X151591135Y-87386320D01*
X151589848Y-87145169D01*
X151588290Y-86918659D01*
X151586466Y-86710335D01*
X151584379Y-86523746D01*
X151582033Y-86362439D01*
X151579431Y-86229961D01*
X151576578Y-86129858D01*
X151573477Y-86065679D01*
X151570797Y-86042500D01*
X151520369Y-85933134D01*
X151441435Y-85847687D01*
X151357906Y-85800394D01*
X151341344Y-85795219D01*
X151318980Y-85790607D01*
X151288528Y-85786532D01*
X151247705Y-85782969D01*
X151194225Y-85779894D01*
X151125803Y-85777283D01*
X151040155Y-85775110D01*
X150934996Y-85773350D01*
X150808042Y-85771980D01*
X150657006Y-85770974D01*
X150479606Y-85770308D01*
X150273555Y-85769957D01*
X150036569Y-85769895D01*
X149766363Y-85770099D01*
X149460653Y-85770544D01*
X149117153Y-85771205D01*
X148938267Y-85771601D01*
X148938267Y-86129729D01*
X149223839Y-86130013D01*
X149497655Y-86130649D01*
X149754731Y-86131622D01*
X149990085Y-86132918D01*
X150198735Y-86134519D01*
X150375699Y-86136411D01*
X150515993Y-86138578D01*
X150532042Y-86138894D01*
X151235834Y-86153234D01*
X151235834Y-90275834D01*
X148109191Y-90275834D01*
X147196606Y-89339209D01*
X146284020Y-88402584D01*
X146288718Y-87270167D01*
X146293417Y-86137750D01*
X148060834Y-86131152D01*
X148351782Y-86130283D01*
X148645920Y-86129814D01*
X148938267Y-86129729D01*
X148938267Y-85771601D01*
X148738167Y-85772046D01*
X146208750Y-85777917D01*
X146127195Y-85828616D01*
X146094149Y-85848627D01*
X146065930Y-85866627D01*
X146042157Y-85885930D01*
X146022451Y-85909848D01*
X146006432Y-85941697D01*
X145993718Y-85984791D01*
X145983931Y-86042442D01*
X145976689Y-86117966D01*
X145971612Y-86214677D01*
X145968321Y-86335887D01*
X145966435Y-86484912D01*
X145965573Y-86665065D01*
X145965357Y-86879661D01*
X145965404Y-87132013D01*
G36*
X148896074Y-96509293D02*
X148922695Y-96651005D01*
X148963290Y-96790163D01*
X149014586Y-96918055D01*
X149073312Y-97025969D01*
X149136192Y-97105194D01*
X149172316Y-97133977D01*
X149267555Y-97169714D01*
X149369653Y-97169894D01*
X149467228Y-97137161D01*
X149548897Y-97074160D01*
X149575006Y-97040400D01*
X149615893Y-96945839D01*
X149618770Y-96842125D01*
X149583590Y-96725065D01*
X149571267Y-96698194D01*
X149540885Y-96629681D01*
X149522659Y-96568881D01*
X149513627Y-96500327D01*
X149510825Y-96408556D01*
X149510750Y-96382417D01*
X149512420Y-96284214D01*
X149519090Y-96214855D01*
X149533253Y-96160924D01*
X149557404Y-96109005D01*
X149563667Y-96097655D01*
X149640337Y-95996779D01*
X149743869Y-95909359D01*
X149858805Y-95847799D01*
X149887349Y-95837951D01*
X149950752Y-95826065D01*
X150048401Y-95817253D01*
X150172279Y-95812077D01*
X150273313Y-95810917D01*
X150570208Y-95810917D01*
X150717813Y-95885000D01*
X150803092Y-95931745D01*
X150861602Y-95975970D01*
X150906618Y-96028887D01*
X150928917Y-96063257D01*
X150958863Y-96115648D01*
X150977564Y-96161690D01*
X150987632Y-96214024D01*
X150991679Y-96285290D01*
X150992336Y-96370174D01*
X150991247Y-96467738D01*
X150986135Y-96536659D01*
X150974093Y-96590614D01*
X150952214Y-96643279D01*
X150922239Y-96699917D01*
X150883098Y-96777118D01*
X150864702Y-96833606D01*
X150863200Y-96883122D01*
X150865889Y-96901000D01*
X150904538Y-97012553D01*
X150970687Y-97098472D01*
X151057727Y-97154745D01*
X151159047Y-97177363D01*
X151268037Y-97162314D01*
X151286142Y-97155992D01*
X151338392Y-97118768D01*
X151396059Y-97049065D01*
X151453827Y-96955355D01*
X151506377Y-96846108D01*
X151543260Y-96746449D01*
X151569212Y-96655507D01*
X151584895Y-96572161D01*
X151592404Y-96480159D01*
X151593838Y-96363252D01*
X151593774Y-96354866D01*
X151590268Y-96248345D01*
X151582373Y-96145827D01*
X151571429Y-96062018D01*
X151563881Y-96026557D01*
X151500170Y-95859443D01*
X151405333Y-95696346D01*
X151287044Y-95547100D01*
X151152979Y-95421539D01*
X151025959Y-95337330D01*
X150893449Y-95274949D01*
X150758521Y-95229927D01*
X150611341Y-95200249D01*
X150442076Y-95183905D01*
X150251584Y-95178895D01*
X150022807Y-95186408D01*
X149826695Y-95211639D01*
X149656456Y-95256967D01*
X149505297Y-95324771D01*
X149366428Y-95417431D01*
X149235584Y-95534774D01*
X149090246Y-95705994D01*
X148985046Y-95888151D01*
X148918386Y-96085087D01*
X148888668Y-96300641D01*
X148886701Y-96373739D01*
X148896074Y-96509293D01*
X148896074Y-96509293D01*
G37*
X148896074Y-96509293D02*
X148922695Y-96651005D01*
X148963290Y-96790163D01*
X149014586Y-96918055D01*
X149073312Y-97025969D01*
X149136192Y-97105194D01*
X149172316Y-97133977D01*
X149267555Y-97169714D01*
X149369653Y-97169894D01*
X149467228Y-97137161D01*
X149548897Y-97074160D01*
X149575006Y-97040400D01*
X149615893Y-96945839D01*
X149618770Y-96842125D01*
X149583590Y-96725065D01*
X149571267Y-96698194D01*
X149540885Y-96629681D01*
X149522659Y-96568881D01*
X149513627Y-96500327D01*
X149510825Y-96408556D01*
X149510750Y-96382417D01*
X149512420Y-96284214D01*
X149519090Y-96214855D01*
X149533253Y-96160924D01*
X149557404Y-96109005D01*
X149563667Y-96097655D01*
X149640337Y-95996779D01*
X149743869Y-95909359D01*
X149858805Y-95847799D01*
X149887349Y-95837951D01*
X149950752Y-95826065D01*
X150048401Y-95817253D01*
X150172279Y-95812077D01*
X150273313Y-95810917D01*
X150570208Y-95810917D01*
X150717813Y-95885000D01*
X150803092Y-95931745D01*
X150861602Y-95975970D01*
X150906618Y-96028887D01*
X150928917Y-96063257D01*
X150958863Y-96115648D01*
X150977564Y-96161690D01*
X150987632Y-96214024D01*
X150991679Y-96285290D01*
X150992336Y-96370174D01*
X150991247Y-96467738D01*
X150986135Y-96536659D01*
X150974093Y-96590614D01*
X150952214Y-96643279D01*
X150922239Y-96699917D01*
X150883098Y-96777118D01*
X150864702Y-96833606D01*
X150863200Y-96883122D01*
X150865889Y-96901000D01*
X150904538Y-97012553D01*
X150970687Y-97098472D01*
X151057727Y-97154745D01*
X151159047Y-97177363D01*
X151268037Y-97162314D01*
X151286142Y-97155992D01*
X151338392Y-97118768D01*
X151396059Y-97049065D01*
X151453827Y-96955355D01*
X151506377Y-96846108D01*
X151543260Y-96746449D01*
X151569212Y-96655507D01*
X151584895Y-96572161D01*
X151592404Y-96480159D01*
X151593838Y-96363252D01*
X151593774Y-96354866D01*
X151590268Y-96248345D01*
X151582373Y-96145827D01*
X151571429Y-96062018D01*
X151563881Y-96026557D01*
X151500170Y-95859443D01*
X151405333Y-95696346D01*
X151287044Y-95547100D01*
X151152979Y-95421539D01*
X151025959Y-95337330D01*
X150893449Y-95274949D01*
X150758521Y-95229927D01*
X150611341Y-95200249D01*
X150442076Y-95183905D01*
X150251584Y-95178895D01*
X150022807Y-95186408D01*
X149826695Y-95211639D01*
X149656456Y-95256967D01*
X149505297Y-95324771D01*
X149366428Y-95417431D01*
X149235584Y-95534774D01*
X149090246Y-95705994D01*
X148985046Y-95888151D01*
X148918386Y-96085087D01*
X148888668Y-96300641D01*
X148886701Y-96373739D01*
X148896074Y-96509293D01*
G36*
X147809996Y-94451796D02*
X147850922Y-94522641D01*
X147940882Y-94592902D01*
X148043676Y-94629452D01*
X148150392Y-94633067D01*
X148252118Y-94604528D01*
X148339943Y-94544612D01*
X148393860Y-94475213D01*
X148434360Y-94367508D01*
X148432828Y-94260422D01*
X148396671Y-94168388D01*
X148326915Y-94083716D01*
X148232352Y-94030809D01*
X148141954Y-94010223D01*
X148039772Y-94015672D01*
X147941443Y-94053140D01*
X147860390Y-94115910D01*
X147821536Y-94170500D01*
X147793577Y-94259560D01*
X147790167Y-94358565D01*
X147809996Y-94451796D01*
X147809996Y-94451796D01*
G37*
X147809996Y-94451796D02*
X147850922Y-94522641D01*
X147940882Y-94592902D01*
X148043676Y-94629452D01*
X148150392Y-94633067D01*
X148252118Y-94604528D01*
X148339943Y-94544612D01*
X148393860Y-94475213D01*
X148434360Y-94367508D01*
X148432828Y-94260422D01*
X148396671Y-94168388D01*
X148326915Y-94083716D01*
X148232352Y-94030809D01*
X148141954Y-94010223D01*
X148039772Y-94015672D01*
X147941443Y-94053140D01*
X147860390Y-94115910D01*
X147821536Y-94170500D01*
X147793577Y-94259560D01*
X147790167Y-94358565D01*
X147809996Y-94451796D01*
G36*
X146069243Y-90635667D02*
X147237258Y-90635667D01*
X147289212Y-90583712D01*
X147330530Y-90521168D01*
X147341167Y-90450157D01*
X147339981Y-90427721D01*
X147334551Y-90404928D01*
X147322069Y-90378456D01*
X147299728Y-90344981D01*
X147264718Y-90301178D01*
X147214232Y-90243725D01*
X147145462Y-90169297D01*
X147055599Y-90074570D01*
X146941837Y-89956222D01*
X146801366Y-89810927D01*
X146799407Y-89808904D01*
X146674774Y-89680378D01*
X146558422Y-89560820D01*
X146453865Y-89453808D01*
X146364620Y-89362922D01*
X146294201Y-89291744D01*
X146246124Y-89243852D01*
X146223905Y-89222826D01*
X146223861Y-89222792D01*
X146166127Y-89200235D01*
X146093083Y-89200008D01*
X146024992Y-89221489D01*
X146012377Y-89229284D01*
X145999009Y-89239485D01*
X145988450Y-89252374D01*
X145980366Y-89272647D01*
X145974428Y-89305000D01*
X145970305Y-89354130D01*
X145967665Y-89424732D01*
X145966178Y-89521504D01*
X145965513Y-89649142D01*
X145965340Y-89812341D01*
X145965334Y-89896996D01*
X145965334Y-90531758D01*
X146069243Y-90635667D01*
X146069243Y-90635667D01*
G37*
X146069243Y-90635667D02*
X147237258Y-90635667D01*
X147289212Y-90583712D01*
X147330530Y-90521168D01*
X147341167Y-90450157D01*
X147339981Y-90427721D01*
X147334551Y-90404928D01*
X147322069Y-90378456D01*
X147299728Y-90344981D01*
X147264718Y-90301178D01*
X147214232Y-90243725D01*
X147145462Y-90169297D01*
X147055599Y-90074570D01*
X146941837Y-89956222D01*
X146801366Y-89810927D01*
X146799407Y-89808904D01*
X146674774Y-89680378D01*
X146558422Y-89560820D01*
X146453865Y-89453808D01*
X146364620Y-89362922D01*
X146294201Y-89291744D01*
X146246124Y-89243852D01*
X146223905Y-89222826D01*
X146223861Y-89222792D01*
X146166127Y-89200235D01*
X146093083Y-89200008D01*
X146024992Y-89221489D01*
X146012377Y-89229284D01*
X145999009Y-89239485D01*
X145988450Y-89252374D01*
X145980366Y-89272647D01*
X145974428Y-89305000D01*
X145970305Y-89354130D01*
X145967665Y-89424732D01*
X145966178Y-89521504D01*
X145965513Y-89649142D01*
X145965340Y-89812341D01*
X145965334Y-89896996D01*
X145965334Y-90531758D01*
X146069243Y-90635667D01*
G36*
X149987000Y-90043000D02*
X149987000Y-88730667D01*
X150770167Y-88730667D01*
X150770167Y-88576746D01*
X150671963Y-88590206D01*
X150617358Y-88594774D01*
X150530094Y-88598678D01*
X150419847Y-88601631D01*
X150296288Y-88603349D01*
X150216879Y-88603667D01*
X149860000Y-88603667D01*
X149860000Y-90043000D01*
X149987000Y-90043000D01*
X149987000Y-90043000D01*
G37*
X149987000Y-90043000D02*
X149987000Y-88730667D01*
X150770167Y-88730667D01*
X150770167Y-88576746D01*
X150671963Y-88590206D01*
X150617358Y-88594774D01*
X150530094Y-88598678D01*
X150419847Y-88601631D01*
X150296288Y-88603349D01*
X150216879Y-88603667D01*
X149860000Y-88603667D01*
X149860000Y-90043000D01*
X149987000Y-90043000D01*
G36*
X150520634Y-89826042D02*
X150526750Y-90011250D01*
X150738417Y-90011250D01*
X150744533Y-89826042D01*
X150750648Y-89640834D01*
X150514519Y-89640834D01*
X150520634Y-89826042D01*
X150520634Y-89826042D01*
G37*
X150520634Y-89826042D02*
X150526750Y-90011250D01*
X150738417Y-90011250D01*
X150744533Y-89826042D01*
X150750648Y-89640834D01*
X150514519Y-89640834D01*
X150520634Y-89826042D01*
G36*
X147383500Y-87799334D02*
X147383500Y-87989834D01*
X148441834Y-87989834D01*
X148441834Y-87778167D01*
X148717000Y-87778167D01*
X148717000Y-88773000D01*
X148674667Y-88773000D01*
X148674667Y-88984667D01*
X148907500Y-88984667D01*
X148907500Y-89316884D01*
X148907319Y-89442189D01*
X148906072Y-89532437D01*
X148902699Y-89594904D01*
X148896143Y-89636864D01*
X148885346Y-89665594D01*
X148869249Y-89688369D01*
X148850540Y-89708554D01*
X148793581Y-89768007D01*
X148734124Y-89711043D01*
X148674667Y-89654080D01*
X148674667Y-88984667D01*
X148674667Y-88773000D01*
X148463000Y-88773000D01*
X148463000Y-89760361D01*
X148630598Y-89919770D01*
X148798195Y-90079179D01*
X148958681Y-89917746D01*
X149119167Y-89756314D01*
X149119167Y-88773000D01*
X148928667Y-88773000D01*
X148928667Y-87777825D01*
X149025312Y-87781480D01*
X149065390Y-87781945D01*
X149098423Y-87776752D01*
X149131489Y-87761241D01*
X149171666Y-87730748D01*
X149226030Y-87680612D01*
X149301660Y-87606170D01*
X149321645Y-87586278D01*
X149521334Y-87387420D01*
X149718210Y-87583478D01*
X149792198Y-87657303D01*
X149849638Y-87711303D01*
X149899199Y-87748656D01*
X149949548Y-87772540D01*
X150009354Y-87786130D01*
X150087284Y-87792606D01*
X150192005Y-87795143D01*
X150299209Y-87796450D01*
X150516167Y-87799334D01*
X150516167Y-88011000D01*
X150727834Y-88011000D01*
X150727834Y-87397167D01*
X150516167Y-87397167D01*
X150516167Y-87587667D01*
X150016981Y-87587667D01*
X149830019Y-87397167D01*
X150050500Y-87397167D01*
X150050500Y-87164334D01*
X149584834Y-87164334D01*
X149584834Y-86423500D01*
X149394334Y-86423500D01*
X149394334Y-87164334D01*
X148949834Y-87164334D01*
X148949834Y-87397167D01*
X149212648Y-87397167D01*
X149025686Y-87587667D01*
X148441834Y-87587667D01*
X148441834Y-87397167D01*
X148230167Y-87397167D01*
X148230167Y-87586564D01*
X148230167Y-87778167D01*
X147571566Y-87778167D01*
X147578075Y-87688209D01*
X147584584Y-87598250D01*
X147907375Y-87592407D01*
X148230167Y-87586564D01*
X148230167Y-87397167D01*
X147383500Y-87397167D01*
X147383500Y-87587667D01*
X146558000Y-87587667D01*
X146558000Y-87799334D01*
X147383500Y-87799334D01*
X147383500Y-87799334D01*
G37*
X147383500Y-87799334D02*
X147383500Y-87989834D01*
X148441834Y-87989834D01*
X148441834Y-87778167D01*
X148717000Y-87778167D01*
X148717000Y-88773000D01*
X148674667Y-88773000D01*
X148674667Y-88984667D01*
X148907500Y-88984667D01*
X148907500Y-89316884D01*
X148907319Y-89442189D01*
X148906072Y-89532437D01*
X148902699Y-89594904D01*
X148896143Y-89636864D01*
X148885346Y-89665594D01*
X148869249Y-89688369D01*
X148850540Y-89708554D01*
X148793581Y-89768007D01*
X148734124Y-89711043D01*
X148674667Y-89654080D01*
X148674667Y-88984667D01*
X148674667Y-88773000D01*
X148463000Y-88773000D01*
X148463000Y-89760361D01*
X148630598Y-89919770D01*
X148798195Y-90079179D01*
X148958681Y-89917746D01*
X149119167Y-89756314D01*
X149119167Y-88773000D01*
X148928667Y-88773000D01*
X148928667Y-87777825D01*
X149025312Y-87781480D01*
X149065390Y-87781945D01*
X149098423Y-87776752D01*
X149131489Y-87761241D01*
X149171666Y-87730748D01*
X149226030Y-87680612D01*
X149301660Y-87606170D01*
X149321645Y-87586278D01*
X149521334Y-87387420D01*
X149718210Y-87583478D01*
X149792198Y-87657303D01*
X149849638Y-87711303D01*
X149899199Y-87748656D01*
X149949548Y-87772540D01*
X150009354Y-87786130D01*
X150087284Y-87792606D01*
X150192005Y-87795143D01*
X150299209Y-87796450D01*
X150516167Y-87799334D01*
X150516167Y-88011000D01*
X150727834Y-88011000D01*
X150727834Y-87397167D01*
X150516167Y-87397167D01*
X150516167Y-87587667D01*
X150016981Y-87587667D01*
X149830019Y-87397167D01*
X150050500Y-87397167D01*
X150050500Y-87164334D01*
X149584834Y-87164334D01*
X149584834Y-86423500D01*
X149394334Y-86423500D01*
X149394334Y-87164334D01*
X148949834Y-87164334D01*
X148949834Y-87397167D01*
X149212648Y-87397167D01*
X149025686Y-87587667D01*
X148441834Y-87587667D01*
X148441834Y-87397167D01*
X148230167Y-87397167D01*
X148230167Y-87586564D01*
X148230167Y-87778167D01*
X147571566Y-87778167D01*
X147578075Y-87688209D01*
X147584584Y-87598250D01*
X147907375Y-87592407D01*
X148230167Y-87586564D01*
X148230167Y-87397167D01*
X147383500Y-87397167D01*
X147383500Y-87587667D01*
X146558000Y-87587667D01*
X146558000Y-87799334D01*
X147383500Y-87799334D01*
G36*
X150727834Y-89217500D02*
X150727834Y-88794167D01*
X150537334Y-88794167D01*
X150537334Y-89217500D01*
X150727834Y-89217500D01*
X150727834Y-89217500D01*
G37*
X150727834Y-89217500D02*
X150727834Y-88794167D01*
X150537334Y-88794167D01*
X150537334Y-89217500D01*
X150727834Y-89217500D01*
G36*
X150262167Y-89196334D02*
X150262167Y-88836500D01*
X150092834Y-88836500D01*
X150092834Y-89196334D01*
X150262167Y-89196334D01*
X150262167Y-89196334D01*
G37*
X150262167Y-89196334D02*
X150262167Y-88836500D01*
X150092834Y-88836500D01*
X150092834Y-89196334D01*
X150262167Y-89196334D01*
G36*
X150262167Y-90000667D02*
X150262167Y-89429167D01*
X150114000Y-89429167D01*
X150114000Y-90000667D01*
X150262167Y-90000667D01*
X150262167Y-90000667D01*
G37*
X150262167Y-90000667D02*
X150262167Y-89429167D01*
X150114000Y-89429167D01*
X150114000Y-90000667D01*
X150262167Y-90000667D01*
M02*
