G04 #@! TF.FileFunction,Legend,Bot*
%FSLAX46Y46*%
G04 Gerber Fmt 4.6, Leading zero omitted, Abs format (unit mm)*
G04 Created by KiCad (PCBNEW 0.201508140901+6091~28~ubuntu14.04.1-product) date Wed 04 Nov 2015 06:06:40 AM PST*
%MOMM*%
G01*
G04 APERTURE LIST*
%ADD10C,0.076200*%
%ADD11C,0.127000*%
%ADD12C,0.010000*%
G04 APERTURE END LIST*
D10*
D11*
X157758714Y-127181000D02*
X157686143Y-127217286D01*
X157577286Y-127217286D01*
X157468429Y-127181000D01*
X157395857Y-127108429D01*
X157359572Y-127035857D01*
X157323286Y-126890714D01*
X157323286Y-126781857D01*
X157359572Y-126636714D01*
X157395857Y-126564143D01*
X157468429Y-126491571D01*
X157577286Y-126455286D01*
X157649857Y-126455286D01*
X157758714Y-126491571D01*
X157795000Y-126527857D01*
X157795000Y-126781857D01*
X157649857Y-126781857D01*
X158847285Y-127217286D02*
X158992428Y-127217286D01*
X159065000Y-127181000D01*
X159137571Y-127108429D01*
X159173857Y-126963286D01*
X159173857Y-126709286D01*
X159137571Y-126564143D01*
X159065000Y-126491571D01*
X158992428Y-126455286D01*
X158847285Y-126455286D01*
X158774714Y-126491571D01*
X158702143Y-126564143D01*
X158665857Y-126709286D01*
X158665857Y-126963286D01*
X158702143Y-127108429D01*
X158774714Y-127181000D01*
X158847285Y-127217286D01*
X159500429Y-127217286D02*
X159500429Y-126600429D01*
X159536714Y-126527857D01*
X159573000Y-126491571D01*
X159645571Y-126455286D01*
X159790714Y-126455286D01*
X159863286Y-126491571D01*
X159899571Y-126527857D01*
X159935857Y-126600429D01*
X159935857Y-127217286D01*
X160189857Y-127217286D02*
X160625286Y-127217286D01*
X160407572Y-126455286D02*
X160407572Y-127217286D01*
X161459857Y-126745571D02*
X162040428Y-126745571D01*
X161750142Y-126455286D02*
X161750142Y-127035857D01*
X158166714Y-89981000D02*
X158094143Y-90017286D01*
X157985286Y-90017286D01*
X157876429Y-89981000D01*
X157803857Y-89908429D01*
X157767572Y-89835857D01*
X157731286Y-89690714D01*
X157731286Y-89581857D01*
X157767572Y-89436714D01*
X157803857Y-89364143D01*
X157876429Y-89291571D01*
X157985286Y-89255286D01*
X158057857Y-89255286D01*
X158166714Y-89291571D01*
X158203000Y-89327857D01*
X158203000Y-89581857D01*
X158057857Y-89581857D01*
X159110143Y-89255286D02*
X159110143Y-90017286D01*
X159473000Y-89255286D02*
X159473000Y-90017286D01*
X159908428Y-89255286D01*
X159908428Y-90017286D01*
X160851857Y-89545571D02*
X161432428Y-89545571D01*
X161142142Y-89255286D02*
X161142142Y-89835857D01*
D12*
G36*
X148086142Y-98859449D02*
X148143512Y-99055215D01*
X148236527Y-99232282D01*
X148362801Y-99387595D01*
X148519947Y-99518098D01*
X148705580Y-99620738D01*
X148873667Y-99680926D01*
X148914673Y-99691381D01*
X148959148Y-99699800D01*
X149011995Y-99706399D01*
X149078119Y-99711391D01*
X149162423Y-99714991D01*
X149269811Y-99717412D01*
X149405187Y-99718870D01*
X149573454Y-99719577D01*
X149762667Y-99719750D01*
X149971570Y-99719629D01*
X150142533Y-99718857D01*
X150279951Y-99716823D01*
X150388217Y-99712914D01*
X150471726Y-99706519D01*
X150534871Y-99697027D01*
X150582047Y-99683824D01*
X150617647Y-99666300D01*
X150646064Y-99643842D01*
X150671694Y-99615838D01*
X150692131Y-99590319D01*
X150725543Y-99518604D01*
X150737178Y-99426921D01*
X150726896Y-99331691D01*
X150695054Y-99250143D01*
X150653904Y-99197364D01*
X150608908Y-99159387D01*
X150605174Y-99157317D01*
X150567029Y-99137053D01*
X150551627Y-99128246D01*
X150555871Y-99108264D01*
X150571806Y-99060410D01*
X150589522Y-99012224D01*
X150638103Y-98826543D01*
X150648306Y-98633208D01*
X150621670Y-98438660D01*
X150559734Y-98249340D01*
X150464038Y-98071691D01*
X150336122Y-97912153D01*
X150323584Y-97899405D01*
X150184230Y-97780300D01*
X150029814Y-97688893D01*
X149855281Y-97623471D01*
X149655579Y-97582323D01*
X149459848Y-97566500D01*
X149459848Y-98189669D01*
X149639035Y-98212307D01*
X149786132Y-98258172D01*
X149899840Y-98326825D01*
X149978859Y-98417825D01*
X149991924Y-98441735D01*
X150019465Y-98522631D01*
X150035251Y-98620989D01*
X150038427Y-98721124D01*
X150028138Y-98807352D01*
X150014081Y-98848017D01*
X149954204Y-98937063D01*
X149874782Y-99004342D01*
X149771151Y-99051715D01*
X149638645Y-99081043D01*
X149472601Y-99094189D01*
X149394345Y-99095334D01*
X149213827Y-99091376D01*
X149069270Y-99078178D01*
X148954930Y-99053750D01*
X148865061Y-99016106D01*
X148793918Y-98963256D01*
X148735755Y-98893213D01*
X148715025Y-98860256D01*
X148682730Y-98771159D01*
X148672531Y-98662504D01*
X148684266Y-98550739D01*
X148717770Y-98452315D01*
X148719105Y-98449750D01*
X148779444Y-98357767D01*
X148854420Y-98289121D01*
X148950465Y-98240675D01*
X149074009Y-98209291D01*
X149231480Y-98191829D01*
X149249868Y-98190697D01*
X149459848Y-98189669D01*
X149459848Y-97566500D01*
X149425655Y-97563735D01*
X149328750Y-97562231D01*
X149205628Y-97562946D01*
X149113703Y-97566067D01*
X149041852Y-97573001D01*
X148978951Y-97585152D01*
X148913875Y-97603926D01*
X148863084Y-97621061D01*
X148709035Y-97681136D01*
X148583253Y-97746607D01*
X148471761Y-97825623D01*
X148392726Y-97895251D01*
X148253005Y-98052034D01*
X148153075Y-98221977D01*
X148091621Y-98408115D01*
X148067330Y-98613484D01*
X148066804Y-98648040D01*
X148086142Y-98859449D01*
X148086142Y-98859449D01*
G37*
X148086142Y-98859449D02*
X148143512Y-99055215D01*
X148236527Y-99232282D01*
X148362801Y-99387595D01*
X148519947Y-99518098D01*
X148705580Y-99620738D01*
X148873667Y-99680926D01*
X148914673Y-99691381D01*
X148959148Y-99699800D01*
X149011995Y-99706399D01*
X149078119Y-99711391D01*
X149162423Y-99714991D01*
X149269811Y-99717412D01*
X149405187Y-99718870D01*
X149573454Y-99719577D01*
X149762667Y-99719750D01*
X149971570Y-99719629D01*
X150142533Y-99718857D01*
X150279951Y-99716823D01*
X150388217Y-99712914D01*
X150471726Y-99706519D01*
X150534871Y-99697027D01*
X150582047Y-99683824D01*
X150617647Y-99666300D01*
X150646064Y-99643842D01*
X150671694Y-99615838D01*
X150692131Y-99590319D01*
X150725543Y-99518604D01*
X150737178Y-99426921D01*
X150726896Y-99331691D01*
X150695054Y-99250143D01*
X150653904Y-99197364D01*
X150608908Y-99159387D01*
X150605174Y-99157317D01*
X150567029Y-99137053D01*
X150551627Y-99128246D01*
X150555871Y-99108264D01*
X150571806Y-99060410D01*
X150589522Y-99012224D01*
X150638103Y-98826543D01*
X150648306Y-98633208D01*
X150621670Y-98438660D01*
X150559734Y-98249340D01*
X150464038Y-98071691D01*
X150336122Y-97912153D01*
X150323584Y-97899405D01*
X150184230Y-97780300D01*
X150029814Y-97688893D01*
X149855281Y-97623471D01*
X149655579Y-97582323D01*
X149459848Y-97566500D01*
X149459848Y-98189669D01*
X149639035Y-98212307D01*
X149786132Y-98258172D01*
X149899840Y-98326825D01*
X149978859Y-98417825D01*
X149991924Y-98441735D01*
X150019465Y-98522631D01*
X150035251Y-98620989D01*
X150038427Y-98721124D01*
X150028138Y-98807352D01*
X150014081Y-98848017D01*
X149954204Y-98937063D01*
X149874782Y-99004342D01*
X149771151Y-99051715D01*
X149638645Y-99081043D01*
X149472601Y-99094189D01*
X149394345Y-99095334D01*
X149213827Y-99091376D01*
X149069270Y-99078178D01*
X148954930Y-99053750D01*
X148865061Y-99016106D01*
X148793918Y-98963256D01*
X148735755Y-98893213D01*
X148715025Y-98860256D01*
X148682730Y-98771159D01*
X148672531Y-98662504D01*
X148684266Y-98550739D01*
X148717770Y-98452315D01*
X148719105Y-98449750D01*
X148779444Y-98357767D01*
X148854420Y-98289121D01*
X148950465Y-98240675D01*
X149074009Y-98209291D01*
X149231480Y-98191829D01*
X149249868Y-98190697D01*
X149459848Y-98189669D01*
X149459848Y-97566500D01*
X149425655Y-97563735D01*
X149328750Y-97562231D01*
X149205628Y-97562946D01*
X149113703Y-97566067D01*
X149041852Y-97573001D01*
X148978951Y-97585152D01*
X148913875Y-97603926D01*
X148863084Y-97621061D01*
X148709035Y-97681136D01*
X148583253Y-97746607D01*
X148471761Y-97825623D01*
X148392726Y-97895251D01*
X148253005Y-98052034D01*
X148153075Y-98221977D01*
X148091621Y-98408115D01*
X148067330Y-98613484D01*
X148066804Y-98648040D01*
X148086142Y-98859449D01*
G36*
X146849793Y-91578391D02*
X146893973Y-91670663D01*
X146967811Y-91745573D01*
X146990582Y-91760335D01*
X147010526Y-91771007D01*
X147033385Y-91779842D01*
X147063298Y-91787074D01*
X147104406Y-91792937D01*
X147160846Y-91797668D01*
X147236759Y-91801500D01*
X147336282Y-91804670D01*
X147463555Y-91807411D01*
X147622717Y-91809960D01*
X147817907Y-91812550D01*
X147935709Y-91814000D01*
X148807500Y-91824584D01*
X148373094Y-92300834D01*
X148231727Y-92455883D01*
X148116268Y-92583143D01*
X148024150Y-92686153D01*
X147952808Y-92768449D01*
X147899677Y-92833571D01*
X147862189Y-92885055D01*
X147837780Y-92926439D01*
X147823883Y-92961262D01*
X147817932Y-92993062D01*
X147817362Y-93025376D01*
X147819606Y-93061742D01*
X147819751Y-93063795D01*
X147835206Y-93158660D01*
X147864362Y-93229503D01*
X147869288Y-93236634D01*
X147948281Y-93312165D01*
X148043024Y-93354932D01*
X148143909Y-93362825D01*
X148241328Y-93333735D01*
X148260708Y-93322565D01*
X148293857Y-93294822D01*
X148349946Y-93240380D01*
X148424015Y-93164378D01*
X148511104Y-93071955D01*
X148606253Y-92968253D01*
X148656693Y-92912220D01*
X148750574Y-92807678D01*
X148835304Y-92714164D01*
X148906754Y-92636167D01*
X148960794Y-92578176D01*
X148993295Y-92544682D01*
X149000707Y-92538223D01*
X149020414Y-92549244D01*
X149069586Y-92583292D01*
X149144253Y-92637428D01*
X149240443Y-92708717D01*
X149354185Y-92794221D01*
X149481509Y-92891003D01*
X149584956Y-92970326D01*
X149752613Y-93099259D01*
X149890288Y-93204691D01*
X150001512Y-93288985D01*
X150089816Y-93354504D01*
X150158731Y-93403612D01*
X150211788Y-93438674D01*
X150252519Y-93462052D01*
X150284453Y-93476109D01*
X150311123Y-93483211D01*
X150336058Y-93485719D01*
X150355334Y-93486009D01*
X150454159Y-93466983D01*
X150537537Y-93415450D01*
X150601226Y-93339725D01*
X150640985Y-93248123D01*
X150652572Y-93148961D01*
X150631746Y-93050553D01*
X150604028Y-92998403D01*
X150576025Y-92968740D01*
X150518565Y-92917218D01*
X150436019Y-92847430D01*
X150332759Y-92762969D01*
X150213155Y-92667427D01*
X150081578Y-92564398D01*
X149991498Y-92494957D01*
X149426607Y-92062203D01*
X149535846Y-91938101D01*
X149645084Y-91814000D01*
X149984334Y-91813483D01*
X150159503Y-91811081D01*
X150297270Y-91804026D01*
X150402381Y-91791651D01*
X150479578Y-91773287D01*
X150533607Y-91748268D01*
X150552979Y-91733450D01*
X150612791Y-91656227D01*
X150650539Y-91560577D01*
X150661295Y-91462649D01*
X150652286Y-91407998D01*
X150598297Y-91300935D01*
X150510256Y-91218624D01*
X150509957Y-91218427D01*
X150497614Y-91211330D01*
X150481682Y-91205144D01*
X150459345Y-91199808D01*
X150427788Y-91195258D01*
X150384196Y-91191432D01*
X150325754Y-91188268D01*
X150249646Y-91185702D01*
X150153057Y-91183672D01*
X150033172Y-91182116D01*
X149887175Y-91180971D01*
X149712251Y-91180174D01*
X149505584Y-91179662D01*
X149264361Y-91179374D01*
X148985764Y-91179247D01*
X148746667Y-91179219D01*
X148438059Y-91179235D01*
X148168950Y-91179352D01*
X147936508Y-91179635D01*
X147737898Y-91180151D01*
X147570288Y-91180964D01*
X147430842Y-91182142D01*
X147316728Y-91183750D01*
X147225113Y-91185855D01*
X147153162Y-91188522D01*
X147098042Y-91191816D01*
X147056920Y-91195805D01*
X147026961Y-91200555D01*
X147005332Y-91206130D01*
X146989200Y-91212598D01*
X146975732Y-91220023D01*
X146974986Y-91220477D01*
X146897867Y-91289799D01*
X146851473Y-91378719D01*
X146835538Y-91477996D01*
X146849793Y-91578391D01*
X146849793Y-91578391D01*
G37*
X146849793Y-91578391D02*
X146893973Y-91670663D01*
X146967811Y-91745573D01*
X146990582Y-91760335D01*
X147010526Y-91771007D01*
X147033385Y-91779842D01*
X147063298Y-91787074D01*
X147104406Y-91792937D01*
X147160846Y-91797668D01*
X147236759Y-91801500D01*
X147336282Y-91804670D01*
X147463555Y-91807411D01*
X147622717Y-91809960D01*
X147817907Y-91812550D01*
X147935709Y-91814000D01*
X148807500Y-91824584D01*
X148373094Y-92300834D01*
X148231727Y-92455883D01*
X148116268Y-92583143D01*
X148024150Y-92686153D01*
X147952808Y-92768449D01*
X147899677Y-92833571D01*
X147862189Y-92885055D01*
X147837780Y-92926439D01*
X147823883Y-92961262D01*
X147817932Y-92993062D01*
X147817362Y-93025376D01*
X147819606Y-93061742D01*
X147819751Y-93063795D01*
X147835206Y-93158660D01*
X147864362Y-93229503D01*
X147869288Y-93236634D01*
X147948281Y-93312165D01*
X148043024Y-93354932D01*
X148143909Y-93362825D01*
X148241328Y-93333735D01*
X148260708Y-93322565D01*
X148293857Y-93294822D01*
X148349946Y-93240380D01*
X148424015Y-93164378D01*
X148511104Y-93071955D01*
X148606253Y-92968253D01*
X148656693Y-92912220D01*
X148750574Y-92807678D01*
X148835304Y-92714164D01*
X148906754Y-92636167D01*
X148960794Y-92578176D01*
X148993295Y-92544682D01*
X149000707Y-92538223D01*
X149020414Y-92549244D01*
X149069586Y-92583292D01*
X149144253Y-92637428D01*
X149240443Y-92708717D01*
X149354185Y-92794221D01*
X149481509Y-92891003D01*
X149584956Y-92970326D01*
X149752613Y-93099259D01*
X149890288Y-93204691D01*
X150001512Y-93288985D01*
X150089816Y-93354504D01*
X150158731Y-93403612D01*
X150211788Y-93438674D01*
X150252519Y-93462052D01*
X150284453Y-93476109D01*
X150311123Y-93483211D01*
X150336058Y-93485719D01*
X150355334Y-93486009D01*
X150454159Y-93466983D01*
X150537537Y-93415450D01*
X150601226Y-93339725D01*
X150640985Y-93248123D01*
X150652572Y-93148961D01*
X150631746Y-93050553D01*
X150604028Y-92998403D01*
X150576025Y-92968740D01*
X150518565Y-92917218D01*
X150436019Y-92847430D01*
X150332759Y-92762969D01*
X150213155Y-92667427D01*
X150081578Y-92564398D01*
X149991498Y-92494957D01*
X149426607Y-92062203D01*
X149535846Y-91938101D01*
X149645084Y-91814000D01*
X149984334Y-91813483D01*
X150159503Y-91811081D01*
X150297270Y-91804026D01*
X150402381Y-91791651D01*
X150479578Y-91773287D01*
X150533607Y-91748268D01*
X150552979Y-91733450D01*
X150612791Y-91656227D01*
X150650539Y-91560577D01*
X150661295Y-91462649D01*
X150652286Y-91407998D01*
X150598297Y-91300935D01*
X150510256Y-91218624D01*
X150509957Y-91218427D01*
X150497614Y-91211330D01*
X150481682Y-91205144D01*
X150459345Y-91199808D01*
X150427788Y-91195258D01*
X150384196Y-91191432D01*
X150325754Y-91188268D01*
X150249646Y-91185702D01*
X150153057Y-91183672D01*
X150033172Y-91182116D01*
X149887175Y-91180971D01*
X149712251Y-91180174D01*
X149505584Y-91179662D01*
X149264361Y-91179374D01*
X148985764Y-91179247D01*
X148746667Y-91179219D01*
X148438059Y-91179235D01*
X148168950Y-91179352D01*
X147936508Y-91179635D01*
X147737898Y-91180151D01*
X147570288Y-91180964D01*
X147430842Y-91182142D01*
X147316728Y-91183750D01*
X147225113Y-91185855D01*
X147153162Y-91188522D01*
X147098042Y-91191816D01*
X147056920Y-91195805D01*
X147026961Y-91200555D01*
X147005332Y-91206130D01*
X146989200Y-91212598D01*
X146975732Y-91220023D01*
X146974986Y-91220477D01*
X146897867Y-91289799D01*
X146851473Y-91378719D01*
X146835538Y-91477996D01*
X146849793Y-91578391D01*
G36*
X147948789Y-94212702D02*
X147974683Y-94322494D01*
X148033214Y-94406880D01*
X148112018Y-94462978D01*
X148130251Y-94471635D01*
X148152346Y-94478919D01*
X148181884Y-94484948D01*
X148222448Y-94489839D01*
X148277619Y-94493711D01*
X148350978Y-94496681D01*
X148446107Y-94498867D01*
X148566587Y-94500387D01*
X148716000Y-94501359D01*
X148897928Y-94501900D01*
X149115952Y-94502129D01*
X149303013Y-94502167D01*
X149555785Y-94502152D01*
X149769766Y-94501906D01*
X149948500Y-94501125D01*
X150095527Y-94499508D01*
X150214390Y-94496752D01*
X150308633Y-94492554D01*
X150381797Y-94486612D01*
X150437425Y-94478623D01*
X150479060Y-94468284D01*
X150510243Y-94455293D01*
X150534517Y-94439347D01*
X150555425Y-94420145D01*
X150576510Y-94397382D01*
X150580442Y-94393053D01*
X150612033Y-94351779D01*
X150635638Y-94301076D01*
X150657706Y-94226287D01*
X150662826Y-94205834D01*
X150661058Y-94166854D01*
X150647108Y-94108449D01*
X150640866Y-94089417D01*
X150585760Y-93989552D01*
X150503789Y-93917529D01*
X150402153Y-93879501D01*
X150393718Y-93878159D01*
X150354785Y-93875683D01*
X150278002Y-93873612D01*
X150167849Y-93871974D01*
X150028809Y-93870795D01*
X149865363Y-93870101D01*
X149681992Y-93869920D01*
X149483177Y-93870276D01*
X149273400Y-93871198D01*
X149244084Y-93871369D01*
X149004844Y-93872867D01*
X148804195Y-93874338D01*
X148638394Y-93875946D01*
X148503701Y-93877856D01*
X148396372Y-93880231D01*
X148312665Y-93883236D01*
X148248839Y-93887035D01*
X148201151Y-93891792D01*
X148165860Y-93897672D01*
X148139223Y-93904839D01*
X148117498Y-93913457D01*
X148101084Y-93921536D01*
X148014100Y-93987354D01*
X147962660Y-94075941D01*
X147947318Y-94186238D01*
X147948789Y-94212702D01*
X147948789Y-94212702D01*
G37*
X147948789Y-94212702D02*
X147974683Y-94322494D01*
X148033214Y-94406880D01*
X148112018Y-94462978D01*
X148130251Y-94471635D01*
X148152346Y-94478919D01*
X148181884Y-94484948D01*
X148222448Y-94489839D01*
X148277619Y-94493711D01*
X148350978Y-94496681D01*
X148446107Y-94498867D01*
X148566587Y-94500387D01*
X148716000Y-94501359D01*
X148897928Y-94501900D01*
X149115952Y-94502129D01*
X149303013Y-94502167D01*
X149555785Y-94502152D01*
X149769766Y-94501906D01*
X149948500Y-94501125D01*
X150095527Y-94499508D01*
X150214390Y-94496752D01*
X150308633Y-94492554D01*
X150381797Y-94486612D01*
X150437425Y-94478623D01*
X150479060Y-94468284D01*
X150510243Y-94455293D01*
X150534517Y-94439347D01*
X150555425Y-94420145D01*
X150576510Y-94397382D01*
X150580442Y-94393053D01*
X150612033Y-94351779D01*
X150635638Y-94301076D01*
X150657706Y-94226287D01*
X150662826Y-94205834D01*
X150661058Y-94166854D01*
X150647108Y-94108449D01*
X150640866Y-94089417D01*
X150585760Y-93989552D01*
X150503789Y-93917529D01*
X150402153Y-93879501D01*
X150393718Y-93878159D01*
X150354785Y-93875683D01*
X150278002Y-93873612D01*
X150167849Y-93871974D01*
X150028809Y-93870795D01*
X149865363Y-93870101D01*
X149681992Y-93869920D01*
X149483177Y-93870276D01*
X149273400Y-93871198D01*
X149244084Y-93871369D01*
X149004844Y-93872867D01*
X148804195Y-93874338D01*
X148638394Y-93875946D01*
X148503701Y-93877856D01*
X148396372Y-93880231D01*
X148312665Y-93883236D01*
X148248839Y-93887035D01*
X148201151Y-93891792D01*
X148165860Y-93897672D01*
X148139223Y-93904839D01*
X148117498Y-93913457D01*
X148101084Y-93921536D01*
X148014100Y-93987354D01*
X147962660Y-94075941D01*
X147947318Y-94186238D01*
X147948789Y-94212702D01*
G36*
X146918258Y-102326111D02*
X146983875Y-102422611D01*
X147001981Y-102441193D01*
X147076830Y-102513750D01*
X148329790Y-102519710D01*
X148611281Y-102520922D01*
X148854084Y-102521525D01*
X149061841Y-102521280D01*
X149238198Y-102519945D01*
X149386796Y-102517281D01*
X149511281Y-102513048D01*
X149615294Y-102507006D01*
X149702479Y-102498915D01*
X149776481Y-102488534D01*
X149840942Y-102475624D01*
X149899506Y-102459945D01*
X149955816Y-102441256D01*
X150013516Y-102419317D01*
X150044876Y-102406709D01*
X150222181Y-102312748D01*
X150373637Y-102187193D01*
X150495513Y-102034164D01*
X150584079Y-101857779D01*
X150608545Y-101784379D01*
X150639233Y-101660636D01*
X150655061Y-101544696D01*
X150657417Y-101419679D01*
X150649360Y-101287729D01*
X150639246Y-101200056D01*
X150622737Y-101125528D01*
X150595145Y-101049160D01*
X150551781Y-100955969D01*
X150535171Y-100922837D01*
X150416061Y-100731190D01*
X150269030Y-100571329D01*
X150094342Y-100443456D01*
X149892262Y-100347771D01*
X149705572Y-100293306D01*
X149579116Y-100273656D01*
X149426225Y-100262766D01*
X149328572Y-100261523D01*
X149328572Y-100877550D01*
X149491604Y-100895189D01*
X149646206Y-100933647D01*
X149785374Y-100992004D01*
X149902101Y-101069342D01*
X149989381Y-101164742D01*
X150011182Y-101201280D01*
X150064326Y-101340319D01*
X150077277Y-101474863D01*
X150049812Y-101601622D01*
X150039915Y-101624750D01*
X149976103Y-101730441D01*
X149891803Y-101807474D01*
X149807003Y-101853962D01*
X149765297Y-101870520D01*
X149718963Y-101882827D01*
X149660427Y-101891734D01*
X149582116Y-101898091D01*
X149476455Y-101902749D01*
X149339334Y-101906479D01*
X149157268Y-101908595D01*
X149016436Y-101905639D01*
X148917139Y-101897621D01*
X148875146Y-101889737D01*
X148772791Y-101841082D01*
X148685721Y-101757696D01*
X148618154Y-101645712D01*
X148574309Y-101511261D01*
X148562355Y-101435174D01*
X148568730Y-101314406D01*
X148607938Y-101194587D01*
X148674020Y-101089803D01*
X148732276Y-101033553D01*
X148858964Y-100958730D01*
X149005246Y-100908402D01*
X149164118Y-100881648D01*
X149328572Y-100877550D01*
X149328572Y-100261523D01*
X149261887Y-100260674D01*
X149101094Y-100267414D01*
X148958832Y-100283023D01*
X148912092Y-100291422D01*
X148699632Y-100355055D01*
X148506803Y-100452527D01*
X148337576Y-100580351D01*
X148195920Y-100735039D01*
X148085804Y-100913102D01*
X148022004Y-101073538D01*
X147986394Y-101242950D01*
X147976230Y-101425837D01*
X147991470Y-101605491D01*
X148023705Y-101741167D01*
X148046429Y-101812574D01*
X148062719Y-101867683D01*
X148069060Y-101894597D01*
X148069060Y-101894625D01*
X148048970Y-101899183D01*
X147992510Y-101903229D01*
X147905643Y-101906566D01*
X147794333Y-101908994D01*
X147664542Y-101910316D01*
X147592032Y-101910500D01*
X147424067Y-101910985D01*
X147292760Y-101913135D01*
X147192443Y-101917993D01*
X147117446Y-101926603D01*
X147062100Y-101940007D01*
X147020735Y-101959248D01*
X146987682Y-101985371D01*
X146957270Y-102019417D01*
X146949925Y-102028641D01*
X146900463Y-102122619D01*
X146890181Y-102223945D01*
X146918258Y-102326111D01*
X146918258Y-102326111D01*
G37*
X146918258Y-102326111D02*
X146983875Y-102422611D01*
X147001981Y-102441193D01*
X147076830Y-102513750D01*
X148329790Y-102519710D01*
X148611281Y-102520922D01*
X148854084Y-102521525D01*
X149061841Y-102521280D01*
X149238198Y-102519945D01*
X149386796Y-102517281D01*
X149511281Y-102513048D01*
X149615294Y-102507006D01*
X149702479Y-102498915D01*
X149776481Y-102488534D01*
X149840942Y-102475624D01*
X149899506Y-102459945D01*
X149955816Y-102441256D01*
X150013516Y-102419317D01*
X150044876Y-102406709D01*
X150222181Y-102312748D01*
X150373637Y-102187193D01*
X150495513Y-102034164D01*
X150584079Y-101857779D01*
X150608545Y-101784379D01*
X150639233Y-101660636D01*
X150655061Y-101544696D01*
X150657417Y-101419679D01*
X150649360Y-101287729D01*
X150639246Y-101200056D01*
X150622737Y-101125528D01*
X150595145Y-101049160D01*
X150551781Y-100955969D01*
X150535171Y-100922837D01*
X150416061Y-100731190D01*
X150269030Y-100571329D01*
X150094342Y-100443456D01*
X149892262Y-100347771D01*
X149705572Y-100293306D01*
X149579116Y-100273656D01*
X149426225Y-100262766D01*
X149328572Y-100261523D01*
X149328572Y-100877550D01*
X149491604Y-100895189D01*
X149646206Y-100933647D01*
X149785374Y-100992004D01*
X149902101Y-101069342D01*
X149989381Y-101164742D01*
X150011182Y-101201280D01*
X150064326Y-101340319D01*
X150077277Y-101474863D01*
X150049812Y-101601622D01*
X150039915Y-101624750D01*
X149976103Y-101730441D01*
X149891803Y-101807474D01*
X149807003Y-101853962D01*
X149765297Y-101870520D01*
X149718963Y-101882827D01*
X149660427Y-101891734D01*
X149582116Y-101898091D01*
X149476455Y-101902749D01*
X149339334Y-101906479D01*
X149157268Y-101908595D01*
X149016436Y-101905639D01*
X148917139Y-101897621D01*
X148875146Y-101889737D01*
X148772791Y-101841082D01*
X148685721Y-101757696D01*
X148618154Y-101645712D01*
X148574309Y-101511261D01*
X148562355Y-101435174D01*
X148568730Y-101314406D01*
X148607938Y-101194587D01*
X148674020Y-101089803D01*
X148732276Y-101033553D01*
X148858964Y-100958730D01*
X149005246Y-100908402D01*
X149164118Y-100881648D01*
X149328572Y-100877550D01*
X149328572Y-100261523D01*
X149261887Y-100260674D01*
X149101094Y-100267414D01*
X148958832Y-100283023D01*
X148912092Y-100291422D01*
X148699632Y-100355055D01*
X148506803Y-100452527D01*
X148337576Y-100580351D01*
X148195920Y-100735039D01*
X148085804Y-100913102D01*
X148022004Y-101073538D01*
X147986394Y-101242950D01*
X147976230Y-101425837D01*
X147991470Y-101605491D01*
X148023705Y-101741167D01*
X148046429Y-101812574D01*
X148062719Y-101867683D01*
X148069060Y-101894597D01*
X148069060Y-101894625D01*
X148048970Y-101899183D01*
X147992510Y-101903229D01*
X147905643Y-101906566D01*
X147794333Y-101908994D01*
X147664542Y-101910316D01*
X147592032Y-101910500D01*
X147424067Y-101910985D01*
X147292760Y-101913135D01*
X147192443Y-101917993D01*
X147117446Y-101926603D01*
X147062100Y-101940007D01*
X147020735Y-101959248D01*
X146987682Y-101985371D01*
X146957270Y-102019417D01*
X146949925Y-102028641D01*
X146900463Y-102122619D01*
X146890181Y-102223945D01*
X146918258Y-102326111D01*
G36*
X145021404Y-86998013D02*
X145021413Y-87104747D01*
X145021473Y-87365159D01*
X145021753Y-87586604D01*
X145022350Y-87772446D01*
X145023360Y-87926051D01*
X145024879Y-88050784D01*
X145027002Y-88150012D01*
X145029826Y-88227099D01*
X145033448Y-88285410D01*
X145037962Y-88328312D01*
X145043466Y-88359169D01*
X145050055Y-88381347D01*
X145057825Y-88398211D01*
X145058375Y-88399207D01*
X145079226Y-88425685D01*
X145126978Y-88479812D01*
X145199062Y-88558849D01*
X145292906Y-88660057D01*
X145405939Y-88780695D01*
X145535592Y-88918023D01*
X145679293Y-89069304D01*
X145834472Y-89231796D01*
X145998559Y-89402760D01*
X146056102Y-89462519D01*
X146255667Y-89669293D01*
X146428160Y-89847298D01*
X146575602Y-89998517D01*
X146700013Y-90124937D01*
X146803413Y-90228542D01*
X146887822Y-90311316D01*
X146955260Y-90375245D01*
X147007747Y-90422312D01*
X147047304Y-90454503D01*
X147075949Y-90473803D01*
X147093269Y-90481566D01*
X147131483Y-90486340D01*
X147210679Y-90490342D01*
X147331032Y-90493572D01*
X147492719Y-90496034D01*
X147695914Y-90497728D01*
X147940795Y-90498656D01*
X148227536Y-90498820D01*
X148556314Y-90498221D01*
X148792749Y-90497424D01*
X149093203Y-90496230D01*
X149354218Y-90495099D01*
X149578685Y-90493947D01*
X149769498Y-90492686D01*
X149929550Y-90491231D01*
X150061734Y-90489496D01*
X150168943Y-90487395D01*
X150254071Y-90484841D01*
X150320009Y-90481749D01*
X150369651Y-90478033D01*
X150405890Y-90473607D01*
X150431619Y-90468384D01*
X150449731Y-90462280D01*
X150463119Y-90455207D01*
X150474191Y-90447442D01*
X150567174Y-90355575D01*
X150622918Y-90245417D01*
X150631400Y-90214279D01*
X150634626Y-90179193D01*
X150637524Y-90105539D01*
X150640099Y-89996864D01*
X150642354Y-89856715D01*
X150644293Y-89688640D01*
X150645919Y-89496186D01*
X150647238Y-89282900D01*
X150648251Y-89052329D01*
X150648964Y-88808020D01*
X150649380Y-88553521D01*
X150649502Y-88292378D01*
X150649335Y-88028139D01*
X150648882Y-87764352D01*
X150648148Y-87504563D01*
X150647135Y-87252320D01*
X150645848Y-87011169D01*
X150644290Y-86784659D01*
X150642466Y-86576335D01*
X150640379Y-86389746D01*
X150638033Y-86228439D01*
X150635431Y-86095961D01*
X150632578Y-85995858D01*
X150629477Y-85931679D01*
X150626797Y-85908500D01*
X150576369Y-85799134D01*
X150497435Y-85713687D01*
X150413906Y-85666394D01*
X150397344Y-85661219D01*
X150374980Y-85656607D01*
X150344528Y-85652532D01*
X150303705Y-85648969D01*
X150250225Y-85645894D01*
X150181803Y-85643283D01*
X150096155Y-85641110D01*
X149990996Y-85639350D01*
X149864042Y-85637980D01*
X149713006Y-85636974D01*
X149535606Y-85636308D01*
X149329555Y-85635957D01*
X149092569Y-85635895D01*
X148822363Y-85636099D01*
X148516653Y-85636544D01*
X148173153Y-85637205D01*
X147994267Y-85637601D01*
X147994267Y-85995729D01*
X148279839Y-85996013D01*
X148553655Y-85996649D01*
X148810731Y-85997622D01*
X149046085Y-85998918D01*
X149254735Y-86000519D01*
X149431699Y-86002411D01*
X149571993Y-86004578D01*
X149588042Y-86004894D01*
X150291834Y-86019234D01*
X150291834Y-90141834D01*
X147165191Y-90141834D01*
X146252606Y-89205209D01*
X145340020Y-88268584D01*
X145344718Y-87136167D01*
X145349417Y-86003750D01*
X147116834Y-85997152D01*
X147407782Y-85996283D01*
X147701920Y-85995814D01*
X147994267Y-85995729D01*
X147994267Y-85637601D01*
X147794167Y-85638046D01*
X145264750Y-85643917D01*
X145183195Y-85694616D01*
X145150149Y-85714627D01*
X145121930Y-85732627D01*
X145098157Y-85751930D01*
X145078451Y-85775848D01*
X145062432Y-85807697D01*
X145049718Y-85850791D01*
X145039931Y-85908442D01*
X145032689Y-85983966D01*
X145027612Y-86080677D01*
X145024321Y-86201887D01*
X145022435Y-86350912D01*
X145021573Y-86531065D01*
X145021357Y-86745661D01*
X145021404Y-86998013D01*
X145021404Y-86998013D01*
G37*
X145021404Y-86998013D02*
X145021413Y-87104747D01*
X145021473Y-87365159D01*
X145021753Y-87586604D01*
X145022350Y-87772446D01*
X145023360Y-87926051D01*
X145024879Y-88050784D01*
X145027002Y-88150012D01*
X145029826Y-88227099D01*
X145033448Y-88285410D01*
X145037962Y-88328312D01*
X145043466Y-88359169D01*
X145050055Y-88381347D01*
X145057825Y-88398211D01*
X145058375Y-88399207D01*
X145079226Y-88425685D01*
X145126978Y-88479812D01*
X145199062Y-88558849D01*
X145292906Y-88660057D01*
X145405939Y-88780695D01*
X145535592Y-88918023D01*
X145679293Y-89069304D01*
X145834472Y-89231796D01*
X145998559Y-89402760D01*
X146056102Y-89462519D01*
X146255667Y-89669293D01*
X146428160Y-89847298D01*
X146575602Y-89998517D01*
X146700013Y-90124937D01*
X146803413Y-90228542D01*
X146887822Y-90311316D01*
X146955260Y-90375245D01*
X147007747Y-90422312D01*
X147047304Y-90454503D01*
X147075949Y-90473803D01*
X147093269Y-90481566D01*
X147131483Y-90486340D01*
X147210679Y-90490342D01*
X147331032Y-90493572D01*
X147492719Y-90496034D01*
X147695914Y-90497728D01*
X147940795Y-90498656D01*
X148227536Y-90498820D01*
X148556314Y-90498221D01*
X148792749Y-90497424D01*
X149093203Y-90496230D01*
X149354218Y-90495099D01*
X149578685Y-90493947D01*
X149769498Y-90492686D01*
X149929550Y-90491231D01*
X150061734Y-90489496D01*
X150168943Y-90487395D01*
X150254071Y-90484841D01*
X150320009Y-90481749D01*
X150369651Y-90478033D01*
X150405890Y-90473607D01*
X150431619Y-90468384D01*
X150449731Y-90462280D01*
X150463119Y-90455207D01*
X150474191Y-90447442D01*
X150567174Y-90355575D01*
X150622918Y-90245417D01*
X150631400Y-90214279D01*
X150634626Y-90179193D01*
X150637524Y-90105539D01*
X150640099Y-89996864D01*
X150642354Y-89856715D01*
X150644293Y-89688640D01*
X150645919Y-89496186D01*
X150647238Y-89282900D01*
X150648251Y-89052329D01*
X150648964Y-88808020D01*
X150649380Y-88553521D01*
X150649502Y-88292378D01*
X150649335Y-88028139D01*
X150648882Y-87764352D01*
X150648148Y-87504563D01*
X150647135Y-87252320D01*
X150645848Y-87011169D01*
X150644290Y-86784659D01*
X150642466Y-86576335D01*
X150640379Y-86389746D01*
X150638033Y-86228439D01*
X150635431Y-86095961D01*
X150632578Y-85995858D01*
X150629477Y-85931679D01*
X150626797Y-85908500D01*
X150576369Y-85799134D01*
X150497435Y-85713687D01*
X150413906Y-85666394D01*
X150397344Y-85661219D01*
X150374980Y-85656607D01*
X150344528Y-85652532D01*
X150303705Y-85648969D01*
X150250225Y-85645894D01*
X150181803Y-85643283D01*
X150096155Y-85641110D01*
X149990996Y-85639350D01*
X149864042Y-85637980D01*
X149713006Y-85636974D01*
X149535606Y-85636308D01*
X149329555Y-85635957D01*
X149092569Y-85635895D01*
X148822363Y-85636099D01*
X148516653Y-85636544D01*
X148173153Y-85637205D01*
X147994267Y-85637601D01*
X147994267Y-85995729D01*
X148279839Y-85996013D01*
X148553655Y-85996649D01*
X148810731Y-85997622D01*
X149046085Y-85998918D01*
X149254735Y-86000519D01*
X149431699Y-86002411D01*
X149571993Y-86004578D01*
X149588042Y-86004894D01*
X150291834Y-86019234D01*
X150291834Y-90141834D01*
X147165191Y-90141834D01*
X146252606Y-89205209D01*
X145340020Y-88268584D01*
X145344718Y-87136167D01*
X145349417Y-86003750D01*
X147116834Y-85997152D01*
X147407782Y-85996283D01*
X147701920Y-85995814D01*
X147994267Y-85995729D01*
X147994267Y-85637601D01*
X147794167Y-85638046D01*
X145264750Y-85643917D01*
X145183195Y-85694616D01*
X145150149Y-85714627D01*
X145121930Y-85732627D01*
X145098157Y-85751930D01*
X145078451Y-85775848D01*
X145062432Y-85807697D01*
X145049718Y-85850791D01*
X145039931Y-85908442D01*
X145032689Y-85983966D01*
X145027612Y-86080677D01*
X145024321Y-86201887D01*
X145022435Y-86350912D01*
X145021573Y-86531065D01*
X145021357Y-86745661D01*
X145021404Y-86998013D01*
G36*
X147952074Y-96375293D02*
X147978695Y-96517005D01*
X148019290Y-96656163D01*
X148070586Y-96784055D01*
X148129312Y-96891969D01*
X148192192Y-96971194D01*
X148228316Y-96999977D01*
X148323555Y-97035714D01*
X148425653Y-97035894D01*
X148523228Y-97003161D01*
X148604897Y-96940160D01*
X148631006Y-96906400D01*
X148671893Y-96811839D01*
X148674770Y-96708125D01*
X148639590Y-96591065D01*
X148627267Y-96564194D01*
X148596885Y-96495681D01*
X148578659Y-96434881D01*
X148569627Y-96366327D01*
X148566825Y-96274556D01*
X148566750Y-96248417D01*
X148568420Y-96150214D01*
X148575090Y-96080855D01*
X148589253Y-96026924D01*
X148613404Y-95975005D01*
X148619667Y-95963655D01*
X148696337Y-95862779D01*
X148799869Y-95775359D01*
X148914805Y-95713799D01*
X148943349Y-95703951D01*
X149006752Y-95692065D01*
X149104401Y-95683253D01*
X149228279Y-95678077D01*
X149329313Y-95676917D01*
X149626208Y-95676917D01*
X149773813Y-95751000D01*
X149859092Y-95797745D01*
X149917602Y-95841970D01*
X149962618Y-95894887D01*
X149984917Y-95929257D01*
X150014863Y-95981648D01*
X150033564Y-96027690D01*
X150043632Y-96080024D01*
X150047679Y-96151290D01*
X150048336Y-96236174D01*
X150047247Y-96333738D01*
X150042135Y-96402659D01*
X150030093Y-96456614D01*
X150008214Y-96509279D01*
X149978239Y-96565917D01*
X149939098Y-96643118D01*
X149920702Y-96699606D01*
X149919200Y-96749122D01*
X149921889Y-96767000D01*
X149960538Y-96878553D01*
X150026687Y-96964472D01*
X150113727Y-97020745D01*
X150215047Y-97043363D01*
X150324037Y-97028314D01*
X150342142Y-97021992D01*
X150394392Y-96984768D01*
X150452059Y-96915065D01*
X150509827Y-96821355D01*
X150562377Y-96712108D01*
X150599260Y-96612449D01*
X150625212Y-96521507D01*
X150640895Y-96438161D01*
X150648404Y-96346159D01*
X150649838Y-96229252D01*
X150649774Y-96220866D01*
X150646268Y-96114345D01*
X150638373Y-96011827D01*
X150627429Y-95928018D01*
X150619881Y-95892557D01*
X150556170Y-95725443D01*
X150461333Y-95562346D01*
X150343044Y-95413100D01*
X150208979Y-95287539D01*
X150081959Y-95203330D01*
X149949449Y-95140949D01*
X149814521Y-95095927D01*
X149667341Y-95066249D01*
X149498076Y-95049905D01*
X149307584Y-95044895D01*
X149078807Y-95052408D01*
X148882695Y-95077639D01*
X148712456Y-95122967D01*
X148561297Y-95190771D01*
X148422428Y-95283431D01*
X148291584Y-95400774D01*
X148146246Y-95571994D01*
X148041046Y-95754151D01*
X147974386Y-95951087D01*
X147944668Y-96166641D01*
X147942701Y-96239739D01*
X147952074Y-96375293D01*
X147952074Y-96375293D01*
G37*
X147952074Y-96375293D02*
X147978695Y-96517005D01*
X148019290Y-96656163D01*
X148070586Y-96784055D01*
X148129312Y-96891969D01*
X148192192Y-96971194D01*
X148228316Y-96999977D01*
X148323555Y-97035714D01*
X148425653Y-97035894D01*
X148523228Y-97003161D01*
X148604897Y-96940160D01*
X148631006Y-96906400D01*
X148671893Y-96811839D01*
X148674770Y-96708125D01*
X148639590Y-96591065D01*
X148627267Y-96564194D01*
X148596885Y-96495681D01*
X148578659Y-96434881D01*
X148569627Y-96366327D01*
X148566825Y-96274556D01*
X148566750Y-96248417D01*
X148568420Y-96150214D01*
X148575090Y-96080855D01*
X148589253Y-96026924D01*
X148613404Y-95975005D01*
X148619667Y-95963655D01*
X148696337Y-95862779D01*
X148799869Y-95775359D01*
X148914805Y-95713799D01*
X148943349Y-95703951D01*
X149006752Y-95692065D01*
X149104401Y-95683253D01*
X149228279Y-95678077D01*
X149329313Y-95676917D01*
X149626208Y-95676917D01*
X149773813Y-95751000D01*
X149859092Y-95797745D01*
X149917602Y-95841970D01*
X149962618Y-95894887D01*
X149984917Y-95929257D01*
X150014863Y-95981648D01*
X150033564Y-96027690D01*
X150043632Y-96080024D01*
X150047679Y-96151290D01*
X150048336Y-96236174D01*
X150047247Y-96333738D01*
X150042135Y-96402659D01*
X150030093Y-96456614D01*
X150008214Y-96509279D01*
X149978239Y-96565917D01*
X149939098Y-96643118D01*
X149920702Y-96699606D01*
X149919200Y-96749122D01*
X149921889Y-96767000D01*
X149960538Y-96878553D01*
X150026687Y-96964472D01*
X150113727Y-97020745D01*
X150215047Y-97043363D01*
X150324037Y-97028314D01*
X150342142Y-97021992D01*
X150394392Y-96984768D01*
X150452059Y-96915065D01*
X150509827Y-96821355D01*
X150562377Y-96712108D01*
X150599260Y-96612449D01*
X150625212Y-96521507D01*
X150640895Y-96438161D01*
X150648404Y-96346159D01*
X150649838Y-96229252D01*
X150649774Y-96220866D01*
X150646268Y-96114345D01*
X150638373Y-96011827D01*
X150627429Y-95928018D01*
X150619881Y-95892557D01*
X150556170Y-95725443D01*
X150461333Y-95562346D01*
X150343044Y-95413100D01*
X150208979Y-95287539D01*
X150081959Y-95203330D01*
X149949449Y-95140949D01*
X149814521Y-95095927D01*
X149667341Y-95066249D01*
X149498076Y-95049905D01*
X149307584Y-95044895D01*
X149078807Y-95052408D01*
X148882695Y-95077639D01*
X148712456Y-95122967D01*
X148561297Y-95190771D01*
X148422428Y-95283431D01*
X148291584Y-95400774D01*
X148146246Y-95571994D01*
X148041046Y-95754151D01*
X147974386Y-95951087D01*
X147944668Y-96166641D01*
X147942701Y-96239739D01*
X147952074Y-96375293D01*
G36*
X146865996Y-94317796D02*
X146906922Y-94388641D01*
X146996882Y-94458902D01*
X147099676Y-94495452D01*
X147206392Y-94499067D01*
X147308118Y-94470528D01*
X147395943Y-94410612D01*
X147449860Y-94341213D01*
X147490360Y-94233508D01*
X147488828Y-94126422D01*
X147452671Y-94034388D01*
X147382915Y-93949716D01*
X147288352Y-93896809D01*
X147197954Y-93876223D01*
X147095772Y-93881672D01*
X146997443Y-93919140D01*
X146916390Y-93981910D01*
X146877536Y-94036500D01*
X146849577Y-94125560D01*
X146846167Y-94224565D01*
X146865996Y-94317796D01*
X146865996Y-94317796D01*
G37*
X146865996Y-94317796D02*
X146906922Y-94388641D01*
X146996882Y-94458902D01*
X147099676Y-94495452D01*
X147206392Y-94499067D01*
X147308118Y-94470528D01*
X147395943Y-94410612D01*
X147449860Y-94341213D01*
X147490360Y-94233508D01*
X147488828Y-94126422D01*
X147452671Y-94034388D01*
X147382915Y-93949716D01*
X147288352Y-93896809D01*
X147197954Y-93876223D01*
X147095772Y-93881672D01*
X146997443Y-93919140D01*
X146916390Y-93981910D01*
X146877536Y-94036500D01*
X146849577Y-94125560D01*
X146846167Y-94224565D01*
X146865996Y-94317796D01*
G36*
X145125243Y-90501667D02*
X146293258Y-90501667D01*
X146345212Y-90449712D01*
X146386530Y-90387168D01*
X146397167Y-90316157D01*
X146395981Y-90293721D01*
X146390551Y-90270928D01*
X146378069Y-90244456D01*
X146355728Y-90210981D01*
X146320718Y-90167178D01*
X146270232Y-90109725D01*
X146201462Y-90035297D01*
X146111599Y-89940570D01*
X145997837Y-89822222D01*
X145857366Y-89676927D01*
X145855407Y-89674904D01*
X145730774Y-89546378D01*
X145614422Y-89426820D01*
X145509865Y-89319808D01*
X145420620Y-89228922D01*
X145350201Y-89157744D01*
X145302124Y-89109852D01*
X145279905Y-89088826D01*
X145279861Y-89088792D01*
X145222127Y-89066235D01*
X145149083Y-89066008D01*
X145080992Y-89087489D01*
X145068377Y-89095284D01*
X145055009Y-89105485D01*
X145044450Y-89118374D01*
X145036366Y-89138647D01*
X145030428Y-89171000D01*
X145026305Y-89220130D01*
X145023665Y-89290732D01*
X145022178Y-89387504D01*
X145021513Y-89515142D01*
X145021340Y-89678341D01*
X145021334Y-89762996D01*
X145021334Y-90397758D01*
X145125243Y-90501667D01*
X145125243Y-90501667D01*
G37*
X145125243Y-90501667D02*
X146293258Y-90501667D01*
X146345212Y-90449712D01*
X146386530Y-90387168D01*
X146397167Y-90316157D01*
X146395981Y-90293721D01*
X146390551Y-90270928D01*
X146378069Y-90244456D01*
X146355728Y-90210981D01*
X146320718Y-90167178D01*
X146270232Y-90109725D01*
X146201462Y-90035297D01*
X146111599Y-89940570D01*
X145997837Y-89822222D01*
X145857366Y-89676927D01*
X145855407Y-89674904D01*
X145730774Y-89546378D01*
X145614422Y-89426820D01*
X145509865Y-89319808D01*
X145420620Y-89228922D01*
X145350201Y-89157744D01*
X145302124Y-89109852D01*
X145279905Y-89088826D01*
X145279861Y-89088792D01*
X145222127Y-89066235D01*
X145149083Y-89066008D01*
X145080992Y-89087489D01*
X145068377Y-89095284D01*
X145055009Y-89105485D01*
X145044450Y-89118374D01*
X145036366Y-89138647D01*
X145030428Y-89171000D01*
X145026305Y-89220130D01*
X145023665Y-89290732D01*
X145022178Y-89387504D01*
X145021513Y-89515142D01*
X145021340Y-89678341D01*
X145021334Y-89762996D01*
X145021334Y-90397758D01*
X145125243Y-90501667D01*
G36*
X149043000Y-89909000D02*
X149043000Y-88596667D01*
X149826167Y-88596667D01*
X149826167Y-88442746D01*
X149727963Y-88456206D01*
X149673358Y-88460774D01*
X149586094Y-88464678D01*
X149475847Y-88467631D01*
X149352288Y-88469349D01*
X149272879Y-88469667D01*
X148916000Y-88469667D01*
X148916000Y-89909000D01*
X149043000Y-89909000D01*
X149043000Y-89909000D01*
G37*
X149043000Y-89909000D02*
X149043000Y-88596667D01*
X149826167Y-88596667D01*
X149826167Y-88442746D01*
X149727963Y-88456206D01*
X149673358Y-88460774D01*
X149586094Y-88464678D01*
X149475847Y-88467631D01*
X149352288Y-88469349D01*
X149272879Y-88469667D01*
X148916000Y-88469667D01*
X148916000Y-89909000D01*
X149043000Y-89909000D01*
G36*
X149576634Y-89692042D02*
X149582750Y-89877250D01*
X149794417Y-89877250D01*
X149800533Y-89692042D01*
X149806648Y-89506834D01*
X149570519Y-89506834D01*
X149576634Y-89692042D01*
X149576634Y-89692042D01*
G37*
X149576634Y-89692042D02*
X149582750Y-89877250D01*
X149794417Y-89877250D01*
X149800533Y-89692042D01*
X149806648Y-89506834D01*
X149570519Y-89506834D01*
X149576634Y-89692042D01*
G36*
X146439500Y-87665334D02*
X146439500Y-87855834D01*
X147497834Y-87855834D01*
X147497834Y-87644167D01*
X147773000Y-87644167D01*
X147773000Y-88639000D01*
X147730667Y-88639000D01*
X147730667Y-88850667D01*
X147963500Y-88850667D01*
X147963500Y-89182884D01*
X147963319Y-89308189D01*
X147962072Y-89398437D01*
X147958699Y-89460904D01*
X147952143Y-89502864D01*
X147941346Y-89531594D01*
X147925249Y-89554369D01*
X147906540Y-89574554D01*
X147849581Y-89634007D01*
X147790124Y-89577043D01*
X147730667Y-89520080D01*
X147730667Y-88850667D01*
X147730667Y-88639000D01*
X147519000Y-88639000D01*
X147519000Y-89626361D01*
X147686598Y-89785770D01*
X147854195Y-89945179D01*
X148014681Y-89783746D01*
X148175167Y-89622314D01*
X148175167Y-88639000D01*
X147984667Y-88639000D01*
X147984667Y-87643825D01*
X148081312Y-87647480D01*
X148121390Y-87647945D01*
X148154423Y-87642752D01*
X148187489Y-87627241D01*
X148227666Y-87596748D01*
X148282030Y-87546612D01*
X148357660Y-87472170D01*
X148377645Y-87452278D01*
X148577334Y-87253420D01*
X148774210Y-87449478D01*
X148848198Y-87523303D01*
X148905638Y-87577303D01*
X148955199Y-87614656D01*
X149005548Y-87638540D01*
X149065354Y-87652130D01*
X149143284Y-87658606D01*
X149248005Y-87661143D01*
X149355209Y-87662450D01*
X149572167Y-87665334D01*
X149572167Y-87877000D01*
X149783834Y-87877000D01*
X149783834Y-87263167D01*
X149572167Y-87263167D01*
X149572167Y-87453667D01*
X149072981Y-87453667D01*
X148886019Y-87263167D01*
X149106500Y-87263167D01*
X149106500Y-87030334D01*
X148640834Y-87030334D01*
X148640834Y-86289500D01*
X148450334Y-86289500D01*
X148450334Y-87030334D01*
X148005834Y-87030334D01*
X148005834Y-87263167D01*
X148268648Y-87263167D01*
X148081686Y-87453667D01*
X147497834Y-87453667D01*
X147497834Y-87263167D01*
X147286167Y-87263167D01*
X147286167Y-87452564D01*
X147286167Y-87644167D01*
X146627566Y-87644167D01*
X146634075Y-87554209D01*
X146640584Y-87464250D01*
X146963375Y-87458407D01*
X147286167Y-87452564D01*
X147286167Y-87263167D01*
X146439500Y-87263167D01*
X146439500Y-87453667D01*
X145614000Y-87453667D01*
X145614000Y-87665334D01*
X146439500Y-87665334D01*
X146439500Y-87665334D01*
G37*
X146439500Y-87665334D02*
X146439500Y-87855834D01*
X147497834Y-87855834D01*
X147497834Y-87644167D01*
X147773000Y-87644167D01*
X147773000Y-88639000D01*
X147730667Y-88639000D01*
X147730667Y-88850667D01*
X147963500Y-88850667D01*
X147963500Y-89182884D01*
X147963319Y-89308189D01*
X147962072Y-89398437D01*
X147958699Y-89460904D01*
X147952143Y-89502864D01*
X147941346Y-89531594D01*
X147925249Y-89554369D01*
X147906540Y-89574554D01*
X147849581Y-89634007D01*
X147790124Y-89577043D01*
X147730667Y-89520080D01*
X147730667Y-88850667D01*
X147730667Y-88639000D01*
X147519000Y-88639000D01*
X147519000Y-89626361D01*
X147686598Y-89785770D01*
X147854195Y-89945179D01*
X148014681Y-89783746D01*
X148175167Y-89622314D01*
X148175167Y-88639000D01*
X147984667Y-88639000D01*
X147984667Y-87643825D01*
X148081312Y-87647480D01*
X148121390Y-87647945D01*
X148154423Y-87642752D01*
X148187489Y-87627241D01*
X148227666Y-87596748D01*
X148282030Y-87546612D01*
X148357660Y-87472170D01*
X148377645Y-87452278D01*
X148577334Y-87253420D01*
X148774210Y-87449478D01*
X148848198Y-87523303D01*
X148905638Y-87577303D01*
X148955199Y-87614656D01*
X149005548Y-87638540D01*
X149065354Y-87652130D01*
X149143284Y-87658606D01*
X149248005Y-87661143D01*
X149355209Y-87662450D01*
X149572167Y-87665334D01*
X149572167Y-87877000D01*
X149783834Y-87877000D01*
X149783834Y-87263167D01*
X149572167Y-87263167D01*
X149572167Y-87453667D01*
X149072981Y-87453667D01*
X148886019Y-87263167D01*
X149106500Y-87263167D01*
X149106500Y-87030334D01*
X148640834Y-87030334D01*
X148640834Y-86289500D01*
X148450334Y-86289500D01*
X148450334Y-87030334D01*
X148005834Y-87030334D01*
X148005834Y-87263167D01*
X148268648Y-87263167D01*
X148081686Y-87453667D01*
X147497834Y-87453667D01*
X147497834Y-87263167D01*
X147286167Y-87263167D01*
X147286167Y-87452564D01*
X147286167Y-87644167D01*
X146627566Y-87644167D01*
X146634075Y-87554209D01*
X146640584Y-87464250D01*
X146963375Y-87458407D01*
X147286167Y-87452564D01*
X147286167Y-87263167D01*
X146439500Y-87263167D01*
X146439500Y-87453667D01*
X145614000Y-87453667D01*
X145614000Y-87665334D01*
X146439500Y-87665334D01*
G36*
X149783834Y-89083500D02*
X149783834Y-88660167D01*
X149593334Y-88660167D01*
X149593334Y-89083500D01*
X149783834Y-89083500D01*
X149783834Y-89083500D01*
G37*
X149783834Y-89083500D02*
X149783834Y-88660167D01*
X149593334Y-88660167D01*
X149593334Y-89083500D01*
X149783834Y-89083500D01*
G36*
X149318167Y-89062334D02*
X149318167Y-88702500D01*
X149148834Y-88702500D01*
X149148834Y-89062334D01*
X149318167Y-89062334D01*
X149318167Y-89062334D01*
G37*
X149318167Y-89062334D02*
X149318167Y-88702500D01*
X149148834Y-88702500D01*
X149148834Y-89062334D01*
X149318167Y-89062334D01*
G36*
X149318167Y-89866667D02*
X149318167Y-89295167D01*
X149170000Y-89295167D01*
X149170000Y-89866667D01*
X149318167Y-89866667D01*
X149318167Y-89866667D01*
G37*
X149318167Y-89866667D02*
X149318167Y-89295167D01*
X149170000Y-89295167D01*
X149170000Y-89866667D01*
X149318167Y-89866667D01*
M02*
