G04 #@! TF.FileFunction,Soldermask,Top*
%FSLAX46Y46*%
G04 Gerber Fmt 4.6, Leading zero omitted, Abs format (unit mm)*
G04 Created by KiCad (PCBNEW 0.201508140901+6091~28~ubuntu14.04.1-product) date Wed 04 Nov 2015 06:06:40 AM PST*
%MOMM*%
G01*
G04 APERTURE LIST*
%ADD10C,0.076200*%
%ADD11R,2.400000X2.000000*%
%ADD12R,1.900000X1.650000*%
%ADD13R,4.000000X2.200000*%
%ADD14R,2.432000X2.432000*%
%ADD15O,2.432000X2.432000*%
%ADD16R,3.399740X3.399740*%
%ADD17R,1.900000X1.700000*%
%ADD18R,1.700000X1.900000*%
%ADD19R,1.300000X1.600000*%
%ADD20O,1.250000X0.680000*%
%ADD21R,2.050000X2.800000*%
%ADD22R,0.680000X1.100000*%
%ADD23C,0.800000*%
G04 APERTURE END LIST*
D10*
D11*
X161512000Y-93218000D03*
X157512000Y-93218000D03*
X161512000Y-95758000D03*
X157512000Y-95758000D03*
X161512000Y-98298000D03*
X157512000Y-98298000D03*
D12*
X148864000Y-92202000D03*
X151364000Y-92202000D03*
X148864000Y-94488000D03*
X151364000Y-94488000D03*
D11*
X161639000Y-116586000D03*
X157639000Y-116586000D03*
X161639000Y-119126000D03*
X157639000Y-119126000D03*
X161639000Y-121666000D03*
X157639000Y-121666000D03*
X161639000Y-124206000D03*
X157639000Y-124206000D03*
D10*
G36*
X162385350Y-114375540D02*
X159686650Y-114375540D01*
X160286090Y-110373820D01*
X161785910Y-110373820D01*
X162385350Y-114375540D01*
X162385350Y-114375540D01*
G37*
G36*
X159686650Y-104572460D02*
X162385350Y-104572460D01*
X161785910Y-108574180D01*
X160286090Y-108574180D01*
X159686650Y-104572460D01*
X159686650Y-104572460D01*
G37*
D13*
X172212000Y-98370000D03*
X172212000Y-107370000D03*
D14*
X160782000Y-86868000D03*
D15*
X158242000Y-86868000D03*
D16*
X165785800Y-87401400D03*
X165989000Y-128905000D03*
D14*
X160782000Y-129032000D03*
D15*
X158242000Y-129032000D03*
D17*
X151464000Y-96774000D03*
X148764000Y-96774000D03*
D18*
X149352000Y-104728000D03*
X149352000Y-102028000D03*
D19*
X151638000Y-101897000D03*
X151638000Y-104097000D03*
D20*
X157148000Y-101362000D03*
X157148000Y-101862000D03*
X157148000Y-102362000D03*
X157148000Y-102862000D03*
X157148000Y-103362000D03*
X160098000Y-103362000D03*
X160098000Y-102862000D03*
X160098000Y-102362000D03*
X160098000Y-101862000D03*
X160098000Y-101362000D03*
D21*
X158623000Y-102362000D03*
D22*
X158873000Y-100812000D03*
X158373000Y-100812000D03*
X158873000Y-103912000D03*
X158373000Y-103912000D03*
D23*
X158623000Y-102362000D03*
X159123000Y-103112000D03*
X159123000Y-101612000D03*
X158123000Y-101612000D03*
X158123000Y-103112000D03*
M02*
