G04 #@! TF.FileFunction,Copper,L2,Bot,Signal*
%FSLAX46Y46*%
G04 Gerber Fmt 4.6, Leading zero omitted, Abs format (unit mm)*
G04 Created by KiCad (PCBNEW 0.201508140901+6091~28~ubuntu14.04.1-product) date Wed 04 Nov 2015 06:06:40 AM PST*
%MOMM*%
G01*
G04 APERTURE LIST*
%ADD10C,0.076200*%
%ADD11C,0.600000*%
%ADD12R,2.032000X2.032000*%
%ADD13O,2.032000X2.032000*%
%ADD14R,1.650000X2.400000*%
%ADD15C,0.400000*%
%ADD16C,0.685800*%
%ADD17C,0.304800*%
%ADD18C,0.254000*%
G04 APERTURE END LIST*
D10*
D11*
X153681200Y-104950400D03*
X155681200Y-104950400D03*
X155681200Y-130450400D03*
X153681200Y-130450400D03*
X151681200Y-130450400D03*
X155681200Y-128450400D03*
X153681200Y-128450400D03*
X151681200Y-128450400D03*
X155681200Y-126450400D03*
X153681200Y-126450400D03*
X151681200Y-126450400D03*
X153681200Y-124450400D03*
X151681200Y-124450400D03*
X149681200Y-124450400D03*
X147681200Y-124450400D03*
X145681200Y-124450400D03*
X153681200Y-122450400D03*
X151681200Y-122450400D03*
X149681200Y-122450400D03*
X147681200Y-122450400D03*
X145681200Y-122450400D03*
X153681200Y-120450400D03*
X151681200Y-120450400D03*
X149681200Y-120450400D03*
X147681200Y-120450400D03*
X145681200Y-120450400D03*
X153681200Y-118450400D03*
X151681200Y-118450400D03*
X149681200Y-118450400D03*
X147681200Y-118450400D03*
X145681200Y-118450400D03*
X153681200Y-116450400D03*
X151681200Y-116450400D03*
X149681200Y-116450400D03*
X147681200Y-116450400D03*
X145681200Y-116450400D03*
X157681200Y-114450400D03*
X155681200Y-114450400D03*
X153681200Y-114450400D03*
X151681200Y-114450400D03*
X149681200Y-114450400D03*
X147681200Y-114450400D03*
X145681200Y-114450400D03*
X153681200Y-112450400D03*
X151681200Y-112450400D03*
X149681200Y-112450400D03*
X147681200Y-112450400D03*
X145681200Y-112450400D03*
X157681200Y-110450400D03*
X155681200Y-110450400D03*
X151681200Y-110450400D03*
X149681200Y-110450400D03*
X147681200Y-110450400D03*
X145681200Y-110450400D03*
X157681200Y-108450400D03*
X155681200Y-108450400D03*
X153681200Y-108450400D03*
X149681200Y-108450400D03*
X147681200Y-108450400D03*
X145681200Y-108450400D03*
X157681200Y-106450400D03*
X155681200Y-106450400D03*
X153681200Y-106450400D03*
X151681200Y-106450400D03*
X147681200Y-106450400D03*
X155231600Y-94055200D03*
X153231600Y-94055200D03*
X157231600Y-90055200D03*
X155231600Y-90055200D03*
X153231600Y-90055200D03*
X151231600Y-90055200D03*
X155231600Y-88055200D03*
X153231600Y-88055200D03*
X151231600Y-88055200D03*
X155231600Y-86055200D03*
X153231600Y-86055200D03*
X145681200Y-106450400D03*
D12*
X160782000Y-86868000D03*
D13*
X158242000Y-86868000D03*
D12*
X160782000Y-129032000D03*
D13*
X158242000Y-129032000D03*
D11*
X151231600Y-86055200D03*
D14*
X158623000Y-102362000D03*
D15*
X158623000Y-102362000D03*
X159123000Y-103112000D03*
X159123000Y-101612000D03*
X158123000Y-101612000D03*
X158123000Y-103112000D03*
D16*
X162496500Y-101219000D03*
X155829000Y-102616000D03*
X146939000Y-92202000D03*
X160845500Y-100457000D03*
D17*
X160147000Y-101219000D02*
X162496500Y-101219000D01*
X159004000Y-100076000D02*
X160147000Y-101219000D01*
X156718000Y-100076000D02*
X159004000Y-100076000D01*
X155829000Y-100965000D02*
X156718000Y-100076000D01*
X155829000Y-102616000D02*
X155829000Y-100965000D01*
X156845000Y-92202000D02*
X146939000Y-92202000D01*
X160845500Y-96202500D02*
X156845000Y-92202000D01*
X160845500Y-100457000D02*
X160845500Y-96202500D01*
D18*
G36*
X177394800Y-130912800D02*
X144931200Y-130912800D01*
X144931200Y-128368392D01*
X145921291Y-128368392D01*
X146191618Y-129022633D01*
X146691735Y-129523623D01*
X147345503Y-129795091D01*
X148053392Y-129795709D01*
X148707633Y-129525382D01*
X149208623Y-129025265D01*
X149480091Y-128371497D01*
X149480401Y-128016000D01*
X159481127Y-128016000D01*
X159481127Y-130048000D01*
X159500609Y-130151539D01*
X159561801Y-130246634D01*
X159655168Y-130310429D01*
X159766000Y-130332873D01*
X161798000Y-130332873D01*
X161901539Y-130313391D01*
X161996634Y-130252199D01*
X162060429Y-130158832D01*
X162082873Y-130048000D01*
X162082873Y-128016000D01*
X162063391Y-127912461D01*
X162002199Y-127817366D01*
X161908832Y-127753571D01*
X161798000Y-127731127D01*
X159766000Y-127731127D01*
X159662461Y-127750609D01*
X159567366Y-127811801D01*
X159503571Y-127905168D01*
X159481127Y-128016000D01*
X149480401Y-128016000D01*
X149480709Y-127663608D01*
X149210382Y-127009367D01*
X148710265Y-126508377D01*
X148056497Y-126236909D01*
X147348608Y-126236291D01*
X146694367Y-126506618D01*
X146193377Y-127006735D01*
X145921909Y-127660503D01*
X145921291Y-128368392D01*
X144931200Y-128368392D01*
X144931200Y-92325240D01*
X146316592Y-92325240D01*
X146411132Y-92554044D01*
X146586035Y-92729253D01*
X146814674Y-92824192D01*
X147062240Y-92824408D01*
X147291044Y-92729868D01*
X147387280Y-92633800D01*
X156666142Y-92633800D01*
X160413700Y-96381357D01*
X160413700Y-100008749D01*
X160318247Y-100104035D01*
X160223308Y-100332674D01*
X160223092Y-100580240D01*
X160296459Y-100757801D01*
X159309329Y-99770671D01*
X159169243Y-99677069D01*
X159004000Y-99644200D01*
X156718005Y-99644200D01*
X156718000Y-99644199D01*
X156580173Y-99671615D01*
X156552757Y-99677069D01*
X156412671Y-99770671D01*
X155523671Y-100659671D01*
X155430069Y-100799757D01*
X155397200Y-100965000D01*
X155397200Y-102167749D01*
X155301747Y-102263035D01*
X155206808Y-102491674D01*
X155206592Y-102739240D01*
X155301132Y-102968044D01*
X155476035Y-103143253D01*
X155704674Y-103238192D01*
X155952240Y-103238408D01*
X156181044Y-103143868D01*
X156356253Y-102968965D01*
X156451192Y-102740326D01*
X156451408Y-102492760D01*
X156356868Y-102263956D01*
X156260800Y-102167720D01*
X156260800Y-101143858D01*
X156896858Y-100507800D01*
X158825142Y-100507800D01*
X159841671Y-101524329D01*
X159981757Y-101617931D01*
X160147000Y-101650800D01*
X162048249Y-101650800D01*
X162143535Y-101746253D01*
X162372174Y-101841192D01*
X162619740Y-101841408D01*
X162848544Y-101746868D01*
X163023753Y-101571965D01*
X163118692Y-101343326D01*
X163118908Y-101095760D01*
X163024368Y-100866956D01*
X162849465Y-100691747D01*
X162620826Y-100596808D01*
X162373260Y-100596592D01*
X162144456Y-100691132D01*
X162048220Y-100787200D01*
X161382206Y-100787200D01*
X161467692Y-100581326D01*
X161467908Y-100333760D01*
X161373368Y-100104956D01*
X161277300Y-100008720D01*
X161277300Y-96202500D01*
X161244431Y-96037257D01*
X161150829Y-95897171D01*
X161150826Y-95897169D01*
X157150329Y-91896671D01*
X157010243Y-91803069D01*
X156845000Y-91770200D01*
X147387251Y-91770200D01*
X147291965Y-91674747D01*
X147063326Y-91579808D01*
X146815760Y-91579592D01*
X146586956Y-91674132D01*
X146411747Y-91849035D01*
X146316808Y-92077674D01*
X146316592Y-92325240D01*
X144931200Y-92325240D01*
X144931200Y-88490392D01*
X172718291Y-88490392D01*
X172988618Y-89144633D01*
X173488735Y-89645623D01*
X174142503Y-89917091D01*
X174850392Y-89917709D01*
X175504633Y-89647382D01*
X176005623Y-89147265D01*
X176277091Y-88493497D01*
X176277709Y-87785608D01*
X176007382Y-87131367D01*
X175507265Y-86630377D01*
X174853497Y-86358909D01*
X174145608Y-86358291D01*
X173491367Y-86628618D01*
X172990377Y-87128735D01*
X172718909Y-87782503D01*
X172718291Y-88490392D01*
X144931200Y-88490392D01*
X144931200Y-85852000D01*
X159481127Y-85852000D01*
X159481127Y-87884000D01*
X159500609Y-87987539D01*
X159561801Y-88082634D01*
X159655168Y-88146429D01*
X159766000Y-88168873D01*
X161798000Y-88168873D01*
X161901539Y-88149391D01*
X161996634Y-88088199D01*
X162060429Y-87994832D01*
X162082873Y-87884000D01*
X162082873Y-85852000D01*
X162063391Y-85748461D01*
X162002199Y-85653366D01*
X161908832Y-85589571D01*
X161798000Y-85567127D01*
X159766000Y-85567127D01*
X159662461Y-85586609D01*
X159567366Y-85647801D01*
X159503571Y-85741168D01*
X159481127Y-85852000D01*
X144931200Y-85852000D01*
X144931200Y-85368200D01*
X177394800Y-85368200D01*
X177394800Y-130912800D01*
X177394800Y-130912800D01*
G37*
X177394800Y-130912800D02*
X144931200Y-130912800D01*
X144931200Y-128368392D01*
X145921291Y-128368392D01*
X146191618Y-129022633D01*
X146691735Y-129523623D01*
X147345503Y-129795091D01*
X148053392Y-129795709D01*
X148707633Y-129525382D01*
X149208623Y-129025265D01*
X149480091Y-128371497D01*
X149480401Y-128016000D01*
X159481127Y-128016000D01*
X159481127Y-130048000D01*
X159500609Y-130151539D01*
X159561801Y-130246634D01*
X159655168Y-130310429D01*
X159766000Y-130332873D01*
X161798000Y-130332873D01*
X161901539Y-130313391D01*
X161996634Y-130252199D01*
X162060429Y-130158832D01*
X162082873Y-130048000D01*
X162082873Y-128016000D01*
X162063391Y-127912461D01*
X162002199Y-127817366D01*
X161908832Y-127753571D01*
X161798000Y-127731127D01*
X159766000Y-127731127D01*
X159662461Y-127750609D01*
X159567366Y-127811801D01*
X159503571Y-127905168D01*
X159481127Y-128016000D01*
X149480401Y-128016000D01*
X149480709Y-127663608D01*
X149210382Y-127009367D01*
X148710265Y-126508377D01*
X148056497Y-126236909D01*
X147348608Y-126236291D01*
X146694367Y-126506618D01*
X146193377Y-127006735D01*
X145921909Y-127660503D01*
X145921291Y-128368392D01*
X144931200Y-128368392D01*
X144931200Y-92325240D01*
X146316592Y-92325240D01*
X146411132Y-92554044D01*
X146586035Y-92729253D01*
X146814674Y-92824192D01*
X147062240Y-92824408D01*
X147291044Y-92729868D01*
X147387280Y-92633800D01*
X156666142Y-92633800D01*
X160413700Y-96381357D01*
X160413700Y-100008749D01*
X160318247Y-100104035D01*
X160223308Y-100332674D01*
X160223092Y-100580240D01*
X160296459Y-100757801D01*
X159309329Y-99770671D01*
X159169243Y-99677069D01*
X159004000Y-99644200D01*
X156718005Y-99644200D01*
X156718000Y-99644199D01*
X156580173Y-99671615D01*
X156552757Y-99677069D01*
X156412671Y-99770671D01*
X155523671Y-100659671D01*
X155430069Y-100799757D01*
X155397200Y-100965000D01*
X155397200Y-102167749D01*
X155301747Y-102263035D01*
X155206808Y-102491674D01*
X155206592Y-102739240D01*
X155301132Y-102968044D01*
X155476035Y-103143253D01*
X155704674Y-103238192D01*
X155952240Y-103238408D01*
X156181044Y-103143868D01*
X156356253Y-102968965D01*
X156451192Y-102740326D01*
X156451408Y-102492760D01*
X156356868Y-102263956D01*
X156260800Y-102167720D01*
X156260800Y-101143858D01*
X156896858Y-100507800D01*
X158825142Y-100507800D01*
X159841671Y-101524329D01*
X159981757Y-101617931D01*
X160147000Y-101650800D01*
X162048249Y-101650800D01*
X162143535Y-101746253D01*
X162372174Y-101841192D01*
X162619740Y-101841408D01*
X162848544Y-101746868D01*
X163023753Y-101571965D01*
X163118692Y-101343326D01*
X163118908Y-101095760D01*
X163024368Y-100866956D01*
X162849465Y-100691747D01*
X162620826Y-100596808D01*
X162373260Y-100596592D01*
X162144456Y-100691132D01*
X162048220Y-100787200D01*
X161382206Y-100787200D01*
X161467692Y-100581326D01*
X161467908Y-100333760D01*
X161373368Y-100104956D01*
X161277300Y-100008720D01*
X161277300Y-96202500D01*
X161244431Y-96037257D01*
X161150829Y-95897171D01*
X161150826Y-95897169D01*
X157150329Y-91896671D01*
X157010243Y-91803069D01*
X156845000Y-91770200D01*
X147387251Y-91770200D01*
X147291965Y-91674747D01*
X147063326Y-91579808D01*
X146815760Y-91579592D01*
X146586956Y-91674132D01*
X146411747Y-91849035D01*
X146316808Y-92077674D01*
X146316592Y-92325240D01*
X144931200Y-92325240D01*
X144931200Y-88490392D01*
X172718291Y-88490392D01*
X172988618Y-89144633D01*
X173488735Y-89645623D01*
X174142503Y-89917091D01*
X174850392Y-89917709D01*
X175504633Y-89647382D01*
X176005623Y-89147265D01*
X176277091Y-88493497D01*
X176277709Y-87785608D01*
X176007382Y-87131367D01*
X175507265Y-86630377D01*
X174853497Y-86358909D01*
X174145608Y-86358291D01*
X173491367Y-86628618D01*
X172990377Y-87128735D01*
X172718909Y-87782503D01*
X172718291Y-88490392D01*
X144931200Y-88490392D01*
X144931200Y-85852000D01*
X159481127Y-85852000D01*
X159481127Y-87884000D01*
X159500609Y-87987539D01*
X159561801Y-88082634D01*
X159655168Y-88146429D01*
X159766000Y-88168873D01*
X161798000Y-88168873D01*
X161901539Y-88149391D01*
X161996634Y-88088199D01*
X162060429Y-87994832D01*
X162082873Y-87884000D01*
X162082873Y-85852000D01*
X162063391Y-85748461D01*
X162002199Y-85653366D01*
X161908832Y-85589571D01*
X161798000Y-85567127D01*
X159766000Y-85567127D01*
X159662461Y-85586609D01*
X159567366Y-85647801D01*
X159503571Y-85741168D01*
X159481127Y-85852000D01*
X144931200Y-85852000D01*
X144931200Y-85368200D01*
X177394800Y-85368200D01*
X177394800Y-130912800D01*
M02*
