G04 #@! TF.FileFunction,Copper,L2,Bot,Signal*
%FSLAX46Y46*%
G04 Gerber Fmt 4.6, Leading zero omitted, Abs format (unit mm)*
G04 Created by KiCad (PCBNEW 0.201508140901+6091~28~ubuntu14.04.1-product) date Thu 05 Nov 2015 06:04:02 AM PST*
%MOMM*%
G01*
G04 APERTURE LIST*
%ADD10C,0.076200*%
%ADD11C,0.600000*%
%ADD12R,2.032000X2.032000*%
%ADD13O,2.032000X2.032000*%
%ADD14R,1.650000X2.400000*%
%ADD15C,0.400000*%
%ADD16C,0.685800*%
%ADD17C,0.304800*%
%ADD18C,0.254000*%
G04 APERTURE END LIST*
D10*
D11*
X153681200Y-104950400D03*
X155681200Y-104950400D03*
X155681200Y-130450400D03*
X153681200Y-130450400D03*
X151681200Y-130450400D03*
X155681200Y-128450400D03*
X153681200Y-128450400D03*
X151681200Y-128450400D03*
X155681200Y-126450400D03*
X153681200Y-126450400D03*
X151681200Y-126450400D03*
X153681200Y-124450400D03*
X151681200Y-124450400D03*
X149681200Y-124450400D03*
X147681200Y-124450400D03*
X153681200Y-122450400D03*
X151681200Y-122450400D03*
X149681200Y-122450400D03*
X147681200Y-122450400D03*
X153681200Y-120450400D03*
X151681200Y-120450400D03*
X149681200Y-120450400D03*
X147681200Y-120450400D03*
X153681200Y-118450400D03*
X151681200Y-118450400D03*
X149681200Y-118450400D03*
X147681200Y-118450400D03*
X153681200Y-116450400D03*
X151681200Y-116450400D03*
X149681200Y-116450400D03*
X147681200Y-116450400D03*
X157681200Y-114450400D03*
X155681200Y-114450400D03*
X153681200Y-114450400D03*
X151681200Y-114450400D03*
X149681200Y-114450400D03*
X147681200Y-114450400D03*
X153681200Y-112450400D03*
X151681200Y-112450400D03*
X149681200Y-112450400D03*
X147681200Y-112450400D03*
X157681200Y-110450400D03*
X155681200Y-110450400D03*
X151681200Y-110450400D03*
X149681200Y-110450400D03*
X147681200Y-110450400D03*
X157681200Y-108450400D03*
X155681200Y-108450400D03*
X153681200Y-108450400D03*
X149681200Y-108450400D03*
X147681200Y-108450400D03*
X157681200Y-106450400D03*
X155681200Y-106450400D03*
X153681200Y-106450400D03*
X151681200Y-106450400D03*
X147681200Y-106450400D03*
X155231600Y-94055200D03*
X153231600Y-94055200D03*
X157231600Y-90055200D03*
X155231600Y-90055200D03*
X153231600Y-90055200D03*
X151231600Y-90055200D03*
X155231600Y-88055200D03*
X153231600Y-88055200D03*
X151231600Y-88055200D03*
X155231600Y-86055200D03*
X153231600Y-86055200D03*
D12*
X160782000Y-86868000D03*
D13*
X158242000Y-86868000D03*
D12*
X160782000Y-129032000D03*
D13*
X158242000Y-129032000D03*
D11*
X151231600Y-86055200D03*
D14*
X158623000Y-102362000D03*
D15*
X158623000Y-102362000D03*
X159123000Y-103112000D03*
X159123000Y-101612000D03*
X158123000Y-101612000D03*
X158123000Y-103112000D03*
D16*
X162496500Y-101219000D03*
X155829000Y-102616000D03*
X146939000Y-92202000D03*
X160845500Y-100457000D03*
D17*
X160147000Y-101219000D02*
X162496500Y-101219000D01*
X159004000Y-100076000D02*
X160147000Y-101219000D01*
X156718000Y-100076000D02*
X159004000Y-100076000D01*
X155829000Y-100965000D02*
X156718000Y-100076000D01*
X155829000Y-102616000D02*
X155829000Y-100965000D01*
X156845000Y-92202000D02*
X146939000Y-92202000D01*
X160845500Y-96202500D02*
X156845000Y-92202000D01*
X160845500Y-100457000D02*
X160845500Y-96202500D01*
D18*
G36*
X156904812Y-85899621D02*
X156636017Y-86485054D01*
X156754633Y-86741000D01*
X158115000Y-86741000D01*
X158115000Y-86721000D01*
X158369000Y-86721000D01*
X158369000Y-86741000D01*
X158389000Y-86741000D01*
X158389000Y-86995000D01*
X158369000Y-86995000D01*
X158369000Y-88354836D01*
X158624944Y-88473975D01*
X159106818Y-88274385D01*
X159399863Y-88002658D01*
X159404103Y-88025190D01*
X159487546Y-88154865D01*
X159614866Y-88241859D01*
X159766000Y-88272464D01*
X161798000Y-88272464D01*
X161939190Y-88245897D01*
X162068865Y-88162454D01*
X162155859Y-88035134D01*
X162186464Y-87884000D01*
X162186464Y-85852000D01*
X162159897Y-85710810D01*
X162076454Y-85581135D01*
X161949134Y-85494141D01*
X161828933Y-85469800D01*
X174372200Y-85469800D01*
X174372200Y-130811200D01*
X146048800Y-130811200D01*
X146048800Y-128134513D01*
X146962674Y-128134513D01*
X147248436Y-128826109D01*
X147777108Y-129355704D01*
X148468204Y-129642673D01*
X149216513Y-129643326D01*
X149769234Y-129414946D01*
X156636017Y-129414946D01*
X156904812Y-130000379D01*
X157377182Y-130438385D01*
X157859056Y-130637975D01*
X158115000Y-130518836D01*
X158115000Y-129159000D01*
X156754633Y-129159000D01*
X156636017Y-129414946D01*
X149769234Y-129414946D01*
X149908109Y-129357564D01*
X150437704Y-128828892D01*
X150512379Y-128649054D01*
X156636017Y-128649054D01*
X156754633Y-128905000D01*
X158115000Y-128905000D01*
X158115000Y-127545164D01*
X158369000Y-127545164D01*
X158369000Y-128905000D01*
X158389000Y-128905000D01*
X158389000Y-129159000D01*
X158369000Y-129159000D01*
X158369000Y-130518836D01*
X158624944Y-130637975D01*
X159106818Y-130438385D01*
X159399863Y-130166658D01*
X159404103Y-130189190D01*
X159487546Y-130318865D01*
X159614866Y-130405859D01*
X159766000Y-130436464D01*
X161798000Y-130436464D01*
X161939190Y-130409897D01*
X162068865Y-130326454D01*
X162155859Y-130199134D01*
X162186464Y-130048000D01*
X162186464Y-128016000D01*
X162159897Y-127874810D01*
X162076454Y-127745135D01*
X161949134Y-127658141D01*
X161798000Y-127627536D01*
X159766000Y-127627536D01*
X159624810Y-127654103D01*
X159495135Y-127737546D01*
X159408141Y-127864866D01*
X159401296Y-127898670D01*
X159106818Y-127625615D01*
X158624944Y-127426025D01*
X158369000Y-127545164D01*
X158115000Y-127545164D01*
X157859056Y-127426025D01*
X157377182Y-127625615D01*
X156904812Y-128063621D01*
X156636017Y-128649054D01*
X150512379Y-128649054D01*
X150724673Y-128137796D01*
X150725326Y-127389487D01*
X150439564Y-126697891D01*
X149910892Y-126168296D01*
X149219796Y-125881327D01*
X148471487Y-125880674D01*
X147779891Y-126166436D01*
X147250296Y-126695108D01*
X146963327Y-127386204D01*
X146962674Y-128134513D01*
X146048800Y-128134513D01*
X146048800Y-92345361D01*
X146214975Y-92345361D01*
X146324950Y-92611521D01*
X146528408Y-92815335D01*
X146794376Y-92925774D01*
X147082361Y-92926025D01*
X147348521Y-92816050D01*
X147429312Y-92735400D01*
X156624058Y-92735400D01*
X160312100Y-96423442D01*
X160312100Y-99966613D01*
X160232165Y-100046408D01*
X160121726Y-100312376D01*
X160121615Y-100439273D01*
X159381171Y-99698829D01*
X159208123Y-99583203D01*
X159004000Y-99542600D01*
X156718000Y-99542600D01*
X156513877Y-99583203D01*
X156340829Y-99698829D01*
X155451829Y-100587829D01*
X155336203Y-100760877D01*
X155295600Y-100965000D01*
X155295600Y-102125613D01*
X155215665Y-102205408D01*
X155105226Y-102471376D01*
X155104975Y-102759361D01*
X155214950Y-103025521D01*
X155418408Y-103229335D01*
X155684376Y-103339774D01*
X155972361Y-103340025D01*
X156238521Y-103230050D01*
X156442335Y-103026592D01*
X156552774Y-102760624D01*
X156553025Y-102472639D01*
X156443050Y-102206479D01*
X156362400Y-102125688D01*
X156362400Y-101185942D01*
X156938942Y-100609400D01*
X158783058Y-100609400D01*
X159769829Y-101596171D01*
X159942877Y-101711797D01*
X160147000Y-101752400D01*
X162006113Y-101752400D01*
X162085908Y-101832335D01*
X162351876Y-101942774D01*
X162639861Y-101943025D01*
X162906021Y-101833050D01*
X163109835Y-101629592D01*
X163220274Y-101363624D01*
X163220525Y-101075639D01*
X163110550Y-100809479D01*
X162907092Y-100605665D01*
X162641124Y-100495226D01*
X162353139Y-100494975D01*
X162086979Y-100604950D01*
X162006188Y-100685600D01*
X161534404Y-100685600D01*
X161569274Y-100601624D01*
X161569525Y-100313639D01*
X161459550Y-100047479D01*
X161378900Y-99966688D01*
X161378900Y-96202500D01*
X161338297Y-95998377D01*
X161338297Y-95998376D01*
X161222671Y-95825329D01*
X157222171Y-91824829D01*
X157049123Y-91709203D01*
X156845000Y-91668600D01*
X147429387Y-91668600D01*
X147349592Y-91588665D01*
X147083624Y-91478226D01*
X146795639Y-91477975D01*
X146529479Y-91587950D01*
X146325665Y-91791408D01*
X146215226Y-92057376D01*
X146214975Y-92345361D01*
X146048800Y-92345361D01*
X146048800Y-88637513D01*
X169441674Y-88637513D01*
X169727436Y-89329109D01*
X170256108Y-89858704D01*
X170947204Y-90145673D01*
X171695513Y-90146326D01*
X172387109Y-89860564D01*
X172916704Y-89331892D01*
X173203673Y-88640796D01*
X173204326Y-87892487D01*
X172918564Y-87200891D01*
X172389892Y-86671296D01*
X171698796Y-86384327D01*
X170950487Y-86383674D01*
X170258891Y-86669436D01*
X169729296Y-87198108D01*
X169442327Y-87889204D01*
X169441674Y-88637513D01*
X146048800Y-88637513D01*
X146048800Y-87250946D01*
X156636017Y-87250946D01*
X156904812Y-87836379D01*
X157377182Y-88274385D01*
X157859056Y-88473975D01*
X158115000Y-88354836D01*
X158115000Y-86995000D01*
X156754633Y-86995000D01*
X156636017Y-87250946D01*
X146048800Y-87250946D01*
X146048800Y-85469800D01*
X157368355Y-85469800D01*
X156904812Y-85899621D01*
X156904812Y-85899621D01*
G37*
X156904812Y-85899621D02*
X156636017Y-86485054D01*
X156754633Y-86741000D01*
X158115000Y-86741000D01*
X158115000Y-86721000D01*
X158369000Y-86721000D01*
X158369000Y-86741000D01*
X158389000Y-86741000D01*
X158389000Y-86995000D01*
X158369000Y-86995000D01*
X158369000Y-88354836D01*
X158624944Y-88473975D01*
X159106818Y-88274385D01*
X159399863Y-88002658D01*
X159404103Y-88025190D01*
X159487546Y-88154865D01*
X159614866Y-88241859D01*
X159766000Y-88272464D01*
X161798000Y-88272464D01*
X161939190Y-88245897D01*
X162068865Y-88162454D01*
X162155859Y-88035134D01*
X162186464Y-87884000D01*
X162186464Y-85852000D01*
X162159897Y-85710810D01*
X162076454Y-85581135D01*
X161949134Y-85494141D01*
X161828933Y-85469800D01*
X174372200Y-85469800D01*
X174372200Y-130811200D01*
X146048800Y-130811200D01*
X146048800Y-128134513D01*
X146962674Y-128134513D01*
X147248436Y-128826109D01*
X147777108Y-129355704D01*
X148468204Y-129642673D01*
X149216513Y-129643326D01*
X149769234Y-129414946D01*
X156636017Y-129414946D01*
X156904812Y-130000379D01*
X157377182Y-130438385D01*
X157859056Y-130637975D01*
X158115000Y-130518836D01*
X158115000Y-129159000D01*
X156754633Y-129159000D01*
X156636017Y-129414946D01*
X149769234Y-129414946D01*
X149908109Y-129357564D01*
X150437704Y-128828892D01*
X150512379Y-128649054D01*
X156636017Y-128649054D01*
X156754633Y-128905000D01*
X158115000Y-128905000D01*
X158115000Y-127545164D01*
X158369000Y-127545164D01*
X158369000Y-128905000D01*
X158389000Y-128905000D01*
X158389000Y-129159000D01*
X158369000Y-129159000D01*
X158369000Y-130518836D01*
X158624944Y-130637975D01*
X159106818Y-130438385D01*
X159399863Y-130166658D01*
X159404103Y-130189190D01*
X159487546Y-130318865D01*
X159614866Y-130405859D01*
X159766000Y-130436464D01*
X161798000Y-130436464D01*
X161939190Y-130409897D01*
X162068865Y-130326454D01*
X162155859Y-130199134D01*
X162186464Y-130048000D01*
X162186464Y-128016000D01*
X162159897Y-127874810D01*
X162076454Y-127745135D01*
X161949134Y-127658141D01*
X161798000Y-127627536D01*
X159766000Y-127627536D01*
X159624810Y-127654103D01*
X159495135Y-127737546D01*
X159408141Y-127864866D01*
X159401296Y-127898670D01*
X159106818Y-127625615D01*
X158624944Y-127426025D01*
X158369000Y-127545164D01*
X158115000Y-127545164D01*
X157859056Y-127426025D01*
X157377182Y-127625615D01*
X156904812Y-128063621D01*
X156636017Y-128649054D01*
X150512379Y-128649054D01*
X150724673Y-128137796D01*
X150725326Y-127389487D01*
X150439564Y-126697891D01*
X149910892Y-126168296D01*
X149219796Y-125881327D01*
X148471487Y-125880674D01*
X147779891Y-126166436D01*
X147250296Y-126695108D01*
X146963327Y-127386204D01*
X146962674Y-128134513D01*
X146048800Y-128134513D01*
X146048800Y-92345361D01*
X146214975Y-92345361D01*
X146324950Y-92611521D01*
X146528408Y-92815335D01*
X146794376Y-92925774D01*
X147082361Y-92926025D01*
X147348521Y-92816050D01*
X147429312Y-92735400D01*
X156624058Y-92735400D01*
X160312100Y-96423442D01*
X160312100Y-99966613D01*
X160232165Y-100046408D01*
X160121726Y-100312376D01*
X160121615Y-100439273D01*
X159381171Y-99698829D01*
X159208123Y-99583203D01*
X159004000Y-99542600D01*
X156718000Y-99542600D01*
X156513877Y-99583203D01*
X156340829Y-99698829D01*
X155451829Y-100587829D01*
X155336203Y-100760877D01*
X155295600Y-100965000D01*
X155295600Y-102125613D01*
X155215665Y-102205408D01*
X155105226Y-102471376D01*
X155104975Y-102759361D01*
X155214950Y-103025521D01*
X155418408Y-103229335D01*
X155684376Y-103339774D01*
X155972361Y-103340025D01*
X156238521Y-103230050D01*
X156442335Y-103026592D01*
X156552774Y-102760624D01*
X156553025Y-102472639D01*
X156443050Y-102206479D01*
X156362400Y-102125688D01*
X156362400Y-101185942D01*
X156938942Y-100609400D01*
X158783058Y-100609400D01*
X159769829Y-101596171D01*
X159942877Y-101711797D01*
X160147000Y-101752400D01*
X162006113Y-101752400D01*
X162085908Y-101832335D01*
X162351876Y-101942774D01*
X162639861Y-101943025D01*
X162906021Y-101833050D01*
X163109835Y-101629592D01*
X163220274Y-101363624D01*
X163220525Y-101075639D01*
X163110550Y-100809479D01*
X162907092Y-100605665D01*
X162641124Y-100495226D01*
X162353139Y-100494975D01*
X162086979Y-100604950D01*
X162006188Y-100685600D01*
X161534404Y-100685600D01*
X161569274Y-100601624D01*
X161569525Y-100313639D01*
X161459550Y-100047479D01*
X161378900Y-99966688D01*
X161378900Y-96202500D01*
X161338297Y-95998377D01*
X161338297Y-95998376D01*
X161222671Y-95825329D01*
X157222171Y-91824829D01*
X157049123Y-91709203D01*
X156845000Y-91668600D01*
X147429387Y-91668600D01*
X147349592Y-91588665D01*
X147083624Y-91478226D01*
X146795639Y-91477975D01*
X146529479Y-91587950D01*
X146325665Y-91791408D01*
X146215226Y-92057376D01*
X146214975Y-92345361D01*
X146048800Y-92345361D01*
X146048800Y-88637513D01*
X169441674Y-88637513D01*
X169727436Y-89329109D01*
X170256108Y-89858704D01*
X170947204Y-90145673D01*
X171695513Y-90146326D01*
X172387109Y-89860564D01*
X172916704Y-89331892D01*
X173203673Y-88640796D01*
X173204326Y-87892487D01*
X172918564Y-87200891D01*
X172389892Y-86671296D01*
X171698796Y-86384327D01*
X170950487Y-86383674D01*
X170258891Y-86669436D01*
X169729296Y-87198108D01*
X169442327Y-87889204D01*
X169441674Y-88637513D01*
X146048800Y-88637513D01*
X146048800Y-87250946D01*
X156636017Y-87250946D01*
X156904812Y-87836379D01*
X157377182Y-88274385D01*
X157859056Y-88473975D01*
X158115000Y-88354836D01*
X158115000Y-86995000D01*
X156754633Y-86995000D01*
X156636017Y-87250946D01*
X146048800Y-87250946D01*
X146048800Y-85469800D01*
X157368355Y-85469800D01*
X156904812Y-85899621D01*
M02*
