G04 #@! TF.FileFunction,Copper,L1,Top,Signal*
%FSLAX46Y46*%
G04 Gerber Fmt 4.6, Leading zero omitted, Abs format (unit mm)*
G04 Created by KiCad (PCBNEW 0.201508140901+6091~28~ubuntu14.04.1-product) date Thu 05 Nov 2015 06:04:02 AM PST*
%MOMM*%
G01*
G04 APERTURE LIST*
%ADD10C,0.076200*%
%ADD11C,0.600000*%
%ADD12R,2.000000X1.600000*%
%ADD13R,1.500000X1.250000*%
%ADD14R,3.600000X1.800000*%
%ADD15R,2.032000X2.032000*%
%ADD16O,2.032000X2.032000*%
%ADD17R,2.999740X2.999740*%
%ADD18R,1.500000X1.300000*%
%ADD19R,1.300000X1.500000*%
%ADD20R,0.900000X1.200000*%
%ADD21O,0.850000X0.280000*%
%ADD22R,1.650000X2.400000*%
%ADD23R,0.280000X0.700000*%
%ADD24C,0.400000*%
%ADD25C,0.685800*%
%ADD26C,0.304800*%
%ADD27C,0.609600*%
%ADD28C,0.152400*%
G04 APERTURE END LIST*
D10*
D11*
X153681200Y-104950400D03*
X155681200Y-104950400D03*
X155681200Y-130450400D03*
X153681200Y-130450400D03*
X151681200Y-130450400D03*
X155681200Y-128450400D03*
X153681200Y-128450400D03*
X151681200Y-128450400D03*
X155681200Y-126450400D03*
X153681200Y-126450400D03*
X151681200Y-126450400D03*
X153681200Y-124450400D03*
X151681200Y-124450400D03*
X149681200Y-124450400D03*
X147681200Y-124450400D03*
X153681200Y-122450400D03*
X151681200Y-122450400D03*
X149681200Y-122450400D03*
X147681200Y-122450400D03*
X153681200Y-120450400D03*
X151681200Y-120450400D03*
X149681200Y-120450400D03*
X147681200Y-120450400D03*
X153681200Y-118450400D03*
X151681200Y-118450400D03*
X149681200Y-118450400D03*
X147681200Y-118450400D03*
X153681200Y-116450400D03*
X151681200Y-116450400D03*
X149681200Y-116450400D03*
X147681200Y-116450400D03*
X157681200Y-114450400D03*
X155681200Y-114450400D03*
X153681200Y-114450400D03*
X151681200Y-114450400D03*
X149681200Y-114450400D03*
X147681200Y-114450400D03*
X153681200Y-112450400D03*
X151681200Y-112450400D03*
X149681200Y-112450400D03*
X147681200Y-112450400D03*
X157681200Y-110450400D03*
X155681200Y-110450400D03*
X151681200Y-110450400D03*
X149681200Y-110450400D03*
X147681200Y-110450400D03*
X157681200Y-108450400D03*
X155681200Y-108450400D03*
X153681200Y-108450400D03*
X149681200Y-108450400D03*
X147681200Y-108450400D03*
X157681200Y-106450400D03*
X155681200Y-106450400D03*
X153681200Y-106450400D03*
X151681200Y-106450400D03*
X147681200Y-106450400D03*
X155231600Y-94055200D03*
X153231600Y-94055200D03*
X157231600Y-90055200D03*
X155231600Y-90055200D03*
X153231600Y-90055200D03*
X151231600Y-90055200D03*
X155231600Y-88055200D03*
X153231600Y-88055200D03*
X151231600Y-88055200D03*
X155231600Y-86055200D03*
X153231600Y-86055200D03*
D12*
X161512000Y-93218000D03*
X157512000Y-93218000D03*
X161512000Y-95758000D03*
X157512000Y-95758000D03*
X161512000Y-98298000D03*
X157512000Y-98298000D03*
D13*
X148864000Y-92202000D03*
X151364000Y-92202000D03*
X148864000Y-94488000D03*
X151364000Y-94488000D03*
D12*
X161639000Y-116586000D03*
X157639000Y-116586000D03*
X161639000Y-119126000D03*
X157639000Y-119126000D03*
X161639000Y-121666000D03*
X157639000Y-121666000D03*
X161639000Y-124206000D03*
X157639000Y-124206000D03*
D10*
G36*
X162185350Y-114175540D02*
X159886650Y-114175540D01*
X160486090Y-110573820D01*
X161585910Y-110573820D01*
X162185350Y-114175540D01*
X162185350Y-114175540D01*
G37*
G36*
X159886650Y-104772460D02*
X162185350Y-104772460D01*
X161585910Y-108374180D01*
X160486090Y-108374180D01*
X159886650Y-104772460D01*
X159886650Y-104772460D01*
G37*
D14*
X168783000Y-97989000D03*
X168783000Y-106989000D03*
D15*
X160782000Y-86868000D03*
D16*
X158242000Y-86868000D03*
D17*
X165785800Y-87401400D03*
X165989000Y-128905000D03*
D15*
X160782000Y-129032000D03*
D16*
X158242000Y-129032000D03*
D18*
X151464000Y-96774000D03*
X148764000Y-96774000D03*
D19*
X149352000Y-104728000D03*
X149352000Y-102028000D03*
D20*
X151638000Y-101897000D03*
X151638000Y-104097000D03*
D11*
X151231600Y-86055200D03*
D21*
X157148000Y-101362000D03*
X157148000Y-101862000D03*
X157148000Y-102362000D03*
X157148000Y-102862000D03*
X157148000Y-103362000D03*
X160098000Y-103362000D03*
X160098000Y-102862000D03*
X160098000Y-102362000D03*
X160098000Y-101862000D03*
X160098000Y-101362000D03*
D22*
X158623000Y-102362000D03*
D23*
X158873000Y-100812000D03*
X158373000Y-100812000D03*
X158873000Y-103912000D03*
X158373000Y-103912000D03*
D24*
X158623000Y-102362000D03*
X159123000Y-103112000D03*
X159123000Y-101612000D03*
X158123000Y-101612000D03*
X158123000Y-103112000D03*
D25*
X162496500Y-101219000D03*
X155829000Y-102616000D03*
X146939000Y-92202000D03*
X160845500Y-100457000D03*
D26*
X157148000Y-102362000D02*
X156083000Y-102362000D01*
X156083000Y-102362000D02*
X155829000Y-102616000D01*
X160098000Y-102362000D02*
X161798000Y-102362000D01*
X161988500Y-102171500D02*
X161988500Y-101727000D01*
X161798000Y-102362000D02*
X161988500Y-102171500D01*
X161512000Y-98298000D02*
X161861500Y-98298000D01*
X161861500Y-98298000D02*
X162623500Y-99060000D01*
X162623500Y-99060000D02*
X162623500Y-101092000D01*
X162623500Y-101092000D02*
X162496500Y-101219000D01*
X162496500Y-101219000D02*
X161988500Y-101727000D01*
X161988500Y-101727000D02*
X161853500Y-101862000D01*
X161853500Y-101862000D02*
X160098000Y-101862000D01*
X160098000Y-101362000D02*
X160766000Y-101362000D01*
X146939000Y-92202000D02*
X148864000Y-92202000D01*
X160845500Y-101282500D02*
X160845500Y-100457000D01*
X160766000Y-101362000D02*
X160845500Y-101282500D01*
D27*
X148864000Y-94488000D02*
X148864000Y-96674000D01*
X148864000Y-96674000D02*
X148764000Y-96774000D01*
D26*
X149352000Y-104728000D02*
X149352000Y-105727500D01*
X155999180Y-112374680D02*
X161036000Y-112374680D01*
X149352000Y-105727500D02*
X155999180Y-112374680D01*
X157148000Y-101362000D02*
X154122880Y-101362000D01*
X151464000Y-98703120D02*
X151464000Y-96774000D01*
X154122880Y-101362000D02*
X151464000Y-98703120D01*
X157148000Y-101862000D02*
X151673000Y-101862000D01*
X151673000Y-101862000D02*
X151638000Y-101897000D01*
D27*
X149352000Y-102028000D02*
X151380000Y-102028000D01*
X151380000Y-102028000D02*
X151638000Y-101770000D01*
D28*
G36*
X168198800Y-130862000D02*
X159842200Y-130862000D01*
X159842200Y-130378200D01*
X160521650Y-130378200D01*
X160604200Y-130295650D01*
X160604200Y-129209800D01*
X160959800Y-129209800D01*
X160959800Y-130295650D01*
X161042350Y-130378200D01*
X161863681Y-130378200D01*
X161985043Y-130327930D01*
X162077930Y-130235043D01*
X162128200Y-130113681D01*
X162128200Y-129292350D01*
X162045650Y-129209800D01*
X160959800Y-129209800D01*
X160604200Y-129209800D01*
X160584200Y-129209800D01*
X160584200Y-129165350D01*
X164158930Y-129165350D01*
X164158930Y-130470551D01*
X164209200Y-130591913D01*
X164302087Y-130684800D01*
X164423449Y-130735070D01*
X165728650Y-130735070D01*
X165811200Y-130652520D01*
X165811200Y-129082800D01*
X166166800Y-129082800D01*
X166166800Y-130652520D01*
X166249350Y-130735070D01*
X167554551Y-130735070D01*
X167675913Y-130684800D01*
X167768800Y-130591913D01*
X167819070Y-130470551D01*
X167819070Y-129165350D01*
X167736520Y-129082800D01*
X166166800Y-129082800D01*
X165811200Y-129082800D01*
X164241480Y-129082800D01*
X164158930Y-129165350D01*
X160584200Y-129165350D01*
X160584200Y-128854200D01*
X160604200Y-128854200D01*
X160604200Y-127768350D01*
X160959800Y-127768350D01*
X160959800Y-128854200D01*
X162045650Y-128854200D01*
X162128200Y-128771650D01*
X162128200Y-127950319D01*
X162077930Y-127828957D01*
X161985043Y-127736070D01*
X161863681Y-127685800D01*
X161042350Y-127685800D01*
X160959800Y-127768350D01*
X160604200Y-127768350D01*
X160521650Y-127685800D01*
X159842200Y-127685800D01*
X159842200Y-127339449D01*
X164158930Y-127339449D01*
X164158930Y-128644650D01*
X164241480Y-128727200D01*
X165811200Y-128727200D01*
X165811200Y-127157480D01*
X166166800Y-127157480D01*
X166166800Y-128727200D01*
X167736520Y-128727200D01*
X167819070Y-128644650D01*
X167819070Y-127339449D01*
X167768800Y-127218087D01*
X167675913Y-127125200D01*
X167554551Y-127074930D01*
X166249350Y-127074930D01*
X166166800Y-127157480D01*
X165811200Y-127157480D01*
X165728650Y-127074930D01*
X164423449Y-127074930D01*
X164302087Y-127125200D01*
X164209200Y-127218087D01*
X164158930Y-127339449D01*
X159842200Y-127339449D01*
X159842200Y-124466350D01*
X160308800Y-124466350D01*
X160308800Y-125071681D01*
X160359070Y-125193043D01*
X160451957Y-125285930D01*
X160573319Y-125336200D01*
X161378650Y-125336200D01*
X161461200Y-125253650D01*
X161461200Y-124383800D01*
X161816800Y-124383800D01*
X161816800Y-125253650D01*
X161899350Y-125336200D01*
X162704681Y-125336200D01*
X162826043Y-125285930D01*
X162918930Y-125193043D01*
X162969200Y-125071681D01*
X162969200Y-124466350D01*
X162886650Y-124383800D01*
X161816800Y-124383800D01*
X161461200Y-124383800D01*
X160391350Y-124383800D01*
X160308800Y-124466350D01*
X159842200Y-124466350D01*
X159842200Y-123340319D01*
X160308800Y-123340319D01*
X160308800Y-123945650D01*
X160391350Y-124028200D01*
X161461200Y-124028200D01*
X161461200Y-123158350D01*
X161816800Y-123158350D01*
X161816800Y-124028200D01*
X162886650Y-124028200D01*
X162969200Y-123945650D01*
X162969200Y-123340319D01*
X162918930Y-123218957D01*
X162826043Y-123126070D01*
X162704681Y-123075800D01*
X161899350Y-123075800D01*
X161816800Y-123158350D01*
X161461200Y-123158350D01*
X161378650Y-123075800D01*
X160573319Y-123075800D01*
X160451957Y-123126070D01*
X160359070Y-123218957D01*
X160308800Y-123340319D01*
X159842200Y-123340319D01*
X159842200Y-121926350D01*
X160308800Y-121926350D01*
X160308800Y-122531681D01*
X160359070Y-122653043D01*
X160451957Y-122745930D01*
X160573319Y-122796200D01*
X161378650Y-122796200D01*
X161461200Y-122713650D01*
X161461200Y-121843800D01*
X161816800Y-121843800D01*
X161816800Y-122713650D01*
X161899350Y-122796200D01*
X162704681Y-122796200D01*
X162826043Y-122745930D01*
X162918930Y-122653043D01*
X162969200Y-122531681D01*
X162969200Y-121926350D01*
X162886650Y-121843800D01*
X161816800Y-121843800D01*
X161461200Y-121843800D01*
X160391350Y-121843800D01*
X160308800Y-121926350D01*
X159842200Y-121926350D01*
X159842200Y-120800319D01*
X160308800Y-120800319D01*
X160308800Y-121405650D01*
X160391350Y-121488200D01*
X161461200Y-121488200D01*
X161461200Y-120618350D01*
X161816800Y-120618350D01*
X161816800Y-121488200D01*
X162886650Y-121488200D01*
X162969200Y-121405650D01*
X162969200Y-120800319D01*
X162918930Y-120678957D01*
X162826043Y-120586070D01*
X162704681Y-120535800D01*
X161899350Y-120535800D01*
X161816800Y-120618350D01*
X161461200Y-120618350D01*
X161378650Y-120535800D01*
X160573319Y-120535800D01*
X160451957Y-120586070D01*
X160359070Y-120678957D01*
X160308800Y-120800319D01*
X159842200Y-120800319D01*
X159842200Y-119386350D01*
X160308800Y-119386350D01*
X160308800Y-119991681D01*
X160359070Y-120113043D01*
X160451957Y-120205930D01*
X160573319Y-120256200D01*
X161378650Y-120256200D01*
X161461200Y-120173650D01*
X161461200Y-119303800D01*
X161816800Y-119303800D01*
X161816800Y-120173650D01*
X161899350Y-120256200D01*
X162704681Y-120256200D01*
X162826043Y-120205930D01*
X162918930Y-120113043D01*
X162969200Y-119991681D01*
X162969200Y-119386350D01*
X162886650Y-119303800D01*
X161816800Y-119303800D01*
X161461200Y-119303800D01*
X160391350Y-119303800D01*
X160308800Y-119386350D01*
X159842200Y-119386350D01*
X159842200Y-118260319D01*
X160308800Y-118260319D01*
X160308800Y-118865650D01*
X160391350Y-118948200D01*
X161461200Y-118948200D01*
X161461200Y-118078350D01*
X161816800Y-118078350D01*
X161816800Y-118948200D01*
X162886650Y-118948200D01*
X162969200Y-118865650D01*
X162969200Y-118260319D01*
X162918930Y-118138957D01*
X162826043Y-118046070D01*
X162704681Y-117995800D01*
X161899350Y-117995800D01*
X161816800Y-118078350D01*
X161461200Y-118078350D01*
X161378650Y-117995800D01*
X160573319Y-117995800D01*
X160451957Y-118046070D01*
X160359070Y-118138957D01*
X160308800Y-118260319D01*
X159842200Y-118260319D01*
X159842200Y-116846350D01*
X160308800Y-116846350D01*
X160308800Y-117451681D01*
X160359070Y-117573043D01*
X160451957Y-117665930D01*
X160573319Y-117716200D01*
X161378650Y-117716200D01*
X161461200Y-117633650D01*
X161461200Y-116763800D01*
X161816800Y-116763800D01*
X161816800Y-117633650D01*
X161899350Y-117716200D01*
X162704681Y-117716200D01*
X162826043Y-117665930D01*
X162918930Y-117573043D01*
X162969200Y-117451681D01*
X162969200Y-116846350D01*
X162886650Y-116763800D01*
X161816800Y-116763800D01*
X161461200Y-116763800D01*
X160391350Y-116763800D01*
X160308800Y-116846350D01*
X159842200Y-116846350D01*
X159842200Y-115720319D01*
X160308800Y-115720319D01*
X160308800Y-116325650D01*
X160391350Y-116408200D01*
X161461200Y-116408200D01*
X161461200Y-115538350D01*
X161816800Y-115538350D01*
X161816800Y-116408200D01*
X162886650Y-116408200D01*
X162969200Y-116325650D01*
X162969200Y-115720319D01*
X162918930Y-115598957D01*
X162826043Y-115506070D01*
X162704681Y-115455800D01*
X161899350Y-115455800D01*
X161816800Y-115538350D01*
X161461200Y-115538350D01*
X161378650Y-115455800D01*
X160573319Y-115455800D01*
X160451957Y-115506070D01*
X160359070Y-115598957D01*
X160308800Y-115720319D01*
X159842200Y-115720319D01*
X159842200Y-114503208D01*
X159886650Y-114512209D01*
X160858200Y-114512209D01*
X160858200Y-112552480D01*
X161213800Y-112552480D01*
X161213800Y-114512209D01*
X162185350Y-114512209D01*
X162357547Y-114464840D01*
X162456534Y-114375053D01*
X162512790Y-114253828D01*
X162517451Y-114120268D01*
X162256522Y-112552480D01*
X161213800Y-112552480D01*
X160858200Y-112552480D01*
X159842200Y-112552480D01*
X159842200Y-112196880D01*
X159874662Y-112196880D01*
X160858200Y-112196880D01*
X160858200Y-110237151D01*
X161213800Y-110237151D01*
X161213800Y-112196880D01*
X162197338Y-112196880D01*
X161918011Y-110518548D01*
X161899554Y-110451455D01*
X161827237Y-110339071D01*
X161716893Y-110263676D01*
X161585910Y-110237151D01*
X161213800Y-110237151D01*
X160858200Y-110237151D01*
X160486090Y-110237151D01*
X160416878Y-110244342D01*
X160294145Y-110297228D01*
X160201658Y-110393697D01*
X160153989Y-110518548D01*
X159874662Y-112196880D01*
X159842200Y-112196880D01*
X159842200Y-109804200D01*
X168198800Y-109804200D01*
X168198800Y-130862000D01*
X168198800Y-130862000D01*
G37*
X168198800Y-130862000D02*
X159842200Y-130862000D01*
X159842200Y-130378200D01*
X160521650Y-130378200D01*
X160604200Y-130295650D01*
X160604200Y-129209800D01*
X160959800Y-129209800D01*
X160959800Y-130295650D01*
X161042350Y-130378200D01*
X161863681Y-130378200D01*
X161985043Y-130327930D01*
X162077930Y-130235043D01*
X162128200Y-130113681D01*
X162128200Y-129292350D01*
X162045650Y-129209800D01*
X160959800Y-129209800D01*
X160604200Y-129209800D01*
X160584200Y-129209800D01*
X160584200Y-129165350D01*
X164158930Y-129165350D01*
X164158930Y-130470551D01*
X164209200Y-130591913D01*
X164302087Y-130684800D01*
X164423449Y-130735070D01*
X165728650Y-130735070D01*
X165811200Y-130652520D01*
X165811200Y-129082800D01*
X166166800Y-129082800D01*
X166166800Y-130652520D01*
X166249350Y-130735070D01*
X167554551Y-130735070D01*
X167675913Y-130684800D01*
X167768800Y-130591913D01*
X167819070Y-130470551D01*
X167819070Y-129165350D01*
X167736520Y-129082800D01*
X166166800Y-129082800D01*
X165811200Y-129082800D01*
X164241480Y-129082800D01*
X164158930Y-129165350D01*
X160584200Y-129165350D01*
X160584200Y-128854200D01*
X160604200Y-128854200D01*
X160604200Y-127768350D01*
X160959800Y-127768350D01*
X160959800Y-128854200D01*
X162045650Y-128854200D01*
X162128200Y-128771650D01*
X162128200Y-127950319D01*
X162077930Y-127828957D01*
X161985043Y-127736070D01*
X161863681Y-127685800D01*
X161042350Y-127685800D01*
X160959800Y-127768350D01*
X160604200Y-127768350D01*
X160521650Y-127685800D01*
X159842200Y-127685800D01*
X159842200Y-127339449D01*
X164158930Y-127339449D01*
X164158930Y-128644650D01*
X164241480Y-128727200D01*
X165811200Y-128727200D01*
X165811200Y-127157480D01*
X166166800Y-127157480D01*
X166166800Y-128727200D01*
X167736520Y-128727200D01*
X167819070Y-128644650D01*
X167819070Y-127339449D01*
X167768800Y-127218087D01*
X167675913Y-127125200D01*
X167554551Y-127074930D01*
X166249350Y-127074930D01*
X166166800Y-127157480D01*
X165811200Y-127157480D01*
X165728650Y-127074930D01*
X164423449Y-127074930D01*
X164302087Y-127125200D01*
X164209200Y-127218087D01*
X164158930Y-127339449D01*
X159842200Y-127339449D01*
X159842200Y-124466350D01*
X160308800Y-124466350D01*
X160308800Y-125071681D01*
X160359070Y-125193043D01*
X160451957Y-125285930D01*
X160573319Y-125336200D01*
X161378650Y-125336200D01*
X161461200Y-125253650D01*
X161461200Y-124383800D01*
X161816800Y-124383800D01*
X161816800Y-125253650D01*
X161899350Y-125336200D01*
X162704681Y-125336200D01*
X162826043Y-125285930D01*
X162918930Y-125193043D01*
X162969200Y-125071681D01*
X162969200Y-124466350D01*
X162886650Y-124383800D01*
X161816800Y-124383800D01*
X161461200Y-124383800D01*
X160391350Y-124383800D01*
X160308800Y-124466350D01*
X159842200Y-124466350D01*
X159842200Y-123340319D01*
X160308800Y-123340319D01*
X160308800Y-123945650D01*
X160391350Y-124028200D01*
X161461200Y-124028200D01*
X161461200Y-123158350D01*
X161816800Y-123158350D01*
X161816800Y-124028200D01*
X162886650Y-124028200D01*
X162969200Y-123945650D01*
X162969200Y-123340319D01*
X162918930Y-123218957D01*
X162826043Y-123126070D01*
X162704681Y-123075800D01*
X161899350Y-123075800D01*
X161816800Y-123158350D01*
X161461200Y-123158350D01*
X161378650Y-123075800D01*
X160573319Y-123075800D01*
X160451957Y-123126070D01*
X160359070Y-123218957D01*
X160308800Y-123340319D01*
X159842200Y-123340319D01*
X159842200Y-121926350D01*
X160308800Y-121926350D01*
X160308800Y-122531681D01*
X160359070Y-122653043D01*
X160451957Y-122745930D01*
X160573319Y-122796200D01*
X161378650Y-122796200D01*
X161461200Y-122713650D01*
X161461200Y-121843800D01*
X161816800Y-121843800D01*
X161816800Y-122713650D01*
X161899350Y-122796200D01*
X162704681Y-122796200D01*
X162826043Y-122745930D01*
X162918930Y-122653043D01*
X162969200Y-122531681D01*
X162969200Y-121926350D01*
X162886650Y-121843800D01*
X161816800Y-121843800D01*
X161461200Y-121843800D01*
X160391350Y-121843800D01*
X160308800Y-121926350D01*
X159842200Y-121926350D01*
X159842200Y-120800319D01*
X160308800Y-120800319D01*
X160308800Y-121405650D01*
X160391350Y-121488200D01*
X161461200Y-121488200D01*
X161461200Y-120618350D01*
X161816800Y-120618350D01*
X161816800Y-121488200D01*
X162886650Y-121488200D01*
X162969200Y-121405650D01*
X162969200Y-120800319D01*
X162918930Y-120678957D01*
X162826043Y-120586070D01*
X162704681Y-120535800D01*
X161899350Y-120535800D01*
X161816800Y-120618350D01*
X161461200Y-120618350D01*
X161378650Y-120535800D01*
X160573319Y-120535800D01*
X160451957Y-120586070D01*
X160359070Y-120678957D01*
X160308800Y-120800319D01*
X159842200Y-120800319D01*
X159842200Y-119386350D01*
X160308800Y-119386350D01*
X160308800Y-119991681D01*
X160359070Y-120113043D01*
X160451957Y-120205930D01*
X160573319Y-120256200D01*
X161378650Y-120256200D01*
X161461200Y-120173650D01*
X161461200Y-119303800D01*
X161816800Y-119303800D01*
X161816800Y-120173650D01*
X161899350Y-120256200D01*
X162704681Y-120256200D01*
X162826043Y-120205930D01*
X162918930Y-120113043D01*
X162969200Y-119991681D01*
X162969200Y-119386350D01*
X162886650Y-119303800D01*
X161816800Y-119303800D01*
X161461200Y-119303800D01*
X160391350Y-119303800D01*
X160308800Y-119386350D01*
X159842200Y-119386350D01*
X159842200Y-118260319D01*
X160308800Y-118260319D01*
X160308800Y-118865650D01*
X160391350Y-118948200D01*
X161461200Y-118948200D01*
X161461200Y-118078350D01*
X161816800Y-118078350D01*
X161816800Y-118948200D01*
X162886650Y-118948200D01*
X162969200Y-118865650D01*
X162969200Y-118260319D01*
X162918930Y-118138957D01*
X162826043Y-118046070D01*
X162704681Y-117995800D01*
X161899350Y-117995800D01*
X161816800Y-118078350D01*
X161461200Y-118078350D01*
X161378650Y-117995800D01*
X160573319Y-117995800D01*
X160451957Y-118046070D01*
X160359070Y-118138957D01*
X160308800Y-118260319D01*
X159842200Y-118260319D01*
X159842200Y-116846350D01*
X160308800Y-116846350D01*
X160308800Y-117451681D01*
X160359070Y-117573043D01*
X160451957Y-117665930D01*
X160573319Y-117716200D01*
X161378650Y-117716200D01*
X161461200Y-117633650D01*
X161461200Y-116763800D01*
X161816800Y-116763800D01*
X161816800Y-117633650D01*
X161899350Y-117716200D01*
X162704681Y-117716200D01*
X162826043Y-117665930D01*
X162918930Y-117573043D01*
X162969200Y-117451681D01*
X162969200Y-116846350D01*
X162886650Y-116763800D01*
X161816800Y-116763800D01*
X161461200Y-116763800D01*
X160391350Y-116763800D01*
X160308800Y-116846350D01*
X159842200Y-116846350D01*
X159842200Y-115720319D01*
X160308800Y-115720319D01*
X160308800Y-116325650D01*
X160391350Y-116408200D01*
X161461200Y-116408200D01*
X161461200Y-115538350D01*
X161816800Y-115538350D01*
X161816800Y-116408200D01*
X162886650Y-116408200D01*
X162969200Y-116325650D01*
X162969200Y-115720319D01*
X162918930Y-115598957D01*
X162826043Y-115506070D01*
X162704681Y-115455800D01*
X161899350Y-115455800D01*
X161816800Y-115538350D01*
X161461200Y-115538350D01*
X161378650Y-115455800D01*
X160573319Y-115455800D01*
X160451957Y-115506070D01*
X160359070Y-115598957D01*
X160308800Y-115720319D01*
X159842200Y-115720319D01*
X159842200Y-114503208D01*
X159886650Y-114512209D01*
X160858200Y-114512209D01*
X160858200Y-112552480D01*
X161213800Y-112552480D01*
X161213800Y-114512209D01*
X162185350Y-114512209D01*
X162357547Y-114464840D01*
X162456534Y-114375053D01*
X162512790Y-114253828D01*
X162517451Y-114120268D01*
X162256522Y-112552480D01*
X161213800Y-112552480D01*
X160858200Y-112552480D01*
X159842200Y-112552480D01*
X159842200Y-112196880D01*
X159874662Y-112196880D01*
X160858200Y-112196880D01*
X160858200Y-110237151D01*
X161213800Y-110237151D01*
X161213800Y-112196880D01*
X162197338Y-112196880D01*
X161918011Y-110518548D01*
X161899554Y-110451455D01*
X161827237Y-110339071D01*
X161716893Y-110263676D01*
X161585910Y-110237151D01*
X161213800Y-110237151D01*
X160858200Y-110237151D01*
X160486090Y-110237151D01*
X160416878Y-110244342D01*
X160294145Y-110297228D01*
X160201658Y-110393697D01*
X160153989Y-110518548D01*
X159874662Y-112196880D01*
X159842200Y-112196880D01*
X159842200Y-109804200D01*
X168198800Y-109804200D01*
X168198800Y-130862000D01*
G36*
X174423000Y-109397800D02*
X159842200Y-109397800D01*
X159842200Y-106751120D01*
X159874662Y-106751120D01*
X160153989Y-108429452D01*
X160172446Y-108496545D01*
X160244763Y-108608929D01*
X160355107Y-108684324D01*
X160486090Y-108710849D01*
X160858200Y-108710849D01*
X160858200Y-106751120D01*
X161213800Y-106751120D01*
X161213800Y-108710849D01*
X161585910Y-108710849D01*
X161655122Y-108703658D01*
X161777855Y-108650772D01*
X161870342Y-108554303D01*
X161918011Y-108429452D01*
X162114416Y-107249350D01*
X166652800Y-107249350D01*
X166652800Y-107954681D01*
X166703070Y-108076043D01*
X166795957Y-108168930D01*
X166917319Y-108219200D01*
X168522650Y-108219200D01*
X168605200Y-108136650D01*
X168605200Y-107166800D01*
X168960800Y-107166800D01*
X168960800Y-108136650D01*
X169043350Y-108219200D01*
X170648681Y-108219200D01*
X170770043Y-108168930D01*
X170862930Y-108076043D01*
X170913200Y-107954681D01*
X170913200Y-107249350D01*
X170830650Y-107166800D01*
X168960800Y-107166800D01*
X168605200Y-107166800D01*
X166735350Y-107166800D01*
X166652800Y-107249350D01*
X162114416Y-107249350D01*
X162197338Y-106751120D01*
X161213800Y-106751120D01*
X160858200Y-106751120D01*
X159874662Y-106751120D01*
X159842200Y-106751120D01*
X159842200Y-106395520D01*
X160858200Y-106395520D01*
X160858200Y-104435791D01*
X161213800Y-104435791D01*
X161213800Y-106395520D01*
X162256522Y-106395520D01*
X162318467Y-106023319D01*
X166652800Y-106023319D01*
X166652800Y-106728650D01*
X166735350Y-106811200D01*
X168605200Y-106811200D01*
X168605200Y-105841350D01*
X168960800Y-105841350D01*
X168960800Y-106811200D01*
X170830650Y-106811200D01*
X170913200Y-106728650D01*
X170913200Y-106023319D01*
X170862930Y-105901957D01*
X170770043Y-105809070D01*
X170648681Y-105758800D01*
X169043350Y-105758800D01*
X168960800Y-105841350D01*
X168605200Y-105841350D01*
X168522650Y-105758800D01*
X166917319Y-105758800D01*
X166795957Y-105809070D01*
X166703070Y-105901957D01*
X166652800Y-106023319D01*
X162318467Y-106023319D01*
X162517451Y-104827732D01*
X162498994Y-104650095D01*
X162426677Y-104537711D01*
X162316333Y-104462316D01*
X162185350Y-104435791D01*
X161213800Y-104435791D01*
X160858200Y-104435791D01*
X159886650Y-104435791D01*
X159842200Y-104448019D01*
X159842200Y-102832200D01*
X160035661Y-102832200D01*
X160098000Y-102844600D01*
X161798000Y-102844600D01*
X161982683Y-102807864D01*
X162139250Y-102703250D01*
X162150300Y-102692200D01*
X174423000Y-102692200D01*
X174423000Y-109397800D01*
X174423000Y-109397800D01*
G37*
X174423000Y-109397800D02*
X159842200Y-109397800D01*
X159842200Y-106751120D01*
X159874662Y-106751120D01*
X160153989Y-108429452D01*
X160172446Y-108496545D01*
X160244763Y-108608929D01*
X160355107Y-108684324D01*
X160486090Y-108710849D01*
X160858200Y-108710849D01*
X160858200Y-106751120D01*
X161213800Y-106751120D01*
X161213800Y-108710849D01*
X161585910Y-108710849D01*
X161655122Y-108703658D01*
X161777855Y-108650772D01*
X161870342Y-108554303D01*
X161918011Y-108429452D01*
X162114416Y-107249350D01*
X166652800Y-107249350D01*
X166652800Y-107954681D01*
X166703070Y-108076043D01*
X166795957Y-108168930D01*
X166917319Y-108219200D01*
X168522650Y-108219200D01*
X168605200Y-108136650D01*
X168605200Y-107166800D01*
X168960800Y-107166800D01*
X168960800Y-108136650D01*
X169043350Y-108219200D01*
X170648681Y-108219200D01*
X170770043Y-108168930D01*
X170862930Y-108076043D01*
X170913200Y-107954681D01*
X170913200Y-107249350D01*
X170830650Y-107166800D01*
X168960800Y-107166800D01*
X168605200Y-107166800D01*
X166735350Y-107166800D01*
X166652800Y-107249350D01*
X162114416Y-107249350D01*
X162197338Y-106751120D01*
X161213800Y-106751120D01*
X160858200Y-106751120D01*
X159874662Y-106751120D01*
X159842200Y-106751120D01*
X159842200Y-106395520D01*
X160858200Y-106395520D01*
X160858200Y-104435791D01*
X161213800Y-104435791D01*
X161213800Y-106395520D01*
X162256522Y-106395520D01*
X162318467Y-106023319D01*
X166652800Y-106023319D01*
X166652800Y-106728650D01*
X166735350Y-106811200D01*
X168605200Y-106811200D01*
X168605200Y-105841350D01*
X168960800Y-105841350D01*
X168960800Y-106811200D01*
X170830650Y-106811200D01*
X170913200Y-106728650D01*
X170913200Y-106023319D01*
X170862930Y-105901957D01*
X170770043Y-105809070D01*
X170648681Y-105758800D01*
X169043350Y-105758800D01*
X168960800Y-105841350D01*
X168605200Y-105841350D01*
X168522650Y-105758800D01*
X166917319Y-105758800D01*
X166795957Y-105809070D01*
X166703070Y-105901957D01*
X166652800Y-106023319D01*
X162318467Y-106023319D01*
X162517451Y-104827732D01*
X162498994Y-104650095D01*
X162426677Y-104537711D01*
X162316333Y-104462316D01*
X162185350Y-104435791D01*
X161213800Y-104435791D01*
X160858200Y-104435791D01*
X159886650Y-104435791D01*
X159842200Y-104448019D01*
X159842200Y-102832200D01*
X160035661Y-102832200D01*
X160098000Y-102844600D01*
X161798000Y-102844600D01*
X161982683Y-102807864D01*
X162139250Y-102703250D01*
X162150300Y-102692200D01*
X174423000Y-102692200D01*
X174423000Y-109397800D01*
G36*
X168071800Y-96012000D02*
X168077803Y-96041646D01*
X168094868Y-96066621D01*
X168120305Y-96082989D01*
X168148000Y-96088200D01*
X174423000Y-96088200D01*
X174423000Y-102285800D01*
X163652200Y-102285800D01*
X163652200Y-99441000D01*
X163646197Y-99411354D01*
X163629132Y-99386379D01*
X163603695Y-99370011D01*
X163576000Y-99364800D01*
X162712173Y-99364800D01*
X162791930Y-99285043D01*
X162842200Y-99163681D01*
X162842200Y-98558350D01*
X162759650Y-98475800D01*
X161689800Y-98475800D01*
X161689800Y-98495800D01*
X161334200Y-98495800D01*
X161334200Y-98475800D01*
X160264350Y-98475800D01*
X160181800Y-98558350D01*
X160181800Y-99163681D01*
X160232070Y-99285043D01*
X160311827Y-99364800D01*
X159842200Y-99364800D01*
X159842200Y-98249350D01*
X166652800Y-98249350D01*
X166652800Y-98954681D01*
X166703070Y-99076043D01*
X166795957Y-99168930D01*
X166917319Y-99219200D01*
X168522650Y-99219200D01*
X168605200Y-99136650D01*
X168605200Y-98166800D01*
X168960800Y-98166800D01*
X168960800Y-99136650D01*
X169043350Y-99219200D01*
X170648681Y-99219200D01*
X170770043Y-99168930D01*
X170862930Y-99076043D01*
X170913200Y-98954681D01*
X170913200Y-98249350D01*
X170830650Y-98166800D01*
X168960800Y-98166800D01*
X168605200Y-98166800D01*
X166735350Y-98166800D01*
X166652800Y-98249350D01*
X159842200Y-98249350D01*
X159842200Y-97432319D01*
X160181800Y-97432319D01*
X160181800Y-98037650D01*
X160264350Y-98120200D01*
X161334200Y-98120200D01*
X161334200Y-97250350D01*
X161689800Y-97250350D01*
X161689800Y-98120200D01*
X162759650Y-98120200D01*
X162842200Y-98037650D01*
X162842200Y-97432319D01*
X162791930Y-97310957D01*
X162699043Y-97218070D01*
X162577681Y-97167800D01*
X161772350Y-97167800D01*
X161689800Y-97250350D01*
X161334200Y-97250350D01*
X161251650Y-97167800D01*
X160446319Y-97167800D01*
X160324957Y-97218070D01*
X160232070Y-97310957D01*
X160181800Y-97432319D01*
X159842200Y-97432319D01*
X159842200Y-97023319D01*
X166652800Y-97023319D01*
X166652800Y-97728650D01*
X166735350Y-97811200D01*
X168605200Y-97811200D01*
X168605200Y-96841350D01*
X168960800Y-96841350D01*
X168960800Y-97811200D01*
X170830650Y-97811200D01*
X170913200Y-97728650D01*
X170913200Y-97023319D01*
X170862930Y-96901957D01*
X170770043Y-96809070D01*
X170648681Y-96758800D01*
X169043350Y-96758800D01*
X168960800Y-96841350D01*
X168605200Y-96841350D01*
X168522650Y-96758800D01*
X166917319Y-96758800D01*
X166795957Y-96809070D01*
X166703070Y-96901957D01*
X166652800Y-97023319D01*
X159842200Y-97023319D01*
X159842200Y-96018350D01*
X160181800Y-96018350D01*
X160181800Y-96623681D01*
X160232070Y-96745043D01*
X160324957Y-96837930D01*
X160446319Y-96888200D01*
X161251650Y-96888200D01*
X161334200Y-96805650D01*
X161334200Y-95935800D01*
X161689800Y-95935800D01*
X161689800Y-96805650D01*
X161772350Y-96888200D01*
X162577681Y-96888200D01*
X162699043Y-96837930D01*
X162791930Y-96745043D01*
X162842200Y-96623681D01*
X162842200Y-96018350D01*
X162759650Y-95935800D01*
X161689800Y-95935800D01*
X161334200Y-95935800D01*
X160264350Y-95935800D01*
X160181800Y-96018350D01*
X159842200Y-96018350D01*
X159842200Y-94892319D01*
X160181800Y-94892319D01*
X160181800Y-95497650D01*
X160264350Y-95580200D01*
X161334200Y-95580200D01*
X161334200Y-94710350D01*
X161689800Y-94710350D01*
X161689800Y-95580200D01*
X162759650Y-95580200D01*
X162842200Y-95497650D01*
X162842200Y-94892319D01*
X162791930Y-94770957D01*
X162699043Y-94678070D01*
X162577681Y-94627800D01*
X161772350Y-94627800D01*
X161689800Y-94710350D01*
X161334200Y-94710350D01*
X161251650Y-94627800D01*
X160446319Y-94627800D01*
X160324957Y-94678070D01*
X160232070Y-94770957D01*
X160181800Y-94892319D01*
X159842200Y-94892319D01*
X159842200Y-93478350D01*
X160181800Y-93478350D01*
X160181800Y-94083681D01*
X160232070Y-94205043D01*
X160324957Y-94297930D01*
X160446319Y-94348200D01*
X161251650Y-94348200D01*
X161334200Y-94265650D01*
X161334200Y-93395800D01*
X161689800Y-93395800D01*
X161689800Y-94265650D01*
X161772350Y-94348200D01*
X162577681Y-94348200D01*
X162699043Y-94297930D01*
X162791930Y-94205043D01*
X162842200Y-94083681D01*
X162842200Y-93478350D01*
X162759650Y-93395800D01*
X161689800Y-93395800D01*
X161334200Y-93395800D01*
X160264350Y-93395800D01*
X160181800Y-93478350D01*
X159842200Y-93478350D01*
X159842200Y-92352319D01*
X160181800Y-92352319D01*
X160181800Y-92957650D01*
X160264350Y-93040200D01*
X161334200Y-93040200D01*
X161334200Y-92170350D01*
X161689800Y-92170350D01*
X161689800Y-93040200D01*
X162759650Y-93040200D01*
X162842200Y-92957650D01*
X162842200Y-92352319D01*
X162791930Y-92230957D01*
X162699043Y-92138070D01*
X162577681Y-92087800D01*
X161772350Y-92087800D01*
X161689800Y-92170350D01*
X161334200Y-92170350D01*
X161251650Y-92087800D01*
X160446319Y-92087800D01*
X160324957Y-92138070D01*
X160232070Y-92230957D01*
X160181800Y-92352319D01*
X159842200Y-92352319D01*
X159842200Y-88214200D01*
X160521650Y-88214200D01*
X160604200Y-88131650D01*
X160604200Y-87045800D01*
X160959800Y-87045800D01*
X160959800Y-88131650D01*
X161042350Y-88214200D01*
X161863681Y-88214200D01*
X161985043Y-88163930D01*
X162077930Y-88071043D01*
X162128200Y-87949681D01*
X162128200Y-87661750D01*
X163955730Y-87661750D01*
X163955730Y-88966951D01*
X164006000Y-89088313D01*
X164098887Y-89181200D01*
X164220249Y-89231470D01*
X165525450Y-89231470D01*
X165608000Y-89148920D01*
X165608000Y-87579200D01*
X165963600Y-87579200D01*
X165963600Y-89148920D01*
X166046150Y-89231470D01*
X167351351Y-89231470D01*
X167472713Y-89181200D01*
X167565600Y-89088313D01*
X167615870Y-88966951D01*
X167615870Y-87661750D01*
X167533320Y-87579200D01*
X165963600Y-87579200D01*
X165608000Y-87579200D01*
X164038280Y-87579200D01*
X163955730Y-87661750D01*
X162128200Y-87661750D01*
X162128200Y-87128350D01*
X162045650Y-87045800D01*
X160959800Y-87045800D01*
X160604200Y-87045800D01*
X160584200Y-87045800D01*
X160584200Y-86690200D01*
X160604200Y-86690200D01*
X160604200Y-85604350D01*
X160959800Y-85604350D01*
X160959800Y-86690200D01*
X162045650Y-86690200D01*
X162128200Y-86607650D01*
X162128200Y-85835849D01*
X163955730Y-85835849D01*
X163955730Y-87141050D01*
X164038280Y-87223600D01*
X165608000Y-87223600D01*
X165608000Y-85653880D01*
X165963600Y-85653880D01*
X165963600Y-87223600D01*
X167533320Y-87223600D01*
X167615870Y-87141050D01*
X167615870Y-85835849D01*
X167565600Y-85714487D01*
X167472713Y-85621600D01*
X167351351Y-85571330D01*
X166046150Y-85571330D01*
X165963600Y-85653880D01*
X165608000Y-85653880D01*
X165525450Y-85571330D01*
X164220249Y-85571330D01*
X164098887Y-85621600D01*
X164006000Y-85714487D01*
X163955730Y-85835849D01*
X162128200Y-85835849D01*
X162128200Y-85786319D01*
X162077930Y-85664957D01*
X161985043Y-85572070D01*
X161863681Y-85521800D01*
X161042350Y-85521800D01*
X160959800Y-85604350D01*
X160604200Y-85604350D01*
X160521650Y-85521800D01*
X159842200Y-85521800D01*
X159842200Y-85419000D01*
X168071800Y-85419000D01*
X168071800Y-96012000D01*
X168071800Y-96012000D01*
G37*
X168071800Y-96012000D02*
X168077803Y-96041646D01*
X168094868Y-96066621D01*
X168120305Y-96082989D01*
X168148000Y-96088200D01*
X174423000Y-96088200D01*
X174423000Y-102285800D01*
X163652200Y-102285800D01*
X163652200Y-99441000D01*
X163646197Y-99411354D01*
X163629132Y-99386379D01*
X163603695Y-99370011D01*
X163576000Y-99364800D01*
X162712173Y-99364800D01*
X162791930Y-99285043D01*
X162842200Y-99163681D01*
X162842200Y-98558350D01*
X162759650Y-98475800D01*
X161689800Y-98475800D01*
X161689800Y-98495800D01*
X161334200Y-98495800D01*
X161334200Y-98475800D01*
X160264350Y-98475800D01*
X160181800Y-98558350D01*
X160181800Y-99163681D01*
X160232070Y-99285043D01*
X160311827Y-99364800D01*
X159842200Y-99364800D01*
X159842200Y-98249350D01*
X166652800Y-98249350D01*
X166652800Y-98954681D01*
X166703070Y-99076043D01*
X166795957Y-99168930D01*
X166917319Y-99219200D01*
X168522650Y-99219200D01*
X168605200Y-99136650D01*
X168605200Y-98166800D01*
X168960800Y-98166800D01*
X168960800Y-99136650D01*
X169043350Y-99219200D01*
X170648681Y-99219200D01*
X170770043Y-99168930D01*
X170862930Y-99076043D01*
X170913200Y-98954681D01*
X170913200Y-98249350D01*
X170830650Y-98166800D01*
X168960800Y-98166800D01*
X168605200Y-98166800D01*
X166735350Y-98166800D01*
X166652800Y-98249350D01*
X159842200Y-98249350D01*
X159842200Y-97432319D01*
X160181800Y-97432319D01*
X160181800Y-98037650D01*
X160264350Y-98120200D01*
X161334200Y-98120200D01*
X161334200Y-97250350D01*
X161689800Y-97250350D01*
X161689800Y-98120200D01*
X162759650Y-98120200D01*
X162842200Y-98037650D01*
X162842200Y-97432319D01*
X162791930Y-97310957D01*
X162699043Y-97218070D01*
X162577681Y-97167800D01*
X161772350Y-97167800D01*
X161689800Y-97250350D01*
X161334200Y-97250350D01*
X161251650Y-97167800D01*
X160446319Y-97167800D01*
X160324957Y-97218070D01*
X160232070Y-97310957D01*
X160181800Y-97432319D01*
X159842200Y-97432319D01*
X159842200Y-97023319D01*
X166652800Y-97023319D01*
X166652800Y-97728650D01*
X166735350Y-97811200D01*
X168605200Y-97811200D01*
X168605200Y-96841350D01*
X168960800Y-96841350D01*
X168960800Y-97811200D01*
X170830650Y-97811200D01*
X170913200Y-97728650D01*
X170913200Y-97023319D01*
X170862930Y-96901957D01*
X170770043Y-96809070D01*
X170648681Y-96758800D01*
X169043350Y-96758800D01*
X168960800Y-96841350D01*
X168605200Y-96841350D01*
X168522650Y-96758800D01*
X166917319Y-96758800D01*
X166795957Y-96809070D01*
X166703070Y-96901957D01*
X166652800Y-97023319D01*
X159842200Y-97023319D01*
X159842200Y-96018350D01*
X160181800Y-96018350D01*
X160181800Y-96623681D01*
X160232070Y-96745043D01*
X160324957Y-96837930D01*
X160446319Y-96888200D01*
X161251650Y-96888200D01*
X161334200Y-96805650D01*
X161334200Y-95935800D01*
X161689800Y-95935800D01*
X161689800Y-96805650D01*
X161772350Y-96888200D01*
X162577681Y-96888200D01*
X162699043Y-96837930D01*
X162791930Y-96745043D01*
X162842200Y-96623681D01*
X162842200Y-96018350D01*
X162759650Y-95935800D01*
X161689800Y-95935800D01*
X161334200Y-95935800D01*
X160264350Y-95935800D01*
X160181800Y-96018350D01*
X159842200Y-96018350D01*
X159842200Y-94892319D01*
X160181800Y-94892319D01*
X160181800Y-95497650D01*
X160264350Y-95580200D01*
X161334200Y-95580200D01*
X161334200Y-94710350D01*
X161689800Y-94710350D01*
X161689800Y-95580200D01*
X162759650Y-95580200D01*
X162842200Y-95497650D01*
X162842200Y-94892319D01*
X162791930Y-94770957D01*
X162699043Y-94678070D01*
X162577681Y-94627800D01*
X161772350Y-94627800D01*
X161689800Y-94710350D01*
X161334200Y-94710350D01*
X161251650Y-94627800D01*
X160446319Y-94627800D01*
X160324957Y-94678070D01*
X160232070Y-94770957D01*
X160181800Y-94892319D01*
X159842200Y-94892319D01*
X159842200Y-93478350D01*
X160181800Y-93478350D01*
X160181800Y-94083681D01*
X160232070Y-94205043D01*
X160324957Y-94297930D01*
X160446319Y-94348200D01*
X161251650Y-94348200D01*
X161334200Y-94265650D01*
X161334200Y-93395800D01*
X161689800Y-93395800D01*
X161689800Y-94265650D01*
X161772350Y-94348200D01*
X162577681Y-94348200D01*
X162699043Y-94297930D01*
X162791930Y-94205043D01*
X162842200Y-94083681D01*
X162842200Y-93478350D01*
X162759650Y-93395800D01*
X161689800Y-93395800D01*
X161334200Y-93395800D01*
X160264350Y-93395800D01*
X160181800Y-93478350D01*
X159842200Y-93478350D01*
X159842200Y-92352319D01*
X160181800Y-92352319D01*
X160181800Y-92957650D01*
X160264350Y-93040200D01*
X161334200Y-93040200D01*
X161334200Y-92170350D01*
X161689800Y-92170350D01*
X161689800Y-93040200D01*
X162759650Y-93040200D01*
X162842200Y-92957650D01*
X162842200Y-92352319D01*
X162791930Y-92230957D01*
X162699043Y-92138070D01*
X162577681Y-92087800D01*
X161772350Y-92087800D01*
X161689800Y-92170350D01*
X161334200Y-92170350D01*
X161251650Y-92087800D01*
X160446319Y-92087800D01*
X160324957Y-92138070D01*
X160232070Y-92230957D01*
X160181800Y-92352319D01*
X159842200Y-92352319D01*
X159842200Y-88214200D01*
X160521650Y-88214200D01*
X160604200Y-88131650D01*
X160604200Y-87045800D01*
X160959800Y-87045800D01*
X160959800Y-88131650D01*
X161042350Y-88214200D01*
X161863681Y-88214200D01*
X161985043Y-88163930D01*
X162077930Y-88071043D01*
X162128200Y-87949681D01*
X162128200Y-87661750D01*
X163955730Y-87661750D01*
X163955730Y-88966951D01*
X164006000Y-89088313D01*
X164098887Y-89181200D01*
X164220249Y-89231470D01*
X165525450Y-89231470D01*
X165608000Y-89148920D01*
X165608000Y-87579200D01*
X165963600Y-87579200D01*
X165963600Y-89148920D01*
X166046150Y-89231470D01*
X167351351Y-89231470D01*
X167472713Y-89181200D01*
X167565600Y-89088313D01*
X167615870Y-88966951D01*
X167615870Y-87661750D01*
X167533320Y-87579200D01*
X165963600Y-87579200D01*
X165608000Y-87579200D01*
X164038280Y-87579200D01*
X163955730Y-87661750D01*
X162128200Y-87661750D01*
X162128200Y-87128350D01*
X162045650Y-87045800D01*
X160959800Y-87045800D01*
X160604200Y-87045800D01*
X160584200Y-87045800D01*
X160584200Y-86690200D01*
X160604200Y-86690200D01*
X160604200Y-85604350D01*
X160959800Y-85604350D01*
X160959800Y-86690200D01*
X162045650Y-86690200D01*
X162128200Y-86607650D01*
X162128200Y-85835849D01*
X163955730Y-85835849D01*
X163955730Y-87141050D01*
X164038280Y-87223600D01*
X165608000Y-87223600D01*
X165608000Y-85653880D01*
X165963600Y-85653880D01*
X165963600Y-87223600D01*
X167533320Y-87223600D01*
X167615870Y-87141050D01*
X167615870Y-85835849D01*
X167565600Y-85714487D01*
X167472713Y-85621600D01*
X167351351Y-85571330D01*
X166046150Y-85571330D01*
X165963600Y-85653880D01*
X165608000Y-85653880D01*
X165525450Y-85571330D01*
X164220249Y-85571330D01*
X164098887Y-85621600D01*
X164006000Y-85714487D01*
X163955730Y-85835849D01*
X162128200Y-85835849D01*
X162128200Y-85786319D01*
X162077930Y-85664957D01*
X161985043Y-85572070D01*
X161863681Y-85521800D01*
X161042350Y-85521800D01*
X160959800Y-85604350D01*
X160604200Y-85604350D01*
X160521650Y-85521800D01*
X159842200Y-85521800D01*
X159842200Y-85419000D01*
X168071800Y-85419000D01*
X168071800Y-96012000D01*
G36*
X148571017Y-105788144D02*
X148702000Y-105814669D01*
X148886739Y-105814669D01*
X148906136Y-105912183D01*
X149010750Y-106068750D01*
X155657930Y-112715930D01*
X155814497Y-112820544D01*
X155999180Y-112857280D01*
X159435800Y-112857280D01*
X159435800Y-127984055D01*
X159429331Y-128016000D01*
X159429331Y-128452896D01*
X159286881Y-128183167D01*
X158882510Y-127847922D01*
X158626358Y-127741836D01*
X158419800Y-127780921D01*
X158419800Y-128854200D01*
X158439800Y-128854200D01*
X158439800Y-129209800D01*
X158419800Y-129209800D01*
X158419800Y-130283079D01*
X158626358Y-130322164D01*
X158882510Y-130216078D01*
X159286881Y-129880833D01*
X159429331Y-129611104D01*
X159429331Y-130048000D01*
X159435800Y-130082379D01*
X159435800Y-130862000D01*
X145998000Y-130862000D01*
X145998000Y-128124452D01*
X147013483Y-128124452D01*
X147291527Y-128797371D01*
X147805921Y-129312664D01*
X148478354Y-129591882D01*
X149206452Y-129592517D01*
X149632782Y-129416361D01*
X156951821Y-129416361D01*
X157197119Y-129880833D01*
X157601490Y-130216078D01*
X157857642Y-130322164D01*
X158064200Y-130283079D01*
X158064200Y-129209800D01*
X156990128Y-129209800D01*
X156951821Y-129416361D01*
X149632782Y-129416361D01*
X149879371Y-129314473D01*
X150394664Y-128800079D01*
X150457962Y-128647639D01*
X156951821Y-128647639D01*
X156990128Y-128854200D01*
X158064200Y-128854200D01*
X158064200Y-127780921D01*
X157857642Y-127741836D01*
X157601490Y-127847922D01*
X157197119Y-128183167D01*
X156951821Y-128647639D01*
X150457962Y-128647639D01*
X150673882Y-128127646D01*
X150674517Y-127399548D01*
X150396473Y-126726629D01*
X149882079Y-126211336D01*
X149209646Y-125932118D01*
X148481548Y-125931483D01*
X147808629Y-126209527D01*
X147293336Y-126723921D01*
X147014118Y-127396354D01*
X147013483Y-128124452D01*
X145998000Y-128124452D01*
X145998000Y-124466350D01*
X156308800Y-124466350D01*
X156308800Y-125071681D01*
X156359070Y-125193043D01*
X156451957Y-125285930D01*
X156573319Y-125336200D01*
X157378650Y-125336200D01*
X157461200Y-125253650D01*
X157461200Y-124383800D01*
X157816800Y-124383800D01*
X157816800Y-125253650D01*
X157899350Y-125336200D01*
X158704681Y-125336200D01*
X158826043Y-125285930D01*
X158918930Y-125193043D01*
X158969200Y-125071681D01*
X158969200Y-124466350D01*
X158886650Y-124383800D01*
X157816800Y-124383800D01*
X157461200Y-124383800D01*
X156391350Y-124383800D01*
X156308800Y-124466350D01*
X145998000Y-124466350D01*
X145998000Y-123340319D01*
X156308800Y-123340319D01*
X156308800Y-123945650D01*
X156391350Y-124028200D01*
X157461200Y-124028200D01*
X157461200Y-123158350D01*
X157816800Y-123158350D01*
X157816800Y-124028200D01*
X158886650Y-124028200D01*
X158969200Y-123945650D01*
X158969200Y-123340319D01*
X158918930Y-123218957D01*
X158826043Y-123126070D01*
X158704681Y-123075800D01*
X157899350Y-123075800D01*
X157816800Y-123158350D01*
X157461200Y-123158350D01*
X157378650Y-123075800D01*
X156573319Y-123075800D01*
X156451957Y-123126070D01*
X156359070Y-123218957D01*
X156308800Y-123340319D01*
X145998000Y-123340319D01*
X145998000Y-121926350D01*
X156308800Y-121926350D01*
X156308800Y-122531681D01*
X156359070Y-122653043D01*
X156451957Y-122745930D01*
X156573319Y-122796200D01*
X157378650Y-122796200D01*
X157461200Y-122713650D01*
X157461200Y-121843800D01*
X157816800Y-121843800D01*
X157816800Y-122713650D01*
X157899350Y-122796200D01*
X158704681Y-122796200D01*
X158826043Y-122745930D01*
X158918930Y-122653043D01*
X158969200Y-122531681D01*
X158969200Y-121926350D01*
X158886650Y-121843800D01*
X157816800Y-121843800D01*
X157461200Y-121843800D01*
X156391350Y-121843800D01*
X156308800Y-121926350D01*
X145998000Y-121926350D01*
X145998000Y-120800319D01*
X156308800Y-120800319D01*
X156308800Y-121405650D01*
X156391350Y-121488200D01*
X157461200Y-121488200D01*
X157461200Y-120618350D01*
X157816800Y-120618350D01*
X157816800Y-121488200D01*
X158886650Y-121488200D01*
X158969200Y-121405650D01*
X158969200Y-120800319D01*
X158918930Y-120678957D01*
X158826043Y-120586070D01*
X158704681Y-120535800D01*
X157899350Y-120535800D01*
X157816800Y-120618350D01*
X157461200Y-120618350D01*
X157378650Y-120535800D01*
X156573319Y-120535800D01*
X156451957Y-120586070D01*
X156359070Y-120678957D01*
X156308800Y-120800319D01*
X145998000Y-120800319D01*
X145998000Y-119386350D01*
X156308800Y-119386350D01*
X156308800Y-119991681D01*
X156359070Y-120113043D01*
X156451957Y-120205930D01*
X156573319Y-120256200D01*
X157378650Y-120256200D01*
X157461200Y-120173650D01*
X157461200Y-119303800D01*
X157816800Y-119303800D01*
X157816800Y-120173650D01*
X157899350Y-120256200D01*
X158704681Y-120256200D01*
X158826043Y-120205930D01*
X158918930Y-120113043D01*
X158969200Y-119991681D01*
X158969200Y-119386350D01*
X158886650Y-119303800D01*
X157816800Y-119303800D01*
X157461200Y-119303800D01*
X156391350Y-119303800D01*
X156308800Y-119386350D01*
X145998000Y-119386350D01*
X145998000Y-118260319D01*
X156308800Y-118260319D01*
X156308800Y-118865650D01*
X156391350Y-118948200D01*
X157461200Y-118948200D01*
X157461200Y-118078350D01*
X157816800Y-118078350D01*
X157816800Y-118948200D01*
X158886650Y-118948200D01*
X158969200Y-118865650D01*
X158969200Y-118260319D01*
X158918930Y-118138957D01*
X158826043Y-118046070D01*
X158704681Y-117995800D01*
X157899350Y-117995800D01*
X157816800Y-118078350D01*
X157461200Y-118078350D01*
X157378650Y-117995800D01*
X156573319Y-117995800D01*
X156451957Y-118046070D01*
X156359070Y-118138957D01*
X156308800Y-118260319D01*
X145998000Y-118260319D01*
X145998000Y-116846350D01*
X156308800Y-116846350D01*
X156308800Y-117451681D01*
X156359070Y-117573043D01*
X156451957Y-117665930D01*
X156573319Y-117716200D01*
X157378650Y-117716200D01*
X157461200Y-117633650D01*
X157461200Y-116763800D01*
X157816800Y-116763800D01*
X157816800Y-117633650D01*
X157899350Y-117716200D01*
X158704681Y-117716200D01*
X158826043Y-117665930D01*
X158918930Y-117573043D01*
X158969200Y-117451681D01*
X158969200Y-116846350D01*
X158886650Y-116763800D01*
X157816800Y-116763800D01*
X157461200Y-116763800D01*
X156391350Y-116763800D01*
X156308800Y-116846350D01*
X145998000Y-116846350D01*
X145998000Y-115720319D01*
X156308800Y-115720319D01*
X156308800Y-116325650D01*
X156391350Y-116408200D01*
X157461200Y-116408200D01*
X157461200Y-115538350D01*
X157816800Y-115538350D01*
X157816800Y-116408200D01*
X158886650Y-116408200D01*
X158969200Y-116325650D01*
X158969200Y-115720319D01*
X158918930Y-115598957D01*
X158826043Y-115506070D01*
X158704681Y-115455800D01*
X157899350Y-115455800D01*
X157816800Y-115538350D01*
X157461200Y-115538350D01*
X157378650Y-115455800D01*
X156573319Y-115455800D01*
X156451957Y-115506070D01*
X156359070Y-115598957D01*
X156308800Y-115720319D01*
X145998000Y-115720319D01*
X145998000Y-105740200D01*
X148500849Y-105740200D01*
X148571017Y-105788144D01*
X148571017Y-105788144D01*
G37*
X148571017Y-105788144D02*
X148702000Y-105814669D01*
X148886739Y-105814669D01*
X148906136Y-105912183D01*
X149010750Y-106068750D01*
X155657930Y-112715930D01*
X155814497Y-112820544D01*
X155999180Y-112857280D01*
X159435800Y-112857280D01*
X159435800Y-127984055D01*
X159429331Y-128016000D01*
X159429331Y-128452896D01*
X159286881Y-128183167D01*
X158882510Y-127847922D01*
X158626358Y-127741836D01*
X158419800Y-127780921D01*
X158419800Y-128854200D01*
X158439800Y-128854200D01*
X158439800Y-129209800D01*
X158419800Y-129209800D01*
X158419800Y-130283079D01*
X158626358Y-130322164D01*
X158882510Y-130216078D01*
X159286881Y-129880833D01*
X159429331Y-129611104D01*
X159429331Y-130048000D01*
X159435800Y-130082379D01*
X159435800Y-130862000D01*
X145998000Y-130862000D01*
X145998000Y-128124452D01*
X147013483Y-128124452D01*
X147291527Y-128797371D01*
X147805921Y-129312664D01*
X148478354Y-129591882D01*
X149206452Y-129592517D01*
X149632782Y-129416361D01*
X156951821Y-129416361D01*
X157197119Y-129880833D01*
X157601490Y-130216078D01*
X157857642Y-130322164D01*
X158064200Y-130283079D01*
X158064200Y-129209800D01*
X156990128Y-129209800D01*
X156951821Y-129416361D01*
X149632782Y-129416361D01*
X149879371Y-129314473D01*
X150394664Y-128800079D01*
X150457962Y-128647639D01*
X156951821Y-128647639D01*
X156990128Y-128854200D01*
X158064200Y-128854200D01*
X158064200Y-127780921D01*
X157857642Y-127741836D01*
X157601490Y-127847922D01*
X157197119Y-128183167D01*
X156951821Y-128647639D01*
X150457962Y-128647639D01*
X150673882Y-128127646D01*
X150674517Y-127399548D01*
X150396473Y-126726629D01*
X149882079Y-126211336D01*
X149209646Y-125932118D01*
X148481548Y-125931483D01*
X147808629Y-126209527D01*
X147293336Y-126723921D01*
X147014118Y-127396354D01*
X147013483Y-128124452D01*
X145998000Y-128124452D01*
X145998000Y-124466350D01*
X156308800Y-124466350D01*
X156308800Y-125071681D01*
X156359070Y-125193043D01*
X156451957Y-125285930D01*
X156573319Y-125336200D01*
X157378650Y-125336200D01*
X157461200Y-125253650D01*
X157461200Y-124383800D01*
X157816800Y-124383800D01*
X157816800Y-125253650D01*
X157899350Y-125336200D01*
X158704681Y-125336200D01*
X158826043Y-125285930D01*
X158918930Y-125193043D01*
X158969200Y-125071681D01*
X158969200Y-124466350D01*
X158886650Y-124383800D01*
X157816800Y-124383800D01*
X157461200Y-124383800D01*
X156391350Y-124383800D01*
X156308800Y-124466350D01*
X145998000Y-124466350D01*
X145998000Y-123340319D01*
X156308800Y-123340319D01*
X156308800Y-123945650D01*
X156391350Y-124028200D01*
X157461200Y-124028200D01*
X157461200Y-123158350D01*
X157816800Y-123158350D01*
X157816800Y-124028200D01*
X158886650Y-124028200D01*
X158969200Y-123945650D01*
X158969200Y-123340319D01*
X158918930Y-123218957D01*
X158826043Y-123126070D01*
X158704681Y-123075800D01*
X157899350Y-123075800D01*
X157816800Y-123158350D01*
X157461200Y-123158350D01*
X157378650Y-123075800D01*
X156573319Y-123075800D01*
X156451957Y-123126070D01*
X156359070Y-123218957D01*
X156308800Y-123340319D01*
X145998000Y-123340319D01*
X145998000Y-121926350D01*
X156308800Y-121926350D01*
X156308800Y-122531681D01*
X156359070Y-122653043D01*
X156451957Y-122745930D01*
X156573319Y-122796200D01*
X157378650Y-122796200D01*
X157461200Y-122713650D01*
X157461200Y-121843800D01*
X157816800Y-121843800D01*
X157816800Y-122713650D01*
X157899350Y-122796200D01*
X158704681Y-122796200D01*
X158826043Y-122745930D01*
X158918930Y-122653043D01*
X158969200Y-122531681D01*
X158969200Y-121926350D01*
X158886650Y-121843800D01*
X157816800Y-121843800D01*
X157461200Y-121843800D01*
X156391350Y-121843800D01*
X156308800Y-121926350D01*
X145998000Y-121926350D01*
X145998000Y-120800319D01*
X156308800Y-120800319D01*
X156308800Y-121405650D01*
X156391350Y-121488200D01*
X157461200Y-121488200D01*
X157461200Y-120618350D01*
X157816800Y-120618350D01*
X157816800Y-121488200D01*
X158886650Y-121488200D01*
X158969200Y-121405650D01*
X158969200Y-120800319D01*
X158918930Y-120678957D01*
X158826043Y-120586070D01*
X158704681Y-120535800D01*
X157899350Y-120535800D01*
X157816800Y-120618350D01*
X157461200Y-120618350D01*
X157378650Y-120535800D01*
X156573319Y-120535800D01*
X156451957Y-120586070D01*
X156359070Y-120678957D01*
X156308800Y-120800319D01*
X145998000Y-120800319D01*
X145998000Y-119386350D01*
X156308800Y-119386350D01*
X156308800Y-119991681D01*
X156359070Y-120113043D01*
X156451957Y-120205930D01*
X156573319Y-120256200D01*
X157378650Y-120256200D01*
X157461200Y-120173650D01*
X157461200Y-119303800D01*
X157816800Y-119303800D01*
X157816800Y-120173650D01*
X157899350Y-120256200D01*
X158704681Y-120256200D01*
X158826043Y-120205930D01*
X158918930Y-120113043D01*
X158969200Y-119991681D01*
X158969200Y-119386350D01*
X158886650Y-119303800D01*
X157816800Y-119303800D01*
X157461200Y-119303800D01*
X156391350Y-119303800D01*
X156308800Y-119386350D01*
X145998000Y-119386350D01*
X145998000Y-118260319D01*
X156308800Y-118260319D01*
X156308800Y-118865650D01*
X156391350Y-118948200D01*
X157461200Y-118948200D01*
X157461200Y-118078350D01*
X157816800Y-118078350D01*
X157816800Y-118948200D01*
X158886650Y-118948200D01*
X158969200Y-118865650D01*
X158969200Y-118260319D01*
X158918930Y-118138957D01*
X158826043Y-118046070D01*
X158704681Y-117995800D01*
X157899350Y-117995800D01*
X157816800Y-118078350D01*
X157461200Y-118078350D01*
X157378650Y-117995800D01*
X156573319Y-117995800D01*
X156451957Y-118046070D01*
X156359070Y-118138957D01*
X156308800Y-118260319D01*
X145998000Y-118260319D01*
X145998000Y-116846350D01*
X156308800Y-116846350D01*
X156308800Y-117451681D01*
X156359070Y-117573043D01*
X156451957Y-117665930D01*
X156573319Y-117716200D01*
X157378650Y-117716200D01*
X157461200Y-117633650D01*
X157461200Y-116763800D01*
X157816800Y-116763800D01*
X157816800Y-117633650D01*
X157899350Y-117716200D01*
X158704681Y-117716200D01*
X158826043Y-117665930D01*
X158918930Y-117573043D01*
X158969200Y-117451681D01*
X158969200Y-116846350D01*
X158886650Y-116763800D01*
X157816800Y-116763800D01*
X157461200Y-116763800D01*
X156391350Y-116763800D01*
X156308800Y-116846350D01*
X145998000Y-116846350D01*
X145998000Y-115720319D01*
X156308800Y-115720319D01*
X156308800Y-116325650D01*
X156391350Y-116408200D01*
X157461200Y-116408200D01*
X157461200Y-115538350D01*
X157816800Y-115538350D01*
X157816800Y-116408200D01*
X158886650Y-116408200D01*
X158969200Y-116325650D01*
X158969200Y-115720319D01*
X158918930Y-115598957D01*
X158826043Y-115506070D01*
X158704681Y-115455800D01*
X157899350Y-115455800D01*
X157816800Y-115538350D01*
X157461200Y-115538350D01*
X157378650Y-115455800D01*
X156573319Y-115455800D01*
X156451957Y-115506070D01*
X156359070Y-115598957D01*
X156308800Y-115720319D01*
X145998000Y-115720319D01*
X145998000Y-105740200D01*
X148500849Y-105740200D01*
X148571017Y-105788144D01*
G36*
X159435800Y-85820055D02*
X159429331Y-85852000D01*
X159429331Y-86288896D01*
X159286881Y-86019167D01*
X158882510Y-85683922D01*
X158626358Y-85577836D01*
X158419800Y-85616921D01*
X158419800Y-86690200D01*
X158439800Y-86690200D01*
X158439800Y-87045800D01*
X158419800Y-87045800D01*
X158419800Y-88119079D01*
X158626358Y-88158164D01*
X158882510Y-88052078D01*
X159286881Y-87716833D01*
X159429331Y-87447104D01*
X159429331Y-87884000D01*
X159435800Y-87918379D01*
X159435800Y-101074301D01*
X159363797Y-101182062D01*
X159328005Y-101362000D01*
X159363797Y-101541938D01*
X159410611Y-101612000D01*
X159363797Y-101682062D01*
X159328005Y-101862000D01*
X159363797Y-102041938D01*
X159410611Y-102112000D01*
X159363797Y-102182062D01*
X159328005Y-102362000D01*
X159363797Y-102541938D01*
X159410611Y-102612000D01*
X159363797Y-102682062D01*
X159328005Y-102862000D01*
X159363797Y-103041938D01*
X159410611Y-103112000D01*
X159363797Y-103182062D01*
X159328005Y-103362000D01*
X159363797Y-103541938D01*
X159435800Y-103649699D01*
X159435800Y-111892080D01*
X156199080Y-111892080D01*
X150102717Y-105795717D01*
X150124365Y-105791644D01*
X150204311Y-105740200D01*
X150622000Y-105740200D01*
X150651646Y-105734197D01*
X150676621Y-105717132D01*
X150692989Y-105691695D01*
X150698200Y-105663847D01*
X150695577Y-104357350D01*
X150857800Y-104357350D01*
X150857800Y-104762681D01*
X150908070Y-104884043D01*
X151000957Y-104976930D01*
X151122319Y-105027200D01*
X151377650Y-105027200D01*
X151460200Y-104944650D01*
X151460200Y-104274800D01*
X151815800Y-104274800D01*
X151815800Y-104944650D01*
X151898350Y-105027200D01*
X152153681Y-105027200D01*
X152275043Y-104976930D01*
X152367930Y-104884043D01*
X152418200Y-104762681D01*
X152418200Y-104357350D01*
X152335650Y-104274800D01*
X151815800Y-104274800D01*
X151460200Y-104274800D01*
X150940350Y-104274800D01*
X150857800Y-104357350D01*
X150695577Y-104357350D01*
X150693273Y-103210387D01*
X151016812Y-103210503D01*
X151000957Y-103217070D01*
X150908070Y-103309957D01*
X150857800Y-103431319D01*
X150857800Y-103836650D01*
X150940350Y-103919200D01*
X151460200Y-103919200D01*
X151460200Y-103899200D01*
X151815800Y-103899200D01*
X151815800Y-103919200D01*
X152335650Y-103919200D01*
X152418200Y-103836650D01*
X152418200Y-103431319D01*
X152367930Y-103309957D01*
X152275043Y-103217070D01*
X152260262Y-103210948D01*
X152703011Y-103211106D01*
X152697182Y-104111567D01*
X152702993Y-104141251D01*
X152719896Y-104166336D01*
X152745226Y-104182868D01*
X152773326Y-104188260D01*
X156382666Y-104190800D01*
X156412317Y-104184817D01*
X156437303Y-104167770D01*
X156453689Y-104142345D01*
X156458920Y-104114600D01*
X156458920Y-102854183D01*
X156462899Y-102844600D01*
X157148000Y-102844600D01*
X157210339Y-102832200D01*
X157447795Y-102832200D01*
X157627733Y-102796408D01*
X157688014Y-102756130D01*
X157735848Y-102755680D01*
X157765437Y-102749398D01*
X157790250Y-102732099D01*
X157806378Y-102706510D01*
X157811332Y-102679454D01*
X157811320Y-102648022D01*
X157882203Y-102541938D01*
X157917995Y-102362000D01*
X157882203Y-102182062D01*
X157835389Y-102112000D01*
X157882203Y-102041938D01*
X157917995Y-101862000D01*
X157882203Y-101682062D01*
X157835389Y-101612000D01*
X157882203Y-101541938D01*
X157917995Y-101362000D01*
X157882203Y-101182062D01*
X157810723Y-101075085D01*
X157810200Y-99694971D01*
X157804185Y-99665327D01*
X157787111Y-99640359D01*
X157761669Y-99624001D01*
X157734000Y-99618800D01*
X155651200Y-99618800D01*
X155651200Y-96018350D01*
X156181800Y-96018350D01*
X156181800Y-96623681D01*
X156232070Y-96745043D01*
X156324957Y-96837930D01*
X156446319Y-96888200D01*
X157251650Y-96888200D01*
X157334200Y-96805650D01*
X157334200Y-95935800D01*
X157689800Y-95935800D01*
X157689800Y-96805650D01*
X157772350Y-96888200D01*
X158577681Y-96888200D01*
X158699043Y-96837930D01*
X158791930Y-96745043D01*
X158842200Y-96623681D01*
X158842200Y-96018350D01*
X158759650Y-95935800D01*
X157689800Y-95935800D01*
X157334200Y-95935800D01*
X156264350Y-95935800D01*
X156181800Y-96018350D01*
X155651200Y-96018350D01*
X155651200Y-95504000D01*
X155645197Y-95474354D01*
X155628132Y-95449379D01*
X155602695Y-95433011D01*
X155575000Y-95427800D01*
X152216860Y-95427800D01*
X152301043Y-95392930D01*
X152393930Y-95300043D01*
X152444200Y-95178681D01*
X152444200Y-94892319D01*
X156181800Y-94892319D01*
X156181800Y-95497650D01*
X156264350Y-95580200D01*
X157334200Y-95580200D01*
X157334200Y-94710350D01*
X157689800Y-94710350D01*
X157689800Y-95580200D01*
X158759650Y-95580200D01*
X158842200Y-95497650D01*
X158842200Y-94892319D01*
X158791930Y-94770957D01*
X158699043Y-94678070D01*
X158577681Y-94627800D01*
X157772350Y-94627800D01*
X157689800Y-94710350D01*
X157334200Y-94710350D01*
X157251650Y-94627800D01*
X156446319Y-94627800D01*
X156324957Y-94678070D01*
X156232070Y-94770957D01*
X156181800Y-94892319D01*
X152444200Y-94892319D01*
X152444200Y-94748350D01*
X152361650Y-94665800D01*
X151541800Y-94665800D01*
X151541800Y-94685800D01*
X151186200Y-94685800D01*
X151186200Y-94665800D01*
X151166200Y-94665800D01*
X151166200Y-94310200D01*
X151186200Y-94310200D01*
X151186200Y-93615350D01*
X151541800Y-93615350D01*
X151541800Y-94310200D01*
X152361650Y-94310200D01*
X152444200Y-94227650D01*
X152444200Y-93797319D01*
X152393930Y-93675957D01*
X152301043Y-93583070D01*
X152179681Y-93532800D01*
X151624350Y-93532800D01*
X151541800Y-93615350D01*
X151186200Y-93615350D01*
X151103650Y-93532800D01*
X150548319Y-93532800D01*
X150444200Y-93575928D01*
X150444200Y-93478350D01*
X156181800Y-93478350D01*
X156181800Y-94083681D01*
X156232070Y-94205043D01*
X156324957Y-94297930D01*
X156446319Y-94348200D01*
X157251650Y-94348200D01*
X157334200Y-94265650D01*
X157334200Y-93395800D01*
X157689800Y-93395800D01*
X157689800Y-94265650D01*
X157772350Y-94348200D01*
X158577681Y-94348200D01*
X158699043Y-94297930D01*
X158791930Y-94205043D01*
X158842200Y-94083681D01*
X158842200Y-93478350D01*
X158759650Y-93395800D01*
X157689800Y-93395800D01*
X157334200Y-93395800D01*
X156264350Y-93395800D01*
X156181800Y-93478350D01*
X150444200Y-93478350D01*
X150444200Y-93114072D01*
X150548319Y-93157200D01*
X151103650Y-93157200D01*
X151186200Y-93074650D01*
X151186200Y-92379800D01*
X151541800Y-92379800D01*
X151541800Y-93074650D01*
X151624350Y-93157200D01*
X152179681Y-93157200D01*
X152301043Y-93106930D01*
X152393930Y-93014043D01*
X152444200Y-92892681D01*
X152444200Y-92462350D01*
X152361650Y-92379800D01*
X151541800Y-92379800D01*
X151186200Y-92379800D01*
X151166200Y-92379800D01*
X151166200Y-92352319D01*
X156181800Y-92352319D01*
X156181800Y-92957650D01*
X156264350Y-93040200D01*
X157334200Y-93040200D01*
X157334200Y-92170350D01*
X157689800Y-92170350D01*
X157689800Y-93040200D01*
X158759650Y-93040200D01*
X158842200Y-92957650D01*
X158842200Y-92352319D01*
X158791930Y-92230957D01*
X158699043Y-92138070D01*
X158577681Y-92087800D01*
X157772350Y-92087800D01*
X157689800Y-92170350D01*
X157334200Y-92170350D01*
X157251650Y-92087800D01*
X156446319Y-92087800D01*
X156324957Y-92138070D01*
X156232070Y-92230957D01*
X156181800Y-92352319D01*
X151166200Y-92352319D01*
X151166200Y-92024200D01*
X151186200Y-92024200D01*
X151186200Y-91329350D01*
X151541800Y-91329350D01*
X151541800Y-92024200D01*
X152361650Y-92024200D01*
X152444200Y-91941650D01*
X152444200Y-91511319D01*
X152393930Y-91389957D01*
X152301043Y-91297070D01*
X152179681Y-91246800D01*
X151624350Y-91246800D01*
X151541800Y-91329350D01*
X151186200Y-91329350D01*
X151103650Y-91246800D01*
X150548319Y-91246800D01*
X150444200Y-91289928D01*
X150444200Y-87252361D01*
X156951821Y-87252361D01*
X157197119Y-87716833D01*
X157601490Y-88052078D01*
X157857642Y-88158164D01*
X158064200Y-88119079D01*
X158064200Y-87045800D01*
X156990128Y-87045800D01*
X156951821Y-87252361D01*
X150444200Y-87252361D01*
X150444200Y-86483639D01*
X156951821Y-86483639D01*
X156990128Y-86690200D01*
X158064200Y-86690200D01*
X158064200Y-85616921D01*
X157857642Y-85577836D01*
X157601490Y-85683922D01*
X157197119Y-86019167D01*
X156951821Y-86483639D01*
X150444200Y-86483639D01*
X150444200Y-85419000D01*
X159435800Y-85419000D01*
X159435800Y-85820055D01*
X159435800Y-85820055D01*
G37*
X159435800Y-85820055D02*
X159429331Y-85852000D01*
X159429331Y-86288896D01*
X159286881Y-86019167D01*
X158882510Y-85683922D01*
X158626358Y-85577836D01*
X158419800Y-85616921D01*
X158419800Y-86690200D01*
X158439800Y-86690200D01*
X158439800Y-87045800D01*
X158419800Y-87045800D01*
X158419800Y-88119079D01*
X158626358Y-88158164D01*
X158882510Y-88052078D01*
X159286881Y-87716833D01*
X159429331Y-87447104D01*
X159429331Y-87884000D01*
X159435800Y-87918379D01*
X159435800Y-101074301D01*
X159363797Y-101182062D01*
X159328005Y-101362000D01*
X159363797Y-101541938D01*
X159410611Y-101612000D01*
X159363797Y-101682062D01*
X159328005Y-101862000D01*
X159363797Y-102041938D01*
X159410611Y-102112000D01*
X159363797Y-102182062D01*
X159328005Y-102362000D01*
X159363797Y-102541938D01*
X159410611Y-102612000D01*
X159363797Y-102682062D01*
X159328005Y-102862000D01*
X159363797Y-103041938D01*
X159410611Y-103112000D01*
X159363797Y-103182062D01*
X159328005Y-103362000D01*
X159363797Y-103541938D01*
X159435800Y-103649699D01*
X159435800Y-111892080D01*
X156199080Y-111892080D01*
X150102717Y-105795717D01*
X150124365Y-105791644D01*
X150204311Y-105740200D01*
X150622000Y-105740200D01*
X150651646Y-105734197D01*
X150676621Y-105717132D01*
X150692989Y-105691695D01*
X150698200Y-105663847D01*
X150695577Y-104357350D01*
X150857800Y-104357350D01*
X150857800Y-104762681D01*
X150908070Y-104884043D01*
X151000957Y-104976930D01*
X151122319Y-105027200D01*
X151377650Y-105027200D01*
X151460200Y-104944650D01*
X151460200Y-104274800D01*
X151815800Y-104274800D01*
X151815800Y-104944650D01*
X151898350Y-105027200D01*
X152153681Y-105027200D01*
X152275043Y-104976930D01*
X152367930Y-104884043D01*
X152418200Y-104762681D01*
X152418200Y-104357350D01*
X152335650Y-104274800D01*
X151815800Y-104274800D01*
X151460200Y-104274800D01*
X150940350Y-104274800D01*
X150857800Y-104357350D01*
X150695577Y-104357350D01*
X150693273Y-103210387D01*
X151016812Y-103210503D01*
X151000957Y-103217070D01*
X150908070Y-103309957D01*
X150857800Y-103431319D01*
X150857800Y-103836650D01*
X150940350Y-103919200D01*
X151460200Y-103919200D01*
X151460200Y-103899200D01*
X151815800Y-103899200D01*
X151815800Y-103919200D01*
X152335650Y-103919200D01*
X152418200Y-103836650D01*
X152418200Y-103431319D01*
X152367930Y-103309957D01*
X152275043Y-103217070D01*
X152260262Y-103210948D01*
X152703011Y-103211106D01*
X152697182Y-104111567D01*
X152702993Y-104141251D01*
X152719896Y-104166336D01*
X152745226Y-104182868D01*
X152773326Y-104188260D01*
X156382666Y-104190800D01*
X156412317Y-104184817D01*
X156437303Y-104167770D01*
X156453689Y-104142345D01*
X156458920Y-104114600D01*
X156458920Y-102854183D01*
X156462899Y-102844600D01*
X157148000Y-102844600D01*
X157210339Y-102832200D01*
X157447795Y-102832200D01*
X157627733Y-102796408D01*
X157688014Y-102756130D01*
X157735848Y-102755680D01*
X157765437Y-102749398D01*
X157790250Y-102732099D01*
X157806378Y-102706510D01*
X157811332Y-102679454D01*
X157811320Y-102648022D01*
X157882203Y-102541938D01*
X157917995Y-102362000D01*
X157882203Y-102182062D01*
X157835389Y-102112000D01*
X157882203Y-102041938D01*
X157917995Y-101862000D01*
X157882203Y-101682062D01*
X157835389Y-101612000D01*
X157882203Y-101541938D01*
X157917995Y-101362000D01*
X157882203Y-101182062D01*
X157810723Y-101075085D01*
X157810200Y-99694971D01*
X157804185Y-99665327D01*
X157787111Y-99640359D01*
X157761669Y-99624001D01*
X157734000Y-99618800D01*
X155651200Y-99618800D01*
X155651200Y-96018350D01*
X156181800Y-96018350D01*
X156181800Y-96623681D01*
X156232070Y-96745043D01*
X156324957Y-96837930D01*
X156446319Y-96888200D01*
X157251650Y-96888200D01*
X157334200Y-96805650D01*
X157334200Y-95935800D01*
X157689800Y-95935800D01*
X157689800Y-96805650D01*
X157772350Y-96888200D01*
X158577681Y-96888200D01*
X158699043Y-96837930D01*
X158791930Y-96745043D01*
X158842200Y-96623681D01*
X158842200Y-96018350D01*
X158759650Y-95935800D01*
X157689800Y-95935800D01*
X157334200Y-95935800D01*
X156264350Y-95935800D01*
X156181800Y-96018350D01*
X155651200Y-96018350D01*
X155651200Y-95504000D01*
X155645197Y-95474354D01*
X155628132Y-95449379D01*
X155602695Y-95433011D01*
X155575000Y-95427800D01*
X152216860Y-95427800D01*
X152301043Y-95392930D01*
X152393930Y-95300043D01*
X152444200Y-95178681D01*
X152444200Y-94892319D01*
X156181800Y-94892319D01*
X156181800Y-95497650D01*
X156264350Y-95580200D01*
X157334200Y-95580200D01*
X157334200Y-94710350D01*
X157689800Y-94710350D01*
X157689800Y-95580200D01*
X158759650Y-95580200D01*
X158842200Y-95497650D01*
X158842200Y-94892319D01*
X158791930Y-94770957D01*
X158699043Y-94678070D01*
X158577681Y-94627800D01*
X157772350Y-94627800D01*
X157689800Y-94710350D01*
X157334200Y-94710350D01*
X157251650Y-94627800D01*
X156446319Y-94627800D01*
X156324957Y-94678070D01*
X156232070Y-94770957D01*
X156181800Y-94892319D01*
X152444200Y-94892319D01*
X152444200Y-94748350D01*
X152361650Y-94665800D01*
X151541800Y-94665800D01*
X151541800Y-94685800D01*
X151186200Y-94685800D01*
X151186200Y-94665800D01*
X151166200Y-94665800D01*
X151166200Y-94310200D01*
X151186200Y-94310200D01*
X151186200Y-93615350D01*
X151541800Y-93615350D01*
X151541800Y-94310200D01*
X152361650Y-94310200D01*
X152444200Y-94227650D01*
X152444200Y-93797319D01*
X152393930Y-93675957D01*
X152301043Y-93583070D01*
X152179681Y-93532800D01*
X151624350Y-93532800D01*
X151541800Y-93615350D01*
X151186200Y-93615350D01*
X151103650Y-93532800D01*
X150548319Y-93532800D01*
X150444200Y-93575928D01*
X150444200Y-93478350D01*
X156181800Y-93478350D01*
X156181800Y-94083681D01*
X156232070Y-94205043D01*
X156324957Y-94297930D01*
X156446319Y-94348200D01*
X157251650Y-94348200D01*
X157334200Y-94265650D01*
X157334200Y-93395800D01*
X157689800Y-93395800D01*
X157689800Y-94265650D01*
X157772350Y-94348200D01*
X158577681Y-94348200D01*
X158699043Y-94297930D01*
X158791930Y-94205043D01*
X158842200Y-94083681D01*
X158842200Y-93478350D01*
X158759650Y-93395800D01*
X157689800Y-93395800D01*
X157334200Y-93395800D01*
X156264350Y-93395800D01*
X156181800Y-93478350D01*
X150444200Y-93478350D01*
X150444200Y-93114072D01*
X150548319Y-93157200D01*
X151103650Y-93157200D01*
X151186200Y-93074650D01*
X151186200Y-92379800D01*
X151541800Y-92379800D01*
X151541800Y-93074650D01*
X151624350Y-93157200D01*
X152179681Y-93157200D01*
X152301043Y-93106930D01*
X152393930Y-93014043D01*
X152444200Y-92892681D01*
X152444200Y-92462350D01*
X152361650Y-92379800D01*
X151541800Y-92379800D01*
X151186200Y-92379800D01*
X151166200Y-92379800D01*
X151166200Y-92352319D01*
X156181800Y-92352319D01*
X156181800Y-92957650D01*
X156264350Y-93040200D01*
X157334200Y-93040200D01*
X157334200Y-92170350D01*
X157689800Y-92170350D01*
X157689800Y-93040200D01*
X158759650Y-93040200D01*
X158842200Y-92957650D01*
X158842200Y-92352319D01*
X158791930Y-92230957D01*
X158699043Y-92138070D01*
X158577681Y-92087800D01*
X157772350Y-92087800D01*
X157689800Y-92170350D01*
X157334200Y-92170350D01*
X157251650Y-92087800D01*
X156446319Y-92087800D01*
X156324957Y-92138070D01*
X156232070Y-92230957D01*
X156181800Y-92352319D01*
X151166200Y-92352319D01*
X151166200Y-92024200D01*
X151186200Y-92024200D01*
X151186200Y-91329350D01*
X151541800Y-91329350D01*
X151541800Y-92024200D01*
X152361650Y-92024200D01*
X152444200Y-91941650D01*
X152444200Y-91511319D01*
X152393930Y-91389957D01*
X152301043Y-91297070D01*
X152179681Y-91246800D01*
X151624350Y-91246800D01*
X151541800Y-91329350D01*
X151186200Y-91329350D01*
X151103650Y-91246800D01*
X150548319Y-91246800D01*
X150444200Y-91289928D01*
X150444200Y-87252361D01*
X156951821Y-87252361D01*
X157197119Y-87716833D01*
X157601490Y-88052078D01*
X157857642Y-88158164D01*
X158064200Y-88119079D01*
X158064200Y-87045800D01*
X156990128Y-87045800D01*
X156951821Y-87252361D01*
X150444200Y-87252361D01*
X150444200Y-86483639D01*
X156951821Y-86483639D01*
X156990128Y-86690200D01*
X158064200Y-86690200D01*
X158064200Y-85616921D01*
X157857642Y-85577836D01*
X157601490Y-85683922D01*
X157197119Y-86019167D01*
X156951821Y-86483639D01*
X150444200Y-86483639D01*
X150444200Y-85419000D01*
X159435800Y-85419000D01*
X159435800Y-85820055D01*
M02*
