M48
;DRILL file {KiCad 0.201508140901+6091~28~ubuntu14.04.1-product} date Thu 05 Nov 2015 06:04:06 AM PST
;FORMAT={2:4/ absolute / inch / suppress leading zeros}
FMAT,2
INCH,TZ
T1C0.012
T2C0.013
T3C0.040
T4C0.118
%
G90
G05
M72
T1
X58142Y-41910
X58142Y-42697
X58142Y-43484
X58142Y-44272
X58142Y-45059
X58142Y-45847
X58142Y-46634
X58142Y-47421
X58142Y-48209
X58142Y-48996
X58930Y-42697
X58930Y-43484
X58930Y-44272
X58930Y-45059
X58930Y-45847
X58930Y-46634
X58930Y-47421
X58930Y-48209
X58930Y-48996
X59540Y-33880
X59540Y-34667
X59540Y-35455
X59717Y-41910
X59717Y-43484
X59717Y-44272
X59717Y-45059
X59717Y-45847
X59717Y-46634
X59717Y-47421
X59717Y-48209
X59717Y-48996
X59717Y-49784
X59717Y-50571
X59717Y-51358
X60327Y-33880
X60327Y-34667
X60327Y-35455
X60327Y-37030
X60504Y-41319
X60504Y-41910
X60504Y-42697
X60504Y-44272
X60504Y-45059
X60504Y-45847
X60504Y-46634
X60504Y-47421
X60504Y-48209
X60504Y-48996
X60504Y-49784
X60504Y-50571
X60504Y-51358
X61115Y-33880
X61115Y-34667
X61115Y-35455
X61115Y-37030
X61292Y-41319
X61292Y-41910
X61292Y-42697
X61292Y-43484
X61292Y-45059
X61292Y-49784
X61292Y-50571
X61292Y-51358
X61902Y-35455
X62079Y-41910
X62079Y-42697
X62079Y-43484
X62079Y-45059
X62253Y-40005
X62253Y-40595
X62450Y-40300
X62647Y-40005
X62647Y-40595
T2
X57850Y-36300
X61350Y-40400
X63325Y-39550
X63975Y-39850
T3
X62300Y-34200
X62300Y-50800
X63300Y-34200
X63300Y-50800
T4
X58600Y-50300
X67450Y-34750
T0
M30
