G04 #@! TF.FileFunction,Paste,Top*
%FSLAX46Y46*%
G04 Gerber Fmt 4.6, Leading zero omitted, Abs format (unit mm)*
G04 Created by KiCad (PCBNEW 0.201508140901+6091~28~ubuntu14.04.1-product) date Wed 04 Nov 2015 06:06:40 AM PST*
%MOMM*%
G01*
G04 APERTURE LIST*
%ADD10C,0.076200*%
%ADD11R,2.050800X1.650800*%
%ADD12R,1.550800X1.300800*%
%ADD13R,3.650800X1.850800*%
%ADD14R,3.050540X3.050540*%
%ADD15R,1.550800X1.350800*%
%ADD16R,1.350800X1.550800*%
%ADD17R,0.950800X1.250800*%
%ADD18O,0.900800X0.330800*%
%ADD19R,1.700800X2.450800*%
%ADD20R,0.330800X0.750800*%
G04 APERTURE END LIST*
D10*
D11*
X161512000Y-93218000D03*
X157512000Y-93218000D03*
X161512000Y-95758000D03*
X157512000Y-95758000D03*
X161512000Y-98298000D03*
X157512000Y-98298000D03*
D12*
X148864000Y-92202000D03*
X151364000Y-92202000D03*
X148864000Y-94488000D03*
X151364000Y-94488000D03*
D11*
X161639000Y-116586000D03*
X157639000Y-116586000D03*
X161639000Y-119126000D03*
X157639000Y-119126000D03*
X161639000Y-121666000D03*
X157639000Y-121666000D03*
X161639000Y-124206000D03*
X157639000Y-124206000D03*
D10*
G36*
X162210750Y-114200940D02*
X159861250Y-114200940D01*
X160460690Y-110548420D01*
X161611310Y-110548420D01*
X162210750Y-114200940D01*
X162210750Y-114200940D01*
G37*
G36*
X159861250Y-104747060D02*
X162210750Y-104747060D01*
X161611310Y-108399580D01*
X160460690Y-108399580D01*
X159861250Y-104747060D01*
X159861250Y-104747060D01*
G37*
D13*
X172212000Y-98370000D03*
X172212000Y-107370000D03*
D14*
X165785800Y-87401400D03*
X165989000Y-128905000D03*
D15*
X151464000Y-96774000D03*
X148764000Y-96774000D03*
D16*
X149352000Y-104728000D03*
X149352000Y-102028000D03*
D17*
X151638000Y-101897000D03*
X151638000Y-104097000D03*
D18*
X157148000Y-101362000D03*
X157148000Y-101862000D03*
X157148000Y-102362000D03*
X157148000Y-102862000D03*
X157148000Y-103362000D03*
X160098000Y-103362000D03*
X160098000Y-102862000D03*
X160098000Y-102362000D03*
X160098000Y-101862000D03*
X160098000Y-101362000D03*
D19*
X158623000Y-102362000D03*
D20*
X158873000Y-100812000D03*
X158373000Y-100812000D03*
X158873000Y-103912000D03*
X158373000Y-103912000D03*
M02*
