G04 #@! TF.FileFunction,Legend,Bot*
%FSLAX46Y46*%
G04 Gerber Fmt 4.6, Leading zero omitted, Abs format (unit mm)*
G04 Created by KiCad (PCBNEW 0.201508140901+6091~28~ubuntu14.04.1-product) date Tue 03 Nov 2015 04:29:36 AM PST*
%MOMM*%
G01*
G04 APERTURE LIST*
%ADD10C,0.076200*%
%ADD11C,0.150000*%
%ADD12C,0.300000*%
%ADD13C,0.400000*%
%ADD14C,0.142240*%
G04 APERTURE END LIST*
D10*
D11*
X177002200Y-166007200D02*
X177002200Y-198007200D01*
X285002200Y-198007200D01*
X285002200Y-166007200D01*
X177002200Y-166007200D01*
D10*
D11*
X10000000Y-10000000D02*
X10000000Y-200007200D01*
X287002200Y-200007200D01*
X287002200Y-10000000D01*
X10000000Y-10000000D01*
D10*
D11*
X12000000Y-12000000D02*
X12000000Y-198007200D01*
X285002200Y-198007200D01*
X285002200Y-12000000D01*
X12000000Y-12000000D01*
D10*
D11*
X60000000Y-12000000D02*
X60000000Y-10000000D01*
D10*
D11*
X110000000Y-12000000D02*
X110000000Y-10000000D01*
D10*
D11*
X160000000Y-12000000D02*
X160000000Y-10000000D01*
D10*
D11*
X210000000Y-12000000D02*
X210000000Y-10000000D01*
D10*
D11*
X260000000Y-12000000D02*
X260000000Y-10000000D01*
D10*
D11*
X35990476Y-11588095D02*
X35247619Y-11588095D01*
X35619048Y-11588095D02*
X35619048Y-10288095D01*
X35495238Y-10473810D01*
X35371429Y-10597619D01*
X35247619Y-10659524D01*
D10*
D11*
X85247619Y-10411905D02*
X85309524Y-10350000D01*
X85433333Y-10288095D01*
X85742857Y-10288095D01*
X85866667Y-10350000D01*
X85928571Y-10411905D01*
X85990476Y-10535714D01*
X85990476Y-10659524D01*
X85928571Y-10845238D01*
X85185714Y-11588095D01*
X85990476Y-11588095D01*
D10*
D11*
X135185714Y-10288095D02*
X135990476Y-10288095D01*
X135557143Y-10783333D01*
X135742857Y-10783333D01*
X135866667Y-10845238D01*
X135928571Y-10907143D01*
X135990476Y-11030952D01*
X135990476Y-11340476D01*
X135928571Y-11464286D01*
X135866667Y-11526190D01*
X135742857Y-11588095D01*
X135371429Y-11588095D01*
X135247619Y-11526190D01*
X135185714Y-11464286D01*
D10*
D11*
X185866667Y-10721429D02*
X185866667Y-11588095D01*
X185557143Y-10226190D02*
X185247619Y-11154762D01*
X186052381Y-11154762D01*
D10*
D11*
X235928571Y-10288095D02*
X235309524Y-10288095D01*
X235247619Y-10907143D01*
X235309524Y-10845238D01*
X235433333Y-10783333D01*
X235742857Y-10783333D01*
X235866667Y-10845238D01*
X235928571Y-10907143D01*
X235990476Y-11030952D01*
X235990476Y-11340476D01*
X235928571Y-11464286D01*
X235866667Y-11526190D01*
X235742857Y-11588095D01*
X235433333Y-11588095D01*
X235309524Y-11526190D01*
X235247619Y-11464286D01*
D10*
D11*
X285866667Y-10288095D02*
X285619048Y-10288095D01*
X285495238Y-10350000D01*
X285433333Y-10411905D01*
X285309524Y-10597619D01*
X285247619Y-10845238D01*
X285247619Y-11340476D01*
X285309524Y-11464286D01*
X285371429Y-11526190D01*
X285495238Y-11588095D01*
X285742857Y-11588095D01*
X285866667Y-11526190D01*
X285928571Y-11464286D01*
X285990476Y-11340476D01*
X285990476Y-11030952D01*
X285928571Y-10907143D01*
X285866667Y-10845238D01*
X285742857Y-10783333D01*
X285495238Y-10783333D01*
X285371429Y-10845238D01*
X285309524Y-10907143D01*
X285247619Y-11030952D01*
D10*
D11*
X60000000Y-198007200D02*
X60000000Y-200007200D01*
D10*
D11*
X110000000Y-198007200D02*
X110000000Y-200007200D01*
D10*
D11*
X160000000Y-198007200D02*
X160000000Y-200007200D01*
D10*
D11*
X210000000Y-198007200D02*
X210000000Y-200007200D01*
D10*
D11*
X260000000Y-198007200D02*
X260000000Y-200007200D01*
D10*
D11*
X35990476Y-199595295D02*
X35247619Y-199595295D01*
X35619048Y-199595295D02*
X35619048Y-198295295D01*
X35495238Y-198481010D01*
X35371429Y-198604819D01*
X35247619Y-198666724D01*
D10*
D11*
X85247619Y-198419105D02*
X85309524Y-198357200D01*
X85433333Y-198295295D01*
X85742857Y-198295295D01*
X85866667Y-198357200D01*
X85928571Y-198419105D01*
X85990476Y-198542914D01*
X85990476Y-198666724D01*
X85928571Y-198852438D01*
X85185714Y-199595295D01*
X85990476Y-199595295D01*
D10*
D11*
X135185714Y-198295295D02*
X135990476Y-198295295D01*
X135557143Y-198790533D01*
X135742857Y-198790533D01*
X135866667Y-198852438D01*
X135928571Y-198914343D01*
X135990476Y-199038152D01*
X135990476Y-199347676D01*
X135928571Y-199471486D01*
X135866667Y-199533390D01*
X135742857Y-199595295D01*
X135371429Y-199595295D01*
X135247619Y-199533390D01*
X135185714Y-199471486D01*
D10*
D11*
X185866667Y-198728629D02*
X185866667Y-199595295D01*
X185557143Y-198233390D02*
X185247619Y-199161962D01*
X186052381Y-199161962D01*
D10*
D11*
X235928571Y-198295295D02*
X235309524Y-198295295D01*
X235247619Y-198914343D01*
X235309524Y-198852438D01*
X235433333Y-198790533D01*
X235742857Y-198790533D01*
X235866667Y-198852438D01*
X235928571Y-198914343D01*
X235990476Y-199038152D01*
X235990476Y-199347676D01*
X235928571Y-199471486D01*
X235866667Y-199533390D01*
X235742857Y-199595295D01*
X235433333Y-199595295D01*
X235309524Y-199533390D01*
X235247619Y-199471486D01*
D10*
D11*
X285866667Y-198295295D02*
X285619048Y-198295295D01*
X285495238Y-198357200D01*
X285433333Y-198419105D01*
X285309524Y-198604819D01*
X285247619Y-198852438D01*
X285247619Y-199347676D01*
X285309524Y-199471486D01*
X285371429Y-199533390D01*
X285495238Y-199595295D01*
X285742857Y-199595295D01*
X285866667Y-199533390D01*
X285928571Y-199471486D01*
X285990476Y-199347676D01*
X285990476Y-199038152D01*
X285928571Y-198914343D01*
X285866667Y-198852438D01*
X285742857Y-198790533D01*
X285495238Y-198790533D01*
X285371429Y-198852438D01*
X285309524Y-198914343D01*
X285247619Y-199038152D01*
D10*
D11*
X10000000Y-60000000D02*
X12000000Y-60000000D01*
D10*
D11*
X10000000Y-110000000D02*
X12000000Y-110000000D01*
D10*
D11*
X10000000Y-160000000D02*
X12000000Y-160000000D01*
D10*
D11*
X10690476Y-35216667D02*
X11309524Y-35216667D01*
X10566667Y-35588095D02*
X11000000Y-34288095D01*
X11433333Y-35588095D01*
D10*
D11*
X11092857Y-84907143D02*
X11278571Y-84969048D01*
X11340476Y-85030952D01*
X11402381Y-85154762D01*
X11402381Y-85340476D01*
X11340476Y-85464286D01*
X11278571Y-85526190D01*
X11154762Y-85588095D01*
X10659524Y-85588095D01*
X10659524Y-84288095D01*
X11092857Y-84288095D01*
X11216667Y-84350000D01*
X11278571Y-84411905D01*
X11340476Y-84535714D01*
X11340476Y-84659524D01*
X11278571Y-84783333D01*
X11216667Y-84845238D01*
X11092857Y-84907143D01*
X10659524Y-84907143D01*
D10*
D11*
X11402381Y-135464286D02*
X11340476Y-135526190D01*
X11154762Y-135588095D01*
X11030952Y-135588095D01*
X10845238Y-135526190D01*
X10721429Y-135402381D01*
X10659524Y-135278571D01*
X10597619Y-135030952D01*
X10597619Y-134845238D01*
X10659524Y-134597619D01*
X10721429Y-134473810D01*
X10845238Y-134350000D01*
X11030952Y-134288095D01*
X11154762Y-134288095D01*
X11340476Y-134350000D01*
X11402381Y-134411905D01*
D10*
D11*
X10659524Y-185588095D02*
X10659524Y-184288095D01*
X10969048Y-184288095D01*
X11154762Y-184350000D01*
X11278571Y-184473810D01*
X11340476Y-184597619D01*
X11402381Y-184845238D01*
X11402381Y-185030952D01*
X11340476Y-185278571D01*
X11278571Y-185402381D01*
X11154762Y-185526190D01*
X10969048Y-185588095D01*
X10659524Y-185588095D01*
D10*
D11*
X287002200Y-60000000D02*
X285002200Y-60000000D01*
D10*
D11*
X287002200Y-110000000D02*
X285002200Y-110000000D01*
D10*
D11*
X287002200Y-160000000D02*
X285002200Y-160000000D01*
D10*
D11*
X285692676Y-35216667D02*
X286311724Y-35216667D01*
X285568867Y-35588095D02*
X286002200Y-34288095D01*
X286435533Y-35588095D01*
D10*
D11*
X286095057Y-84907143D02*
X286280771Y-84969048D01*
X286342676Y-85030952D01*
X286404581Y-85154762D01*
X286404581Y-85340476D01*
X286342676Y-85464286D01*
X286280771Y-85526190D01*
X286156962Y-85588095D01*
X285661724Y-85588095D01*
X285661724Y-84288095D01*
X286095057Y-84288095D01*
X286218867Y-84350000D01*
X286280771Y-84411905D01*
X286342676Y-84535714D01*
X286342676Y-84659524D01*
X286280771Y-84783333D01*
X286218867Y-84845238D01*
X286095057Y-84907143D01*
X285661724Y-84907143D01*
D10*
D11*
X286404581Y-135464286D02*
X286342676Y-135526190D01*
X286156962Y-135588095D01*
X286033152Y-135588095D01*
X285847438Y-135526190D01*
X285723629Y-135402381D01*
X285661724Y-135278571D01*
X285599819Y-135030952D01*
X285599819Y-134845238D01*
X285661724Y-134597619D01*
X285723629Y-134473810D01*
X285847438Y-134350000D01*
X286033152Y-134288095D01*
X286156962Y-134288095D01*
X286342676Y-134350000D01*
X286404581Y-134411905D01*
D10*
D11*
X285661724Y-185588095D02*
X285661724Y-184288095D01*
X285971248Y-184288095D01*
X286156962Y-184350000D01*
X286280771Y-184473810D01*
X286342676Y-184597619D01*
X286404581Y-184845238D01*
X286404581Y-185030952D01*
X286342676Y-185278571D01*
X286280771Y-185402381D01*
X286156962Y-185526190D01*
X285971248Y-185588095D01*
X285661724Y-185588095D01*
D10*
D11*
X200359343Y-193785771D02*
X200359343Y-192285771D01*
X200716486Y-192285771D01*
X200930771Y-192357200D01*
X201073629Y-192500057D01*
X201145057Y-192642914D01*
X201216486Y-192928629D01*
X201216486Y-193142914D01*
X201145057Y-193428629D01*
X201073629Y-193571486D01*
X200930771Y-193714343D01*
X200716486Y-193785771D01*
X200359343Y-193785771D01*
X202502200Y-193785771D02*
X202502200Y-193000057D01*
X202430771Y-192857200D01*
X202287914Y-192785771D01*
X202002200Y-192785771D01*
X201859343Y-192857200D01*
X202502200Y-193714343D02*
X202359343Y-193785771D01*
X202002200Y-193785771D01*
X201859343Y-193714343D01*
X201787914Y-193571486D01*
X201787914Y-193428629D01*
X201859343Y-193285771D01*
X202002200Y-193214343D01*
X202359343Y-193214343D01*
X202502200Y-193142914D01*
X203002200Y-192785771D02*
X203573629Y-192785771D01*
X203216486Y-192285771D02*
X203216486Y-193571486D01*
X203287914Y-193714343D01*
X203430772Y-193785771D01*
X203573629Y-193785771D01*
X204645057Y-193714343D02*
X204502200Y-193785771D01*
X204216486Y-193785771D01*
X204073629Y-193714343D01*
X204002200Y-193571486D01*
X204002200Y-193000057D01*
X204073629Y-192857200D01*
X204216486Y-192785771D01*
X204502200Y-192785771D01*
X204645057Y-192857200D01*
X204716486Y-193000057D01*
X204716486Y-193142914D01*
X204002200Y-193285771D01*
X205359343Y-193642914D02*
X205430771Y-193714343D01*
X205359343Y-193785771D01*
X205287914Y-193714343D01*
X205359343Y-193642914D01*
X205359343Y-193785771D01*
X205359343Y-192857200D02*
X205430771Y-192928629D01*
X205359343Y-193000057D01*
X205287914Y-192928629D01*
X205359343Y-192857200D01*
X205359343Y-193000057D01*
D10*
D11*
X177002200Y-194507200D02*
X285002200Y-194507200D01*
D10*
D11*
X178359343Y-196585771D02*
X178359343Y-195085771D01*
X179216486Y-196585771D02*
X178573629Y-195728629D01*
X179216486Y-195085771D02*
X178359343Y-195942914D01*
X179859343Y-196585771D02*
X179859343Y-195585771D01*
X179859343Y-195085771D02*
X179787914Y-195157200D01*
X179859343Y-195228629D01*
X179930771Y-195157200D01*
X179859343Y-195085771D01*
X179859343Y-195228629D01*
X181430772Y-196442914D02*
X181359343Y-196514343D01*
X181145057Y-196585771D01*
X181002200Y-196585771D01*
X180787915Y-196514343D01*
X180645057Y-196371486D01*
X180573629Y-196228629D01*
X180502200Y-195942914D01*
X180502200Y-195728629D01*
X180573629Y-195442914D01*
X180645057Y-195300057D01*
X180787915Y-195157200D01*
X181002200Y-195085771D01*
X181145057Y-195085771D01*
X181359343Y-195157200D01*
X181430772Y-195228629D01*
X182716486Y-196585771D02*
X182716486Y-195800057D01*
X182645057Y-195657200D01*
X182502200Y-195585771D01*
X182216486Y-195585771D01*
X182073629Y-195657200D01*
X182716486Y-196514343D02*
X182573629Y-196585771D01*
X182216486Y-196585771D01*
X182073629Y-196514343D01*
X182002200Y-196371486D01*
X182002200Y-196228629D01*
X182073629Y-196085771D01*
X182216486Y-196014343D01*
X182573629Y-196014343D01*
X182716486Y-195942914D01*
X184073629Y-196585771D02*
X184073629Y-195085771D01*
X184073629Y-196514343D02*
X183930772Y-196585771D01*
X183645058Y-196585771D01*
X183502200Y-196514343D01*
X183430772Y-196442914D01*
X183359343Y-196300057D01*
X183359343Y-195871486D01*
X183430772Y-195728629D01*
X183502200Y-195657200D01*
X183645058Y-195585771D01*
X183930772Y-195585771D01*
X184073629Y-195657200D01*
X185930772Y-195800057D02*
X186430772Y-195800057D01*
X186645058Y-196585771D02*
X185930772Y-196585771D01*
X185930772Y-195085771D01*
X186645058Y-195085771D01*
X187287915Y-196442914D02*
X187359343Y-196514343D01*
X187287915Y-196585771D01*
X187216486Y-196514343D01*
X187287915Y-196442914D01*
X187287915Y-196585771D01*
X188002201Y-196585771D02*
X188002201Y-195085771D01*
X188359344Y-195085771D01*
X188573629Y-195157200D01*
X188716487Y-195300057D01*
X188787915Y-195442914D01*
X188859344Y-195728629D01*
X188859344Y-195942914D01*
X188787915Y-196228629D01*
X188716487Y-196371486D01*
X188573629Y-196514343D01*
X188359344Y-196585771D01*
X188002201Y-196585771D01*
X189502201Y-196442914D02*
X189573629Y-196514343D01*
X189502201Y-196585771D01*
X189430772Y-196514343D01*
X189502201Y-196442914D01*
X189502201Y-196585771D01*
X190145058Y-196157200D02*
X190859344Y-196157200D01*
X190002201Y-196585771D02*
X190502201Y-195085771D01*
X191002201Y-196585771D01*
X191502201Y-196442914D02*
X191573629Y-196514343D01*
X191502201Y-196585771D01*
X191430772Y-196514343D01*
X191502201Y-196442914D01*
X191502201Y-196585771D01*
X194502201Y-195585771D02*
X194502201Y-197085771D01*
X194502201Y-195657200D02*
X194645058Y-195585771D01*
X194930772Y-195585771D01*
X195073629Y-195657200D01*
X195145058Y-195728629D01*
X195216487Y-195871486D01*
X195216487Y-196300057D01*
X195145058Y-196442914D01*
X195073629Y-196514343D01*
X194930772Y-196585771D01*
X194645058Y-196585771D01*
X194502201Y-196514343D01*
X196502201Y-196514343D02*
X196359344Y-196585771D01*
X196073630Y-196585771D01*
X195930772Y-196514343D01*
X195859344Y-196442914D01*
X195787915Y-196300057D01*
X195787915Y-195871486D01*
X195859344Y-195728629D01*
X195930772Y-195657200D01*
X196073630Y-195585771D01*
X196359344Y-195585771D01*
X196502201Y-195657200D01*
X197145058Y-196585771D02*
X197145058Y-195085771D01*
X197145058Y-195657200D02*
X197287915Y-195585771D01*
X197573629Y-195585771D01*
X197716486Y-195657200D01*
X197787915Y-195728629D01*
X197859344Y-195871486D01*
X197859344Y-196300057D01*
X197787915Y-196442914D01*
X197716486Y-196514343D01*
X197573629Y-196585771D01*
X197287915Y-196585771D01*
X197145058Y-196514343D01*
X198502201Y-195585771D02*
X198502201Y-196585771D01*
X198502201Y-195728629D02*
X198573629Y-195657200D01*
X198716487Y-195585771D01*
X198930772Y-195585771D01*
X199073629Y-195657200D01*
X199145058Y-195800057D01*
X199145058Y-196585771D01*
X200430772Y-196514343D02*
X200287915Y-196585771D01*
X200002201Y-196585771D01*
X199859344Y-196514343D01*
X199787915Y-196371486D01*
X199787915Y-195800057D01*
X199859344Y-195657200D01*
X200002201Y-195585771D01*
X200287915Y-195585771D01*
X200430772Y-195657200D01*
X200502201Y-195800057D01*
X200502201Y-195942914D01*
X199787915Y-196085771D01*
X201002201Y-195585771D02*
X201287915Y-196585771D01*
X201573629Y-195871486D01*
X201859344Y-196585771D01*
X202145058Y-195585771D01*
X204145058Y-195085771D02*
X204287915Y-195085771D01*
X204430772Y-195157200D01*
X204502201Y-195228629D01*
X204573630Y-195371486D01*
X204645058Y-195657200D01*
X204645058Y-196014343D01*
X204573630Y-196300057D01*
X204502201Y-196442914D01*
X204430772Y-196514343D01*
X204287915Y-196585771D01*
X204145058Y-196585771D01*
X204002201Y-196514343D01*
X203930772Y-196442914D01*
X203859344Y-196300057D01*
X203787915Y-196014343D01*
X203787915Y-195657200D01*
X203859344Y-195371486D01*
X203930772Y-195228629D01*
X204002201Y-195157200D01*
X204145058Y-195085771D01*
X205287915Y-196442914D02*
X205359343Y-196514343D01*
X205287915Y-196585771D01*
X205216486Y-196514343D01*
X205287915Y-196442914D01*
X205287915Y-196585771D01*
X205930772Y-195228629D02*
X206002201Y-195157200D01*
X206145058Y-195085771D01*
X206502201Y-195085771D01*
X206645058Y-195157200D01*
X206716487Y-195228629D01*
X206787915Y-195371486D01*
X206787915Y-195514343D01*
X206716487Y-195728629D01*
X205859344Y-196585771D01*
X206787915Y-196585771D01*
X207716486Y-195085771D02*
X207859343Y-195085771D01*
X208002200Y-195157200D01*
X208073629Y-195228629D01*
X208145058Y-195371486D01*
X208216486Y-195657200D01*
X208216486Y-196014343D01*
X208145058Y-196300057D01*
X208073629Y-196442914D01*
X208002200Y-196514343D01*
X207859343Y-196585771D01*
X207716486Y-196585771D01*
X207573629Y-196514343D01*
X207502200Y-196442914D01*
X207430772Y-196300057D01*
X207359343Y-196014343D01*
X207359343Y-195657200D01*
X207430772Y-195371486D01*
X207502200Y-195228629D01*
X207573629Y-195157200D01*
X207716486Y-195085771D01*
X209645057Y-196585771D02*
X208787914Y-196585771D01*
X209216486Y-196585771D02*
X209216486Y-195085771D01*
X209073629Y-195300057D01*
X208930771Y-195442914D01*
X208787914Y-195514343D01*
X211002200Y-195085771D02*
X210287914Y-195085771D01*
X210216485Y-195800057D01*
X210287914Y-195728629D01*
X210430771Y-195657200D01*
X210787914Y-195657200D01*
X210930771Y-195728629D01*
X211002200Y-195800057D01*
X211073628Y-195942914D01*
X211073628Y-196300057D01*
X211002200Y-196442914D01*
X210930771Y-196514343D01*
X210787914Y-196585771D01*
X210430771Y-196585771D01*
X210287914Y-196514343D01*
X210216485Y-196442914D01*
X212002199Y-195085771D02*
X212145056Y-195085771D01*
X212287913Y-195157200D01*
X212359342Y-195228629D01*
X212430771Y-195371486D01*
X212502199Y-195657200D01*
X212502199Y-196014343D01*
X212430771Y-196300057D01*
X212359342Y-196442914D01*
X212287913Y-196514343D01*
X212145056Y-196585771D01*
X212002199Y-196585771D01*
X211859342Y-196514343D01*
X211787913Y-196442914D01*
X211716485Y-196300057D01*
X211645056Y-196014343D01*
X211645056Y-195657200D01*
X211716485Y-195371486D01*
X211787913Y-195228629D01*
X211859342Y-195157200D01*
X212002199Y-195085771D01*
X213359342Y-195728629D02*
X213216484Y-195657200D01*
X213145056Y-195585771D01*
X213073627Y-195442914D01*
X213073627Y-195371486D01*
X213145056Y-195228629D01*
X213216484Y-195157200D01*
X213359342Y-195085771D01*
X213645056Y-195085771D01*
X213787913Y-195157200D01*
X213859342Y-195228629D01*
X213930770Y-195371486D01*
X213930770Y-195442914D01*
X213859342Y-195585771D01*
X213787913Y-195657200D01*
X213645056Y-195728629D01*
X213359342Y-195728629D01*
X213216484Y-195800057D01*
X213145056Y-195871486D01*
X213073627Y-196014343D01*
X213073627Y-196300057D01*
X213145056Y-196442914D01*
X213216484Y-196514343D01*
X213359342Y-196585771D01*
X213645056Y-196585771D01*
X213787913Y-196514343D01*
X213859342Y-196442914D01*
X213930770Y-196300057D01*
X213930770Y-196014343D01*
X213859342Y-195871486D01*
X213787913Y-195800057D01*
X213645056Y-195728629D01*
X215359341Y-196585771D02*
X214502198Y-196585771D01*
X214930770Y-196585771D02*
X214930770Y-195085771D01*
X214787913Y-195300057D01*
X214645055Y-195442914D01*
X214502198Y-195514343D01*
X216645055Y-195585771D02*
X216645055Y-196585771D01*
X216287912Y-195014343D02*
X215930769Y-196085771D01*
X216859341Y-196085771D01*
X217716483Y-195085771D02*
X217859340Y-195085771D01*
X218002197Y-195157200D01*
X218073626Y-195228629D01*
X218145055Y-195371486D01*
X218216483Y-195657200D01*
X218216483Y-196014343D01*
X218145055Y-196300057D01*
X218073626Y-196442914D01*
X218002197Y-196514343D01*
X217859340Y-196585771D01*
X217716483Y-196585771D01*
X217573626Y-196514343D01*
X217502197Y-196442914D01*
X217430769Y-196300057D01*
X217359340Y-196014343D01*
X217359340Y-195657200D01*
X217430769Y-195371486D01*
X217502197Y-195228629D01*
X217573626Y-195157200D01*
X217716483Y-195085771D01*
X218930768Y-196585771D02*
X219216483Y-196585771D01*
X219359340Y-196514343D01*
X219430768Y-196442914D01*
X219573626Y-196228629D01*
X219645054Y-195942914D01*
X219645054Y-195371486D01*
X219573626Y-195228629D01*
X219502197Y-195157200D01*
X219359340Y-195085771D01*
X219073626Y-195085771D01*
X218930768Y-195157200D01*
X218859340Y-195228629D01*
X218787911Y-195371486D01*
X218787911Y-195728629D01*
X218859340Y-195871486D01*
X218930768Y-195942914D01*
X219073626Y-196014343D01*
X219359340Y-196014343D01*
X219502197Y-195942914D01*
X219573626Y-195871486D01*
X219645054Y-195728629D01*
X220573625Y-195085771D02*
X220716482Y-195085771D01*
X220859339Y-195157200D01*
X220930768Y-195228629D01*
X221002197Y-195371486D01*
X221073625Y-195657200D01*
X221073625Y-196014343D01*
X221002197Y-196300057D01*
X220930768Y-196442914D01*
X220859339Y-196514343D01*
X220716482Y-196585771D01*
X220573625Y-196585771D01*
X220430768Y-196514343D01*
X220359339Y-196442914D01*
X220287911Y-196300057D01*
X220216482Y-196014343D01*
X220216482Y-195657200D01*
X220287911Y-195371486D01*
X220359339Y-195228629D01*
X220430768Y-195157200D01*
X220573625Y-195085771D01*
X222502196Y-196585771D02*
X221645053Y-196585771D01*
X222073625Y-196585771D02*
X222073625Y-195085771D01*
X221930768Y-195300057D01*
X221787910Y-195442914D01*
X221645053Y-195514343D01*
X223145053Y-196014343D02*
X224287910Y-196014343D01*
X223716481Y-196585771D02*
X223716481Y-195442914D01*
X225645053Y-195085771D02*
X225359339Y-195085771D01*
X225216482Y-195157200D01*
X225145053Y-195228629D01*
X225002196Y-195442914D01*
X224930767Y-195728629D01*
X224930767Y-196300057D01*
X225002196Y-196442914D01*
X225073624Y-196514343D01*
X225216482Y-196585771D01*
X225502196Y-196585771D01*
X225645053Y-196514343D01*
X225716482Y-196442914D01*
X225787910Y-196300057D01*
X225787910Y-195942914D01*
X225716482Y-195800057D01*
X225645053Y-195728629D01*
X225502196Y-195657200D01*
X225216482Y-195657200D01*
X225073624Y-195728629D01*
X225002196Y-195800057D01*
X224930767Y-195942914D01*
X226716481Y-195085771D02*
X226859338Y-195085771D01*
X227002195Y-195157200D01*
X227073624Y-195228629D01*
X227145053Y-195371486D01*
X227216481Y-195657200D01*
X227216481Y-196014343D01*
X227145053Y-196300057D01*
X227073624Y-196442914D01*
X227002195Y-196514343D01*
X226859338Y-196585771D01*
X226716481Y-196585771D01*
X226573624Y-196514343D01*
X226502195Y-196442914D01*
X226430767Y-196300057D01*
X226359338Y-196014343D01*
X226359338Y-195657200D01*
X226430767Y-195371486D01*
X226502195Y-195228629D01*
X226573624Y-195157200D01*
X226716481Y-195085771D01*
X227930766Y-196585771D02*
X228216481Y-196585771D01*
X228359338Y-196514343D01*
X228430766Y-196442914D01*
X228573624Y-196228629D01*
X228645052Y-195942914D01*
X228645052Y-195371486D01*
X228573624Y-195228629D01*
X228502195Y-195157200D01*
X228359338Y-195085771D01*
X228073624Y-195085771D01*
X227930766Y-195157200D01*
X227859338Y-195228629D01*
X227787909Y-195371486D01*
X227787909Y-195728629D01*
X227859338Y-195871486D01*
X227930766Y-195942914D01*
X228073624Y-196014343D01*
X228359338Y-196014343D01*
X228502195Y-195942914D01*
X228573624Y-195871486D01*
X228645052Y-195728629D01*
X230073623Y-196585771D02*
X229216480Y-196585771D01*
X229645052Y-196585771D02*
X229645052Y-195085771D01*
X229502195Y-195300057D01*
X229359337Y-195442914D01*
X229216480Y-195514343D01*
X230645051Y-195228629D02*
X230716480Y-195157200D01*
X230859337Y-195085771D01*
X231216480Y-195085771D01*
X231359337Y-195157200D01*
X231430766Y-195228629D01*
X231502194Y-195371486D01*
X231502194Y-195514343D01*
X231430766Y-195728629D01*
X230573623Y-196585771D01*
X231502194Y-196585771D01*
X232359337Y-195728629D02*
X232216479Y-195657200D01*
X232145051Y-195585771D01*
X232073622Y-195442914D01*
X232073622Y-195371486D01*
X232145051Y-195228629D01*
X232216479Y-195157200D01*
X232359337Y-195085771D01*
X232645051Y-195085771D01*
X232787908Y-195157200D01*
X232859337Y-195228629D01*
X232930765Y-195371486D01*
X232930765Y-195442914D01*
X232859337Y-195585771D01*
X232787908Y-195657200D01*
X232645051Y-195728629D01*
X232359337Y-195728629D01*
X232216479Y-195800057D01*
X232145051Y-195871486D01*
X232073622Y-196014343D01*
X232073622Y-196300057D01*
X232145051Y-196442914D01*
X232216479Y-196514343D01*
X232359337Y-196585771D01*
X232645051Y-196585771D01*
X232787908Y-196514343D01*
X232859337Y-196442914D01*
X232930765Y-196300057D01*
X232930765Y-196014343D01*
X232859337Y-195871486D01*
X232787908Y-195800057D01*
X232645051Y-195728629D01*
X230359337Y-194827200D02*
X233216479Y-194827200D01*
X234216479Y-195585771D02*
X234216479Y-196585771D01*
X233573622Y-195585771D02*
X233573622Y-196371486D01*
X233645050Y-196514343D01*
X233787908Y-196585771D01*
X234002193Y-196585771D01*
X234145050Y-196514343D01*
X234216479Y-196442914D01*
X234930765Y-196585771D02*
X234930765Y-195085771D01*
X234930765Y-195657200D02*
X235073622Y-195585771D01*
X235359336Y-195585771D01*
X235502193Y-195657200D01*
X235573622Y-195728629D01*
X235645051Y-195871486D01*
X235645051Y-196300057D01*
X235573622Y-196442914D01*
X235502193Y-196514343D01*
X235359336Y-196585771D01*
X235073622Y-196585771D01*
X234930765Y-196514343D01*
X236930765Y-195585771D02*
X236930765Y-196585771D01*
X236287908Y-195585771D02*
X236287908Y-196371486D01*
X236359336Y-196514343D01*
X236502194Y-196585771D01*
X236716479Y-196585771D01*
X236859336Y-196514343D01*
X236930765Y-196442914D01*
X237645051Y-195585771D02*
X237645051Y-196585771D01*
X237645051Y-195728629D02*
X237716479Y-195657200D01*
X237859337Y-195585771D01*
X238073622Y-195585771D01*
X238216479Y-195657200D01*
X238287908Y-195800057D01*
X238287908Y-196585771D01*
X238787908Y-195585771D02*
X239359337Y-195585771D01*
X239002194Y-195085771D02*
X239002194Y-196371486D01*
X239073622Y-196514343D01*
X239216480Y-196585771D01*
X239359337Y-196585771D01*
X240502194Y-195585771D02*
X240502194Y-196585771D01*
X239859337Y-195585771D02*
X239859337Y-196371486D01*
X239930765Y-196514343D01*
X240073623Y-196585771D01*
X240287908Y-196585771D01*
X240430765Y-196514343D01*
X240502194Y-196442914D01*
X242002194Y-196585771D02*
X241145051Y-196585771D01*
X241573623Y-196585771D02*
X241573623Y-195085771D01*
X241430766Y-195300057D01*
X241287908Y-195442914D01*
X241145051Y-195514343D01*
X243287908Y-195585771D02*
X243287908Y-196585771D01*
X242930765Y-195014343D02*
X242573622Y-196085771D01*
X243502194Y-196085771D01*
X244073622Y-196442914D02*
X244145050Y-196514343D01*
X244073622Y-196585771D01*
X244002193Y-196514343D01*
X244073622Y-196442914D01*
X244073622Y-196585771D01*
X245073622Y-195085771D02*
X245216479Y-195085771D01*
X245359336Y-195157200D01*
X245430765Y-195228629D01*
X245502194Y-195371486D01*
X245573622Y-195657200D01*
X245573622Y-196014343D01*
X245502194Y-196300057D01*
X245430765Y-196442914D01*
X245359336Y-196514343D01*
X245216479Y-196585771D01*
X245073622Y-196585771D01*
X244930765Y-196514343D01*
X244859336Y-196442914D01*
X244787908Y-196300057D01*
X244716479Y-196014343D01*
X244716479Y-195657200D01*
X244787908Y-195371486D01*
X244859336Y-195228629D01*
X244930765Y-195157200D01*
X245073622Y-195085771D01*
X246859336Y-195585771D02*
X246859336Y-196585771D01*
X246502193Y-195014343D02*
X246145050Y-196085771D01*
X247073622Y-196085771D01*
X247645050Y-196442914D02*
X247716478Y-196514343D01*
X247645050Y-196585771D01*
X247573621Y-196514343D01*
X247645050Y-196442914D01*
X247645050Y-196585771D01*
X249145050Y-196585771D02*
X248287907Y-196585771D01*
X248716479Y-196585771D02*
X248716479Y-195085771D01*
X248573622Y-195300057D01*
X248430764Y-195442914D01*
X248287907Y-195514343D01*
X249787907Y-196014343D02*
X250930764Y-196014343D01*
X251645050Y-195585771D02*
X251645050Y-197085771D01*
X251645050Y-195657200D02*
X251787907Y-195585771D01*
X252073621Y-195585771D01*
X252216478Y-195657200D01*
X252287907Y-195728629D01*
X252359336Y-195871486D01*
X252359336Y-196300057D01*
X252287907Y-196442914D01*
X252216478Y-196514343D01*
X252073621Y-196585771D01*
X251787907Y-196585771D01*
X251645050Y-196514343D01*
X253002193Y-196585771D02*
X253002193Y-195585771D01*
X253002193Y-195871486D02*
X253073621Y-195728629D01*
X253145050Y-195657200D01*
X253287907Y-195585771D01*
X253430764Y-195585771D01*
X254145050Y-196585771D02*
X254002192Y-196514343D01*
X253930764Y-196442914D01*
X253859335Y-196300057D01*
X253859335Y-195871486D01*
X253930764Y-195728629D01*
X254002192Y-195657200D01*
X254145050Y-195585771D01*
X254359335Y-195585771D01*
X254502192Y-195657200D01*
X254573621Y-195728629D01*
X254645050Y-195871486D01*
X254645050Y-196300057D01*
X254573621Y-196442914D01*
X254502192Y-196514343D01*
X254359335Y-196585771D01*
X254145050Y-196585771D01*
X255930764Y-196585771D02*
X255930764Y-195085771D01*
X255930764Y-196514343D02*
X255787907Y-196585771D01*
X255502193Y-196585771D01*
X255359335Y-196514343D01*
X255287907Y-196442914D01*
X255216478Y-196300057D01*
X255216478Y-195871486D01*
X255287907Y-195728629D01*
X255359335Y-195657200D01*
X255502193Y-195585771D01*
X255787907Y-195585771D01*
X255930764Y-195657200D01*
X257287907Y-195585771D02*
X257287907Y-196585771D01*
X256645050Y-195585771D02*
X256645050Y-196371486D01*
X256716478Y-196514343D01*
X256859336Y-196585771D01*
X257073621Y-196585771D01*
X257216478Y-196514343D01*
X257287907Y-196442914D01*
X258645050Y-196514343D02*
X258502193Y-196585771D01*
X258216479Y-196585771D01*
X258073621Y-196514343D01*
X258002193Y-196442914D01*
X257930764Y-196300057D01*
X257930764Y-195871486D01*
X258002193Y-195728629D01*
X258073621Y-195657200D01*
X258216479Y-195585771D01*
X258502193Y-195585771D01*
X258645050Y-195657200D01*
X259073621Y-195585771D02*
X259645050Y-195585771D01*
X259287907Y-195085771D02*
X259287907Y-196371486D01*
X259359335Y-196514343D01*
X259502193Y-196585771D01*
X259645050Y-196585771D01*
D10*
D11*
X177002200Y-191507200D02*
X285002200Y-191507200D01*
D10*
D12*
X264216486Y-193785771D02*
X263716486Y-193071486D01*
X263359343Y-193785771D02*
X263359343Y-192285771D01*
X263930771Y-192285771D01*
X264073629Y-192357200D01*
X264145057Y-192428629D01*
X264216486Y-192571486D01*
X264216486Y-192785771D01*
X264145057Y-192928629D01*
X264073629Y-193000057D01*
X263930771Y-193071486D01*
X263359343Y-193071486D01*
X265430771Y-193714343D02*
X265287914Y-193785771D01*
X265002200Y-193785771D01*
X264859343Y-193714343D01*
X264787914Y-193571486D01*
X264787914Y-193000057D01*
X264859343Y-192857200D01*
X265002200Y-192785771D01*
X265287914Y-192785771D01*
X265430771Y-192857200D01*
X265502200Y-193000057D01*
X265502200Y-193142914D01*
X264787914Y-193285771D01*
X266002200Y-192785771D02*
X266359343Y-193785771D01*
X266716485Y-192785771D01*
X267287914Y-193642914D02*
X267359342Y-193714343D01*
X267287914Y-193785771D01*
X267216485Y-193714343D01*
X267287914Y-193642914D01*
X267287914Y-193785771D01*
X267287914Y-192857200D02*
X267359342Y-192928629D01*
X267287914Y-193000057D01*
X267216485Y-192928629D01*
X267287914Y-192857200D01*
X267287914Y-193000057D01*
D10*
D11*
X178287914Y-193714343D02*
X178502200Y-193785771D01*
X178859343Y-193785771D01*
X179002200Y-193714343D01*
X179073629Y-193642914D01*
X179145057Y-193500057D01*
X179145057Y-193357200D01*
X179073629Y-193214343D01*
X179002200Y-193142914D01*
X178859343Y-193071486D01*
X178573629Y-193000057D01*
X178430771Y-192928629D01*
X178359343Y-192857200D01*
X178287914Y-192714343D01*
X178287914Y-192571486D01*
X178359343Y-192428629D01*
X178430771Y-192357200D01*
X178573629Y-192285771D01*
X178930771Y-192285771D01*
X179145057Y-192357200D01*
X179787914Y-193785771D02*
X179787914Y-192785771D01*
X179787914Y-192285771D02*
X179716485Y-192357200D01*
X179787914Y-192428629D01*
X179859342Y-192357200D01*
X179787914Y-192285771D01*
X179787914Y-192428629D01*
X180359343Y-192785771D02*
X181145057Y-192785771D01*
X180359343Y-193785771D01*
X181145057Y-193785771D01*
X182287914Y-193714343D02*
X182145057Y-193785771D01*
X181859343Y-193785771D01*
X181716486Y-193714343D01*
X181645057Y-193571486D01*
X181645057Y-193000057D01*
X181716486Y-192857200D01*
X181859343Y-192785771D01*
X182145057Y-192785771D01*
X182287914Y-192857200D01*
X182359343Y-193000057D01*
X182359343Y-193142914D01*
X181645057Y-193285771D01*
X183002200Y-193642914D02*
X183073628Y-193714343D01*
X183002200Y-193785771D01*
X182930771Y-193714343D01*
X183002200Y-193642914D01*
X183002200Y-193785771D01*
X183002200Y-192857200D02*
X183073628Y-192928629D01*
X183002200Y-193000057D01*
X182930771Y-192928629D01*
X183002200Y-192857200D01*
X183002200Y-193000057D01*
X184787914Y-193357200D02*
X185502200Y-193357200D01*
X184645057Y-193785771D02*
X185145057Y-192285771D01*
X185645057Y-193785771D01*
X186787914Y-192785771D02*
X186787914Y-193785771D01*
X186430771Y-192214343D02*
X186073628Y-193285771D01*
X187002200Y-193285771D01*
D10*
D11*
X263359343Y-196585771D02*
X263359343Y-195085771D01*
X264716486Y-196585771D02*
X264716486Y-195085771D01*
X264716486Y-196514343D02*
X264573629Y-196585771D01*
X264287915Y-196585771D01*
X264145057Y-196514343D01*
X264073629Y-196442914D01*
X264002200Y-196300057D01*
X264002200Y-195871486D01*
X264073629Y-195728629D01*
X264145057Y-195657200D01*
X264287915Y-195585771D01*
X264573629Y-195585771D01*
X264716486Y-195657200D01*
X265430772Y-196442914D02*
X265502200Y-196514343D01*
X265430772Y-196585771D01*
X265359343Y-196514343D01*
X265430772Y-196442914D01*
X265430772Y-196585771D01*
X265430772Y-195657200D02*
X265502200Y-195728629D01*
X265430772Y-195800057D01*
X265359343Y-195728629D01*
X265430772Y-195657200D01*
X265430772Y-195800057D01*
X268073629Y-196585771D02*
X267216486Y-196585771D01*
X267645058Y-196585771D02*
X267645058Y-195085771D01*
X267502201Y-195300057D01*
X267359343Y-195442914D01*
X267216486Y-195514343D01*
X269787914Y-195014343D02*
X268502200Y-196942914D01*
X271073629Y-196585771D02*
X270216486Y-196585771D01*
X270645058Y-196585771D02*
X270645058Y-195085771D01*
X270502201Y-195300057D01*
X270359343Y-195442914D01*
X270216486Y-195514343D01*
D10*
D11*
X177002200Y-187507200D02*
X285002200Y-187507200D01*
D10*
D13*
X178454581Y-188211962D02*
X179597438Y-188211962D01*
X178776010Y-190211962D02*
X179026010Y-188211962D01*
X180014105Y-190211962D02*
X180180771Y-188878629D01*
X180264105Y-188211962D02*
X180156962Y-188307200D01*
X180240295Y-188402438D01*
X180347439Y-188307200D01*
X180264105Y-188211962D01*
X180240295Y-188402438D01*
X180847438Y-188878629D02*
X181609343Y-188878629D01*
X181216486Y-188211962D02*
X181002200Y-189926248D01*
X181073630Y-190116724D01*
X181252201Y-190211962D01*
X181442677Y-190211962D01*
X182395058Y-190211962D02*
X182216487Y-190116724D01*
X182145057Y-189926248D01*
X182359343Y-188211962D01*
X183930772Y-190116724D02*
X183728391Y-190211962D01*
X183347439Y-190211962D01*
X183168867Y-190116724D01*
X183097438Y-189926248D01*
X183192676Y-189164343D01*
X183311724Y-188973867D01*
X183514105Y-188878629D01*
X183895057Y-188878629D01*
X184073629Y-188973867D01*
X184145057Y-189164343D01*
X184121248Y-189354819D01*
X183145057Y-189545295D01*
X184895057Y-190021486D02*
X184978392Y-190116724D01*
X184871248Y-190211962D01*
X184787915Y-190116724D01*
X184895057Y-190021486D01*
X184871248Y-190211962D01*
X185026010Y-188973867D02*
X185109344Y-189069105D01*
X185002200Y-189164343D01*
X184918867Y-189069105D01*
X185026010Y-188973867D01*
X185002200Y-189164343D01*
D10*
D11*
X178859343Y-185600057D02*
X178359343Y-185600057D01*
X178359343Y-186385771D02*
X178359343Y-184885771D01*
X179073629Y-184885771D01*
X179645057Y-186385771D02*
X179645057Y-185385771D01*
X179645057Y-184885771D02*
X179573628Y-184957200D01*
X179645057Y-185028629D01*
X179716485Y-184957200D01*
X179645057Y-184885771D01*
X179645057Y-185028629D01*
X180573629Y-186385771D02*
X180430771Y-186314343D01*
X180359343Y-186171486D01*
X180359343Y-184885771D01*
X181716485Y-186314343D02*
X181573628Y-186385771D01*
X181287914Y-186385771D01*
X181145057Y-186314343D01*
X181073628Y-186171486D01*
X181073628Y-185600057D01*
X181145057Y-185457200D01*
X181287914Y-185385771D01*
X181573628Y-185385771D01*
X181716485Y-185457200D01*
X181787914Y-185600057D01*
X181787914Y-185742914D01*
X181073628Y-185885771D01*
X182430771Y-186242914D02*
X182502199Y-186314343D01*
X182430771Y-186385771D01*
X182359342Y-186314343D01*
X182430771Y-186242914D01*
X182430771Y-186385771D01*
X182430771Y-185457200D02*
X182502199Y-185528629D01*
X182430771Y-185600057D01*
X182359342Y-185528629D01*
X182430771Y-185457200D01*
X182430771Y-185600057D01*
X185145057Y-186385771D02*
X184645057Y-185671486D01*
X184287914Y-186385771D02*
X184287914Y-184885771D01*
X184859342Y-184885771D01*
X185002200Y-184957200D01*
X185073628Y-185028629D01*
X185145057Y-185171486D01*
X185145057Y-185385771D01*
X185073628Y-185528629D01*
X185002200Y-185600057D01*
X184859342Y-185671486D01*
X184287914Y-185671486D01*
X186359342Y-186314343D02*
X186216485Y-186385771D01*
X185930771Y-186385771D01*
X185787914Y-186314343D01*
X185716485Y-186171486D01*
X185716485Y-185600057D01*
X185787914Y-185457200D01*
X185930771Y-185385771D01*
X186216485Y-185385771D01*
X186359342Y-185457200D01*
X186430771Y-185600057D01*
X186430771Y-185742914D01*
X185716485Y-185885771D01*
X186859342Y-185385771D02*
X187430771Y-185385771D01*
X187073628Y-186385771D02*
X187073628Y-185100057D01*
X187145056Y-184957200D01*
X187287914Y-184885771D01*
X187430771Y-184885771D01*
X188502199Y-186314343D02*
X188359342Y-186385771D01*
X188073628Y-186385771D01*
X187930771Y-186314343D01*
X187859342Y-186171486D01*
X187859342Y-185600057D01*
X187930771Y-185457200D01*
X188073628Y-185385771D01*
X188359342Y-185385771D01*
X188502199Y-185457200D01*
X188573628Y-185600057D01*
X188573628Y-185742914D01*
X187859342Y-185885771D01*
X189216485Y-186385771D02*
X189216485Y-185385771D01*
X189216485Y-185671486D02*
X189287913Y-185528629D01*
X189359342Y-185457200D01*
X189502199Y-185385771D01*
X189645056Y-185385771D01*
X190716484Y-186314343D02*
X190573627Y-186385771D01*
X190287913Y-186385771D01*
X190145056Y-186314343D01*
X190073627Y-186171486D01*
X190073627Y-185600057D01*
X190145056Y-185457200D01*
X190287913Y-185385771D01*
X190573627Y-185385771D01*
X190716484Y-185457200D01*
X190787913Y-185600057D01*
X190787913Y-185742914D01*
X190073627Y-185885771D01*
X191430770Y-185385771D02*
X191430770Y-186385771D01*
X191430770Y-185528629D02*
X191502198Y-185457200D01*
X191645056Y-185385771D01*
X191859341Y-185385771D01*
X192002198Y-185457200D01*
X192073627Y-185600057D01*
X192073627Y-186385771D01*
X193430770Y-186314343D02*
X193287913Y-186385771D01*
X193002199Y-186385771D01*
X192859341Y-186314343D01*
X192787913Y-186242914D01*
X192716484Y-186100057D01*
X192716484Y-185671486D01*
X192787913Y-185528629D01*
X192859341Y-185457200D01*
X193002199Y-185385771D01*
X193287913Y-185385771D01*
X193430770Y-185457200D01*
X194645055Y-186314343D02*
X194502198Y-186385771D01*
X194216484Y-186385771D01*
X194073627Y-186314343D01*
X194002198Y-186171486D01*
X194002198Y-185600057D01*
X194073627Y-185457200D01*
X194216484Y-185385771D01*
X194502198Y-185385771D01*
X194645055Y-185457200D01*
X194716484Y-185600057D01*
X194716484Y-185742914D01*
X194002198Y-185885771D01*
X195359341Y-185814343D02*
X196502198Y-185814343D01*
X197930770Y-186385771D02*
X197216484Y-186385771D01*
X197216484Y-184885771D01*
X199073627Y-186385771D02*
X199073627Y-185600057D01*
X199002198Y-185457200D01*
X198859341Y-185385771D01*
X198573627Y-185385771D01*
X198430770Y-185457200D01*
X199073627Y-186314343D02*
X198930770Y-186385771D01*
X198573627Y-186385771D01*
X198430770Y-186314343D01*
X198359341Y-186171486D01*
X198359341Y-186028629D01*
X198430770Y-185885771D01*
X198573627Y-185814343D01*
X198930770Y-185814343D01*
X199073627Y-185742914D01*
X199645056Y-185385771D02*
X200002199Y-186385771D01*
X200359341Y-185385771D02*
X200002199Y-186385771D01*
X199859341Y-186742914D01*
X199787913Y-186814343D01*
X199645056Y-186885771D01*
X201145056Y-186385771D02*
X201002198Y-186314343D01*
X200930770Y-186242914D01*
X200859341Y-186100057D01*
X200859341Y-185671486D01*
X200930770Y-185528629D01*
X201002198Y-185457200D01*
X201145056Y-185385771D01*
X201359341Y-185385771D01*
X201502198Y-185457200D01*
X201573627Y-185528629D01*
X201645056Y-185671486D01*
X201645056Y-186100057D01*
X201573627Y-186242914D01*
X201502198Y-186314343D01*
X201359341Y-186385771D01*
X201145056Y-186385771D01*
X202930770Y-185385771D02*
X202930770Y-186385771D01*
X202287913Y-185385771D02*
X202287913Y-186171486D01*
X202359341Y-186314343D01*
X202502199Y-186385771D01*
X202716484Y-186385771D01*
X202859341Y-186314343D01*
X202930770Y-186242914D01*
X203430770Y-185385771D02*
X204002199Y-185385771D01*
X203645056Y-184885771D02*
X203645056Y-186171486D01*
X203716484Y-186314343D01*
X203859342Y-186385771D01*
X204002199Y-186385771D01*
X204502199Y-186242914D02*
X204573627Y-186314343D01*
X204502199Y-186385771D01*
X204430770Y-186314343D01*
X204502199Y-186242914D01*
X204502199Y-186385771D01*
X205216485Y-186385771D02*
X205216485Y-184885771D01*
X205359342Y-185814343D02*
X205787913Y-186385771D01*
X205787913Y-185385771D02*
X205216485Y-185957200D01*
X206430771Y-186385771D02*
X206430771Y-185385771D01*
X206430771Y-184885771D02*
X206359342Y-184957200D01*
X206430771Y-185028629D01*
X206502199Y-184957200D01*
X206430771Y-184885771D01*
X206430771Y-185028629D01*
X207787914Y-186314343D02*
X207645057Y-186385771D01*
X207359343Y-186385771D01*
X207216485Y-186314343D01*
X207145057Y-186242914D01*
X207073628Y-186100057D01*
X207073628Y-185671486D01*
X207145057Y-185528629D01*
X207216485Y-185457200D01*
X207359343Y-185385771D01*
X207645057Y-185385771D01*
X207787914Y-185457200D01*
X209073628Y-186385771D02*
X209073628Y-185600057D01*
X209002199Y-185457200D01*
X208859342Y-185385771D01*
X208573628Y-185385771D01*
X208430771Y-185457200D01*
X209073628Y-186314343D02*
X208930771Y-186385771D01*
X208573628Y-186385771D01*
X208430771Y-186314343D01*
X208359342Y-186171486D01*
X208359342Y-186028629D01*
X208430771Y-185885771D01*
X208573628Y-185814343D01*
X208930771Y-185814343D01*
X209073628Y-185742914D01*
X210430771Y-186385771D02*
X210430771Y-184885771D01*
X210430771Y-186314343D02*
X210287914Y-186385771D01*
X210002200Y-186385771D01*
X209859342Y-186314343D01*
X209787914Y-186242914D01*
X209716485Y-186100057D01*
X209716485Y-185671486D01*
X209787914Y-185528629D01*
X209859342Y-185457200D01*
X210002200Y-185385771D01*
X210287914Y-185385771D01*
X210430771Y-185457200D01*
X210787914Y-186528629D02*
X211930771Y-186528629D01*
X212287914Y-185385771D02*
X212287914Y-186885771D01*
X212287914Y-185457200D02*
X212430771Y-185385771D01*
X212716485Y-185385771D01*
X212859342Y-185457200D01*
X212930771Y-185528629D01*
X213002200Y-185671486D01*
X213002200Y-186100057D01*
X212930771Y-186242914D01*
X212859342Y-186314343D01*
X212716485Y-186385771D01*
X212430771Y-186385771D01*
X212287914Y-186314343D01*
X214287914Y-186314343D02*
X214145057Y-186385771D01*
X213859343Y-186385771D01*
X213716485Y-186314343D01*
X213645057Y-186242914D01*
X213573628Y-186100057D01*
X213573628Y-185671486D01*
X213645057Y-185528629D01*
X213716485Y-185457200D01*
X213859343Y-185385771D01*
X214145057Y-185385771D01*
X214287914Y-185457200D01*
X214930771Y-186385771D02*
X214930771Y-184885771D01*
X214930771Y-185457200D02*
X215073628Y-185385771D01*
X215359342Y-185385771D01*
X215502199Y-185457200D01*
X215573628Y-185528629D01*
X215645057Y-185671486D01*
X215645057Y-186100057D01*
X215573628Y-186242914D01*
X215502199Y-186314343D01*
X215359342Y-186385771D01*
X215073628Y-186385771D01*
X214930771Y-186314343D01*
D10*
D11*
X177002200Y-181507200D02*
X285002200Y-181507200D01*
D10*
D11*
X178287914Y-183614343D02*
X178502200Y-183685771D01*
X178859343Y-183685771D01*
X179002200Y-183614343D01*
X179073629Y-183542914D01*
X179145057Y-183400057D01*
X179145057Y-183257200D01*
X179073629Y-183114343D01*
X179002200Y-183042914D01*
X178859343Y-182971486D01*
X178573629Y-182900057D01*
X178430771Y-182828629D01*
X178359343Y-182757200D01*
X178287914Y-182614343D01*
X178287914Y-182471486D01*
X178359343Y-182328629D01*
X178430771Y-182257200D01*
X178573629Y-182185771D01*
X178930771Y-182185771D01*
X179145057Y-182257200D01*
X179787914Y-183685771D02*
X179787914Y-182185771D01*
X180430771Y-183685771D02*
X180430771Y-182900057D01*
X180359342Y-182757200D01*
X180216485Y-182685771D01*
X180002200Y-182685771D01*
X179859342Y-182757200D01*
X179787914Y-182828629D01*
X181716485Y-183614343D02*
X181573628Y-183685771D01*
X181287914Y-183685771D01*
X181145057Y-183614343D01*
X181073628Y-183471486D01*
X181073628Y-182900057D01*
X181145057Y-182757200D01*
X181287914Y-182685771D01*
X181573628Y-182685771D01*
X181716485Y-182757200D01*
X181787914Y-182900057D01*
X181787914Y-183042914D01*
X181073628Y-183185771D01*
X183002199Y-183614343D02*
X182859342Y-183685771D01*
X182573628Y-183685771D01*
X182430771Y-183614343D01*
X182359342Y-183471486D01*
X182359342Y-182900057D01*
X182430771Y-182757200D01*
X182573628Y-182685771D01*
X182859342Y-182685771D01*
X183002199Y-182757200D01*
X183073628Y-182900057D01*
X183073628Y-183042914D01*
X182359342Y-183185771D01*
X183502199Y-182685771D02*
X184073628Y-182685771D01*
X183716485Y-182185771D02*
X183716485Y-183471486D01*
X183787913Y-183614343D01*
X183930771Y-183685771D01*
X184073628Y-183685771D01*
X184573628Y-183542914D02*
X184645056Y-183614343D01*
X184573628Y-183685771D01*
X184502199Y-183614343D01*
X184573628Y-183542914D01*
X184573628Y-183685771D01*
X184573628Y-182757200D02*
X184645056Y-182828629D01*
X184573628Y-182900057D01*
X184502199Y-182828629D01*
X184573628Y-182757200D01*
X184573628Y-182900057D01*
D10*
D11*
X197002200Y-191507200D02*
X197002200Y-194507200D01*
D10*
D11*
X261002200Y-191507200D02*
X261002200Y-198007200D01*
D14*
X175505533Y-48721433D02*
X177194633Y-48721433D01*
X177194633Y-48319267D01*
X177114200Y-48077967D01*
X176953333Y-47917100D01*
X176792467Y-47836667D01*
X176470733Y-47756233D01*
X176229433Y-47756233D01*
X175907700Y-47836667D01*
X175746833Y-47917100D01*
X175585967Y-48077967D01*
X175505533Y-48319267D01*
X175505533Y-48721433D01*
X175585967Y-46388867D02*
X175505533Y-46549733D01*
X175505533Y-46871467D01*
X175585967Y-47032333D01*
X175746833Y-47112767D01*
X176390300Y-47112767D01*
X176551167Y-47032333D01*
X176631600Y-46871467D01*
X176631600Y-46549733D01*
X176551167Y-46388867D01*
X176390300Y-46308433D01*
X176229433Y-46308433D01*
X176068567Y-47112767D01*
X175585967Y-45664967D02*
X175505533Y-45504100D01*
X175505533Y-45182367D01*
X175585967Y-45021500D01*
X175746833Y-44941067D01*
X175827267Y-44941067D01*
X175988133Y-45021500D01*
X176068567Y-45182367D01*
X176068567Y-45423667D01*
X176149000Y-45584533D01*
X176309867Y-45664967D01*
X176390300Y-45664967D01*
X176551167Y-45584533D01*
X176631600Y-45423667D01*
X176631600Y-45182367D01*
X176551167Y-45021500D01*
X175505533Y-44217166D02*
X176631600Y-44217166D01*
X177194633Y-44217166D02*
X177114200Y-44297600D01*
X177033767Y-44217166D01*
X177114200Y-44136733D01*
X177194633Y-44217166D01*
X177033767Y-44217166D01*
X176631600Y-42688933D02*
X175264233Y-42688933D01*
X175103367Y-42769367D01*
X175022933Y-42849800D01*
X174942500Y-43010667D01*
X174942500Y-43251967D01*
X175022933Y-43412833D01*
X175585967Y-42688933D02*
X175505533Y-42849800D01*
X175505533Y-43171533D01*
X175585967Y-43332400D01*
X175666400Y-43412833D01*
X175827267Y-43493267D01*
X176309867Y-43493267D01*
X176470733Y-43412833D01*
X176551167Y-43332400D01*
X176631600Y-43171533D01*
X176631600Y-42849800D01*
X176551167Y-42688933D01*
X176631600Y-41884600D02*
X175505533Y-41884600D01*
X176470733Y-41884600D02*
X176551167Y-41804167D01*
X176631600Y-41643300D01*
X176631600Y-41402000D01*
X176551167Y-41241134D01*
X176390300Y-41160700D01*
X175505533Y-41160700D01*
X175505533Y-38104234D02*
X176309867Y-38667268D01*
X175505533Y-39069434D02*
X177194633Y-39069434D01*
X177194633Y-38425968D01*
X177114200Y-38265101D01*
X177033767Y-38184668D01*
X176872900Y-38104234D01*
X176631600Y-38104234D01*
X176470733Y-38184668D01*
X176390300Y-38265101D01*
X176309867Y-38425968D01*
X176309867Y-39069434D01*
X176631600Y-36656434D02*
X175505533Y-36656434D01*
X176631600Y-37380334D02*
X175746833Y-37380334D01*
X175585967Y-37299901D01*
X175505533Y-37139034D01*
X175505533Y-36897734D01*
X175585967Y-36736868D01*
X175666400Y-36656434D01*
X175505533Y-35610801D02*
X175585967Y-35771668D01*
X175746833Y-35852101D01*
X177194633Y-35852101D01*
X175585967Y-34323868D02*
X175505533Y-34484734D01*
X175505533Y-34806468D01*
X175585967Y-34967334D01*
X175746833Y-35047768D01*
X176390300Y-35047768D01*
X176551167Y-34967334D01*
X176631600Y-34806468D01*
X176631600Y-34484734D01*
X176551167Y-34323868D01*
X176390300Y-34243434D01*
X176229433Y-34243434D01*
X176068567Y-35047768D01*
X175666400Y-33519534D02*
X175585967Y-33439101D01*
X175505533Y-33519534D01*
X175585967Y-33599968D01*
X175666400Y-33519534D01*
X175505533Y-33519534D01*
X176551167Y-33519534D02*
X176470733Y-33439101D01*
X176390300Y-33519534D01*
X176470733Y-33599968D01*
X176551167Y-33519534D01*
X176390300Y-33519534D01*
X175505533Y-31428268D02*
X177194633Y-31428268D01*
X175988133Y-30865235D01*
X177194633Y-30302202D01*
X175505533Y-30302202D01*
X175505533Y-29497868D02*
X176631600Y-29497868D01*
X177194633Y-29497868D02*
X177114200Y-29578302D01*
X177033767Y-29497868D01*
X177114200Y-29417435D01*
X177194633Y-29497868D01*
X177033767Y-29497868D01*
X176631600Y-28693535D02*
X175505533Y-28693535D01*
X176470733Y-28693535D02*
X176551167Y-28613102D01*
X176631600Y-28452235D01*
X176631600Y-28210935D01*
X176551167Y-28050069D01*
X176390300Y-27969635D01*
X175505533Y-27969635D01*
X175666400Y-27165302D02*
X175585967Y-27084869D01*
X175505533Y-27165302D01*
X175585967Y-27245736D01*
X175666400Y-27165302D01*
X175505533Y-27165302D01*
X175666400Y-25395769D02*
X175585967Y-25476203D01*
X175505533Y-25717503D01*
X175505533Y-25878369D01*
X175585967Y-26119669D01*
X175746833Y-26280536D01*
X175907700Y-26360969D01*
X176229433Y-26441403D01*
X176470733Y-26441403D01*
X176792467Y-26360969D01*
X176953333Y-26280536D01*
X177114200Y-26119669D01*
X177194633Y-25878369D01*
X177194633Y-25717503D01*
X177114200Y-25476203D01*
X177033767Y-25395769D01*
X175505533Y-24430569D02*
X175585967Y-24591436D01*
X175746833Y-24671869D01*
X177194633Y-24671869D01*
X175585967Y-23143636D02*
X175505533Y-23304502D01*
X175505533Y-23626236D01*
X175585967Y-23787102D01*
X175746833Y-23867536D01*
X176390300Y-23867536D01*
X176551167Y-23787102D01*
X176631600Y-23626236D01*
X176631600Y-23304502D01*
X176551167Y-23143636D01*
X176390300Y-23063202D01*
X176229433Y-23063202D01*
X176068567Y-23867536D01*
X175505533Y-21615402D02*
X176390300Y-21615402D01*
X176551167Y-21695836D01*
X176631600Y-21856702D01*
X176631600Y-22178436D01*
X176551167Y-22339302D01*
X175585967Y-21615402D02*
X175505533Y-21776269D01*
X175505533Y-22178436D01*
X175585967Y-22339302D01*
X175746833Y-22419736D01*
X175907700Y-22419736D01*
X176068567Y-22339302D01*
X176149000Y-22178436D01*
X176149000Y-21776269D01*
X176229433Y-21615402D01*
X175505533Y-20811069D02*
X176631600Y-20811069D01*
X176309867Y-20811069D02*
X176470733Y-20730636D01*
X176551167Y-20650203D01*
X176631600Y-20489336D01*
X176631600Y-20328469D01*
X175505533Y-19041536D02*
X176390300Y-19041536D01*
X176551167Y-19121970D01*
X176631600Y-19282836D01*
X176631600Y-19604570D01*
X176551167Y-19765436D01*
X175585967Y-19041536D02*
X175505533Y-19202403D01*
X175505533Y-19604570D01*
X175585967Y-19765436D01*
X175746833Y-19845870D01*
X175907700Y-19845870D01*
X176068567Y-19765436D01*
X176149000Y-19604570D01*
X176149000Y-19202403D01*
X176229433Y-19041536D01*
X176631600Y-18237203D02*
X175505533Y-18237203D01*
X176470733Y-18237203D02*
X176551167Y-18156770D01*
X176631600Y-17995903D01*
X176631600Y-17754603D01*
X176551167Y-17593737D01*
X176390300Y-17513303D01*
X175505533Y-17513303D01*
X175585967Y-15985070D02*
X175505533Y-16145937D01*
X175505533Y-16467670D01*
X175585967Y-16628537D01*
X175666400Y-16708970D01*
X175827267Y-16789404D01*
X176309867Y-16789404D01*
X176470733Y-16708970D01*
X176551167Y-16628537D01*
X176631600Y-16467670D01*
X176631600Y-16145937D01*
X176551167Y-15985070D01*
X175585967Y-14617704D02*
X175505533Y-14778570D01*
X175505533Y-15100304D01*
X175585967Y-15261170D01*
X175746833Y-15341604D01*
X176390300Y-15341604D01*
X176551167Y-15261170D01*
X176631600Y-15100304D01*
X176631600Y-14778570D01*
X176551167Y-14617704D01*
X176390300Y-14537270D01*
X176229433Y-14537270D01*
X176068567Y-15341604D01*
X175666400Y-13813370D02*
X175585967Y-13732937D01*
X175505533Y-13813370D01*
X175585967Y-13893804D01*
X175666400Y-13813370D01*
X175505533Y-13813370D01*
X176551167Y-13813370D02*
X176470733Y-13732937D01*
X176390300Y-13813370D01*
X176470733Y-13893804D01*
X176551167Y-13813370D01*
X176390300Y-13813370D01*
X175505533Y-10837338D02*
X175505533Y-11802538D01*
X175505533Y-11319938D02*
X177194633Y-11319938D01*
X176953333Y-11480804D01*
X176792467Y-11641671D01*
X176712033Y-11802538D01*
X177194633Y-9791704D02*
X177194633Y-9630837D01*
X177114200Y-9469971D01*
X177033767Y-9389537D01*
X176872900Y-9309104D01*
X176551167Y-9228671D01*
X176149000Y-9228671D01*
X175827267Y-9309104D01*
X175666400Y-9389537D01*
X175585967Y-9469971D01*
X175505533Y-9630837D01*
X175505533Y-9791704D01*
X175585967Y-9952571D01*
X175666400Y-10033004D01*
X175827267Y-10113437D01*
X176149000Y-10193871D01*
X176551167Y-10193871D01*
X176872900Y-10113437D01*
X177033767Y-10033004D01*
X177114200Y-9952571D01*
X177194633Y-9791704D01*
X175505533Y-7217837D02*
X176631600Y-7217837D01*
X176470733Y-7217837D02*
X176551167Y-7137404D01*
X176631600Y-6976537D01*
X176631600Y-6735237D01*
X176551167Y-6574371D01*
X176390300Y-6493937D01*
X175505533Y-6493937D01*
X176390300Y-6493937D02*
X176551167Y-6413504D01*
X176631600Y-6252637D01*
X176631600Y-6011337D01*
X176551167Y-5850471D01*
X176390300Y-5770037D01*
X175505533Y-5770037D01*
X175505533Y-4965704D02*
X176631600Y-4965704D01*
X177194633Y-4965704D02*
X177114200Y-5046138D01*
X177033767Y-4965704D01*
X177114200Y-4885271D01*
X177194633Y-4965704D01*
X177033767Y-4965704D01*
X175505533Y-3920071D02*
X175585967Y-4080938D01*
X175746833Y-4161371D01*
X177194633Y-4161371D01*
X178807533Y-55833433D02*
X180496633Y-55833433D01*
X179290133Y-55270400D01*
X180496633Y-54707367D01*
X178807533Y-54707367D01*
X178807533Y-53903033D02*
X179933600Y-53903033D01*
X180496633Y-53903033D02*
X180416200Y-53983467D01*
X180335767Y-53903033D01*
X180416200Y-53822600D01*
X180496633Y-53903033D01*
X180335767Y-53903033D01*
X179933600Y-53098700D02*
X178807533Y-53098700D01*
X179772733Y-53098700D02*
X179853167Y-53018267D01*
X179933600Y-52857400D01*
X179933600Y-52616100D01*
X179853167Y-52455234D01*
X179692300Y-52374800D01*
X178807533Y-52374800D01*
X178968400Y-51570467D02*
X178887967Y-51490034D01*
X178807533Y-51570467D01*
X178887967Y-51650901D01*
X178968400Y-51570467D01*
X178807533Y-51570467D01*
X180496633Y-51007434D02*
X180496633Y-50042234D01*
X178807533Y-50524834D02*
X180496633Y-50524834D01*
X178807533Y-49479201D02*
X179933600Y-49479201D01*
X179611867Y-49479201D02*
X179772733Y-49398768D01*
X179853167Y-49318335D01*
X179933600Y-49157468D01*
X179933600Y-48996601D01*
X178807533Y-47709668D02*
X179692300Y-47709668D01*
X179853167Y-47790102D01*
X179933600Y-47950968D01*
X179933600Y-48272702D01*
X179853167Y-48433568D01*
X178887967Y-47709668D02*
X178807533Y-47870535D01*
X178807533Y-48272702D01*
X178887967Y-48433568D01*
X179048833Y-48514002D01*
X179209700Y-48514002D01*
X179370567Y-48433568D01*
X179451000Y-48272702D01*
X179451000Y-47870535D01*
X179531433Y-47709668D01*
X178887967Y-46181435D02*
X178807533Y-46342302D01*
X178807533Y-46664035D01*
X178887967Y-46824902D01*
X178968400Y-46905335D01*
X179129267Y-46985769D01*
X179611867Y-46985769D01*
X179772733Y-46905335D01*
X179853167Y-46824902D01*
X179933600Y-46664035D01*
X179933600Y-46342302D01*
X179853167Y-46181435D01*
X178807533Y-45457535D02*
X180496633Y-45457535D01*
X179451000Y-45296669D02*
X178807533Y-44814069D01*
X179933600Y-44814069D02*
X179290133Y-45457535D01*
X180496633Y-42964102D02*
X178807533Y-42561935D01*
X180014033Y-42240202D01*
X178807533Y-41918469D01*
X180496633Y-41516302D01*
X178807533Y-40872835D02*
X179933600Y-40872835D01*
X180496633Y-40872835D02*
X180416200Y-40953269D01*
X180335767Y-40872835D01*
X180416200Y-40792402D01*
X180496633Y-40872835D01*
X180335767Y-40872835D01*
X178807533Y-39344602D02*
X180496633Y-39344602D01*
X178887967Y-39344602D02*
X178807533Y-39505469D01*
X178807533Y-39827202D01*
X178887967Y-39988069D01*
X178968400Y-40068502D01*
X179129267Y-40148936D01*
X179611867Y-40148936D01*
X179772733Y-40068502D01*
X179853167Y-39988069D01*
X179933600Y-39827202D01*
X179933600Y-39505469D01*
X179853167Y-39344602D01*
X179933600Y-38781569D02*
X179933600Y-38138103D01*
X180496633Y-38540269D02*
X179048833Y-38540269D01*
X178887967Y-38459836D01*
X178807533Y-38298969D01*
X178807533Y-38138103D01*
X178807533Y-37575069D02*
X180496633Y-37575069D01*
X178807533Y-36851169D02*
X179692300Y-36851169D01*
X179853167Y-36931603D01*
X179933600Y-37092469D01*
X179933600Y-37333769D01*
X179853167Y-37494636D01*
X179772733Y-37575069D01*
X178968400Y-34759903D02*
X178887967Y-34679470D01*
X178807533Y-34759903D01*
X178887967Y-34840337D01*
X178968400Y-34759903D01*
X178807533Y-34759903D01*
X179853167Y-34759903D02*
X179772733Y-34679470D01*
X179692300Y-34759903D01*
X179772733Y-34840337D01*
X179853167Y-34759903D01*
X179692300Y-34759903D01*
X178807533Y-31783871D02*
X178807533Y-32749071D01*
X178807533Y-32266471D02*
X180496633Y-32266471D01*
X180255333Y-32427337D01*
X180094467Y-32588204D01*
X180014033Y-32749071D01*
X180496633Y-30738237D02*
X180496633Y-30577370D01*
X180416200Y-30416504D01*
X180335767Y-30336070D01*
X180174900Y-30255637D01*
X179853167Y-30175204D01*
X179451000Y-30175204D01*
X179129267Y-30255637D01*
X178968400Y-30336070D01*
X178887967Y-30416504D01*
X178807533Y-30577370D01*
X178807533Y-30738237D01*
X178887967Y-30899104D01*
X178968400Y-30979537D01*
X179129267Y-31059970D01*
X179451000Y-31140404D01*
X179853167Y-31140404D01*
X180174900Y-31059970D01*
X180335767Y-30979537D01*
X180416200Y-30899104D01*
X180496633Y-30738237D01*
X178807533Y-28164370D02*
X179933600Y-28164370D01*
X179772733Y-28164370D02*
X179853167Y-28083937D01*
X179933600Y-27923070D01*
X179933600Y-27681770D01*
X179853167Y-27520904D01*
X179692300Y-27440470D01*
X178807533Y-27440470D01*
X179692300Y-27440470D02*
X179853167Y-27360037D01*
X179933600Y-27199170D01*
X179933600Y-26957870D01*
X179853167Y-26797004D01*
X179692300Y-26716570D01*
X178807533Y-26716570D01*
X178807533Y-25912237D02*
X179933600Y-25912237D01*
X180496633Y-25912237D02*
X180416200Y-25992671D01*
X180335767Y-25912237D01*
X180416200Y-25831804D01*
X180496633Y-25912237D01*
X180335767Y-25912237D01*
X178807533Y-24866604D02*
X178887967Y-25027471D01*
X179048833Y-25107904D01*
X180496633Y-25107904D01*
M02*
