G04 #@! TF.FileFunction,Copper,L1,Top,Signal*
%FSLAX46Y46*%
G04 Gerber Fmt 4.6, Leading zero omitted, Abs format (unit mm)*
G04 Created by KiCad (PCBNEW 0.201508140901+6091~28~ubuntu14.04.1-product) date Thu 22 Oct 2015 10:51:19 PM CEST*
%MOMM*%
G01*
G04 APERTURE LIST*
%ADD10C,0.127000*%
%ADD11C,0.600000*%
%ADD12R,2.500000X1.000000*%
%ADD13R,1.000000X1.250000*%
%ADD14R,1.000000X2.700000*%
%ADD15R,2.032000X2.032000*%
%ADD16O,2.032000X2.032000*%
%ADD17R,2.235200X2.235200*%
%ADD18R,1.300000X0.700000*%
%ADD19R,1.501140X1.501140*%
%ADD20O,0.230000X0.800000*%
%ADD21R,2.000000X1.200000*%
%ADD22C,0.500000*%
%ADD23R,1.600000X1.000000*%
%ADD24C,0.685800*%
%ADD25C,0.609600*%
%ADD26C,0.152400*%
%ADD27C,0.254000*%
%ADD28C,0.304800*%
G04 APERTURE END LIST*
D10*
D11*
X141351000Y-97790000D03*
X143510000Y-98806000D03*
X138938000Y-103251000D03*
X147574000Y-104394000D03*
X146685000Y-103378000D03*
X145669000Y-104394000D03*
X144780000Y-103378000D03*
X143637000Y-104394000D03*
X142748000Y-103378000D03*
X141732000Y-104394000D03*
X140843000Y-103378000D03*
X139700000Y-104394000D03*
X137414000Y-103251000D03*
X136652000Y-104521000D03*
X135763000Y-103505000D03*
X138303000Y-101854000D03*
X138176000Y-104648000D03*
X149100000Y-100100000D03*
X157100000Y-104100000D03*
X155100000Y-104100000D03*
X153100000Y-104100000D03*
X151100000Y-104100000D03*
X150114000Y-103251000D03*
X149100000Y-104100000D03*
X157100000Y-102100000D03*
X156083000Y-103124000D03*
X155100000Y-102100000D03*
X154178000Y-102997000D03*
X153100000Y-102100000D03*
X152146000Y-102997000D03*
X151100000Y-102100000D03*
X150114000Y-101092000D03*
X149100000Y-102100000D03*
X154178000Y-101092000D03*
X153100000Y-100100000D03*
X152146000Y-101219000D03*
X151100000Y-100100000D03*
D12*
X149402800Y-92149800D03*
X149402800Y-95149800D03*
D13*
X144973800Y-98298000D03*
X146973800Y-98298000D03*
D14*
X144696000Y-89789000D03*
X146896000Y-89789000D03*
D15*
X136779000Y-93345000D03*
D16*
X136779000Y-95885000D03*
D15*
X156845000Y-92964000D03*
D16*
X156845000Y-95504000D03*
D17*
X136779000Y-99568000D03*
X156845000Y-99314000D03*
X136779000Y-89662000D03*
X156718000Y-89281000D03*
D18*
X151257000Y-98638400D03*
X151257000Y-96738400D03*
X148945600Y-96763800D03*
X148945600Y-98663800D03*
X142621000Y-100142000D03*
X142621000Y-102042000D03*
X144780000Y-102042000D03*
X144780000Y-100142000D03*
X147320000Y-102042000D03*
X147320000Y-100142000D03*
D19*
X142494000Y-89027000D03*
X149098000Y-89154000D03*
X152781000Y-95250000D03*
D11*
X136652000Y-101790500D03*
X143764000Y-95758000D03*
D20*
X146807200Y-93471800D03*
X146307200Y-93471800D03*
X145807200Y-93471800D03*
X145307200Y-93471800D03*
X144807200Y-93471800D03*
X144807200Y-96021800D03*
X145307200Y-96021800D03*
X145807200Y-96021800D03*
X146307200Y-96021800D03*
X146807200Y-96021800D03*
D21*
X145807200Y-94746800D03*
D22*
X146507200Y-95046800D03*
X145807200Y-94746800D03*
X145107200Y-95046800D03*
X145107200Y-94446800D03*
X146507200Y-94446800D03*
D23*
X141732000Y-92988000D03*
X141732000Y-95988000D03*
D24*
X139979400Y-102031800D03*
X153517600Y-98628200D03*
D25*
X142621000Y-102042000D02*
X139989600Y-102042000D01*
X139989600Y-102042000D02*
X139979400Y-102031800D01*
D26*
X146307200Y-96021800D02*
X146307200Y-95246800D01*
X146307200Y-95246800D02*
X145807200Y-94746800D01*
X145807200Y-93471800D02*
X145807200Y-94746800D01*
D25*
X151257000Y-98638400D02*
X153507400Y-98638400D01*
X153507400Y-98638400D02*
X153517600Y-98628200D01*
X151257000Y-96738400D02*
X152435600Y-96738400D01*
X152781000Y-96393000D02*
X152781000Y-95250000D01*
X152435600Y-96738400D02*
X152781000Y-96393000D01*
D27*
X148945600Y-96763800D02*
X148275000Y-96763800D01*
X147533000Y-96021800D02*
X146807200Y-96021800D01*
X148275000Y-96763800D02*
X147533000Y-96021800D01*
D25*
X151257000Y-96738400D02*
X148971000Y-96738400D01*
X148971000Y-96738400D02*
X148945600Y-96763800D01*
X144780000Y-100142000D02*
X144780000Y-98491800D01*
X144780000Y-98491800D02*
X144973800Y-98298000D01*
X144780000Y-100142000D02*
X147320000Y-100142000D01*
X142621000Y-100142000D02*
X144780000Y-100142000D01*
D26*
X145807200Y-96021800D02*
X145807200Y-97464600D01*
D28*
X145807200Y-97464600D02*
X144973800Y-98298000D01*
D25*
X144696000Y-90678000D02*
X143586200Y-90678000D01*
X143586200Y-90678000D02*
X142951200Y-90043000D01*
X142951200Y-90043000D02*
X142951200Y-89433400D01*
D27*
X145303210Y-92852210D02*
X145266210Y-92852210D01*
X145266210Y-92852210D02*
X144696000Y-92282000D01*
X144696000Y-92282000D02*
X144696000Y-90678000D01*
X145307200Y-93471800D02*
X145307200Y-93186400D01*
X145307200Y-93186400D02*
X145303210Y-93182410D01*
X145303210Y-93182410D02*
X145303210Y-92852210D01*
D25*
X146896000Y-90678000D02*
X148336000Y-90678000D01*
X148666200Y-90347800D02*
X148666200Y-89331800D01*
X148336000Y-90678000D02*
X148666200Y-90347800D01*
D27*
X146311190Y-92855210D02*
X146322790Y-92855210D01*
X146322790Y-92855210D02*
X146896000Y-92282000D01*
X146896000Y-92282000D02*
X146896000Y-90678000D01*
X146307200Y-93471800D02*
X146307200Y-93138600D01*
X146307200Y-93138600D02*
X146311190Y-93134610D01*
X146311190Y-93134610D02*
X146311190Y-92855210D01*
D26*
X144780000Y-102042000D02*
X144780000Y-101473000D01*
X144359800Y-96469200D02*
X144807200Y-96021800D01*
X143967200Y-96469200D02*
X144359800Y-96469200D01*
X140792200Y-99644200D02*
X143967200Y-96469200D01*
X140792200Y-100787200D02*
X140792200Y-99644200D01*
X141249402Y-101244402D02*
X140792200Y-100787200D01*
X144551402Y-101244402D02*
X141249402Y-101244402D01*
X144780000Y-101473000D02*
X144551402Y-101244402D01*
X147320000Y-102042000D02*
X147320000Y-101346000D01*
X145307200Y-96754800D02*
X145307200Y-96021800D01*
X145034000Y-97028000D02*
X145307200Y-96754800D01*
X144018000Y-97028000D02*
X145034000Y-97028000D01*
X141224000Y-99822000D02*
X144018000Y-97028000D01*
X141224000Y-100584000D02*
X141224000Y-99822000D01*
X141478000Y-100838000D02*
X141224000Y-100584000D01*
X146812000Y-100838000D02*
X141478000Y-100838000D01*
X147320000Y-101346000D02*
X146812000Y-100838000D01*
G36*
X144932402Y-88205922D02*
X144196000Y-88205922D01*
X144111286Y-88221862D01*
X144033482Y-88271928D01*
X143981285Y-88348320D01*
X143962922Y-88439000D01*
X143962922Y-90144600D01*
X143807141Y-90144600D01*
X143484600Y-89822058D01*
X143484600Y-89433400D01*
X143477648Y-89398450D01*
X143477648Y-88276430D01*
X143461708Y-88191716D01*
X143411642Y-88113912D01*
X143335250Y-88061715D01*
X143244570Y-88043352D01*
X141743430Y-88043352D01*
X141658716Y-88059292D01*
X141580912Y-88109358D01*
X141528715Y-88185750D01*
X141510352Y-88276430D01*
X141510352Y-89777570D01*
X141526292Y-89862284D01*
X141576358Y-89940088D01*
X141652750Y-89992285D01*
X141743430Y-90010648D01*
X142417800Y-90010648D01*
X142417800Y-90043000D01*
X142458403Y-90247123D01*
X142574029Y-90420171D01*
X143209027Y-91055168D01*
X143209029Y-91055171D01*
X143334489Y-91139000D01*
X143382077Y-91170797D01*
X143586200Y-91211401D01*
X143586205Y-91211400D01*
X143976545Y-91211400D01*
X143978862Y-91223714D01*
X144028928Y-91301518D01*
X144105320Y-91353715D01*
X144196000Y-91372078D01*
X144340400Y-91372078D01*
X144340400Y-92282000D01*
X144367468Y-92418083D01*
X144444553Y-92533447D01*
X144932400Y-93021294D01*
X144932400Y-93903800D01*
X144065140Y-93903800D01*
X144035494Y-93909803D01*
X144010519Y-93926868D01*
X143994151Y-93952305D01*
X143988947Y-93980998D01*
X143993927Y-94361008D01*
X135152600Y-94361900D01*
X135152600Y-87146600D01*
X144932403Y-87146600D01*
X144932402Y-88205922D01*
X144932402Y-88205922D01*
G37*
X144932402Y-88205922D02*
X144196000Y-88205922D01*
X144111286Y-88221862D01*
X144033482Y-88271928D01*
X143981285Y-88348320D01*
X143962922Y-88439000D01*
X143962922Y-90144600D01*
X143807141Y-90144600D01*
X143484600Y-89822058D01*
X143484600Y-89433400D01*
X143477648Y-89398450D01*
X143477648Y-88276430D01*
X143461708Y-88191716D01*
X143411642Y-88113912D01*
X143335250Y-88061715D01*
X143244570Y-88043352D01*
X141743430Y-88043352D01*
X141658716Y-88059292D01*
X141580912Y-88109358D01*
X141528715Y-88185750D01*
X141510352Y-88276430D01*
X141510352Y-89777570D01*
X141526292Y-89862284D01*
X141576358Y-89940088D01*
X141652750Y-89992285D01*
X141743430Y-90010648D01*
X142417800Y-90010648D01*
X142417800Y-90043000D01*
X142458403Y-90247123D01*
X142574029Y-90420171D01*
X143209027Y-91055168D01*
X143209029Y-91055171D01*
X143334489Y-91139000D01*
X143382077Y-91170797D01*
X143586200Y-91211401D01*
X143586205Y-91211400D01*
X143976545Y-91211400D01*
X143978862Y-91223714D01*
X144028928Y-91301518D01*
X144105320Y-91353715D01*
X144196000Y-91372078D01*
X144340400Y-91372078D01*
X144340400Y-92282000D01*
X144367468Y-92418083D01*
X144444553Y-92533447D01*
X144932400Y-93021294D01*
X144932400Y-93903800D01*
X144065140Y-93903800D01*
X144035494Y-93909803D01*
X144010519Y-93926868D01*
X143994151Y-93952305D01*
X143988947Y-93980998D01*
X143993927Y-94361008D01*
X135152600Y-94361900D01*
X135152600Y-87146600D01*
X144932403Y-87146600D01*
X144932402Y-88205922D01*
G36*
X145884908Y-93892173D02*
X145892235Y-93923720D01*
X146006535Y-94165020D01*
X146024652Y-94189242D01*
X146050765Y-94204508D01*
X146075400Y-94208600D01*
X147035517Y-94208600D01*
X147164294Y-94338456D01*
X147189432Y-94355279D01*
X147218400Y-94361000D01*
X151848342Y-94361000D01*
X151815715Y-94408750D01*
X151797352Y-94499430D01*
X151797352Y-96000570D01*
X151813292Y-96085284D01*
X151858361Y-96155322D01*
X150607000Y-96155322D01*
X150522286Y-96171262D01*
X150469856Y-96205000D01*
X149694937Y-96205000D01*
X149686280Y-96199085D01*
X149595600Y-96180722D01*
X148295600Y-96180722D01*
X148210886Y-96196662D01*
X148210807Y-96196713D01*
X147784447Y-95770353D01*
X147669083Y-95693268D01*
X147533000Y-95666200D01*
X147139206Y-95666200D01*
X147124645Y-95592995D01*
X147050162Y-95481523D01*
X146938690Y-95407040D01*
X146807200Y-95380885D01*
X146675710Y-95407040D01*
X146564238Y-95481523D01*
X146489755Y-95592995D01*
X146463600Y-95724485D01*
X146463600Y-95961471D01*
X146451600Y-96021800D01*
X146463600Y-96082129D01*
X146463600Y-96319115D01*
X146489755Y-96450605D01*
X146564238Y-96562077D01*
X146675710Y-96636560D01*
X146807200Y-96662715D01*
X146938690Y-96636560D01*
X147050162Y-96562077D01*
X147124645Y-96450605D01*
X147139206Y-96377400D01*
X147385706Y-96377400D01*
X148023553Y-97015247D01*
X148062522Y-97041285D01*
X148062522Y-97113800D01*
X148078462Y-97198514D01*
X148128528Y-97276318D01*
X148204920Y-97328515D01*
X148295600Y-97346878D01*
X149595600Y-97346878D01*
X149680314Y-97330938D01*
X149758118Y-97280872D01*
X149764317Y-97271800D01*
X150470489Y-97271800D01*
X150516320Y-97303115D01*
X150607000Y-97321478D01*
X151907000Y-97321478D01*
X151991714Y-97305538D01*
X152044144Y-97271800D01*
X152435600Y-97271800D01*
X152639723Y-97231197D01*
X152812771Y-97115571D01*
X153158168Y-96770173D01*
X153158171Y-96770171D01*
X153246378Y-96638159D01*
X153273797Y-96597124D01*
X153314400Y-96393000D01*
X153314400Y-96233648D01*
X153531570Y-96233648D01*
X153616284Y-96217708D01*
X153694088Y-96167642D01*
X153746285Y-96091250D01*
X153764648Y-96000570D01*
X153764648Y-94499430D01*
X153748708Y-94414716D01*
X153714142Y-94361000D01*
X158471400Y-94361000D01*
X158471400Y-105221400D01*
X135152600Y-105221400D01*
X135152600Y-102144980D01*
X139407801Y-102144980D01*
X139494624Y-102355106D01*
X139655249Y-102516011D01*
X139865223Y-102603200D01*
X140092580Y-102603399D01*
X140160342Y-102575400D01*
X141834489Y-102575400D01*
X141880320Y-102606715D01*
X141971000Y-102625078D01*
X143271000Y-102625078D01*
X143355714Y-102609138D01*
X143433518Y-102559072D01*
X143485715Y-102482680D01*
X143504078Y-102392000D01*
X143504078Y-101692000D01*
X143488138Y-101607286D01*
X143450762Y-101549202D01*
X143950896Y-101549202D01*
X143915285Y-101601320D01*
X143896922Y-101692000D01*
X143896922Y-102392000D01*
X143912862Y-102476714D01*
X143962928Y-102554518D01*
X144039320Y-102606715D01*
X144130000Y-102625078D01*
X145430000Y-102625078D01*
X145514714Y-102609138D01*
X145592518Y-102559072D01*
X145644715Y-102482680D01*
X145663078Y-102392000D01*
X145663078Y-101692000D01*
X145647138Y-101607286D01*
X145597072Y-101529482D01*
X145520680Y-101477285D01*
X145430000Y-101458922D01*
X145082000Y-101458922D01*
X145061598Y-101356358D01*
X144995526Y-101257474D01*
X144880852Y-101142800D01*
X146685748Y-101142800D01*
X147001870Y-101458922D01*
X146670000Y-101458922D01*
X146585286Y-101474862D01*
X146507482Y-101524928D01*
X146455285Y-101601320D01*
X146436922Y-101692000D01*
X146436922Y-102392000D01*
X146452862Y-102476714D01*
X146502928Y-102554518D01*
X146579320Y-102606715D01*
X146670000Y-102625078D01*
X147970000Y-102625078D01*
X148054714Y-102609138D01*
X148132518Y-102559072D01*
X148184715Y-102482680D01*
X148203078Y-102392000D01*
X148203078Y-101692000D01*
X148187138Y-101607286D01*
X148137072Y-101529482D01*
X148060680Y-101477285D01*
X147970000Y-101458922D01*
X147624800Y-101458922D01*
X147624800Y-101346000D01*
X147601598Y-101229358D01*
X147535526Y-101130474D01*
X147130130Y-100725078D01*
X147970000Y-100725078D01*
X148054714Y-100709138D01*
X148132518Y-100659072D01*
X148184715Y-100582680D01*
X148203078Y-100492000D01*
X148203078Y-99792000D01*
X148187138Y-99707286D01*
X148137072Y-99629482D01*
X148060680Y-99577285D01*
X147970000Y-99558922D01*
X146670000Y-99558922D01*
X146585286Y-99574862D01*
X146532856Y-99608600D01*
X145566511Y-99608600D01*
X145520680Y-99577285D01*
X145430000Y-99558922D01*
X145313400Y-99558922D01*
X145313400Y-99156078D01*
X145473800Y-99156078D01*
X145558514Y-99140138D01*
X145636318Y-99090072D01*
X145688515Y-99013680D01*
X145706878Y-98923000D01*
X145706878Y-98288400D01*
X150373922Y-98288400D01*
X150373922Y-98988400D01*
X150389862Y-99073114D01*
X150439928Y-99150918D01*
X150516320Y-99203115D01*
X150607000Y-99221478D01*
X151907000Y-99221478D01*
X151991714Y-99205538D01*
X152044144Y-99171800D01*
X153336473Y-99171800D01*
X153403423Y-99199600D01*
X153630780Y-99199799D01*
X153840906Y-99112976D01*
X154001811Y-98952351D01*
X154089000Y-98742377D01*
X154089199Y-98515020D01*
X154002376Y-98304894D01*
X153841751Y-98143989D01*
X153631777Y-98056800D01*
X153404420Y-98056601D01*
X153287286Y-98105000D01*
X152043511Y-98105000D01*
X151997680Y-98073685D01*
X151907000Y-98055322D01*
X150607000Y-98055322D01*
X150522286Y-98071262D01*
X150444482Y-98121328D01*
X150392285Y-98197720D01*
X150373922Y-98288400D01*
X145706878Y-98288400D01*
X145706878Y-98103737D01*
X146076608Y-97734007D01*
X146159198Y-97610402D01*
X146188201Y-97464600D01*
X146159198Y-97318797D01*
X146112000Y-97248160D01*
X146112000Y-96469530D01*
X146124645Y-96450605D01*
X146150800Y-96319115D01*
X146150800Y-95724485D01*
X146124645Y-95592995D01*
X146050162Y-95481523D01*
X145938690Y-95407040D01*
X145807200Y-95380885D01*
X145675710Y-95407040D01*
X145564238Y-95481523D01*
X145557200Y-95492056D01*
X145550162Y-95481523D01*
X145438690Y-95407040D01*
X145307200Y-95380885D01*
X145175710Y-95407040D01*
X145064238Y-95481523D01*
X145057200Y-95492056D01*
X145050162Y-95481523D01*
X144938690Y-95407040D01*
X144807200Y-95380885D01*
X144675710Y-95407040D01*
X144564238Y-95481523D01*
X144489755Y-95592995D01*
X144463600Y-95724485D01*
X144463600Y-95934348D01*
X144233548Y-96164400D01*
X143967200Y-96164400D01*
X143850558Y-96187602D01*
X143751674Y-96253674D01*
X140576674Y-99428674D01*
X140510602Y-99527558D01*
X140487400Y-99644200D01*
X140487400Y-100787200D01*
X140510602Y-100903842D01*
X140576674Y-101002726D01*
X141033876Y-101459928D01*
X141106719Y-101508600D01*
X140209655Y-101508600D01*
X140093577Y-101460400D01*
X139866220Y-101460201D01*
X139656094Y-101547024D01*
X139495189Y-101707649D01*
X139408000Y-101917623D01*
X139407801Y-102144980D01*
X135152600Y-102144980D01*
X135152600Y-94886438D01*
X144321668Y-94869528D01*
X144351302Y-94863470D01*
X144376246Y-94846359D01*
X144392567Y-94820892D01*
X144397726Y-94793621D01*
X144399979Y-94208600D01*
X145516600Y-94208600D01*
X145546246Y-94202597D01*
X145571221Y-94185532D01*
X145584031Y-94167890D01*
X145711031Y-93926590D01*
X145719800Y-93891100D01*
X145719800Y-93065600D01*
X145873266Y-93065600D01*
X145884908Y-93892173D01*
X145884908Y-93892173D01*
G37*
X145884908Y-93892173D02*
X145892235Y-93923720D01*
X146006535Y-94165020D01*
X146024652Y-94189242D01*
X146050765Y-94204508D01*
X146075400Y-94208600D01*
X147035517Y-94208600D01*
X147164294Y-94338456D01*
X147189432Y-94355279D01*
X147218400Y-94361000D01*
X151848342Y-94361000D01*
X151815715Y-94408750D01*
X151797352Y-94499430D01*
X151797352Y-96000570D01*
X151813292Y-96085284D01*
X151858361Y-96155322D01*
X150607000Y-96155322D01*
X150522286Y-96171262D01*
X150469856Y-96205000D01*
X149694937Y-96205000D01*
X149686280Y-96199085D01*
X149595600Y-96180722D01*
X148295600Y-96180722D01*
X148210886Y-96196662D01*
X148210807Y-96196713D01*
X147784447Y-95770353D01*
X147669083Y-95693268D01*
X147533000Y-95666200D01*
X147139206Y-95666200D01*
X147124645Y-95592995D01*
X147050162Y-95481523D01*
X146938690Y-95407040D01*
X146807200Y-95380885D01*
X146675710Y-95407040D01*
X146564238Y-95481523D01*
X146489755Y-95592995D01*
X146463600Y-95724485D01*
X146463600Y-95961471D01*
X146451600Y-96021800D01*
X146463600Y-96082129D01*
X146463600Y-96319115D01*
X146489755Y-96450605D01*
X146564238Y-96562077D01*
X146675710Y-96636560D01*
X146807200Y-96662715D01*
X146938690Y-96636560D01*
X147050162Y-96562077D01*
X147124645Y-96450605D01*
X147139206Y-96377400D01*
X147385706Y-96377400D01*
X148023553Y-97015247D01*
X148062522Y-97041285D01*
X148062522Y-97113800D01*
X148078462Y-97198514D01*
X148128528Y-97276318D01*
X148204920Y-97328515D01*
X148295600Y-97346878D01*
X149595600Y-97346878D01*
X149680314Y-97330938D01*
X149758118Y-97280872D01*
X149764317Y-97271800D01*
X150470489Y-97271800D01*
X150516320Y-97303115D01*
X150607000Y-97321478D01*
X151907000Y-97321478D01*
X151991714Y-97305538D01*
X152044144Y-97271800D01*
X152435600Y-97271800D01*
X152639723Y-97231197D01*
X152812771Y-97115571D01*
X153158168Y-96770173D01*
X153158171Y-96770171D01*
X153246378Y-96638159D01*
X153273797Y-96597124D01*
X153314400Y-96393000D01*
X153314400Y-96233648D01*
X153531570Y-96233648D01*
X153616284Y-96217708D01*
X153694088Y-96167642D01*
X153746285Y-96091250D01*
X153764648Y-96000570D01*
X153764648Y-94499430D01*
X153748708Y-94414716D01*
X153714142Y-94361000D01*
X158471400Y-94361000D01*
X158471400Y-105221400D01*
X135152600Y-105221400D01*
X135152600Y-102144980D01*
X139407801Y-102144980D01*
X139494624Y-102355106D01*
X139655249Y-102516011D01*
X139865223Y-102603200D01*
X140092580Y-102603399D01*
X140160342Y-102575400D01*
X141834489Y-102575400D01*
X141880320Y-102606715D01*
X141971000Y-102625078D01*
X143271000Y-102625078D01*
X143355714Y-102609138D01*
X143433518Y-102559072D01*
X143485715Y-102482680D01*
X143504078Y-102392000D01*
X143504078Y-101692000D01*
X143488138Y-101607286D01*
X143450762Y-101549202D01*
X143950896Y-101549202D01*
X143915285Y-101601320D01*
X143896922Y-101692000D01*
X143896922Y-102392000D01*
X143912862Y-102476714D01*
X143962928Y-102554518D01*
X144039320Y-102606715D01*
X144130000Y-102625078D01*
X145430000Y-102625078D01*
X145514714Y-102609138D01*
X145592518Y-102559072D01*
X145644715Y-102482680D01*
X145663078Y-102392000D01*
X145663078Y-101692000D01*
X145647138Y-101607286D01*
X145597072Y-101529482D01*
X145520680Y-101477285D01*
X145430000Y-101458922D01*
X145082000Y-101458922D01*
X145061598Y-101356358D01*
X144995526Y-101257474D01*
X144880852Y-101142800D01*
X146685748Y-101142800D01*
X147001870Y-101458922D01*
X146670000Y-101458922D01*
X146585286Y-101474862D01*
X146507482Y-101524928D01*
X146455285Y-101601320D01*
X146436922Y-101692000D01*
X146436922Y-102392000D01*
X146452862Y-102476714D01*
X146502928Y-102554518D01*
X146579320Y-102606715D01*
X146670000Y-102625078D01*
X147970000Y-102625078D01*
X148054714Y-102609138D01*
X148132518Y-102559072D01*
X148184715Y-102482680D01*
X148203078Y-102392000D01*
X148203078Y-101692000D01*
X148187138Y-101607286D01*
X148137072Y-101529482D01*
X148060680Y-101477285D01*
X147970000Y-101458922D01*
X147624800Y-101458922D01*
X147624800Y-101346000D01*
X147601598Y-101229358D01*
X147535526Y-101130474D01*
X147130130Y-100725078D01*
X147970000Y-100725078D01*
X148054714Y-100709138D01*
X148132518Y-100659072D01*
X148184715Y-100582680D01*
X148203078Y-100492000D01*
X148203078Y-99792000D01*
X148187138Y-99707286D01*
X148137072Y-99629482D01*
X148060680Y-99577285D01*
X147970000Y-99558922D01*
X146670000Y-99558922D01*
X146585286Y-99574862D01*
X146532856Y-99608600D01*
X145566511Y-99608600D01*
X145520680Y-99577285D01*
X145430000Y-99558922D01*
X145313400Y-99558922D01*
X145313400Y-99156078D01*
X145473800Y-99156078D01*
X145558514Y-99140138D01*
X145636318Y-99090072D01*
X145688515Y-99013680D01*
X145706878Y-98923000D01*
X145706878Y-98288400D01*
X150373922Y-98288400D01*
X150373922Y-98988400D01*
X150389862Y-99073114D01*
X150439928Y-99150918D01*
X150516320Y-99203115D01*
X150607000Y-99221478D01*
X151907000Y-99221478D01*
X151991714Y-99205538D01*
X152044144Y-99171800D01*
X153336473Y-99171800D01*
X153403423Y-99199600D01*
X153630780Y-99199799D01*
X153840906Y-99112976D01*
X154001811Y-98952351D01*
X154089000Y-98742377D01*
X154089199Y-98515020D01*
X154002376Y-98304894D01*
X153841751Y-98143989D01*
X153631777Y-98056800D01*
X153404420Y-98056601D01*
X153287286Y-98105000D01*
X152043511Y-98105000D01*
X151997680Y-98073685D01*
X151907000Y-98055322D01*
X150607000Y-98055322D01*
X150522286Y-98071262D01*
X150444482Y-98121328D01*
X150392285Y-98197720D01*
X150373922Y-98288400D01*
X145706878Y-98288400D01*
X145706878Y-98103737D01*
X146076608Y-97734007D01*
X146159198Y-97610402D01*
X146188201Y-97464600D01*
X146159198Y-97318797D01*
X146112000Y-97248160D01*
X146112000Y-96469530D01*
X146124645Y-96450605D01*
X146150800Y-96319115D01*
X146150800Y-95724485D01*
X146124645Y-95592995D01*
X146050162Y-95481523D01*
X145938690Y-95407040D01*
X145807200Y-95380885D01*
X145675710Y-95407040D01*
X145564238Y-95481523D01*
X145557200Y-95492056D01*
X145550162Y-95481523D01*
X145438690Y-95407040D01*
X145307200Y-95380885D01*
X145175710Y-95407040D01*
X145064238Y-95481523D01*
X145057200Y-95492056D01*
X145050162Y-95481523D01*
X144938690Y-95407040D01*
X144807200Y-95380885D01*
X144675710Y-95407040D01*
X144564238Y-95481523D01*
X144489755Y-95592995D01*
X144463600Y-95724485D01*
X144463600Y-95934348D01*
X144233548Y-96164400D01*
X143967200Y-96164400D01*
X143850558Y-96187602D01*
X143751674Y-96253674D01*
X140576674Y-99428674D01*
X140510602Y-99527558D01*
X140487400Y-99644200D01*
X140487400Y-100787200D01*
X140510602Y-100903842D01*
X140576674Y-101002726D01*
X141033876Y-101459928D01*
X141106719Y-101508600D01*
X140209655Y-101508600D01*
X140093577Y-101460400D01*
X139866220Y-101460201D01*
X139656094Y-101547024D01*
X139495189Y-101707649D01*
X139408000Y-101917623D01*
X139407801Y-102144980D01*
X135152600Y-102144980D01*
X135152600Y-94886438D01*
X144321668Y-94869528D01*
X144351302Y-94863470D01*
X144376246Y-94846359D01*
X144392567Y-94820892D01*
X144397726Y-94793621D01*
X144399979Y-94208600D01*
X145516600Y-94208600D01*
X145546246Y-94202597D01*
X145571221Y-94185532D01*
X145584031Y-94167890D01*
X145711031Y-93926590D01*
X145719800Y-93891100D01*
X145719800Y-93065600D01*
X145873266Y-93065600D01*
X145884908Y-93892173D01*
G36*
X145502400Y-97230585D02*
X145293063Y-97439922D01*
X144473800Y-97439922D01*
X144389086Y-97455862D01*
X144311282Y-97505928D01*
X144259085Y-97582320D01*
X144240722Y-97673000D01*
X144240722Y-98923000D01*
X144246600Y-98954239D01*
X144246600Y-99558922D01*
X144130000Y-99558922D01*
X144045286Y-99574862D01*
X143992856Y-99608600D01*
X143407511Y-99608600D01*
X143361680Y-99577285D01*
X143271000Y-99558922D01*
X141971000Y-99558922D01*
X141905876Y-99571176D01*
X144144252Y-97332800D01*
X145034000Y-97332800D01*
X145150642Y-97309598D01*
X145249526Y-97243526D01*
X145502400Y-96990652D01*
X145502400Y-97230585D01*
X145502400Y-97230585D01*
G37*
X145502400Y-97230585D02*
X145293063Y-97439922D01*
X144473800Y-97439922D01*
X144389086Y-97455862D01*
X144311282Y-97505928D01*
X144259085Y-97582320D01*
X144240722Y-97673000D01*
X144240722Y-98923000D01*
X144246600Y-98954239D01*
X144246600Y-99558922D01*
X144130000Y-99558922D01*
X144045286Y-99574862D01*
X143992856Y-99608600D01*
X143407511Y-99608600D01*
X143361680Y-99577285D01*
X143271000Y-99558922D01*
X141971000Y-99558922D01*
X141905876Y-99571176D01*
X144144252Y-97332800D01*
X145034000Y-97332800D01*
X145150642Y-97309598D01*
X145249526Y-97243526D01*
X145502400Y-96990652D01*
X145502400Y-97230585D01*
G36*
X158471400Y-94005400D02*
X147499489Y-94005400D01*
X147317632Y-93857399D01*
X147290848Y-93843342D01*
X147269533Y-93840300D01*
X146636640Y-93840300D01*
X146650800Y-93769115D01*
X146650800Y-93532129D01*
X146662800Y-93471800D01*
X146662800Y-93154669D01*
X146666790Y-93134610D01*
X146666790Y-93014104D01*
X147147447Y-92533447D01*
X147224531Y-92418083D01*
X147224532Y-92418082D01*
X147251600Y-92282000D01*
X147251600Y-91372078D01*
X147396000Y-91372078D01*
X147480714Y-91356138D01*
X147558518Y-91306072D01*
X147610715Y-91229680D01*
X147614417Y-91211400D01*
X148336000Y-91211400D01*
X148540123Y-91170797D01*
X148713171Y-91055171D01*
X149043371Y-90724971D01*
X149158997Y-90551924D01*
X149199600Y-90347800D01*
X149199600Y-90137648D01*
X149848570Y-90137648D01*
X149933284Y-90121708D01*
X150011088Y-90071642D01*
X150063285Y-89995250D01*
X150081648Y-89904570D01*
X150081648Y-88403430D01*
X150065708Y-88318716D01*
X150015642Y-88240912D01*
X149939250Y-88188715D01*
X149848570Y-88170352D01*
X148347430Y-88170352D01*
X148262716Y-88186292D01*
X148184912Y-88236358D01*
X148132715Y-88312750D01*
X148114352Y-88403430D01*
X148114352Y-89904570D01*
X148130292Y-89989284D01*
X148132800Y-89993182D01*
X148132800Y-90126858D01*
X148115058Y-90144600D01*
X147629078Y-90144600D01*
X147629078Y-88439000D01*
X147613138Y-88354286D01*
X147563072Y-88276482D01*
X147486680Y-88224285D01*
X147396000Y-88205922D01*
X146634200Y-88205922D01*
X146634200Y-87146600D01*
X158471400Y-87146600D01*
X158471400Y-94005400D01*
X158471400Y-94005400D01*
G37*
X158471400Y-94005400D02*
X147499489Y-94005400D01*
X147317632Y-93857399D01*
X147290848Y-93843342D01*
X147269533Y-93840300D01*
X146636640Y-93840300D01*
X146650800Y-93769115D01*
X146650800Y-93532129D01*
X146662800Y-93471800D01*
X146662800Y-93154669D01*
X146666790Y-93134610D01*
X146666790Y-93014104D01*
X147147447Y-92533447D01*
X147224531Y-92418083D01*
X147224532Y-92418082D01*
X147251600Y-92282000D01*
X147251600Y-91372078D01*
X147396000Y-91372078D01*
X147480714Y-91356138D01*
X147558518Y-91306072D01*
X147610715Y-91229680D01*
X147614417Y-91211400D01*
X148336000Y-91211400D01*
X148540123Y-91170797D01*
X148713171Y-91055171D01*
X149043371Y-90724971D01*
X149158997Y-90551924D01*
X149199600Y-90347800D01*
X149199600Y-90137648D01*
X149848570Y-90137648D01*
X149933284Y-90121708D01*
X150011088Y-90071642D01*
X150063285Y-89995250D01*
X150081648Y-89904570D01*
X150081648Y-88403430D01*
X150065708Y-88318716D01*
X150015642Y-88240912D01*
X149939250Y-88188715D01*
X149848570Y-88170352D01*
X148347430Y-88170352D01*
X148262716Y-88186292D01*
X148184912Y-88236358D01*
X148132715Y-88312750D01*
X148114352Y-88403430D01*
X148114352Y-89904570D01*
X148130292Y-89989284D01*
X148132800Y-89993182D01*
X148132800Y-90126858D01*
X148115058Y-90144600D01*
X147629078Y-90144600D01*
X147629078Y-88439000D01*
X147613138Y-88354286D01*
X147563072Y-88276482D01*
X147486680Y-88224285D01*
X147396000Y-88205922D01*
X146634200Y-88205922D01*
X146634200Y-87146600D01*
X158471400Y-87146600D01*
X158471400Y-94005400D01*
M02*
