G04 #@! TF.FileFunction,Copper,L2,Bot,Signal*
%FSLAX46Y46*%
G04 Gerber Fmt 4.6, Leading zero omitted, Abs format (unit mm)*
G04 Created by KiCad (PCBNEW 0.201508140901+6091~28~ubuntu14.04.1-product) date Thu 22 Oct 2015 10:51:19 PM CEST*
%MOMM*%
G01*
G04 APERTURE LIST*
%ADD10C,0.127000*%
%ADD11C,0.600000*%
%ADD12R,2.032000X2.032000*%
%ADD13O,2.032000X2.032000*%
%ADD14R,2.235200X2.235200*%
%ADD15R,2.000000X1.200000*%
%ADD16C,0.500000*%
%ADD17C,0.685800*%
%ADD18C,0.609600*%
%ADD19C,0.254000*%
G04 APERTURE END LIST*
D10*
D11*
X141351000Y-97790000D03*
X143510000Y-98806000D03*
X138938000Y-103251000D03*
X147574000Y-104394000D03*
X146685000Y-103378000D03*
X145669000Y-104394000D03*
X144780000Y-103378000D03*
X143637000Y-104394000D03*
X142748000Y-103378000D03*
X141732000Y-104394000D03*
X140843000Y-103378000D03*
X139700000Y-104394000D03*
X137414000Y-103251000D03*
X136652000Y-104521000D03*
X135763000Y-103505000D03*
X138303000Y-101854000D03*
X138176000Y-104648000D03*
X149100000Y-100100000D03*
X157100000Y-104100000D03*
X155100000Y-104100000D03*
X153100000Y-104100000D03*
X151100000Y-104100000D03*
X150114000Y-103251000D03*
X149100000Y-104100000D03*
X157100000Y-102100000D03*
X156083000Y-103124000D03*
X155100000Y-102100000D03*
X154178000Y-102997000D03*
X153100000Y-102100000D03*
X152146000Y-102997000D03*
X151100000Y-102100000D03*
X150114000Y-101092000D03*
X149100000Y-102100000D03*
X154178000Y-101092000D03*
X153100000Y-100100000D03*
X152146000Y-101219000D03*
X151100000Y-100100000D03*
D12*
X136779000Y-93345000D03*
D13*
X136779000Y-95885000D03*
D12*
X156845000Y-92964000D03*
D13*
X156845000Y-95504000D03*
D14*
X136779000Y-99568000D03*
X156845000Y-99314000D03*
X136779000Y-89662000D03*
X156718000Y-89281000D03*
D11*
X136652000Y-101790500D03*
X143764000Y-95758000D03*
D15*
X145807200Y-94746800D03*
D16*
X146507200Y-95046800D03*
X145807200Y-94746800D03*
X145107200Y-95046800D03*
X145107200Y-94446800D03*
X146507200Y-94446800D03*
D17*
X139979400Y-102031800D03*
X153517600Y-98628200D03*
D18*
X138455400Y-89662000D02*
X136779000Y-89662000D01*
X139979400Y-91186000D02*
X138455400Y-89662000D01*
X139979400Y-102031800D02*
X139979400Y-91186000D01*
X154406600Y-92964000D02*
X156845000Y-92964000D01*
X153543000Y-93827600D02*
X154406600Y-92964000D01*
X153543000Y-98602800D02*
X153543000Y-93827600D01*
X153517600Y-98628200D02*
X153543000Y-98602800D01*
D19*
G36*
X158420600Y-105170600D02*
X135203400Y-105170600D01*
X135203400Y-92329000D01*
X135478127Y-92329000D01*
X135478127Y-94361000D01*
X135497609Y-94464539D01*
X135558801Y-94559634D01*
X135652168Y-94623429D01*
X135763000Y-94645873D01*
X137795000Y-94645873D01*
X137898539Y-94626391D01*
X137993634Y-94565199D01*
X138057429Y-94471832D01*
X138079873Y-94361000D01*
X138079873Y-92329000D01*
X138060391Y-92225461D01*
X137999199Y-92130366D01*
X137905832Y-92066571D01*
X137795000Y-92044127D01*
X135763000Y-92044127D01*
X135659461Y-92063609D01*
X135564366Y-92124801D01*
X135500571Y-92218168D01*
X135478127Y-92329000D01*
X135203400Y-92329000D01*
X135203400Y-88544400D01*
X135376527Y-88544400D01*
X135376527Y-90779600D01*
X135396009Y-90883139D01*
X135457201Y-90978234D01*
X135550568Y-91042029D01*
X135661400Y-91064473D01*
X137896600Y-91064473D01*
X138000139Y-91044991D01*
X138095234Y-90983799D01*
X138159029Y-90890432D01*
X138181473Y-90779600D01*
X138181473Y-90246200D01*
X138213416Y-90246200D01*
X139395200Y-91427983D01*
X139395200Y-101815979D01*
X139357208Y-101907474D01*
X139356992Y-102155040D01*
X139451532Y-102383844D01*
X139626435Y-102559053D01*
X139855074Y-102653992D01*
X140102640Y-102654208D01*
X140331444Y-102559668D01*
X140506653Y-102384765D01*
X140601592Y-102156126D01*
X140601808Y-101908560D01*
X140563600Y-101816090D01*
X140563600Y-98751440D01*
X152895192Y-98751440D01*
X152989732Y-98980244D01*
X153164635Y-99155453D01*
X153393274Y-99250392D01*
X153640840Y-99250608D01*
X153869644Y-99156068D01*
X154044853Y-98981165D01*
X154139792Y-98752526D01*
X154140008Y-98504960D01*
X154127200Y-98473962D01*
X154127200Y-94069584D01*
X154648584Y-93548200D01*
X155544127Y-93548200D01*
X155544127Y-93980000D01*
X155563609Y-94083539D01*
X155624801Y-94178634D01*
X155718168Y-94242429D01*
X155829000Y-94264873D01*
X157861000Y-94264873D01*
X157964539Y-94245391D01*
X158059634Y-94184199D01*
X158123429Y-94090832D01*
X158145873Y-93980000D01*
X158145873Y-91948000D01*
X158126391Y-91844461D01*
X158065199Y-91749366D01*
X157971832Y-91685571D01*
X157861000Y-91663127D01*
X155829000Y-91663127D01*
X155725461Y-91682609D01*
X155630366Y-91743801D01*
X155566571Y-91837168D01*
X155544127Y-91948000D01*
X155544127Y-92379800D01*
X154406600Y-92379800D01*
X154183036Y-92424270D01*
X153993508Y-92550908D01*
X153129908Y-93414508D01*
X153003270Y-93604036D01*
X152958800Y-93827600D01*
X152958800Y-98351209D01*
X152895408Y-98503874D01*
X152895192Y-98751440D01*
X140563600Y-98751440D01*
X140563600Y-91186000D01*
X140519130Y-90962436D01*
X140392492Y-90772908D01*
X140392489Y-90772906D01*
X138868492Y-89248908D01*
X138678964Y-89122270D01*
X138455400Y-89077800D01*
X138181473Y-89077800D01*
X138181473Y-88544400D01*
X138161991Y-88440861D01*
X138100799Y-88345766D01*
X138007432Y-88281971D01*
X137896600Y-88259527D01*
X135661400Y-88259527D01*
X135557861Y-88279009D01*
X135462766Y-88340201D01*
X135398971Y-88433568D01*
X135376527Y-88544400D01*
X135203400Y-88544400D01*
X135203400Y-88163400D01*
X155315527Y-88163400D01*
X155315527Y-90398600D01*
X155335009Y-90502139D01*
X155396201Y-90597234D01*
X155489568Y-90661029D01*
X155600400Y-90683473D01*
X157835600Y-90683473D01*
X157939139Y-90663991D01*
X158034234Y-90602799D01*
X158098029Y-90509432D01*
X158120473Y-90398600D01*
X158120473Y-88163400D01*
X158100991Y-88059861D01*
X158039799Y-87964766D01*
X157946432Y-87900971D01*
X157835600Y-87878527D01*
X155600400Y-87878527D01*
X155496861Y-87898009D01*
X155401766Y-87959201D01*
X155337971Y-88052568D01*
X155315527Y-88163400D01*
X135203400Y-88163400D01*
X135203400Y-87197400D01*
X158420600Y-87197400D01*
X158420600Y-105170600D01*
X158420600Y-105170600D01*
G37*
X158420600Y-105170600D02*
X135203400Y-105170600D01*
X135203400Y-92329000D01*
X135478127Y-92329000D01*
X135478127Y-94361000D01*
X135497609Y-94464539D01*
X135558801Y-94559634D01*
X135652168Y-94623429D01*
X135763000Y-94645873D01*
X137795000Y-94645873D01*
X137898539Y-94626391D01*
X137993634Y-94565199D01*
X138057429Y-94471832D01*
X138079873Y-94361000D01*
X138079873Y-92329000D01*
X138060391Y-92225461D01*
X137999199Y-92130366D01*
X137905832Y-92066571D01*
X137795000Y-92044127D01*
X135763000Y-92044127D01*
X135659461Y-92063609D01*
X135564366Y-92124801D01*
X135500571Y-92218168D01*
X135478127Y-92329000D01*
X135203400Y-92329000D01*
X135203400Y-88544400D01*
X135376527Y-88544400D01*
X135376527Y-90779600D01*
X135396009Y-90883139D01*
X135457201Y-90978234D01*
X135550568Y-91042029D01*
X135661400Y-91064473D01*
X137896600Y-91064473D01*
X138000139Y-91044991D01*
X138095234Y-90983799D01*
X138159029Y-90890432D01*
X138181473Y-90779600D01*
X138181473Y-90246200D01*
X138213416Y-90246200D01*
X139395200Y-91427983D01*
X139395200Y-101815979D01*
X139357208Y-101907474D01*
X139356992Y-102155040D01*
X139451532Y-102383844D01*
X139626435Y-102559053D01*
X139855074Y-102653992D01*
X140102640Y-102654208D01*
X140331444Y-102559668D01*
X140506653Y-102384765D01*
X140601592Y-102156126D01*
X140601808Y-101908560D01*
X140563600Y-101816090D01*
X140563600Y-98751440D01*
X152895192Y-98751440D01*
X152989732Y-98980244D01*
X153164635Y-99155453D01*
X153393274Y-99250392D01*
X153640840Y-99250608D01*
X153869644Y-99156068D01*
X154044853Y-98981165D01*
X154139792Y-98752526D01*
X154140008Y-98504960D01*
X154127200Y-98473962D01*
X154127200Y-94069584D01*
X154648584Y-93548200D01*
X155544127Y-93548200D01*
X155544127Y-93980000D01*
X155563609Y-94083539D01*
X155624801Y-94178634D01*
X155718168Y-94242429D01*
X155829000Y-94264873D01*
X157861000Y-94264873D01*
X157964539Y-94245391D01*
X158059634Y-94184199D01*
X158123429Y-94090832D01*
X158145873Y-93980000D01*
X158145873Y-91948000D01*
X158126391Y-91844461D01*
X158065199Y-91749366D01*
X157971832Y-91685571D01*
X157861000Y-91663127D01*
X155829000Y-91663127D01*
X155725461Y-91682609D01*
X155630366Y-91743801D01*
X155566571Y-91837168D01*
X155544127Y-91948000D01*
X155544127Y-92379800D01*
X154406600Y-92379800D01*
X154183036Y-92424270D01*
X153993508Y-92550908D01*
X153129908Y-93414508D01*
X153003270Y-93604036D01*
X152958800Y-93827600D01*
X152958800Y-98351209D01*
X152895408Y-98503874D01*
X152895192Y-98751440D01*
X140563600Y-98751440D01*
X140563600Y-91186000D01*
X140519130Y-90962436D01*
X140392492Y-90772908D01*
X140392489Y-90772906D01*
X138868492Y-89248908D01*
X138678964Y-89122270D01*
X138455400Y-89077800D01*
X138181473Y-89077800D01*
X138181473Y-88544400D01*
X138161991Y-88440861D01*
X138100799Y-88345766D01*
X138007432Y-88281971D01*
X137896600Y-88259527D01*
X135661400Y-88259527D01*
X135557861Y-88279009D01*
X135462766Y-88340201D01*
X135398971Y-88433568D01*
X135376527Y-88544400D01*
X135203400Y-88544400D01*
X135203400Y-88163400D01*
X155315527Y-88163400D01*
X155315527Y-90398600D01*
X155335009Y-90502139D01*
X155396201Y-90597234D01*
X155489568Y-90661029D01*
X155600400Y-90683473D01*
X157835600Y-90683473D01*
X157939139Y-90663991D01*
X158034234Y-90602799D01*
X158098029Y-90509432D01*
X158120473Y-90398600D01*
X158120473Y-88163400D01*
X158100991Y-88059861D01*
X158039799Y-87964766D01*
X157946432Y-87900971D01*
X157835600Y-87878527D01*
X155600400Y-87878527D01*
X155496861Y-87898009D01*
X155401766Y-87959201D01*
X155337971Y-88052568D01*
X155315527Y-88163400D01*
X135203400Y-88163400D01*
X135203400Y-87197400D01*
X158420600Y-87197400D01*
X158420600Y-105170600D01*
M02*
