G04 #@! TF.FileFunction,Legend,Top*
%FSLAX46Y46*%
G04 Gerber Fmt 4.6, Leading zero omitted, Abs format (unit mm)*
G04 Created by KiCad (PCBNEW no-vcs-found-product) date Fri 28 Aug 2015 16:29:41 CEST*
%MOMM*%
G01*
G04 APERTURE LIST*
%ADD10C,0.127000*%
%ADD11C,0.150000*%
%ADD12C,0.101600*%
G04 APERTURE END LIST*
D10*
D11*
X144507200Y-96046800D02*
X144507200Y-93446800D01*
X144507200Y-93446800D02*
X147107200Y-93446800D01*
X147107200Y-93446800D02*
X147107200Y-96046800D01*
X147107200Y-96046800D02*
X144507200Y-96046800D01*
X147707200Y-93246800D02*
G75*
G03X147707200Y-93246800I-200000J0D01*
G01*
X143445600Y-95089600D02*
X143445600Y-94089600D01*
X141745600Y-94089600D02*
X141745600Y-95089600D01*
X150877800Y-94649800D02*
X150877800Y-92649800D01*
X147927800Y-92649800D02*
X147927800Y-94649800D01*
X146473800Y-97448000D02*
X145473800Y-97448000D01*
X145473800Y-99148000D02*
X146473800Y-99148000D01*
X138049000Y-94615000D02*
X138049000Y-97155000D01*
X138329000Y-91795000D02*
X138329000Y-93345000D01*
X138049000Y-94615000D02*
X135509000Y-94615000D01*
X135229000Y-93345000D02*
X135229000Y-91795000D01*
X135229000Y-91795000D02*
X138329000Y-91795000D01*
X135509000Y-94615000D02*
X135509000Y-97155000D01*
X135509000Y-97155000D02*
X138049000Y-97155000D01*
X158115000Y-94234000D02*
X158115000Y-96774000D01*
X158395000Y-91414000D02*
X158395000Y-92964000D01*
X158115000Y-94234000D02*
X155575000Y-94234000D01*
X155295000Y-92964000D02*
X155295000Y-91414000D01*
X155295000Y-91414000D02*
X158395000Y-91414000D01*
X155575000Y-94234000D02*
X155575000Y-96774000D01*
X155575000Y-96774000D02*
X158115000Y-96774000D01*
X138329000Y-98018000D02*
X138329000Y-99568000D01*
X135229000Y-99568000D02*
X135229000Y-98018000D01*
X135229000Y-98018000D02*
X138329000Y-98018000D01*
X135509000Y-100838000D02*
X138049000Y-100838000D01*
X158395000Y-97764000D02*
X158395000Y-99314000D01*
X155295000Y-99314000D02*
X155295000Y-97764000D01*
X155295000Y-97764000D02*
X158395000Y-97764000D01*
X155575000Y-100584000D02*
X158115000Y-100584000D01*
X138329000Y-88112000D02*
X138329000Y-89662000D01*
X135229000Y-89662000D02*
X135229000Y-88112000D01*
X135229000Y-88112000D02*
X138329000Y-88112000D01*
X135509000Y-90932000D02*
X138049000Y-90932000D01*
X158268000Y-87731000D02*
X158268000Y-89281000D01*
X155168000Y-89281000D02*
X155168000Y-87731000D01*
X155168000Y-87731000D02*
X158268000Y-87731000D01*
X155448000Y-90551000D02*
X157988000Y-90551000D01*
X152132000Y-97088400D02*
X152132000Y-98288400D01*
X150382000Y-98288400D02*
X150382000Y-97088400D01*
X148070600Y-98313800D02*
X148070600Y-97113800D01*
X149820600Y-97113800D02*
X149820600Y-98313800D01*
X141746000Y-101692000D02*
X141746000Y-100492000D01*
X143496000Y-100492000D02*
X143496000Y-101692000D01*
X145655000Y-100492000D02*
X145655000Y-101692000D01*
X143905000Y-101692000D02*
X143905000Y-100492000D01*
X148195000Y-100492000D02*
X148195000Y-101692000D01*
X146445000Y-101692000D02*
X146445000Y-100492000D01*
D12*
X145226629Y-91529514D02*
X145226629Y-92146371D01*
X145262914Y-92218943D01*
X145299200Y-92255229D01*
X145371771Y-92291514D01*
X145516914Y-92291514D01*
X145589486Y-92255229D01*
X145625771Y-92218943D01*
X145662057Y-92146371D01*
X145662057Y-91529514D01*
X146424057Y-92291514D02*
X145988629Y-92291514D01*
X146206343Y-92291514D02*
X146206343Y-91529514D01*
X146133772Y-91638371D01*
X146061200Y-91710943D01*
X145988629Y-91747229D01*
X142494000Y-92550343D02*
X142457714Y-92586629D01*
X142348857Y-92622914D01*
X142276286Y-92622914D01*
X142167429Y-92586629D01*
X142094857Y-92514057D01*
X142058572Y-92441486D01*
X142022286Y-92296343D01*
X142022286Y-92187486D01*
X142058572Y-92042343D01*
X142094857Y-91969771D01*
X142167429Y-91897200D01*
X142276286Y-91860914D01*
X142348857Y-91860914D01*
X142457714Y-91897200D01*
X142494000Y-91933486D01*
X143219714Y-92622914D02*
X142784286Y-92622914D01*
X143002000Y-92622914D02*
X143002000Y-91860914D01*
X142929429Y-91969771D01*
X142856857Y-92042343D01*
X142784286Y-92078629D01*
X150266400Y-91026343D02*
X150230114Y-91062629D01*
X150121257Y-91098914D01*
X150048686Y-91098914D01*
X149939829Y-91062629D01*
X149867257Y-90990057D01*
X149830972Y-90917486D01*
X149794686Y-90772343D01*
X149794686Y-90663486D01*
X149830972Y-90518343D01*
X149867257Y-90445771D01*
X149939829Y-90373200D01*
X150048686Y-90336914D01*
X150121257Y-90336914D01*
X150230114Y-90373200D01*
X150266400Y-90409486D01*
X150556686Y-90409486D02*
X150592972Y-90373200D01*
X150665543Y-90336914D01*
X150846972Y-90336914D01*
X150919543Y-90373200D01*
X150955829Y-90409486D01*
X150992114Y-90482057D01*
X150992114Y-90554629D01*
X150955829Y-90663486D01*
X150520400Y-91098914D01*
X150992114Y-91098914D01*
X143129000Y-98646343D02*
X143092714Y-98682629D01*
X142983857Y-98718914D01*
X142911286Y-98718914D01*
X142802429Y-98682629D01*
X142729857Y-98610057D01*
X142693572Y-98537486D01*
X142657286Y-98392343D01*
X142657286Y-98283486D01*
X142693572Y-98138343D01*
X142729857Y-98065771D01*
X142802429Y-97993200D01*
X142911286Y-97956914D01*
X142983857Y-97956914D01*
X143092714Y-97993200D01*
X143129000Y-98029486D01*
X143782143Y-98210914D02*
X143782143Y-98718914D01*
X143600714Y-97920629D02*
X143419286Y-98464914D01*
X143891000Y-98464914D01*
X145694401Y-88838314D02*
X145331544Y-88838314D01*
X145331544Y-88076314D01*
X146347543Y-88838314D02*
X145912115Y-88838314D01*
X146129829Y-88838314D02*
X146129829Y-88076314D01*
X146057258Y-88185171D01*
X145984686Y-88257743D01*
X145912115Y-88294029D01*
X136216572Y-88589714D02*
X136216572Y-87827714D01*
X136506857Y-87827714D01*
X136579429Y-87864000D01*
X136615714Y-87900286D01*
X136652000Y-87972857D01*
X136652000Y-88081714D01*
X136615714Y-88154286D01*
X136579429Y-88190571D01*
X136506857Y-88226857D01*
X136216572Y-88226857D01*
X137377714Y-88589714D02*
X136942286Y-88589714D01*
X137160000Y-88589714D02*
X137160000Y-87827714D01*
X137087429Y-87936571D01*
X137014857Y-88009143D01*
X136942286Y-88045429D01*
X153742572Y-93384914D02*
X153742572Y-92622914D01*
X154032857Y-92622914D01*
X154105429Y-92659200D01*
X154141714Y-92695486D01*
X154178000Y-92768057D01*
X154178000Y-92876914D01*
X154141714Y-92949486D01*
X154105429Y-92985771D01*
X154032857Y-93022057D01*
X153742572Y-93022057D01*
X154468286Y-92695486D02*
X154504572Y-92659200D01*
X154577143Y-92622914D01*
X154758572Y-92622914D01*
X154831143Y-92659200D01*
X154867429Y-92695486D01*
X154903714Y-92768057D01*
X154903714Y-92840629D01*
X154867429Y-92949486D01*
X154432000Y-93384914D01*
X154903714Y-93384914D01*
X136216572Y-94812714D02*
X136216572Y-94050714D01*
X136506857Y-94050714D01*
X136579429Y-94087000D01*
X136615714Y-94123286D01*
X136652000Y-94195857D01*
X136652000Y-94304714D01*
X136615714Y-94377286D01*
X136579429Y-94413571D01*
X136506857Y-94449857D01*
X136216572Y-94449857D01*
X136906000Y-94050714D02*
X137377714Y-94050714D01*
X137123714Y-94341000D01*
X137232572Y-94341000D01*
X137305143Y-94377286D01*
X137341429Y-94413571D01*
X137377714Y-94486143D01*
X137377714Y-94667571D01*
X137341429Y-94740143D01*
X137305143Y-94776429D01*
X137232572Y-94812714D01*
X137014857Y-94812714D01*
X136942286Y-94776429D01*
X136906000Y-94740143D01*
X156333372Y-102122514D02*
X156333372Y-101360514D01*
X156623657Y-101360514D01*
X156696229Y-101396800D01*
X156732514Y-101433086D01*
X156768800Y-101505657D01*
X156768800Y-101614514D01*
X156732514Y-101687086D01*
X156696229Y-101723371D01*
X156623657Y-101759657D01*
X156333372Y-101759657D01*
X157421943Y-101614514D02*
X157421943Y-102122514D01*
X157240514Y-101324229D02*
X157059086Y-101868514D01*
X157530800Y-101868514D01*
X139112172Y-90032114D02*
X139112172Y-89270114D01*
X139402457Y-89270114D01*
X139475029Y-89306400D01*
X139511314Y-89342686D01*
X139547600Y-89415257D01*
X139547600Y-89524114D01*
X139511314Y-89596686D01*
X139475029Y-89632971D01*
X139402457Y-89669257D01*
X139112172Y-89669257D01*
X140237029Y-89270114D02*
X139874172Y-89270114D01*
X139837886Y-89632971D01*
X139874172Y-89596686D01*
X139946743Y-89560400D01*
X140128172Y-89560400D01*
X140200743Y-89596686D01*
X140237029Y-89632971D01*
X140273314Y-89705543D01*
X140273314Y-89886971D01*
X140237029Y-89959543D01*
X140200743Y-89995829D01*
X140128172Y-90032114D01*
X139946743Y-90032114D01*
X139874172Y-89995829D01*
X139837886Y-89959543D01*
X153564772Y-89701914D02*
X153564772Y-88939914D01*
X153855057Y-88939914D01*
X153927629Y-88976200D01*
X153963914Y-89012486D01*
X154000200Y-89085057D01*
X154000200Y-89193914D01*
X153963914Y-89266486D01*
X153927629Y-89302771D01*
X153855057Y-89339057D01*
X153564772Y-89339057D01*
X154435629Y-89266486D02*
X154363057Y-89230200D01*
X154326772Y-89193914D01*
X154290486Y-89121343D01*
X154290486Y-89085057D01*
X154326772Y-89012486D01*
X154363057Y-88976200D01*
X154435629Y-88939914D01*
X154580772Y-88939914D01*
X154653343Y-88976200D01*
X154689629Y-89012486D01*
X154725914Y-89085057D01*
X154725914Y-89121343D01*
X154689629Y-89193914D01*
X154653343Y-89230200D01*
X154580772Y-89266486D01*
X154435629Y-89266486D01*
X154363057Y-89302771D01*
X154326772Y-89339057D01*
X154290486Y-89411629D01*
X154290486Y-89556771D01*
X154326772Y-89629343D01*
X154363057Y-89665629D01*
X154435629Y-89701914D01*
X154580772Y-89701914D01*
X154653343Y-89665629D01*
X154689629Y-89629343D01*
X154725914Y-89556771D01*
X154725914Y-89411629D01*
X154689629Y-89339057D01*
X154653343Y-89302771D01*
X154580772Y-89266486D01*
X151257000Y-100268314D02*
X151003000Y-99905457D01*
X150821572Y-100268314D02*
X150821572Y-99506314D01*
X151111857Y-99506314D01*
X151184429Y-99542600D01*
X151220714Y-99578886D01*
X151257000Y-99651457D01*
X151257000Y-99760314D01*
X151220714Y-99832886D01*
X151184429Y-99869171D01*
X151111857Y-99905457D01*
X150821572Y-99905457D01*
X151982714Y-100268314D02*
X151547286Y-100268314D01*
X151765000Y-100268314D02*
X151765000Y-99506314D01*
X151692429Y-99615171D01*
X151619857Y-99687743D01*
X151547286Y-99724029D01*
X148894800Y-100293714D02*
X148640800Y-99930857D01*
X148459372Y-100293714D02*
X148459372Y-99531714D01*
X148749657Y-99531714D01*
X148822229Y-99568000D01*
X148858514Y-99604286D01*
X148894800Y-99676857D01*
X148894800Y-99785714D01*
X148858514Y-99858286D01*
X148822229Y-99894571D01*
X148749657Y-99930857D01*
X148459372Y-99930857D01*
X149185086Y-99604286D02*
X149221372Y-99568000D01*
X149293943Y-99531714D01*
X149475372Y-99531714D01*
X149547943Y-99568000D01*
X149584229Y-99604286D01*
X149620514Y-99676857D01*
X149620514Y-99749429D01*
X149584229Y-99858286D01*
X149148800Y-100293714D01*
X149620514Y-100293714D01*
X142621000Y-103595714D02*
X142367000Y-103232857D01*
X142185572Y-103595714D02*
X142185572Y-102833714D01*
X142475857Y-102833714D01*
X142548429Y-102870000D01*
X142584714Y-102906286D01*
X142621000Y-102978857D01*
X142621000Y-103087714D01*
X142584714Y-103160286D01*
X142548429Y-103196571D01*
X142475857Y-103232857D01*
X142185572Y-103232857D01*
X142875000Y-102833714D02*
X143346714Y-102833714D01*
X143092714Y-103124000D01*
X143201572Y-103124000D01*
X143274143Y-103160286D01*
X143310429Y-103196571D01*
X143346714Y-103269143D01*
X143346714Y-103450571D01*
X143310429Y-103523143D01*
X143274143Y-103559429D01*
X143201572Y-103595714D01*
X142983857Y-103595714D01*
X142911286Y-103559429D01*
X142875000Y-103523143D01*
X144780000Y-103595714D02*
X144526000Y-103232857D01*
X144344572Y-103595714D02*
X144344572Y-102833714D01*
X144634857Y-102833714D01*
X144707429Y-102870000D01*
X144743714Y-102906286D01*
X144780000Y-102978857D01*
X144780000Y-103087714D01*
X144743714Y-103160286D01*
X144707429Y-103196571D01*
X144634857Y-103232857D01*
X144344572Y-103232857D01*
X145433143Y-103087714D02*
X145433143Y-103595714D01*
X145251714Y-102797429D02*
X145070286Y-103341714D01*
X145542000Y-103341714D01*
X147066000Y-103595714D02*
X146812000Y-103232857D01*
X146630572Y-103595714D02*
X146630572Y-102833714D01*
X146920857Y-102833714D01*
X146993429Y-102870000D01*
X147029714Y-102906286D01*
X147066000Y-102978857D01*
X147066000Y-103087714D01*
X147029714Y-103160286D01*
X146993429Y-103196571D01*
X146920857Y-103232857D01*
X146630572Y-103232857D01*
X147755429Y-102833714D02*
X147392572Y-102833714D01*
X147356286Y-103196571D01*
X147392572Y-103160286D01*
X147465143Y-103124000D01*
X147646572Y-103124000D01*
X147719143Y-103160286D01*
X147755429Y-103196571D01*
X147791714Y-103269143D01*
X147791714Y-103450571D01*
X147755429Y-103523143D01*
X147719143Y-103559429D01*
X147646572Y-103595714D01*
X147465143Y-103595714D01*
X147392572Y-103559429D01*
X147356286Y-103523143D01*
X142388772Y-88304914D02*
X142388772Y-87542914D01*
X142679057Y-87542914D01*
X142751629Y-87579200D01*
X142787914Y-87615486D01*
X142824200Y-87688057D01*
X142824200Y-87796914D01*
X142787914Y-87869486D01*
X142751629Y-87905771D01*
X142679057Y-87942057D01*
X142388772Y-87942057D01*
X143477343Y-87542914D02*
X143332200Y-87542914D01*
X143259629Y-87579200D01*
X143223343Y-87615486D01*
X143150772Y-87724343D01*
X143114486Y-87869486D01*
X143114486Y-88159771D01*
X143150772Y-88232343D01*
X143187057Y-88268629D01*
X143259629Y-88304914D01*
X143404772Y-88304914D01*
X143477343Y-88268629D01*
X143513629Y-88232343D01*
X143549914Y-88159771D01*
X143549914Y-87978343D01*
X143513629Y-87905771D01*
X143477343Y-87869486D01*
X143404772Y-87833200D01*
X143259629Y-87833200D01*
X143187057Y-87869486D01*
X143150772Y-87905771D01*
X143114486Y-87978343D01*
X148281572Y-88152514D02*
X148281572Y-87390514D01*
X148571857Y-87390514D01*
X148644429Y-87426800D01*
X148680714Y-87463086D01*
X148717000Y-87535657D01*
X148717000Y-87644514D01*
X148680714Y-87717086D01*
X148644429Y-87753371D01*
X148571857Y-87789657D01*
X148281572Y-87789657D01*
X148971000Y-87390514D02*
X149479000Y-87390514D01*
X149152429Y-88152514D01*
X152878972Y-95137514D02*
X152878972Y-94375514D01*
X153169257Y-94375514D01*
X153241829Y-94411800D01*
X153278114Y-94448086D01*
X153314400Y-94520657D01*
X153314400Y-94629514D01*
X153278114Y-94702086D01*
X153241829Y-94738371D01*
X153169257Y-94774657D01*
X152878972Y-94774657D01*
X153677257Y-95137514D02*
X153822400Y-95137514D01*
X153894972Y-95101229D01*
X153931257Y-95064943D01*
X154003829Y-94956086D01*
X154040114Y-94810943D01*
X154040114Y-94520657D01*
X154003829Y-94448086D01*
X153967543Y-94411800D01*
X153894972Y-94375514D01*
X153749829Y-94375514D01*
X153677257Y-94411800D01*
X153640972Y-94448086D01*
X153604686Y-94520657D01*
X153604686Y-94702086D01*
X153640972Y-94774657D01*
X153677257Y-94810943D01*
X153749829Y-94847229D01*
X153894972Y-94847229D01*
X153967543Y-94810943D01*
X154003829Y-94774657D01*
X154040114Y-94702086D01*
M02*
