G04 #@! TF.FileFunction,Copper,L2,Bot,Signal*
%FSLAX46Y46*%
G04 Gerber Fmt 4.6, Leading zero omitted, Abs format (unit mm)*
G04 Created by KiCad (PCBNEW no-vcs-found-product) date Fri 28 Aug 2015 16:29:41 CEST*
%MOMM*%
G01*
G04 APERTURE LIST*
%ADD10C,0.127000*%
%ADD11C,0.600000*%
%ADD12C,0.500000*%
%ADD13R,2.032000X2.032000*%
%ADD14O,2.032000X2.032000*%
%ADD15R,2.235200X2.235200*%
%ADD16C,0.685800*%
%ADD17C,0.609600*%
%ADD18C,0.254000*%
G04 APERTURE END LIST*
D10*
D11*
X141100000Y-97900000D03*
X142100000Y-96900000D03*
X138700000Y-102000000D03*
X147700000Y-104000000D03*
X146700000Y-104000000D03*
X145700000Y-104000000D03*
X144700000Y-104000000D03*
X143700000Y-104000000D03*
X142700000Y-104000000D03*
X141700000Y-104000000D03*
X140700000Y-104000000D03*
X139700000Y-104000000D03*
X138700000Y-104000000D03*
X137700000Y-104000000D03*
X147700000Y-103000000D03*
X146700000Y-103000000D03*
X145700000Y-103000000D03*
X144700000Y-103000000D03*
X143700000Y-103000000D03*
X142700000Y-103000000D03*
X141700000Y-103000000D03*
X140700000Y-103000000D03*
X139700000Y-103000000D03*
X138700000Y-103000000D03*
X136700000Y-104000000D03*
X135700000Y-104000000D03*
X137700000Y-103000000D03*
X136700000Y-103000000D03*
X135700000Y-103000000D03*
X137700000Y-102000000D03*
X136700000Y-102000000D03*
X149100000Y-100100000D03*
X157100000Y-104100000D03*
X156100000Y-104100000D03*
X155100000Y-104100000D03*
X154100000Y-104100000D03*
X153100000Y-104100000D03*
X152100000Y-104100000D03*
X151100000Y-104100000D03*
X150100000Y-104100000D03*
X149100000Y-104100000D03*
X157100000Y-103100000D03*
X156100000Y-103100000D03*
X155100000Y-103100000D03*
X154100000Y-103100000D03*
X153100000Y-103100000D03*
X152100000Y-103100000D03*
X151100000Y-103100000D03*
X150100000Y-103100000D03*
X149100000Y-103100000D03*
X157100000Y-102100000D03*
X156100000Y-102100000D03*
X155100000Y-102100000D03*
X154100000Y-102100000D03*
X153100000Y-102100000D03*
X152100000Y-102100000D03*
X151100000Y-102100000D03*
X150100000Y-102100000D03*
X149100000Y-102100000D03*
X157100000Y-101100000D03*
X156100000Y-101100000D03*
X155100000Y-101100000D03*
X154100000Y-101100000D03*
X153100000Y-101100000D03*
X152100000Y-101100000D03*
X151100000Y-101100000D03*
X150100000Y-101100000D03*
X149100000Y-101100000D03*
X155100000Y-100100000D03*
X154100000Y-100100000D03*
X153100000Y-100100000D03*
X152100000Y-100100000D03*
X151100000Y-100100000D03*
X150100000Y-100100000D03*
D12*
X146507200Y-95046800D03*
X145807200Y-94746800D03*
X145107200Y-95046800D03*
X145107200Y-94446800D03*
X146507200Y-94446800D03*
D13*
X136779000Y-93345000D03*
D14*
X136779000Y-95885000D03*
D13*
X156845000Y-92964000D03*
D14*
X156845000Y-95504000D03*
D15*
X136779000Y-99568000D03*
X156845000Y-99314000D03*
X136779000Y-89662000D03*
X156718000Y-89281000D03*
D11*
X135700000Y-102000000D03*
X141100000Y-96900000D03*
D16*
X139979400Y-102031800D03*
X153517600Y-98628200D03*
D17*
X138455400Y-89662000D02*
X136779000Y-89662000D01*
X139979400Y-91186000D02*
X138455400Y-89662000D01*
X139979400Y-102031800D02*
X139979400Y-91186000D01*
X154406600Y-92964000D02*
X156845000Y-92964000D01*
X153543000Y-93827600D02*
X154406600Y-92964000D01*
X153543000Y-98602800D02*
X153543000Y-93827600D01*
X153517600Y-98628200D02*
X153543000Y-98602800D01*
D18*
G36*
X158420600Y-105170600D02*
X135203400Y-105170600D01*
X135203400Y-92329000D01*
X135374536Y-92329000D01*
X135374536Y-94361000D01*
X135402722Y-94506274D01*
X135486596Y-94633956D01*
X135613216Y-94719426D01*
X135763000Y-94749464D01*
X137795000Y-94749464D01*
X137940274Y-94721278D01*
X138067956Y-94637404D01*
X138153426Y-94510784D01*
X138183464Y-94361000D01*
X138183464Y-92329000D01*
X138155278Y-92183726D01*
X138071404Y-92056044D01*
X137944784Y-91970574D01*
X137795000Y-91940536D01*
X135763000Y-91940536D01*
X135617726Y-91968722D01*
X135490044Y-92052596D01*
X135404574Y-92179216D01*
X135374536Y-92329000D01*
X135203400Y-92329000D01*
X135203400Y-88544400D01*
X135272936Y-88544400D01*
X135272936Y-90779600D01*
X135301122Y-90924874D01*
X135384996Y-91052556D01*
X135511616Y-91138026D01*
X135661400Y-91168064D01*
X137896600Y-91168064D01*
X138041874Y-91139878D01*
X138169556Y-91056004D01*
X138255026Y-90929384D01*
X138285064Y-90779600D01*
X138285064Y-90461532D01*
X139293600Y-91470067D01*
X139293600Y-101795724D01*
X139255626Y-101887176D01*
X139255375Y-102175161D01*
X139365350Y-102441321D01*
X139568808Y-102645135D01*
X139834776Y-102755574D01*
X140122761Y-102755825D01*
X140388921Y-102645850D01*
X140592735Y-102442392D01*
X140703174Y-102176424D01*
X140703425Y-101888439D01*
X140665200Y-101795927D01*
X140665200Y-98771561D01*
X152793575Y-98771561D01*
X152903550Y-99037721D01*
X153107008Y-99241535D01*
X153372976Y-99351974D01*
X153660961Y-99352225D01*
X153927121Y-99242250D01*
X154130935Y-99038792D01*
X154241374Y-98772824D01*
X154241625Y-98484839D01*
X154228800Y-98453800D01*
X154228800Y-94111668D01*
X154690668Y-93649800D01*
X155440536Y-93649800D01*
X155440536Y-93980000D01*
X155468722Y-94125274D01*
X155552596Y-94252956D01*
X155679216Y-94338426D01*
X155829000Y-94368464D01*
X157861000Y-94368464D01*
X158006274Y-94340278D01*
X158133956Y-94256404D01*
X158219426Y-94129784D01*
X158249464Y-93980000D01*
X158249464Y-91948000D01*
X158221278Y-91802726D01*
X158137404Y-91675044D01*
X158010784Y-91589574D01*
X157861000Y-91559536D01*
X155829000Y-91559536D01*
X155683726Y-91587722D01*
X155556044Y-91671596D01*
X155470574Y-91798216D01*
X155440536Y-91948000D01*
X155440536Y-92278200D01*
X154406600Y-92278200D01*
X154144155Y-92330403D01*
X153921666Y-92479066D01*
X153058066Y-93342666D01*
X152909403Y-93565155D01*
X152909403Y-93565156D01*
X152857200Y-93827600D01*
X152857200Y-98330954D01*
X152793826Y-98483576D01*
X152793575Y-98771561D01*
X140665200Y-98771561D01*
X140665200Y-91186000D01*
X140612997Y-90923556D01*
X140464334Y-90701066D01*
X140464331Y-90701064D01*
X138940334Y-89177066D01*
X138717845Y-89028403D01*
X138455400Y-88976200D01*
X138285064Y-88976200D01*
X138285064Y-88544400D01*
X138256878Y-88399126D01*
X138173004Y-88271444D01*
X138046384Y-88185974D01*
X137933820Y-88163400D01*
X155211936Y-88163400D01*
X155211936Y-90398600D01*
X155240122Y-90543874D01*
X155323996Y-90671556D01*
X155450616Y-90757026D01*
X155600400Y-90787064D01*
X157835600Y-90787064D01*
X157980874Y-90758878D01*
X158108556Y-90675004D01*
X158194026Y-90548384D01*
X158224064Y-90398600D01*
X158224064Y-88163400D01*
X158195878Y-88018126D01*
X158112004Y-87890444D01*
X157985384Y-87804974D01*
X157835600Y-87774936D01*
X155600400Y-87774936D01*
X155455126Y-87803122D01*
X155327444Y-87886996D01*
X155241974Y-88013616D01*
X155211936Y-88163400D01*
X137933820Y-88163400D01*
X137896600Y-88155936D01*
X135661400Y-88155936D01*
X135516126Y-88184122D01*
X135388444Y-88267996D01*
X135302974Y-88394616D01*
X135272936Y-88544400D01*
X135203400Y-88544400D01*
X135203400Y-87197400D01*
X158420600Y-87197400D01*
X158420600Y-105170600D01*
X158420600Y-105170600D01*
G37*
X158420600Y-105170600D02*
X135203400Y-105170600D01*
X135203400Y-92329000D01*
X135374536Y-92329000D01*
X135374536Y-94361000D01*
X135402722Y-94506274D01*
X135486596Y-94633956D01*
X135613216Y-94719426D01*
X135763000Y-94749464D01*
X137795000Y-94749464D01*
X137940274Y-94721278D01*
X138067956Y-94637404D01*
X138153426Y-94510784D01*
X138183464Y-94361000D01*
X138183464Y-92329000D01*
X138155278Y-92183726D01*
X138071404Y-92056044D01*
X137944784Y-91970574D01*
X137795000Y-91940536D01*
X135763000Y-91940536D01*
X135617726Y-91968722D01*
X135490044Y-92052596D01*
X135404574Y-92179216D01*
X135374536Y-92329000D01*
X135203400Y-92329000D01*
X135203400Y-88544400D01*
X135272936Y-88544400D01*
X135272936Y-90779600D01*
X135301122Y-90924874D01*
X135384996Y-91052556D01*
X135511616Y-91138026D01*
X135661400Y-91168064D01*
X137896600Y-91168064D01*
X138041874Y-91139878D01*
X138169556Y-91056004D01*
X138255026Y-90929384D01*
X138285064Y-90779600D01*
X138285064Y-90461532D01*
X139293600Y-91470067D01*
X139293600Y-101795724D01*
X139255626Y-101887176D01*
X139255375Y-102175161D01*
X139365350Y-102441321D01*
X139568808Y-102645135D01*
X139834776Y-102755574D01*
X140122761Y-102755825D01*
X140388921Y-102645850D01*
X140592735Y-102442392D01*
X140703174Y-102176424D01*
X140703425Y-101888439D01*
X140665200Y-101795927D01*
X140665200Y-98771561D01*
X152793575Y-98771561D01*
X152903550Y-99037721D01*
X153107008Y-99241535D01*
X153372976Y-99351974D01*
X153660961Y-99352225D01*
X153927121Y-99242250D01*
X154130935Y-99038792D01*
X154241374Y-98772824D01*
X154241625Y-98484839D01*
X154228800Y-98453800D01*
X154228800Y-94111668D01*
X154690668Y-93649800D01*
X155440536Y-93649800D01*
X155440536Y-93980000D01*
X155468722Y-94125274D01*
X155552596Y-94252956D01*
X155679216Y-94338426D01*
X155829000Y-94368464D01*
X157861000Y-94368464D01*
X158006274Y-94340278D01*
X158133956Y-94256404D01*
X158219426Y-94129784D01*
X158249464Y-93980000D01*
X158249464Y-91948000D01*
X158221278Y-91802726D01*
X158137404Y-91675044D01*
X158010784Y-91589574D01*
X157861000Y-91559536D01*
X155829000Y-91559536D01*
X155683726Y-91587722D01*
X155556044Y-91671596D01*
X155470574Y-91798216D01*
X155440536Y-91948000D01*
X155440536Y-92278200D01*
X154406600Y-92278200D01*
X154144155Y-92330403D01*
X153921666Y-92479066D01*
X153058066Y-93342666D01*
X152909403Y-93565155D01*
X152909403Y-93565156D01*
X152857200Y-93827600D01*
X152857200Y-98330954D01*
X152793826Y-98483576D01*
X152793575Y-98771561D01*
X140665200Y-98771561D01*
X140665200Y-91186000D01*
X140612997Y-90923556D01*
X140464334Y-90701066D01*
X140464331Y-90701064D01*
X138940334Y-89177066D01*
X138717845Y-89028403D01*
X138455400Y-88976200D01*
X138285064Y-88976200D01*
X138285064Y-88544400D01*
X138256878Y-88399126D01*
X138173004Y-88271444D01*
X138046384Y-88185974D01*
X137933820Y-88163400D01*
X155211936Y-88163400D01*
X155211936Y-90398600D01*
X155240122Y-90543874D01*
X155323996Y-90671556D01*
X155450616Y-90757026D01*
X155600400Y-90787064D01*
X157835600Y-90787064D01*
X157980874Y-90758878D01*
X158108556Y-90675004D01*
X158194026Y-90548384D01*
X158224064Y-90398600D01*
X158224064Y-88163400D01*
X158195878Y-88018126D01*
X158112004Y-87890444D01*
X157985384Y-87804974D01*
X157835600Y-87774936D01*
X155600400Y-87774936D01*
X155455126Y-87803122D01*
X155327444Y-87886996D01*
X155241974Y-88013616D01*
X155211936Y-88163400D01*
X137933820Y-88163400D01*
X137896600Y-88155936D01*
X135661400Y-88155936D01*
X135516126Y-88184122D01*
X135388444Y-88267996D01*
X135302974Y-88394616D01*
X135272936Y-88544400D01*
X135203400Y-88544400D01*
X135203400Y-87197400D01*
X158420600Y-87197400D01*
X158420600Y-105170600D01*
M02*
