G04 #@! TF.FileFunction,Legend,Bot*
%FSLAX46Y46*%
G04 Gerber Fmt 4.6, Leading zero omitted, Abs format (unit mm)*
G04 Created by KiCad (PCBNEW 0.201508140901+6091~28~ubuntu14.04.1-product) date Thu 22 Oct 2015 10:51:19 PM CEST*
%MOMM*%
G01*
G04 APERTURE LIST*
%ADD10C,0.127000*%
G04 APERTURE END LIST*
D10*
X153996571Y-89028814D02*
X153996571Y-88266814D01*
X153706286Y-88266814D01*
X153633714Y-88303100D01*
X153597429Y-88339386D01*
X153561143Y-88411957D01*
X153561143Y-88520814D01*
X153597429Y-88593386D01*
X153633714Y-88629671D01*
X153706286Y-88665957D01*
X153996571Y-88665957D01*
X153125714Y-89028814D02*
X153198286Y-88992529D01*
X153234571Y-88956243D01*
X153270857Y-88883671D01*
X153270857Y-88665957D01*
X153234571Y-88593386D01*
X153198286Y-88557100D01*
X153125714Y-88520814D01*
X153016857Y-88520814D01*
X152944286Y-88557100D01*
X152908000Y-88593386D01*
X152871714Y-88665957D01*
X152871714Y-88883671D01*
X152908000Y-88956243D01*
X152944286Y-88992529D01*
X153016857Y-89028814D01*
X153125714Y-89028814D01*
X152617714Y-88520814D02*
X152472571Y-89028814D01*
X152327428Y-88665957D01*
X152182285Y-89028814D01*
X152037142Y-88520814D01*
X151456571Y-88992529D02*
X151529142Y-89028814D01*
X151674285Y-89028814D01*
X151746856Y-88992529D01*
X151783142Y-88919957D01*
X151783142Y-88629671D01*
X151746856Y-88557100D01*
X151674285Y-88520814D01*
X151529142Y-88520814D01*
X151456571Y-88557100D01*
X151420285Y-88629671D01*
X151420285Y-88702243D01*
X151783142Y-88774814D01*
X151093713Y-89028814D02*
X151093713Y-88520814D01*
X151093713Y-88665957D02*
X151057428Y-88593386D01*
X151021142Y-88557100D01*
X150948571Y-88520814D01*
X150875999Y-88520814D01*
X150658285Y-88992529D02*
X150549428Y-89028814D01*
X150367999Y-89028814D01*
X150295428Y-88992529D01*
X150259142Y-88956243D01*
X150222857Y-88883671D01*
X150222857Y-88811100D01*
X150259142Y-88738529D01*
X150295428Y-88702243D01*
X150367999Y-88665957D01*
X150513142Y-88629671D01*
X150585714Y-88593386D01*
X150621999Y-88557100D01*
X150658285Y-88484529D01*
X150658285Y-88411957D01*
X150621999Y-88339386D01*
X150585714Y-88303100D01*
X150513142Y-88266814D01*
X150331714Y-88266814D01*
X150222857Y-88303100D01*
X149968857Y-88520814D02*
X149823714Y-89028814D01*
X149678571Y-88665957D01*
X149533428Y-89028814D01*
X149388285Y-88520814D01*
X148771428Y-89028814D02*
X148771428Y-88629671D01*
X148807714Y-88557100D01*
X148880285Y-88520814D01*
X149025428Y-88520814D01*
X149097999Y-88557100D01*
X148771428Y-88992529D02*
X148843999Y-89028814D01*
X149025428Y-89028814D01*
X149097999Y-88992529D01*
X149134285Y-88919957D01*
X149134285Y-88847386D01*
X149097999Y-88774814D01*
X149025428Y-88738529D01*
X148843999Y-88738529D01*
X148771428Y-88702243D01*
X148408570Y-88520814D02*
X148408570Y-89282814D01*
X148408570Y-88557100D02*
X148335999Y-88520814D01*
X148190856Y-88520814D01*
X148118285Y-88557100D01*
X148081999Y-88593386D01*
X148045713Y-88665957D01*
X148045713Y-88883671D01*
X148081999Y-88956243D01*
X148118285Y-88992529D01*
X148190856Y-89028814D01*
X148335999Y-89028814D01*
X148408570Y-88992529D01*
X153561143Y-90222614D02*
X153815143Y-89859757D01*
X153996571Y-90222614D02*
X153996571Y-89460614D01*
X153706286Y-89460614D01*
X153633714Y-89496900D01*
X153597429Y-89533186D01*
X153561143Y-89605757D01*
X153561143Y-89714614D01*
X153597429Y-89787186D01*
X153633714Y-89823471D01*
X153706286Y-89859757D01*
X153996571Y-89859757D01*
X152944286Y-90186329D02*
X153016857Y-90222614D01*
X153162000Y-90222614D01*
X153234571Y-90186329D01*
X153270857Y-90113757D01*
X153270857Y-89823471D01*
X153234571Y-89750900D01*
X153162000Y-89714614D01*
X153016857Y-89714614D01*
X152944286Y-89750900D01*
X152908000Y-89823471D01*
X152908000Y-89896043D01*
X153270857Y-89968614D01*
X152654000Y-89714614D02*
X152472571Y-90222614D01*
X152291143Y-89714614D01*
X151456572Y-89533186D02*
X151420286Y-89496900D01*
X151347715Y-89460614D01*
X151166286Y-89460614D01*
X151093715Y-89496900D01*
X151057429Y-89533186D01*
X151021144Y-89605757D01*
X151021144Y-89678329D01*
X151057429Y-89787186D01*
X151492858Y-90222614D01*
X151021144Y-90222614D01*
X150331715Y-90222614D02*
X150694572Y-90222614D01*
X150694572Y-89460614D01*
X150077715Y-90150043D02*
X150041430Y-90186329D01*
X150077715Y-90222614D01*
X150114001Y-90186329D01*
X150077715Y-90150043D01*
X150077715Y-90222614D01*
X149751144Y-89533186D02*
X149714858Y-89496900D01*
X149642287Y-89460614D01*
X149460858Y-89460614D01*
X149388287Y-89496900D01*
X149352001Y-89533186D01*
X149315716Y-89605757D01*
X149315716Y-89678329D01*
X149352001Y-89787186D01*
X149787430Y-90222614D01*
X149315716Y-90222614D01*
X148989144Y-89932329D02*
X148408573Y-89932329D01*
X147719144Y-90186329D02*
X147791715Y-90222614D01*
X147936858Y-90222614D01*
X148009430Y-90186329D01*
X148045715Y-90150043D01*
X148082001Y-90077471D01*
X148082001Y-89859757D01*
X148045715Y-89787186D01*
X148009430Y-89750900D01*
X147936858Y-89714614D01*
X147791715Y-89714614D01*
X147719144Y-89750900D01*
X147428858Y-89533186D02*
X147392572Y-89496900D01*
X147320001Y-89460614D01*
X147138572Y-89460614D01*
X147066001Y-89496900D01*
X147029715Y-89533186D01*
X146993430Y-89605757D01*
X146993430Y-89678329D01*
X147029715Y-89787186D01*
X147465144Y-90222614D01*
X146993430Y-90222614D01*
X146703144Y-89533186D02*
X146666858Y-89496900D01*
X146594287Y-89460614D01*
X146412858Y-89460614D01*
X146340287Y-89496900D01*
X146304001Y-89533186D01*
X146267716Y-89605757D01*
X146267716Y-89678329D01*
X146304001Y-89787186D01*
X146739430Y-90222614D01*
X146267716Y-90222614D01*
X145796002Y-89460614D02*
X145723430Y-89460614D01*
X145650859Y-89496900D01*
X145614573Y-89533186D01*
X145578287Y-89605757D01*
X145542002Y-89750900D01*
X145542002Y-89932329D01*
X145578287Y-90077471D01*
X145614573Y-90150043D01*
X145650859Y-90186329D01*
X145723430Y-90222614D01*
X145796002Y-90222614D01*
X145868573Y-90186329D01*
X145904859Y-90150043D01*
X145941144Y-90077471D01*
X145977430Y-89932329D01*
X145977430Y-89750900D01*
X145941144Y-89605757D01*
X145904859Y-89533186D01*
X145868573Y-89496900D01*
X145796002Y-89460614D01*
X145106573Y-89787186D02*
X145179145Y-89750900D01*
X145215430Y-89714614D01*
X145251716Y-89642043D01*
X145251716Y-89605757D01*
X145215430Y-89533186D01*
X145179145Y-89496900D01*
X145106573Y-89460614D01*
X144961430Y-89460614D01*
X144888859Y-89496900D01*
X144852573Y-89533186D01*
X144816288Y-89605757D01*
X144816288Y-89642043D01*
X144852573Y-89714614D01*
X144888859Y-89750900D01*
X144961430Y-89787186D01*
X145106573Y-89787186D01*
X145179145Y-89823471D01*
X145215430Y-89859757D01*
X145251716Y-89932329D01*
X145251716Y-90077471D01*
X145215430Y-90150043D01*
X145179145Y-90186329D01*
X145106573Y-90222614D01*
X144961430Y-90222614D01*
X144888859Y-90186329D01*
X144852573Y-90150043D01*
X144816288Y-90077471D01*
X144816288Y-89932329D01*
X144852573Y-89859757D01*
X144888859Y-89823471D01*
X144961430Y-89787186D01*
X144126859Y-89460614D02*
X144489716Y-89460614D01*
X144526002Y-89823471D01*
X144489716Y-89787186D01*
X144417145Y-89750900D01*
X144235716Y-89750900D01*
X144163145Y-89787186D01*
X144126859Y-89823471D01*
X144090574Y-89896043D01*
X144090574Y-90077471D01*
X144126859Y-90150043D01*
X144163145Y-90186329D01*
X144235716Y-90222614D01*
X144417145Y-90222614D01*
X144489716Y-90186329D01*
X144526002Y-90150043D01*
X143437431Y-89460614D02*
X143582574Y-89460614D01*
X143655145Y-89496900D01*
X143691431Y-89533186D01*
X143764002Y-89642043D01*
X143800288Y-89787186D01*
X143800288Y-90077471D01*
X143764002Y-90150043D01*
X143727717Y-90186329D01*
X143655145Y-90222614D01*
X143510002Y-90222614D01*
X143437431Y-90186329D01*
X143401145Y-90150043D01*
X143364860Y-90077471D01*
X143364860Y-89896043D01*
X143401145Y-89823471D01*
X143437431Y-89787186D01*
X143510002Y-89750900D01*
X143655145Y-89750900D01*
X143727717Y-89787186D01*
X143764002Y-89823471D01*
X143800288Y-89896043D01*
M02*
