G04 #@! TF.FileFunction,Legend,Bot*
%FSLAX46Y46*%
G04 Gerber Fmt 4.6, Leading zero omitted, Abs format (unit mm)*
G04 Created by KiCad (PCBNEW no-vcs-found-product) date Fri 28 Aug 2015 16:29:41 CEST*
%MOMM*%
G01*
G04 APERTURE LIST*
%ADD10C,0.127000*%
%ADD11C,0.254000*%
G04 APERTURE END LIST*
D10*
D11*
X154312619Y-89558524D02*
X154312619Y-88288524D01*
X153828810Y-88288524D01*
X153707857Y-88349000D01*
X153647381Y-88409476D01*
X153586905Y-88530429D01*
X153586905Y-88711857D01*
X153647381Y-88832810D01*
X153707857Y-88893286D01*
X153828810Y-88953762D01*
X154312619Y-88953762D01*
X152861190Y-89558524D02*
X152982143Y-89498048D01*
X153042619Y-89437571D01*
X153103095Y-89316619D01*
X153103095Y-88953762D01*
X153042619Y-88832810D01*
X152982143Y-88772333D01*
X152861190Y-88711857D01*
X152679762Y-88711857D01*
X152558810Y-88772333D01*
X152498333Y-88832810D01*
X152437857Y-88953762D01*
X152437857Y-89316619D01*
X152498333Y-89437571D01*
X152558810Y-89498048D01*
X152679762Y-89558524D01*
X152861190Y-89558524D01*
X152014523Y-88711857D02*
X151772619Y-89558524D01*
X151530714Y-88953762D01*
X151288809Y-89558524D01*
X151046904Y-88711857D01*
X150079286Y-89498048D02*
X150200238Y-89558524D01*
X150442143Y-89558524D01*
X150563095Y-89498048D01*
X150623571Y-89377095D01*
X150623571Y-88893286D01*
X150563095Y-88772333D01*
X150442143Y-88711857D01*
X150200238Y-88711857D01*
X150079286Y-88772333D01*
X150018809Y-88893286D01*
X150018809Y-89014238D01*
X150623571Y-89135190D01*
X149474524Y-89558524D02*
X149474524Y-88711857D01*
X149474524Y-88953762D02*
X149414048Y-88832810D01*
X149353572Y-88772333D01*
X149232619Y-88711857D01*
X149111667Y-88711857D01*
X148748810Y-89498048D02*
X148567382Y-89558524D01*
X148265001Y-89558524D01*
X148144048Y-89498048D01*
X148083572Y-89437571D01*
X148023096Y-89316619D01*
X148023096Y-89195667D01*
X148083572Y-89074714D01*
X148144048Y-89014238D01*
X148265001Y-88953762D01*
X148506905Y-88893286D01*
X148627858Y-88832810D01*
X148688334Y-88772333D01*
X148748810Y-88651381D01*
X148748810Y-88530429D01*
X148688334Y-88409476D01*
X148627858Y-88349000D01*
X148506905Y-88288524D01*
X148204525Y-88288524D01*
X148023096Y-88349000D01*
X147599762Y-88711857D02*
X147357858Y-89558524D01*
X147115953Y-88953762D01*
X146874048Y-89558524D01*
X146632143Y-88711857D01*
X145604048Y-89558524D02*
X145604048Y-88893286D01*
X145664525Y-88772333D01*
X145785477Y-88711857D01*
X146027382Y-88711857D01*
X146148334Y-88772333D01*
X145604048Y-89498048D02*
X145725001Y-89558524D01*
X146027382Y-89558524D01*
X146148334Y-89498048D01*
X146208810Y-89377095D01*
X146208810Y-89256143D01*
X146148334Y-89135190D01*
X146027382Y-89074714D01*
X145725001Y-89074714D01*
X145604048Y-89014238D01*
X144999286Y-88711857D02*
X144999286Y-89981857D01*
X144999286Y-88772333D02*
X144878334Y-88711857D01*
X144636429Y-88711857D01*
X144515477Y-88772333D01*
X144455000Y-88832810D01*
X144394524Y-88953762D01*
X144394524Y-89316619D01*
X144455000Y-89437571D01*
X144515477Y-89498048D01*
X144636429Y-89558524D01*
X144878334Y-89558524D01*
X144999286Y-89498048D01*
X152044762Y-91590524D02*
X152468095Y-90985762D01*
X152770476Y-91590524D02*
X152770476Y-90320524D01*
X152286667Y-90320524D01*
X152165714Y-90381000D01*
X152105238Y-90441476D01*
X152044762Y-90562429D01*
X152044762Y-90743857D01*
X152105238Y-90864810D01*
X152165714Y-90925286D01*
X152286667Y-90985762D01*
X152770476Y-90985762D01*
X151016667Y-91530048D02*
X151137619Y-91590524D01*
X151379524Y-91590524D01*
X151500476Y-91530048D01*
X151560952Y-91409095D01*
X151560952Y-90925286D01*
X151500476Y-90804333D01*
X151379524Y-90743857D01*
X151137619Y-90743857D01*
X151016667Y-90804333D01*
X150956190Y-90925286D01*
X150956190Y-91046238D01*
X151560952Y-91167190D01*
X150532857Y-90743857D02*
X150230476Y-91590524D01*
X149928096Y-90743857D01*
X148537143Y-90441476D02*
X148476667Y-90381000D01*
X148355715Y-90320524D01*
X148053334Y-90320524D01*
X147932381Y-90381000D01*
X147871905Y-90441476D01*
X147811429Y-90562429D01*
X147811429Y-90683381D01*
X147871905Y-90864810D01*
X148597619Y-91590524D01*
X147811429Y-91590524D01*
X146662381Y-91590524D02*
X147267143Y-91590524D01*
X147267143Y-90320524D01*
X146239048Y-91469571D02*
X146178572Y-91530048D01*
X146239048Y-91590524D01*
X146299524Y-91530048D01*
X146239048Y-91469571D01*
X146239048Y-91590524D01*
X144969048Y-91590524D02*
X145694762Y-91590524D01*
X145331905Y-91590524D02*
X145331905Y-90320524D01*
X145452857Y-90501952D01*
X145573810Y-90622905D01*
X145694762Y-90683381D01*
M02*
