G04 #@! TF.FileFunction,Copper,L1,Top,Signal*
%FSLAX46Y46*%
G04 Gerber Fmt 4.6, Leading zero omitted, Abs format (unit mm)*
G04 Created by KiCad (PCBNEW no-vcs-found-product) date Fri 28 Aug 2015 16:29:41 CEST*
%MOMM*%
G01*
G04 APERTURE LIST*
%ADD10C,0.127000*%
%ADD11C,0.600000*%
%ADD12O,0.230000X0.800000*%
%ADD13R,2.000000X1.200000*%
%ADD14C,0.500000*%
%ADD15R,1.250000X1.000000*%
%ADD16R,2.500000X1.000000*%
%ADD17R,1.000000X1.250000*%
%ADD18R,1.000000X2.700000*%
%ADD19R,2.032000X2.032000*%
%ADD20O,2.032000X2.032000*%
%ADD21R,2.235200X2.235200*%
%ADD22R,1.300000X0.700000*%
%ADD23R,1.501140X1.501140*%
%ADD24C,0.685800*%
%ADD25C,0.609600*%
%ADD26C,0.254000*%
%ADD27C,0.152400*%
%ADD28C,0.304800*%
G04 APERTURE END LIST*
D10*
D11*
X141100000Y-97900000D03*
X142100000Y-96900000D03*
X138700000Y-102000000D03*
X147700000Y-104000000D03*
X146700000Y-104000000D03*
X145700000Y-104000000D03*
X144700000Y-104000000D03*
X143700000Y-104000000D03*
X142700000Y-104000000D03*
X141700000Y-104000000D03*
X140700000Y-104000000D03*
X139700000Y-104000000D03*
X138700000Y-104000000D03*
X137700000Y-104000000D03*
X147700000Y-103000000D03*
X146700000Y-103000000D03*
X145700000Y-103000000D03*
X144700000Y-103000000D03*
X143700000Y-103000000D03*
X142700000Y-103000000D03*
X141700000Y-103000000D03*
X140700000Y-103000000D03*
X139700000Y-103000000D03*
X138700000Y-103000000D03*
X136700000Y-104000000D03*
X135700000Y-104000000D03*
X137700000Y-103000000D03*
X136700000Y-103000000D03*
X135700000Y-103000000D03*
X137700000Y-102000000D03*
X136700000Y-102000000D03*
X149100000Y-100100000D03*
X157100000Y-104100000D03*
X156100000Y-104100000D03*
X155100000Y-104100000D03*
X154100000Y-104100000D03*
X153100000Y-104100000D03*
X152100000Y-104100000D03*
X151100000Y-104100000D03*
X150100000Y-104100000D03*
X149100000Y-104100000D03*
X157100000Y-103100000D03*
X156100000Y-103100000D03*
X155100000Y-103100000D03*
X154100000Y-103100000D03*
X153100000Y-103100000D03*
X152100000Y-103100000D03*
X151100000Y-103100000D03*
X150100000Y-103100000D03*
X149100000Y-103100000D03*
X157100000Y-102100000D03*
X156100000Y-102100000D03*
X155100000Y-102100000D03*
X154100000Y-102100000D03*
X153100000Y-102100000D03*
X152100000Y-102100000D03*
X151100000Y-102100000D03*
X150100000Y-102100000D03*
X149100000Y-102100000D03*
X157100000Y-101100000D03*
X156100000Y-101100000D03*
X155100000Y-101100000D03*
X154100000Y-101100000D03*
X153100000Y-101100000D03*
X152100000Y-101100000D03*
X151100000Y-101100000D03*
X150100000Y-101100000D03*
X149100000Y-101100000D03*
X155100000Y-100100000D03*
X154100000Y-100100000D03*
X153100000Y-100100000D03*
X152100000Y-100100000D03*
X151100000Y-100100000D03*
X150100000Y-100100000D03*
D12*
X146807200Y-93471800D03*
X146307200Y-93471800D03*
X145807200Y-93471800D03*
X145307200Y-93471800D03*
X144807200Y-93471800D03*
X144807200Y-96021800D03*
X145307200Y-96021800D03*
X145807200Y-96021800D03*
X146307200Y-96021800D03*
X146807200Y-96021800D03*
D13*
X145807200Y-94746800D03*
D14*
X146507200Y-95046800D03*
X145807200Y-94746800D03*
X145107200Y-95046800D03*
X145107200Y-94446800D03*
X146507200Y-94446800D03*
D15*
X142595600Y-93589600D03*
X142595600Y-95589600D03*
D16*
X149402800Y-92149800D03*
X149402800Y-95149800D03*
D17*
X144973800Y-98298000D03*
X146973800Y-98298000D03*
D18*
X144696000Y-90678000D03*
X146896000Y-90678000D03*
D19*
X136779000Y-93345000D03*
D20*
X136779000Y-95885000D03*
D19*
X156845000Y-92964000D03*
D20*
X156845000Y-95504000D03*
D21*
X136779000Y-99568000D03*
X156845000Y-99314000D03*
X136779000Y-89662000D03*
X156718000Y-89281000D03*
D22*
X151257000Y-98638400D03*
X151257000Y-96738400D03*
X148945600Y-96763800D03*
X148945600Y-98663800D03*
X142621000Y-100142000D03*
X142621000Y-102042000D03*
X144780000Y-102042000D03*
X144780000Y-100142000D03*
X147320000Y-102042000D03*
X147320000Y-100142000D03*
D23*
X142951200Y-89433400D03*
X148666200Y-89331800D03*
X153568400Y-96291400D03*
D11*
X135700000Y-102000000D03*
X141100000Y-96900000D03*
D24*
X139979400Y-102031800D03*
X153517600Y-98628200D03*
D25*
X142621000Y-102042000D02*
X139989600Y-102042000D01*
X139989600Y-102042000D02*
X139979400Y-102031800D01*
X151257000Y-98638400D02*
X153507400Y-98638400D01*
X153507400Y-98638400D02*
X153517600Y-98628200D01*
X153568400Y-96291400D02*
X151704000Y-96291400D01*
X151704000Y-96291400D02*
X151257000Y-96738400D01*
D26*
X148945600Y-96763800D02*
X148275000Y-96763800D01*
X147533000Y-96021800D02*
X146807200Y-96021800D01*
X148275000Y-96763800D02*
X147533000Y-96021800D01*
D25*
X151257000Y-96738400D02*
X148971000Y-96738400D01*
X148971000Y-96738400D02*
X148945600Y-96763800D01*
X144780000Y-100142000D02*
X144780000Y-98491800D01*
X144780000Y-98491800D02*
X144973800Y-98298000D01*
X144780000Y-100142000D02*
X147320000Y-100142000D01*
X142621000Y-100142000D02*
X144780000Y-100142000D01*
D27*
X145807200Y-96021800D02*
X145807200Y-97464600D01*
D28*
X145807200Y-97464600D02*
X144973800Y-98298000D01*
D25*
X144696000Y-90678000D02*
X143586200Y-90678000D01*
X143586200Y-90678000D02*
X142951200Y-90043000D01*
X142951200Y-90043000D02*
X142951200Y-89433400D01*
D26*
X145303210Y-92852210D02*
X145266210Y-92852210D01*
X145266210Y-92852210D02*
X144696000Y-92282000D01*
X144696000Y-92282000D02*
X144696000Y-90678000D01*
X145307200Y-93471800D02*
X145307200Y-93186400D01*
X145307200Y-93186400D02*
X145303210Y-93182410D01*
X145303210Y-93182410D02*
X145303210Y-92852210D01*
D25*
X146896000Y-90678000D02*
X148336000Y-90678000D01*
X148666200Y-90347800D02*
X148666200Y-89331800D01*
X148336000Y-90678000D02*
X148666200Y-90347800D01*
D26*
X146311190Y-92855210D02*
X146322790Y-92855210D01*
X146322790Y-92855210D02*
X146896000Y-92282000D01*
X146896000Y-92282000D02*
X146896000Y-90678000D01*
X146307200Y-93471800D02*
X146307200Y-93138600D01*
X146307200Y-93138600D02*
X146311190Y-93134610D01*
X146311190Y-93134610D02*
X146311190Y-92855210D01*
D27*
X144780000Y-102042000D02*
X144780000Y-101473000D01*
X144359800Y-96469200D02*
X144807200Y-96021800D01*
X143967200Y-96469200D02*
X144359800Y-96469200D01*
X140792200Y-99644200D02*
X143967200Y-96469200D01*
X140792200Y-100787200D02*
X140792200Y-99644200D01*
X141249402Y-101244402D02*
X140792200Y-100787200D01*
X144551402Y-101244402D02*
X141249402Y-101244402D01*
X144780000Y-101473000D02*
X144551402Y-101244402D01*
X147320000Y-102042000D02*
X147320000Y-101346000D01*
X145307200Y-96754800D02*
X145307200Y-96021800D01*
X145034000Y-97028000D02*
X145307200Y-96754800D01*
X144018000Y-97028000D02*
X145034000Y-97028000D01*
X141224000Y-99822000D02*
X144018000Y-97028000D01*
X141224000Y-100584000D02*
X141224000Y-99822000D01*
X141478000Y-100838000D02*
X141224000Y-100584000D01*
X146812000Y-100838000D02*
X141478000Y-100838000D01*
X147320000Y-101346000D02*
X146812000Y-100838000D01*
G36*
X144932401Y-88991331D02*
X144196000Y-88991331D01*
X144070096Y-89015759D01*
X144038439Y-89036554D01*
X144038439Y-88682830D01*
X144014011Y-88556926D01*
X143941320Y-88446268D01*
X143831583Y-88372194D01*
X143701770Y-88346161D01*
X142200630Y-88346161D01*
X142074726Y-88370589D01*
X141964068Y-88443280D01*
X141889994Y-88553017D01*
X141863961Y-88682830D01*
X141863961Y-90183970D01*
X141888389Y-90309874D01*
X141961080Y-90420532D01*
X142070817Y-90494606D01*
X142200630Y-90520639D01*
X142530813Y-90520639D01*
X143137187Y-91127013D01*
X143343196Y-91264664D01*
X143586200Y-91313001D01*
X143586205Y-91313000D01*
X143859331Y-91313000D01*
X143859331Y-92028000D01*
X143883759Y-92153904D01*
X143956450Y-92264562D01*
X144066187Y-92338636D01*
X144196000Y-92364669D01*
X144255244Y-92364669D01*
X144273602Y-92456963D01*
X144372711Y-92605289D01*
X144846010Y-93078588D01*
X144846010Y-93182410D01*
X144850000Y-93202469D01*
X144850000Y-93471800D01*
X144862000Y-93532129D01*
X144862000Y-93771105D01*
X144869763Y-93810131D01*
X144807200Y-93810131D01*
X144681296Y-93834559D01*
X144575890Y-93903800D01*
X144065140Y-93903800D01*
X144064640Y-93903899D01*
X144064142Y-93903807D01*
X144050096Y-93906792D01*
X144035980Y-93909600D01*
X144035557Y-93909882D01*
X144035060Y-93909988D01*
X144023224Y-93918122D01*
X144011258Y-93926118D01*
X144010974Y-93926541D01*
X144010557Y-93926829D01*
X144002738Y-93938868D01*
X143994740Y-93950840D01*
X143994640Y-93951338D01*
X143994364Y-93951765D01*
X143991747Y-93965885D01*
X143988940Y-93980000D01*
X143989039Y-93980499D01*
X143988947Y-93980998D01*
X143993926Y-94361007D01*
X135152600Y-94361900D01*
X135152600Y-87146600D01*
X144932402Y-87146600D01*
X144932401Y-88991331D01*
X144932401Y-88991331D01*
G37*
X144932401Y-88991331D02*
X144196000Y-88991331D01*
X144070096Y-89015759D01*
X144038439Y-89036554D01*
X144038439Y-88682830D01*
X144014011Y-88556926D01*
X143941320Y-88446268D01*
X143831583Y-88372194D01*
X143701770Y-88346161D01*
X142200630Y-88346161D01*
X142074726Y-88370589D01*
X141964068Y-88443280D01*
X141889994Y-88553017D01*
X141863961Y-88682830D01*
X141863961Y-90183970D01*
X141888389Y-90309874D01*
X141961080Y-90420532D01*
X142070817Y-90494606D01*
X142200630Y-90520639D01*
X142530813Y-90520639D01*
X143137187Y-91127013D01*
X143343196Y-91264664D01*
X143586200Y-91313001D01*
X143586205Y-91313000D01*
X143859331Y-91313000D01*
X143859331Y-92028000D01*
X143883759Y-92153904D01*
X143956450Y-92264562D01*
X144066187Y-92338636D01*
X144196000Y-92364669D01*
X144255244Y-92364669D01*
X144273602Y-92456963D01*
X144372711Y-92605289D01*
X144846010Y-93078588D01*
X144846010Y-93182410D01*
X144850000Y-93202469D01*
X144850000Y-93471800D01*
X144862000Y-93532129D01*
X144862000Y-93771105D01*
X144869763Y-93810131D01*
X144807200Y-93810131D01*
X144681296Y-93834559D01*
X144575890Y-93903800D01*
X144065140Y-93903800D01*
X144064640Y-93903899D01*
X144064142Y-93903807D01*
X144050096Y-93906792D01*
X144035980Y-93909600D01*
X144035557Y-93909882D01*
X144035060Y-93909988D01*
X144023224Y-93918122D01*
X144011258Y-93926118D01*
X144010974Y-93926541D01*
X144010557Y-93926829D01*
X144002738Y-93938868D01*
X143994740Y-93950840D01*
X143994640Y-93951338D01*
X143994364Y-93951765D01*
X143991747Y-93965885D01*
X143988940Y-93980000D01*
X143989039Y-93980499D01*
X143988947Y-93980998D01*
X143993926Y-94361007D01*
X135152600Y-94361900D01*
X135152600Y-87146600D01*
X144932402Y-87146600D01*
X144932401Y-88991331D01*
G36*
X145853990Y-93118541D02*
X145850000Y-93138600D01*
X145850000Y-93471800D01*
X145862000Y-93532129D01*
X145862000Y-93771105D01*
X145884819Y-93885821D01*
X145884908Y-93892173D01*
X145885195Y-93893519D01*
X145884994Y-93894884D01*
X145888293Y-93908023D01*
X145891118Y-93921248D01*
X145891899Y-93922382D01*
X145892235Y-93923720D01*
X145892445Y-93924164D01*
X145895889Y-93941476D01*
X145912231Y-93965933D01*
X146006535Y-94165020D01*
X146014286Y-94175458D01*
X146021518Y-94186282D01*
X146023116Y-94187350D01*
X146024260Y-94188890D01*
X146035417Y-94195568D01*
X146046240Y-94202800D01*
X146048123Y-94203174D01*
X146049771Y-94204161D01*
X146062641Y-94206062D01*
X146075400Y-94208600D01*
X146268464Y-94208600D01*
X146307200Y-94216305D01*
X146345936Y-94208600D01*
X146768464Y-94208600D01*
X146807200Y-94216305D01*
X146845936Y-94208600D01*
X147035516Y-94208600D01*
X147164294Y-94338456D01*
X147164426Y-94338545D01*
X147164518Y-94338682D01*
X147176858Y-94346927D01*
X147188946Y-94355077D01*
X147189103Y-94355109D01*
X147189240Y-94355200D01*
X147203658Y-94358067D01*
X147218082Y-94361000D01*
X147218242Y-94360968D01*
X147218400Y-94361000D01*
X158471400Y-94361000D01*
X158471400Y-105221400D01*
X135152600Y-105221400D01*
X135152600Y-102165101D01*
X139306183Y-102165101D01*
X139408441Y-102412583D01*
X139597622Y-102602094D01*
X139844925Y-102704783D01*
X140112701Y-102705017D01*
X140180507Y-102677000D01*
X141803209Y-102677000D01*
X141841187Y-102702636D01*
X141971000Y-102728669D01*
X143271000Y-102728669D01*
X143396904Y-102704241D01*
X143507562Y-102631550D01*
X143581636Y-102521813D01*
X143607669Y-102392000D01*
X143607669Y-101692000D01*
X143599676Y-101650802D01*
X143801593Y-101650802D01*
X143793331Y-101692000D01*
X143793331Y-102392000D01*
X143817759Y-102517904D01*
X143890450Y-102628562D01*
X144000187Y-102702636D01*
X144130000Y-102728669D01*
X145430000Y-102728669D01*
X145555904Y-102704241D01*
X145666562Y-102631550D01*
X145740636Y-102521813D01*
X145766669Y-102392000D01*
X145766669Y-101692000D01*
X145742241Y-101566096D01*
X145669550Y-101455438D01*
X145559813Y-101381364D01*
X145430000Y-101355331D01*
X145162995Y-101355331D01*
X145155465Y-101317477D01*
X145106636Y-101244400D01*
X146643664Y-101244400D01*
X146754595Y-101355331D01*
X146670000Y-101355331D01*
X146544096Y-101379759D01*
X146433438Y-101452450D01*
X146359364Y-101562187D01*
X146333331Y-101692000D01*
X146333331Y-102392000D01*
X146357759Y-102517904D01*
X146430450Y-102628562D01*
X146540187Y-102702636D01*
X146670000Y-102728669D01*
X147970000Y-102728669D01*
X148095904Y-102704241D01*
X148206562Y-102631550D01*
X148280636Y-102521813D01*
X148306669Y-102392000D01*
X148306669Y-101692000D01*
X148282241Y-101566096D01*
X148209550Y-101455438D01*
X148099813Y-101381364D01*
X147970000Y-101355331D01*
X147726400Y-101355331D01*
X147726400Y-101346000D01*
X147695465Y-101190477D01*
X147692228Y-101185632D01*
X147607368Y-101058631D01*
X147377406Y-100828669D01*
X147970000Y-100828669D01*
X148095904Y-100804241D01*
X148206562Y-100731550D01*
X148280636Y-100621813D01*
X148306669Y-100492000D01*
X148306669Y-99792000D01*
X148282241Y-99666096D01*
X148209550Y-99555438D01*
X148099813Y-99481364D01*
X147970000Y-99455331D01*
X146670000Y-99455331D01*
X146544096Y-99479759D01*
X146502627Y-99507000D01*
X145597791Y-99507000D01*
X145559813Y-99481364D01*
X145430000Y-99455331D01*
X145415000Y-99455331D01*
X145415000Y-99259669D01*
X145473800Y-99259669D01*
X145599704Y-99235241D01*
X145710362Y-99162550D01*
X145784436Y-99052813D01*
X145810469Y-98923000D01*
X145810469Y-98288400D01*
X150270331Y-98288400D01*
X150270331Y-98988400D01*
X150294759Y-99114304D01*
X150367450Y-99224962D01*
X150477187Y-99299036D01*
X150607000Y-99325069D01*
X151907000Y-99325069D01*
X152032904Y-99300641D01*
X152074373Y-99273400D01*
X153316216Y-99273400D01*
X153383125Y-99301183D01*
X153650901Y-99301417D01*
X153898383Y-99199159D01*
X154087894Y-99009978D01*
X154190583Y-98762675D01*
X154190817Y-98494899D01*
X154088559Y-98247417D01*
X153899378Y-98057906D01*
X153652075Y-97955217D01*
X153384299Y-97954983D01*
X153267122Y-98003400D01*
X152074791Y-98003400D01*
X152036813Y-97977764D01*
X151907000Y-97951731D01*
X150607000Y-97951731D01*
X150481096Y-97976159D01*
X150370438Y-98048850D01*
X150296364Y-98158587D01*
X150270331Y-98288400D01*
X145810469Y-98288400D01*
X145810469Y-98036067D01*
X146094568Y-97751968D01*
X146182666Y-97620122D01*
X146213600Y-97464600D01*
X146213600Y-96498826D01*
X146218511Y-96491476D01*
X146252400Y-96321105D01*
X146252400Y-96021800D01*
X146350000Y-96021800D01*
X146362000Y-96082129D01*
X146362000Y-96321105D01*
X146395889Y-96491476D01*
X146492396Y-96635909D01*
X146636829Y-96732416D01*
X146807200Y-96766305D01*
X146977571Y-96732416D01*
X147122004Y-96635909D01*
X147218511Y-96491476D01*
X147220993Y-96479000D01*
X147343622Y-96479000D01*
X147951710Y-97087089D01*
X147958931Y-97091914D01*
X147958931Y-97113800D01*
X147983359Y-97239704D01*
X148056050Y-97350362D01*
X148165787Y-97424436D01*
X148295600Y-97450469D01*
X149595600Y-97450469D01*
X149721504Y-97426041D01*
X149801640Y-97373400D01*
X150439209Y-97373400D01*
X150477187Y-97399036D01*
X150607000Y-97425069D01*
X151907000Y-97425069D01*
X152032904Y-97400641D01*
X152143562Y-97327950D01*
X152217636Y-97218213D01*
X152243669Y-97088400D01*
X152243669Y-96926400D01*
X152481161Y-96926400D01*
X152481161Y-97041970D01*
X152505589Y-97167874D01*
X152578280Y-97278532D01*
X152688017Y-97352606D01*
X152817830Y-97378639D01*
X154318970Y-97378639D01*
X154444874Y-97354211D01*
X154555532Y-97281520D01*
X154629606Y-97171783D01*
X154655639Y-97041970D01*
X154655639Y-95540830D01*
X154631211Y-95414926D01*
X154558520Y-95304268D01*
X154448783Y-95230194D01*
X154318970Y-95204161D01*
X152817830Y-95204161D01*
X152691926Y-95228589D01*
X152581268Y-95301280D01*
X152507194Y-95411017D01*
X152481161Y-95540830D01*
X152481161Y-95656400D01*
X151704000Y-95656400D01*
X151460995Y-95704736D01*
X151378480Y-95759872D01*
X151254987Y-95842387D01*
X151254985Y-95842390D01*
X151045644Y-96051731D01*
X150607000Y-96051731D01*
X150481096Y-96076159D01*
X150439627Y-96103400D01*
X149725763Y-96103400D01*
X149725413Y-96103164D01*
X149595600Y-96077131D01*
X148295600Y-96077131D01*
X148244771Y-96086993D01*
X147856289Y-95698511D01*
X147707963Y-95599402D01*
X147533000Y-95564600D01*
X147220993Y-95564600D01*
X147218511Y-95552124D01*
X147122004Y-95407691D01*
X146977571Y-95311184D01*
X146807200Y-95277295D01*
X146636829Y-95311184D01*
X146492396Y-95407691D01*
X146395889Y-95552124D01*
X146362000Y-95722495D01*
X146362000Y-95961471D01*
X146350000Y-96021800D01*
X146252400Y-96021800D01*
X146252400Y-95722495D01*
X146218511Y-95552124D01*
X146122004Y-95407691D01*
X145977571Y-95311184D01*
X145807200Y-95277295D01*
X145636829Y-95311184D01*
X145557200Y-95364390D01*
X145477571Y-95311184D01*
X145307200Y-95277295D01*
X145136829Y-95311184D01*
X145057200Y-95364390D01*
X144977571Y-95311184D01*
X144807200Y-95277295D01*
X144636829Y-95311184D01*
X144492396Y-95407691D01*
X144395889Y-95552124D01*
X144362000Y-95722495D01*
X144362000Y-95892264D01*
X144191464Y-96062800D01*
X143967200Y-96062800D01*
X143811677Y-96093735D01*
X143679832Y-96181832D01*
X140504832Y-99356832D01*
X140416735Y-99488677D01*
X140385800Y-99644200D01*
X140385800Y-100787200D01*
X140416735Y-100942723D01*
X140450679Y-100993523D01*
X140504832Y-101074568D01*
X140837264Y-101407000D01*
X140229913Y-101407000D01*
X140113875Y-101358817D01*
X139846099Y-101358583D01*
X139598617Y-101460841D01*
X139409106Y-101650022D01*
X139306417Y-101897325D01*
X139306183Y-102165101D01*
X135152600Y-102165101D01*
X135152600Y-94886438D01*
X144321668Y-94869528D01*
X144336051Y-94866639D01*
X144350416Y-94863840D01*
X144350601Y-94863717D01*
X144350817Y-94863674D01*
X144362987Y-94855509D01*
X144375201Y-94847417D01*
X144375324Y-94847234D01*
X144375508Y-94847111D01*
X144383650Y-94834875D01*
X144391814Y-94822759D01*
X144391857Y-94822543D01*
X144391981Y-94822358D01*
X144394830Y-94807892D01*
X144397726Y-94793621D01*
X144397727Y-94793187D01*
X144399978Y-94208600D01*
X144768464Y-94208600D01*
X144807200Y-94216305D01*
X144845936Y-94208600D01*
X145268464Y-94208600D01*
X145307200Y-94216305D01*
X145345936Y-94208600D01*
X145516600Y-94208600D01*
X145527809Y-94206370D01*
X145539186Y-94205177D01*
X145542295Y-94203489D01*
X145545760Y-94202800D01*
X145555264Y-94196449D01*
X145565317Y-94190993D01*
X145567541Y-94188246D01*
X145570482Y-94186282D01*
X145576834Y-94176773D01*
X145584031Y-94167890D01*
X145646377Y-94049433D01*
X145718511Y-93941476D01*
X145752400Y-93771105D01*
X145752400Y-93532129D01*
X145764400Y-93471800D01*
X145764400Y-93186400D01*
X145760410Y-93166341D01*
X145760410Y-93065600D01*
X145853990Y-93065600D01*
X145853990Y-93118541D01*
X145853990Y-93118541D01*
G37*
X145853990Y-93118541D02*
X145850000Y-93138600D01*
X145850000Y-93471800D01*
X145862000Y-93532129D01*
X145862000Y-93771105D01*
X145884819Y-93885821D01*
X145884908Y-93892173D01*
X145885195Y-93893519D01*
X145884994Y-93894884D01*
X145888293Y-93908023D01*
X145891118Y-93921248D01*
X145891899Y-93922382D01*
X145892235Y-93923720D01*
X145892445Y-93924164D01*
X145895889Y-93941476D01*
X145912231Y-93965933D01*
X146006535Y-94165020D01*
X146014286Y-94175458D01*
X146021518Y-94186282D01*
X146023116Y-94187350D01*
X146024260Y-94188890D01*
X146035417Y-94195568D01*
X146046240Y-94202800D01*
X146048123Y-94203174D01*
X146049771Y-94204161D01*
X146062641Y-94206062D01*
X146075400Y-94208600D01*
X146268464Y-94208600D01*
X146307200Y-94216305D01*
X146345936Y-94208600D01*
X146768464Y-94208600D01*
X146807200Y-94216305D01*
X146845936Y-94208600D01*
X147035516Y-94208600D01*
X147164294Y-94338456D01*
X147164426Y-94338545D01*
X147164518Y-94338682D01*
X147176858Y-94346927D01*
X147188946Y-94355077D01*
X147189103Y-94355109D01*
X147189240Y-94355200D01*
X147203658Y-94358067D01*
X147218082Y-94361000D01*
X147218242Y-94360968D01*
X147218400Y-94361000D01*
X158471400Y-94361000D01*
X158471400Y-105221400D01*
X135152600Y-105221400D01*
X135152600Y-102165101D01*
X139306183Y-102165101D01*
X139408441Y-102412583D01*
X139597622Y-102602094D01*
X139844925Y-102704783D01*
X140112701Y-102705017D01*
X140180507Y-102677000D01*
X141803209Y-102677000D01*
X141841187Y-102702636D01*
X141971000Y-102728669D01*
X143271000Y-102728669D01*
X143396904Y-102704241D01*
X143507562Y-102631550D01*
X143581636Y-102521813D01*
X143607669Y-102392000D01*
X143607669Y-101692000D01*
X143599676Y-101650802D01*
X143801593Y-101650802D01*
X143793331Y-101692000D01*
X143793331Y-102392000D01*
X143817759Y-102517904D01*
X143890450Y-102628562D01*
X144000187Y-102702636D01*
X144130000Y-102728669D01*
X145430000Y-102728669D01*
X145555904Y-102704241D01*
X145666562Y-102631550D01*
X145740636Y-102521813D01*
X145766669Y-102392000D01*
X145766669Y-101692000D01*
X145742241Y-101566096D01*
X145669550Y-101455438D01*
X145559813Y-101381364D01*
X145430000Y-101355331D01*
X145162995Y-101355331D01*
X145155465Y-101317477D01*
X145106636Y-101244400D01*
X146643664Y-101244400D01*
X146754595Y-101355331D01*
X146670000Y-101355331D01*
X146544096Y-101379759D01*
X146433438Y-101452450D01*
X146359364Y-101562187D01*
X146333331Y-101692000D01*
X146333331Y-102392000D01*
X146357759Y-102517904D01*
X146430450Y-102628562D01*
X146540187Y-102702636D01*
X146670000Y-102728669D01*
X147970000Y-102728669D01*
X148095904Y-102704241D01*
X148206562Y-102631550D01*
X148280636Y-102521813D01*
X148306669Y-102392000D01*
X148306669Y-101692000D01*
X148282241Y-101566096D01*
X148209550Y-101455438D01*
X148099813Y-101381364D01*
X147970000Y-101355331D01*
X147726400Y-101355331D01*
X147726400Y-101346000D01*
X147695465Y-101190477D01*
X147692228Y-101185632D01*
X147607368Y-101058631D01*
X147377406Y-100828669D01*
X147970000Y-100828669D01*
X148095904Y-100804241D01*
X148206562Y-100731550D01*
X148280636Y-100621813D01*
X148306669Y-100492000D01*
X148306669Y-99792000D01*
X148282241Y-99666096D01*
X148209550Y-99555438D01*
X148099813Y-99481364D01*
X147970000Y-99455331D01*
X146670000Y-99455331D01*
X146544096Y-99479759D01*
X146502627Y-99507000D01*
X145597791Y-99507000D01*
X145559813Y-99481364D01*
X145430000Y-99455331D01*
X145415000Y-99455331D01*
X145415000Y-99259669D01*
X145473800Y-99259669D01*
X145599704Y-99235241D01*
X145710362Y-99162550D01*
X145784436Y-99052813D01*
X145810469Y-98923000D01*
X145810469Y-98288400D01*
X150270331Y-98288400D01*
X150270331Y-98988400D01*
X150294759Y-99114304D01*
X150367450Y-99224962D01*
X150477187Y-99299036D01*
X150607000Y-99325069D01*
X151907000Y-99325069D01*
X152032904Y-99300641D01*
X152074373Y-99273400D01*
X153316216Y-99273400D01*
X153383125Y-99301183D01*
X153650901Y-99301417D01*
X153898383Y-99199159D01*
X154087894Y-99009978D01*
X154190583Y-98762675D01*
X154190817Y-98494899D01*
X154088559Y-98247417D01*
X153899378Y-98057906D01*
X153652075Y-97955217D01*
X153384299Y-97954983D01*
X153267122Y-98003400D01*
X152074791Y-98003400D01*
X152036813Y-97977764D01*
X151907000Y-97951731D01*
X150607000Y-97951731D01*
X150481096Y-97976159D01*
X150370438Y-98048850D01*
X150296364Y-98158587D01*
X150270331Y-98288400D01*
X145810469Y-98288400D01*
X145810469Y-98036067D01*
X146094568Y-97751968D01*
X146182666Y-97620122D01*
X146213600Y-97464600D01*
X146213600Y-96498826D01*
X146218511Y-96491476D01*
X146252400Y-96321105D01*
X146252400Y-96021800D01*
X146350000Y-96021800D01*
X146362000Y-96082129D01*
X146362000Y-96321105D01*
X146395889Y-96491476D01*
X146492396Y-96635909D01*
X146636829Y-96732416D01*
X146807200Y-96766305D01*
X146977571Y-96732416D01*
X147122004Y-96635909D01*
X147218511Y-96491476D01*
X147220993Y-96479000D01*
X147343622Y-96479000D01*
X147951710Y-97087089D01*
X147958931Y-97091914D01*
X147958931Y-97113800D01*
X147983359Y-97239704D01*
X148056050Y-97350362D01*
X148165787Y-97424436D01*
X148295600Y-97450469D01*
X149595600Y-97450469D01*
X149721504Y-97426041D01*
X149801640Y-97373400D01*
X150439209Y-97373400D01*
X150477187Y-97399036D01*
X150607000Y-97425069D01*
X151907000Y-97425069D01*
X152032904Y-97400641D01*
X152143562Y-97327950D01*
X152217636Y-97218213D01*
X152243669Y-97088400D01*
X152243669Y-96926400D01*
X152481161Y-96926400D01*
X152481161Y-97041970D01*
X152505589Y-97167874D01*
X152578280Y-97278532D01*
X152688017Y-97352606D01*
X152817830Y-97378639D01*
X154318970Y-97378639D01*
X154444874Y-97354211D01*
X154555532Y-97281520D01*
X154629606Y-97171783D01*
X154655639Y-97041970D01*
X154655639Y-95540830D01*
X154631211Y-95414926D01*
X154558520Y-95304268D01*
X154448783Y-95230194D01*
X154318970Y-95204161D01*
X152817830Y-95204161D01*
X152691926Y-95228589D01*
X152581268Y-95301280D01*
X152507194Y-95411017D01*
X152481161Y-95540830D01*
X152481161Y-95656400D01*
X151704000Y-95656400D01*
X151460995Y-95704736D01*
X151378480Y-95759872D01*
X151254987Y-95842387D01*
X151254985Y-95842390D01*
X151045644Y-96051731D01*
X150607000Y-96051731D01*
X150481096Y-96076159D01*
X150439627Y-96103400D01*
X149725763Y-96103400D01*
X149725413Y-96103164D01*
X149595600Y-96077131D01*
X148295600Y-96077131D01*
X148244771Y-96086993D01*
X147856289Y-95698511D01*
X147707963Y-95599402D01*
X147533000Y-95564600D01*
X147220993Y-95564600D01*
X147218511Y-95552124D01*
X147122004Y-95407691D01*
X146977571Y-95311184D01*
X146807200Y-95277295D01*
X146636829Y-95311184D01*
X146492396Y-95407691D01*
X146395889Y-95552124D01*
X146362000Y-95722495D01*
X146362000Y-95961471D01*
X146350000Y-96021800D01*
X146252400Y-96021800D01*
X146252400Y-95722495D01*
X146218511Y-95552124D01*
X146122004Y-95407691D01*
X145977571Y-95311184D01*
X145807200Y-95277295D01*
X145636829Y-95311184D01*
X145557200Y-95364390D01*
X145477571Y-95311184D01*
X145307200Y-95277295D01*
X145136829Y-95311184D01*
X145057200Y-95364390D01*
X144977571Y-95311184D01*
X144807200Y-95277295D01*
X144636829Y-95311184D01*
X144492396Y-95407691D01*
X144395889Y-95552124D01*
X144362000Y-95722495D01*
X144362000Y-95892264D01*
X144191464Y-96062800D01*
X143967200Y-96062800D01*
X143811677Y-96093735D01*
X143679832Y-96181832D01*
X140504832Y-99356832D01*
X140416735Y-99488677D01*
X140385800Y-99644200D01*
X140385800Y-100787200D01*
X140416735Y-100942723D01*
X140450679Y-100993523D01*
X140504832Y-101074568D01*
X140837264Y-101407000D01*
X140229913Y-101407000D01*
X140113875Y-101358817D01*
X139846099Y-101358583D01*
X139598617Y-101460841D01*
X139409106Y-101650022D01*
X139306417Y-101897325D01*
X139306183Y-102165101D01*
X135152600Y-102165101D01*
X135152600Y-94886438D01*
X144321668Y-94869528D01*
X144336051Y-94866639D01*
X144350416Y-94863840D01*
X144350601Y-94863717D01*
X144350817Y-94863674D01*
X144362987Y-94855509D01*
X144375201Y-94847417D01*
X144375324Y-94847234D01*
X144375508Y-94847111D01*
X144383650Y-94834875D01*
X144391814Y-94822759D01*
X144391857Y-94822543D01*
X144391981Y-94822358D01*
X144394830Y-94807892D01*
X144397726Y-94793621D01*
X144397727Y-94793187D01*
X144399978Y-94208600D01*
X144768464Y-94208600D01*
X144807200Y-94216305D01*
X144845936Y-94208600D01*
X145268464Y-94208600D01*
X145307200Y-94216305D01*
X145345936Y-94208600D01*
X145516600Y-94208600D01*
X145527809Y-94206370D01*
X145539186Y-94205177D01*
X145542295Y-94203489D01*
X145545760Y-94202800D01*
X145555264Y-94196449D01*
X145565317Y-94190993D01*
X145567541Y-94188246D01*
X145570482Y-94186282D01*
X145576834Y-94176773D01*
X145584031Y-94167890D01*
X145646377Y-94049433D01*
X145718511Y-93941476D01*
X145752400Y-93771105D01*
X145752400Y-93532129D01*
X145764400Y-93471800D01*
X145764400Y-93186400D01*
X145760410Y-93166341D01*
X145760410Y-93065600D01*
X145853990Y-93065600D01*
X145853990Y-93118541D01*
G36*
X148785013Y-91127013D02*
X149115213Y-90796813D01*
X149252864Y-90590805D01*
X149287030Y-90419039D01*
X149416770Y-90419039D01*
X149542674Y-90394611D01*
X149653332Y-90321920D01*
X149727406Y-90212183D01*
X149753439Y-90082370D01*
X149753439Y-88581230D01*
X149729011Y-88455326D01*
X149656320Y-88344668D01*
X149546583Y-88270594D01*
X149416770Y-88244561D01*
X147915630Y-88244561D01*
X147789726Y-88268989D01*
X147679068Y-88341680D01*
X147604994Y-88451417D01*
X147578961Y-88581230D01*
X147578961Y-89053240D01*
X147525813Y-89017364D01*
X147396000Y-88991331D01*
X146634200Y-88991331D01*
X146634200Y-87146600D01*
X158471400Y-87146600D01*
X158471400Y-94005400D01*
X147499488Y-94005400D01*
X147317632Y-93857399D01*
X147307875Y-93852235D01*
X147298693Y-93846100D01*
X147294832Y-93845332D01*
X147291354Y-93843491D01*
X147280361Y-93842453D01*
X147269533Y-93840300D01*
X146943140Y-93840300D01*
X146937013Y-93836164D01*
X146807200Y-93810131D01*
X146744637Y-93810131D01*
X146752400Y-93771105D01*
X146752400Y-93532129D01*
X146764400Y-93471800D01*
X146764400Y-93154669D01*
X146768390Y-93134610D01*
X146768390Y-93056188D01*
X147219289Y-92605289D01*
X147318398Y-92456963D01*
X147336756Y-92364669D01*
X147396000Y-92364669D01*
X147521904Y-92340241D01*
X147632562Y-92267550D01*
X147706636Y-92157813D01*
X147732669Y-92028000D01*
X147732669Y-91313000D01*
X148336000Y-91313000D01*
X148579004Y-91264664D01*
X148785013Y-91127013D01*
X148785013Y-91127013D01*
G37*
X148785013Y-91127013D02*
X149115213Y-90796813D01*
X149252864Y-90590805D01*
X149287030Y-90419039D01*
X149416770Y-90419039D01*
X149542674Y-90394611D01*
X149653332Y-90321920D01*
X149727406Y-90212183D01*
X149753439Y-90082370D01*
X149753439Y-88581230D01*
X149729011Y-88455326D01*
X149656320Y-88344668D01*
X149546583Y-88270594D01*
X149416770Y-88244561D01*
X147915630Y-88244561D01*
X147789726Y-88268989D01*
X147679068Y-88341680D01*
X147604994Y-88451417D01*
X147578961Y-88581230D01*
X147578961Y-89053240D01*
X147525813Y-89017364D01*
X147396000Y-88991331D01*
X146634200Y-88991331D01*
X146634200Y-87146600D01*
X158471400Y-87146600D01*
X158471400Y-94005400D01*
X147499488Y-94005400D01*
X147317632Y-93857399D01*
X147307875Y-93852235D01*
X147298693Y-93846100D01*
X147294832Y-93845332D01*
X147291354Y-93843491D01*
X147280361Y-93842453D01*
X147269533Y-93840300D01*
X146943140Y-93840300D01*
X146937013Y-93836164D01*
X146807200Y-93810131D01*
X146744637Y-93810131D01*
X146752400Y-93771105D01*
X146752400Y-93532129D01*
X146764400Y-93471800D01*
X146764400Y-93154669D01*
X146768390Y-93134610D01*
X146768390Y-93056188D01*
X147219289Y-92605289D01*
X147318398Y-92456963D01*
X147336756Y-92364669D01*
X147396000Y-92364669D01*
X147521904Y-92340241D01*
X147632562Y-92267550D01*
X147706636Y-92157813D01*
X147732669Y-92028000D01*
X147732669Y-91313000D01*
X148336000Y-91313000D01*
X148579004Y-91264664D01*
X148785013Y-91127013D01*
M02*
