G04 #@! TF.FileFunction,Soldermask,Top*
%FSLAX46Y46*%
G04 Gerber Fmt 4.6, Leading zero omitted, Abs format (unit mm)*
G04 Created by KiCad (PCBNEW 0.201508140901+6091~28~ubuntu14.04.1-product) date Thu 22 Oct 2015 10:39:48 PM CEST*
%MOMM*%
G01*
G04 APERTURE LIST*
%ADD10C,0.127000*%
%ADD11R,2.500000X1.000000*%
%ADD12R,1.000000X1.250000*%
%ADD13R,1.000000X2.700000*%
%ADD14R,2.032000X2.032000*%
%ADD15O,2.032000X2.032000*%
%ADD16R,2.235200X2.235200*%
%ADD17R,1.300000X0.700000*%
%ADD18R,1.501140X1.501140*%
%ADD19O,0.230000X0.800000*%
%ADD20R,2.000000X1.200000*%
%ADD21C,0.500000*%
%ADD22R,1.600000X1.000000*%
G04 APERTURE END LIST*
D10*
D11*
X149402800Y-92149800D03*
X149402800Y-95149800D03*
D12*
X144973800Y-98298000D03*
X146973800Y-98298000D03*
D13*
X144696000Y-89789000D03*
X146896000Y-89789000D03*
D14*
X136779000Y-93345000D03*
D15*
X136779000Y-95885000D03*
D14*
X156845000Y-92964000D03*
D15*
X156845000Y-95504000D03*
D16*
X136779000Y-99568000D03*
X156845000Y-99314000D03*
X136779000Y-89662000D03*
X156718000Y-89281000D03*
D17*
X151257000Y-98638400D03*
X151257000Y-96738400D03*
X148945600Y-96763800D03*
X148945600Y-98663800D03*
X142621000Y-100142000D03*
X142621000Y-102042000D03*
X144780000Y-102042000D03*
X144780000Y-100142000D03*
X147320000Y-102042000D03*
X147320000Y-100142000D03*
D18*
X142494000Y-89027000D03*
X149098000Y-89154000D03*
X152781000Y-95250000D03*
D19*
X146807200Y-93471800D03*
X146307200Y-93471800D03*
X145807200Y-93471800D03*
X145307200Y-93471800D03*
X144807200Y-93471800D03*
X144807200Y-96021800D03*
X145307200Y-96021800D03*
X145807200Y-96021800D03*
X146307200Y-96021800D03*
X146807200Y-96021800D03*
D20*
X145807200Y-94746800D03*
D21*
X146507200Y-95046800D03*
X145807200Y-94746800D03*
X145107200Y-95046800D03*
X145107200Y-94446800D03*
X146507200Y-94446800D03*
D22*
X141732000Y-92988000D03*
X141732000Y-95988000D03*
M02*
