M48
;DRILL file {KiCad 0.201508140901+6091~28~ubuntu14.04.1-product} date Thu 22 Oct 2015 10:51:23 PM CEST
;FORMAT={2:4/ absolute / inch / suppress trailing zeros}
FMAT,2
INCH,LZ
T1C0.012
T2C0.013
T3C0.013
T4C0.040
%
G90
G05
M72
T1
X05345Y-04075
X0538Y-040075
X0538Y-04115
X0541Y-04065
X0544Y-0412
X05445Y-0401
X0547Y-04065
X055Y-0411
X05545Y-0407
X05565Y-0385
X0558Y-0411
X0562Y-0407
X0565Y-0389
X05655Y-0411
X0566Y-0377
X057Y-0407
X05735Y-0411
X05775Y-0407
X0581Y-0411
X058701Y-039409
X058701Y-040197
X058701Y-040984
X0591Y-0398
X0591Y-04065
X059488Y-039409
X059488Y-040197
X059488Y-040984
X0599Y-03985
X0599Y-04055
X060276Y-039409
X060276Y-040197
X060276Y-040984
X0607Y-0398
X0607Y-04055
X061063Y-040197
X061063Y-040984
X06145Y-0406
X06185Y-040197
X06185Y-040984
T2
X057129Y-037184
X057129Y-03742
X057404Y-037302
X05768Y-037184
X05768Y-03742
T3
X05511Y-04017
X06044Y-03883
T4
X05385Y-0353
X05385Y-03675
X05385Y-03775
X05385Y-0392
X0617Y-03515
X06175Y-0366
X06175Y-0376
X06175Y-0391
T0
M30
