M48
;DRILL file {KiCad no-vcs-found-product} date Fri 28 Aug 2015 16:29:47 CEST
;FORMAT={2:4/ absolute / inch / suppress leading zeros}
FMAT,2
INCH,TZ
T1C0.012
T2C0.013
T3C0.013
T4C0.040
%
G90
G05
M72
T1
X53425Y-40157
X53425Y-40551
X53425Y-40945
X53819Y-40157
X53819Y-40551
X53819Y-40945
X54213Y-40157
X54213Y-40551
X54213Y-40945
X54606Y-40157
X54606Y-40551
X54606Y-40945
X55000Y-40551
X55000Y-40945
X55394Y-40551
X55394Y-40945
X55551Y-38150
X55551Y-38543
X55787Y-40551
X55787Y-40945
X55945Y-38150
X56181Y-40551
X56181Y-40945
X56575Y-40551
X56575Y-40945
X56969Y-40551
X56969Y-40945
X57362Y-40551
X57362Y-40945
X57756Y-40551
X57756Y-40945
X58150Y-40551
X58150Y-40945
X58701Y-39409
X58701Y-39803
X58701Y-40197
X58701Y-40591
X58701Y-40984
X59094Y-39409
X59094Y-39803
X59094Y-40197
X59094Y-40591
X59094Y-40984
X59488Y-39409
X59488Y-39803
X59488Y-40197
X59488Y-40591
X59488Y-40984
X59882Y-39409
X59882Y-39803
X59882Y-40197
X59882Y-40591
X59882Y-40984
X60276Y-39409
X60276Y-39803
X60276Y-40197
X60276Y-40591
X60276Y-40984
X60669Y-39409
X60669Y-39803
X60669Y-40197
X60669Y-40591
X60669Y-40984
X61063Y-39409
X61063Y-39803
X61063Y-40197
X61063Y-40591
X61063Y-40984
X61457Y-39803
X61457Y-40197
X61457Y-40591
X61457Y-40984
X61850Y-39803
X61850Y-40197
X61850Y-40591
X61850Y-40984
T2
X57129Y-37184
X57129Y-37420
X57404Y-37302
X57680Y-37184
X57680Y-37420
T3
X55110Y-40170
X60440Y-38830
T4
X53850Y-35300
X53850Y-36750
X53850Y-37750
X53850Y-39200
X61700Y-35150
X61750Y-36600
X61750Y-37600
X61750Y-39100
T0
M30
